M48
;DRILL file {KiCad (5.0.0-rc2-dev-158-g52ab6216c)} date 03/09/18 12:59:19
;FORMAT={-:-/ absolute / inch / decimal}
FMAT,2
INCH,TZ
T1C0.0157
T2C0.0295
T3C0.0380
T4C0.0394
T5C0.0433
%
G90
G05
M72
T1
X0.8871Y-2.9623
X0.9097Y-1.7378
X0.9995Y-3.1275
X1.0556Y-3.4517
X1.0585Y-2.4379
X1.0686Y-3.225
X1.0691Y-3.2954
X1.0705Y-2.8386
X1.2624Y-1.7386
X1.2655Y-2.9623
X1.2725Y-2.6381
X1.2934Y-2.3957
X1.3264Y-2.7611
X1.3487Y-4.2244
X1.4117Y-2.8638
X1.4199Y-3.0446
X1.4588Y-4.1639
X1.5174Y-2.4381
X1.5381Y-3.9717
X1.5513Y-3.9141
X1.5801Y-4.0831
X1.587Y-3.035
X1.7145Y-3.5002
X1.7756Y-1.7378
X1.7876Y-2.962
X1.9012Y-3.3693
X1.9362Y-3.5063
X2.0657Y-2.453
X2.1477Y-4.401
X2.16Y-2.495
X2.2355Y-3.0507
X2.2847Y-2.4345
X2.4876Y-2.8381
X2.5Y-2.4218
X2.6411Y-3.5462
X2.724Y-2.9667
X2.9231Y-3.175
X2.9279Y-1.8907
X2.9381Y-3.4138
X2.9422Y-2.4218
X3.0102Y-3.4271
X3.0876Y-2.4349
X3.1072Y-3.0238
X3.1522Y-3.3797
X3.2388Y-2.9
X3.3622Y-2.4386
X3.4365Y-2.8547
X3.4989Y-2.8409
X3.5559Y-2.5069
X3.571Y-3.4358
X3.7268Y-3.0109
X3.8071Y-2.8314
X3.8423Y-3.4307
X3.8689Y-3.2028
X3.894Y-1.9032
X3.9167Y-3.325
X4.0102Y-2.9033
X4.069Y-2.5694
X4.088Y-3.3803
X4.0909Y-1.7379
X4.2497Y-4.0431
X4.2804Y-2.9613
X4.2876Y-4.0124
X4.3469Y-2.5616
X4.4484Y-4.4665
X4.5108Y-2.4145
X4.5451Y-1.7378
X4.565Y-2.8381
X4.6063Y-3.8433
X4.6749Y-2.8176
X4.6755Y-4.0119
X4.685Y-3.3745
X4.7777Y-2.8375
X4.8286Y-2.5535
X4.8456Y-3.9865
X4.8549Y-4.4665
X4.9259Y-2.503
X4.9481Y-2.9873
X5.0226Y-4.3777
X5.0414Y-2.6376
X5.1254Y-2.3926
X5.2448Y-2.8388
X5.2983Y-1.9063
X5.339Y-2.4966
X5.5628Y-3.045
X5.583Y-3.9769
X5.8226Y-2.3912
X5.9163Y-2.9933
X6.0019Y-3.0813
X6.0137Y-2.434
X6.1239Y-3.0747
X6.1905Y-1.9078
X6.2236Y-2.4145
X6.2272Y-3.96
X6.2673Y-3.4462
X6.3984Y-3.6878
X6.4106Y-3.594
X6.504Y-2.9995
X6.5183Y-2.8383
X6.5902Y-4.1665
X6.633Y-3.8127
X6.6723Y-3.175
X6.6851Y-2.8343
X6.7Y-1.9066
X6.7Y-4.3134
X6.7019Y-2.4145
X6.8032Y-3.485
X6.8618Y-3.9277
X6.9024Y-1.7416
X6.9376Y-2.9611
X6.9617Y-4.1125
X7.0292Y-2.9664
X7.0339Y-3.8211
X7.0925Y-4.0387
X7.1575Y-2.3971
X7.1578Y-3.15
X7.1596Y-4.4252
X7.1789Y-3.4303
X7.3214Y-3.129
X7.3512Y-1.7423
X7.5805Y-3.4302
X7.5971Y-3.2629
X7.6074Y-2.3971
X7.6574Y-3.4302
X7.7129Y-3.4302
X7.8231Y-2.6362
X7.8876Y-2.7624
X7.8876Y-2.9612
X7.9143Y-3.0658
X7.9252Y-2.3922
X7.99Y-3.6658
X8.025Y-3.582
X8.067Y-2.8389
X8.1Y-1.9075
X8.1025Y-2.3989
X8.121Y-3.4443
X8.136Y-3.34
X8.1387Y-2.5
X8.2742Y-2.638
X8.2821Y-2.3929
X8.3262Y-1.8616
X8.349Y-2.9619
X8.3936Y-3.3849
X8.4586Y-3.5
X8.5611Y-2.4145
X8.5631Y-3.1582
X8.5892Y-2.9
X8.5898Y-2.5109
X8.7359Y-2.7617
X8.75Y-1.7439
X8.8059Y-3.0815
X8.9703Y-2.5628
X8.9854Y-2.962
T2
X7.5Y-1.6
X7.55Y-1.55
X6.6Y-1.6
X3.8Y-1.6
X3.85Y-1.55
X3.9Y-1.6
X4.7Y-1.6
X4.75Y-1.55
X4.8Y-1.6
X2.4Y-1.6
X5.2Y-1.6
X5.25Y-1.55
X5.3Y-1.6
X4.25Y-1.6
X4.3Y-1.55
X4.35Y-1.6
X3.3Y-1.6
X3.35Y-1.55
X3.4Y-1.6
X2.85Y-1.6
X2.9Y-1.55
X2.95Y-1.6
X1.05Y-1.55
X1.1Y-1.6
X7.6Y-1.6
X1.Y-1.6
X6.65Y-1.55
X6.7Y-1.6
X8.95Y-1.55
X1.9Y-1.6
X1.95Y-1.55
X2.Y-1.6
X1.5Y-1.55
X1.55Y-1.6
X2.5Y-1.6
X1.45Y-1.6
X6.1Y-1.6
X6.15Y-1.55
X6.2Y-1.6
X8.9Y-1.6
X2.45Y-1.55
X5.65Y-1.6
X5.7Y-1.55
X5.75Y-1.6
X8.45Y-1.6
X8.5Y-1.55
X8.55Y-1.6
X8.1Y-1.6
X7.1Y-1.55
X8.05Y-1.55
X7.05Y-1.6
X7.15Y-1.6
X8.Y-1.6
X9.Y-1.6
T3
X7.44Y-3.85
X7.44Y-3.95
X7.44Y-4.05
X7.44Y-4.15
T4
X6.55Y-4.4
X6.65Y-4.4
X1.5Y-0.9
X1.6Y-0.9
X6.75Y-4.4
X1.7Y-0.9
X1.8Y-0.9
X1.9Y-0.9
X2.Y-0.9
X2.1Y-0.9
X2.2Y-0.9
X2.3Y-0.9
X2.4Y-0.9
X2.5Y-0.9
X2.6Y-0.9
X2.7Y-0.9
X2.8Y-0.9
X2.9Y-0.9
X3.Y-0.9
X3.1Y-0.9
X3.2Y-0.9
X5.Y-0.9
X5.1Y-0.9
X5.2Y-0.9
X5.3Y-0.9
X5.4Y-0.9
X5.45Y-3.75
X5.45Y-3.85
X5.45Y-3.95
X6.85Y-4.4
X6.95Y-4.4
X7.05Y-4.4
X4.05Y-4.4
X4.15Y-4.4
X4.25Y-4.4
X4.35Y-4.4
X4.45Y-4.4
X4.55Y-4.4
X4.65Y-4.4
X4.75Y-4.4
X4.85Y-4.4
X4.95Y-4.4
X5.65Y-4.4
X5.75Y-4.4
X5.85Y-4.4
X5.95Y-4.4
X5.5Y-0.9
X5.6Y-0.9
X5.7Y-0.9
X5.8Y-0.9
X5.9Y-0.9
X6.Y-0.9
X6.1Y-0.9
X6.2Y-0.9
X6.3Y-0.9
X6.4Y-0.9
X6.5Y-0.9
X6.6Y-0.9
X6.7Y-0.9
T5
X1.5Y-3.7
X1.5Y-4.3
X1.6Y-3.7
X1.6Y-3.8
X1.6Y-4.3
X1.7Y-3.7
X1.7Y-4.3
X1.75Y-4.1819
X1.8Y-3.7
X1.8Y-3.8
X1.8Y-4.3
X1.85Y-4.1819
X1.9Y-3.7
X1.9Y-3.8
X1.9Y-4.3
X1.95Y-4.1819
X2.Y-3.7
X2.Y-3.8
X2.Y-4.3
X2.05Y-4.1819
X2.1Y-3.7
X2.1Y-3.9
X2.1Y-4.
X2.1Y-4.3
X2.15Y-4.1819
X2.2Y-3.7
X2.2Y-3.9
X2.2Y-4.
X2.2Y-4.3
X2.3Y-3.7
X2.3Y-3.9
X2.3Y-4.
X2.3Y-4.3
X2.4Y-3.7
X2.4Y-3.9
X2.4Y-4.
X2.4Y-4.3
X2.5Y-3.7
X2.5Y-4.3
X2.6Y-3.7
X2.6Y-4.3
X2.7Y-3.7
X2.7Y-4.3
X2.8Y-3.7
X2.8Y-4.3
X2.9Y-3.7
X2.9Y-4.3
X3.Y-3.7
X3.Y-3.9
X3.Y-4.
X3.Y-4.3
X3.1Y-3.7
X3.1Y-3.9
X3.1Y-4.
X3.1Y-4.3
X3.2Y-3.7
X3.2Y-3.9
X3.2Y-4.
X3.2Y-4.3
X3.3Y-3.7
X3.3Y-3.8
X3.3Y-3.9
X3.3Y-4.
X3.3Y-4.1
X3.3Y-4.2
X3.3Y-4.3
X3.4Y-3.7
X3.4Y-3.9
X3.4Y-4.
X3.4Y-4.3
X3.5Y-3.7
X3.5Y-3.9
X3.5Y-4.
X3.5Y-4.3
X3.6Y-3.7
X3.6Y-3.9
X3.6Y-4.
X3.6Y-4.3
X3.7Y-3.7
X3.7Y-3.9
X3.7Y-4.
X3.7Y-4.3
X3.8Y-3.7
X3.8Y-3.9
X3.8Y-4.
X3.8Y-4.3
T0
M30
