G04 #@! TF.GenerationSoftware,KiCad,Pcbnew,(5.0.0-rc2-dev-158-g52ab6216c)*
G04 #@! TF.CreationDate,2018-03-09T12:59:15-06:00*
G04 #@! TF.ProjectId,Hybrid_bat_measure_18CH_v0.4_Teensy3.5,4879627269645F6261745F6D65617375,rev?*
G04 #@! TF.SameCoordinates,Original*
G04 #@! TF.FileFunction,Copper,L1,Top,Signal*
G04 #@! TF.FilePolarity,Positive*
%FSLAX46Y46*%
G04 Gerber Fmt 4.6, Leading zero omitted, Abs format (unit mm)*
G04 Created by KiCad (PCBNEW (5.0.0-rc2-dev-158-g52ab6216c)) date 03/09/18 12:59:15*
%MOMM*%
%LPD*%
G01*
G04 APERTURE LIST*
%ADD10C,0.381000*%
%ADD11R,0.970000X1.500000*%
%ADD12R,0.600000X0.450000*%
%ADD13C,1.600000*%
%ADD14R,1.600000X1.600000*%
%ADD15O,1.700000X1.700000*%
%ADD16R,1.700000X1.700000*%
%ADD17R,1.252000X2.000000*%
%ADD18R,1.784000X2.000000*%
%ADD19R,1.550000X0.600000*%
%ADD20R,1.300000X1.300000*%
%ADD21C,1.300000*%
%ADD22R,2.600000X1.600000*%
%ADD23R,1.500000X0.970000*%
%ADD24C,1.500000*%
%ADD25C,1.397000*%
%ADD26R,1.800000X1.800000*%
%ADD27O,1.800000X1.800000*%
%ADD28R,0.900000X1.700000*%
%ADD29C,0.800000*%
%ADD30C,1.000000*%
%ADD31C,0.250000*%
%ADD32C,0.750000*%
G04 APERTURE END LIST*
D10*
X120777000Y-26162000D02*
X120777000Y-26543000D01*
X120777000Y-26543000D02*
X120904000Y-26543000D01*
X119888000Y-25273000D02*
X120777000Y-26162000D01*
X120777000Y-26162000D02*
X121031000Y-26162000D01*
X115189000Y-22098000D02*
X114808000Y-22225000D01*
X115189000Y-22098000D02*
X115189000Y-21717000D01*
X115697000Y-22479000D02*
X115189000Y-22098000D01*
X115443000Y-26162000D02*
X115443000Y-26670000D01*
X115443000Y-26162000D02*
X115062000Y-26162000D01*
X116459000Y-25273000D02*
X115443000Y-26162000D01*
X121031000Y-21971000D02*
X121539000Y-21844000D01*
X121031000Y-21971000D02*
X121031000Y-21463000D01*
X120396000Y-22479000D02*
X121031000Y-21971000D01*
X118237000Y-25400000D02*
X118237000Y-25654000D01*
X117602000Y-25273000D02*
X118745000Y-25273000D01*
X118745000Y-25273000D02*
X118745000Y-25781000D01*
X118745000Y-25781000D02*
X117602000Y-25781000D01*
X117602000Y-25781000D02*
X117602000Y-25273000D01*
X117377981Y-23749000D02*
G75*
G03X117377981Y-23749000I-283981J0D01*
G01*
X119409981Y-23749000D02*
G75*
G03X119409981Y-23749000I-283981J0D01*
G01*
X118110000Y-23749000D02*
X118364000Y-24511000D01*
X118364000Y-24511000D02*
X117856000Y-24511000D01*
X117856000Y-24511000D02*
X118110000Y-23749000D01*
X117094000Y-26035000D02*
X117221000Y-26289000D01*
X117221000Y-26289000D02*
X117475000Y-26543000D01*
X117475000Y-26543000D02*
X117856000Y-26670000D01*
X119253000Y-24892000D02*
X119253000Y-25654000D01*
X119253000Y-25654000D02*
X119253000Y-26035000D01*
X119253000Y-26035000D02*
X119126000Y-26416000D01*
X119126000Y-26416000D02*
X118745000Y-26543000D01*
X118745000Y-26543000D02*
X118237000Y-26670000D01*
X118237000Y-26670000D02*
X117856000Y-26670000D01*
X117094000Y-26035000D02*
X117094000Y-25654000D01*
X117094000Y-25654000D02*
X117094000Y-24892000D01*
X115570000Y-24130000D02*
X115697000Y-24384000D01*
X115697000Y-24384000D02*
X115824000Y-24638000D01*
X115824000Y-24638000D02*
X116332000Y-24765000D01*
X116332000Y-24765000D02*
X116967000Y-24892000D01*
X116967000Y-24892000D02*
X117348000Y-24892000D01*
X115570000Y-24130000D02*
X115570000Y-23876000D01*
X115570000Y-23876000D02*
X115697000Y-23368000D01*
X115697000Y-23368000D02*
X115951000Y-22733000D01*
X115951000Y-22733000D02*
X116459000Y-22225000D01*
X116459000Y-22225000D02*
X117094000Y-21844000D01*
X117094000Y-21844000D02*
X117729000Y-21590000D01*
X117729000Y-21590000D02*
X118237000Y-21590000D01*
X118237000Y-21590000D02*
X118872000Y-21717000D01*
X118872000Y-21717000D02*
X119507000Y-21971000D01*
X119507000Y-21971000D02*
X120015000Y-22479000D01*
X120015000Y-22479000D02*
X120269000Y-22860000D01*
X120269000Y-22860000D02*
X120523000Y-23368000D01*
X120523000Y-23368000D02*
X120650000Y-23749000D01*
X120650000Y-23749000D02*
X120650000Y-24130000D01*
X120650000Y-24130000D02*
X120523000Y-24511000D01*
X120523000Y-24511000D02*
X120269000Y-24638000D01*
X120269000Y-24638000D02*
X119761000Y-24892000D01*
X119761000Y-24892000D02*
X119380000Y-24892000D01*
X119380000Y-24892000D02*
X118999000Y-24892000D01*
X31750000Y-24892000D02*
X31369000Y-24892000D01*
X32131000Y-24892000D02*
X31750000Y-24892000D01*
X32639000Y-24638000D02*
X32131000Y-24892000D01*
X32893000Y-24511000D02*
X32639000Y-24638000D01*
X33020000Y-24130000D02*
X32893000Y-24511000D01*
X33020000Y-23749000D02*
X33020000Y-24130000D01*
X32893000Y-23368000D02*
X33020000Y-23749000D01*
X32639000Y-22860000D02*
X32893000Y-23368000D01*
X32385000Y-22479000D02*
X32639000Y-22860000D01*
X31877000Y-21971000D02*
X32385000Y-22479000D01*
X31242000Y-21717000D02*
X31877000Y-21971000D01*
X30607000Y-21590000D02*
X31242000Y-21717000D01*
X30099000Y-21590000D02*
X30607000Y-21590000D01*
X29464000Y-21844000D02*
X30099000Y-21590000D01*
X28829000Y-22225000D02*
X29464000Y-21844000D01*
X28321000Y-22733000D02*
X28829000Y-22225000D01*
X28067000Y-23368000D02*
X28321000Y-22733000D01*
X27940000Y-23876000D02*
X28067000Y-23368000D01*
X27940000Y-24130000D02*
X27940000Y-23876000D01*
X29337000Y-24892000D02*
X29718000Y-24892000D01*
X28702000Y-24765000D02*
X29337000Y-24892000D01*
X28194000Y-24638000D02*
X28702000Y-24765000D01*
X28067000Y-24384000D02*
X28194000Y-24638000D01*
X27940000Y-24130000D02*
X28067000Y-24384000D01*
X29464000Y-25654000D02*
X29464000Y-24892000D01*
X29464000Y-26035000D02*
X29464000Y-25654000D01*
X30607000Y-26670000D02*
X30226000Y-26670000D01*
X31115000Y-26543000D02*
X30607000Y-26670000D01*
X31496000Y-26416000D02*
X31115000Y-26543000D01*
X31623000Y-26035000D02*
X31496000Y-26416000D01*
X31623000Y-25654000D02*
X31623000Y-26035000D01*
X31623000Y-24892000D02*
X31623000Y-25654000D01*
X29845000Y-26543000D02*
X30226000Y-26670000D01*
X29591000Y-26289000D02*
X29845000Y-26543000D01*
X29464000Y-26035000D02*
X29591000Y-26289000D01*
X30226000Y-24511000D02*
X30480000Y-23749000D01*
X30734000Y-24511000D02*
X30226000Y-24511000D01*
X30480000Y-23749000D02*
X30734000Y-24511000D01*
X31779981Y-23749000D02*
G75*
G03X31779981Y-23749000I-283981J0D01*
G01*
X29747981Y-23749000D02*
G75*
G03X29747981Y-23749000I-283981J0D01*
G01*
X29972000Y-25781000D02*
X29972000Y-25273000D01*
X31115000Y-25781000D02*
X29972000Y-25781000D01*
X31115000Y-25273000D02*
X31115000Y-25781000D01*
X29972000Y-25273000D02*
X31115000Y-25273000D01*
X30607000Y-25400000D02*
X30607000Y-25654000D01*
X32766000Y-22479000D02*
X33401000Y-21971000D01*
X33401000Y-21971000D02*
X33401000Y-21463000D01*
X33401000Y-21971000D02*
X33909000Y-21844000D01*
X28829000Y-25273000D02*
X27813000Y-26162000D01*
X27813000Y-26162000D02*
X27432000Y-26162000D01*
X27813000Y-26162000D02*
X27813000Y-26670000D01*
X28067000Y-22479000D02*
X27559000Y-22098000D01*
X27559000Y-22098000D02*
X27559000Y-21717000D01*
X27559000Y-22098000D02*
X27178000Y-22225000D01*
X33147000Y-26162000D02*
X33401000Y-26162000D01*
X32258000Y-25273000D02*
X33147000Y-26162000D01*
X33147000Y-26543000D02*
X33274000Y-26543000D01*
X33147000Y-26162000D02*
X33147000Y-26543000D01*
D11*
X140015000Y-87630000D03*
X141925000Y-87630000D03*
X93025000Y-87630000D03*
X94935000Y-87630000D03*
X115885000Y-87630000D03*
X117795000Y-87630000D03*
X211135000Y-87630000D03*
X213045000Y-87630000D03*
X164145000Y-87630000D03*
X166055000Y-87630000D03*
X187005000Y-87630000D03*
X188915000Y-87630000D03*
X68895000Y-87630000D03*
X70805000Y-87630000D03*
X21905000Y-87630000D03*
X23815000Y-87630000D03*
D12*
X105190000Y-34290000D03*
X103090000Y-34290000D03*
X98840000Y-34290000D03*
X96740000Y-34290000D03*
X110270000Y-34290000D03*
X108170000Y-34290000D03*
X116620000Y-34290000D03*
X114520000Y-34290000D03*
X129502000Y-34290000D03*
X127402000Y-34290000D03*
X86360000Y-34290000D03*
X84260000Y-34290000D03*
X74710000Y-34290000D03*
X72610000Y-34290000D03*
X69630000Y-34290000D03*
X67530000Y-34290000D03*
X121700000Y-34290000D03*
X119600000Y-34290000D03*
X39150000Y-34290000D03*
X37050000Y-34290000D03*
X45500000Y-34290000D03*
X43400000Y-34290000D03*
X50580000Y-34290000D03*
X48480000Y-34290000D03*
X58200000Y-34290000D03*
X56100000Y-34290000D03*
X228380000Y-34290000D03*
X226280000Y-34290000D03*
X63280000Y-34290000D03*
X61180000Y-34290000D03*
X81060000Y-34290000D03*
X78960000Y-34290000D03*
X93760000Y-34290000D03*
X91660000Y-34290000D03*
X169960000Y-34290000D03*
X167860000Y-34290000D03*
X211870000Y-34249500D03*
X209770000Y-34249500D03*
X205520000Y-34290000D03*
X203420000Y-34290000D03*
X192820000Y-34290000D03*
X190720000Y-34290000D03*
X187740000Y-34290000D03*
X185640000Y-34290000D03*
X176310000Y-34290000D03*
X174210000Y-34290000D03*
X164880000Y-34290000D03*
X162780000Y-34290000D03*
X157260000Y-34290000D03*
X155160000Y-34290000D03*
X200440000Y-34290000D03*
X198340000Y-34290000D03*
X223300000Y-34290000D03*
X221200000Y-34290000D03*
X34070000Y-34290000D03*
X31970000Y-34290000D03*
X181610000Y-34290000D03*
X179510000Y-34290000D03*
X134400000Y-34290000D03*
X132300000Y-34290000D03*
X140750000Y-34290000D03*
X138650000Y-34290000D03*
X145830000Y-34290000D03*
X143730000Y-34290000D03*
X216950000Y-34290000D03*
X214850000Y-34290000D03*
X152400000Y-34290000D03*
X150300000Y-34290000D03*
D11*
X20635000Y-73660000D03*
X22545000Y-73660000D03*
X32065000Y-73660000D03*
X33975000Y-73660000D03*
X174305000Y-73660000D03*
X176215000Y-73660000D03*
X162875000Y-73660000D03*
X164785000Y-73660000D03*
X150175000Y-73660000D03*
X152085000Y-73660000D03*
X221295000Y-73660000D03*
X223205000Y-73660000D03*
X138745000Y-73660000D03*
X140655000Y-73660000D03*
X209865000Y-73660000D03*
X211775000Y-73660000D03*
X198435000Y-73660000D03*
X200345000Y-73660000D03*
X79055000Y-73660000D03*
X80965000Y-73660000D03*
X67625000Y-73660000D03*
X69535000Y-73660000D03*
X43495000Y-73660000D03*
X45405000Y-73660000D03*
X185735000Y-73660000D03*
X187645000Y-73660000D03*
X56195000Y-73660000D03*
X58105000Y-73660000D03*
X114615000Y-73660000D03*
X116525000Y-73660000D03*
X127315000Y-73660000D03*
X129225000Y-73660000D03*
X91755000Y-73660000D03*
X93665000Y-73660000D03*
X103185000Y-73660000D03*
X105095000Y-73660000D03*
D12*
X22640000Y-34290000D03*
X20540000Y-34290000D03*
X27720000Y-34290000D03*
X25620000Y-34290000D03*
D13*
X54610000Y-106220000D03*
X52070000Y-106220000D03*
X49530000Y-106220000D03*
X46990000Y-106220000D03*
X44450000Y-106220000D03*
X53340000Y-99060000D03*
X55880000Y-99060000D03*
X58420000Y-99060000D03*
X60960000Y-99060000D03*
X76200000Y-99060000D03*
X78740000Y-99060000D03*
X81280000Y-99060000D03*
X86360000Y-99060000D03*
X88900000Y-99060000D03*
X91440000Y-99060000D03*
X93980000Y-99060000D03*
X96520000Y-99060000D03*
X96520000Y-101600000D03*
X93980000Y-101600000D03*
X91440000Y-101600000D03*
X88900000Y-101600000D03*
X86360000Y-101600000D03*
X81280000Y-101600000D03*
X78740000Y-101600000D03*
X76200000Y-101600000D03*
X60960000Y-101600000D03*
X58420000Y-101600000D03*
X55880000Y-101600000D03*
X53340000Y-101600000D03*
X50800000Y-96520000D03*
X48260000Y-96520000D03*
X45720000Y-96520000D03*
X40640000Y-96520000D03*
X38100000Y-93980000D03*
X40640000Y-93980000D03*
X43180000Y-93980000D03*
X45720000Y-93980000D03*
X48260000Y-93980000D03*
X50800000Y-93980000D03*
X53340000Y-93980000D03*
X55880000Y-93980000D03*
X58420000Y-93980000D03*
X60960000Y-93980000D03*
X63500000Y-93980000D03*
X66040000Y-93980000D03*
X68580000Y-93980000D03*
X71120000Y-93980000D03*
X73660000Y-93980000D03*
X76200000Y-93980000D03*
D14*
X38100000Y-109220000D03*
D13*
X40640000Y-109220000D03*
X43180000Y-109220000D03*
X45720000Y-109220000D03*
X48260000Y-109220000D03*
X50800000Y-109220000D03*
X53340000Y-109220000D03*
X55880000Y-109220000D03*
X58420000Y-109220000D03*
X60960000Y-109220000D03*
X63500000Y-109220000D03*
X66040000Y-109220000D03*
X68580000Y-109220000D03*
X78740000Y-93980000D03*
X81280000Y-93980000D03*
X83820000Y-93980000D03*
X86360000Y-93980000D03*
X88900000Y-93980000D03*
X91440000Y-93980000D03*
X93980000Y-93980000D03*
X96520000Y-93980000D03*
X83820000Y-96520000D03*
X83820000Y-99060000D03*
X83820000Y-101600000D03*
X83820000Y-104140000D03*
X83820000Y-106680000D03*
X96520000Y-109220000D03*
X93980000Y-109220000D03*
X91440000Y-109220000D03*
X88900000Y-109220000D03*
X71120000Y-109220000D03*
X73660000Y-109220000D03*
X76200000Y-109220000D03*
X86360000Y-109220000D03*
X83820000Y-109220000D03*
X81280000Y-109220000D03*
X78740000Y-109220000D03*
D11*
X226375000Y-73660000D03*
X228285000Y-73660000D03*
X32065000Y-63500000D03*
X33975000Y-63500000D03*
D15*
X81280000Y-22860000D03*
X78740000Y-22860000D03*
X76200000Y-22860000D03*
X73660000Y-22860000D03*
X71120000Y-22860000D03*
X68580000Y-22860000D03*
X66040000Y-22860000D03*
X63500000Y-22860000D03*
X60960000Y-22860000D03*
X58420000Y-22860000D03*
X55880000Y-22860000D03*
X53340000Y-22860000D03*
X50800000Y-22860000D03*
X48260000Y-22860000D03*
X45720000Y-22860000D03*
X43180000Y-22860000D03*
X40640000Y-22860000D03*
D16*
X38100000Y-22860000D03*
D15*
X170180000Y-22860000D03*
X167640000Y-22860000D03*
X165100000Y-22860000D03*
X162560000Y-22860000D03*
X160020000Y-22860000D03*
X157480000Y-22860000D03*
X154940000Y-22860000D03*
X152400000Y-22860000D03*
X149860000Y-22860000D03*
X147320000Y-22860000D03*
X144780000Y-22860000D03*
X142240000Y-22860000D03*
X139700000Y-22860000D03*
X137160000Y-22860000D03*
X134620000Y-22860000D03*
X132080000Y-22860000D03*
X129540000Y-22860000D03*
D16*
X127000000Y-22860000D03*
D11*
X79055000Y-41910000D03*
X80965000Y-41910000D03*
X138745000Y-63500000D03*
X140655000Y-63500000D03*
X138745000Y-41910000D03*
X140655000Y-41910000D03*
X138745000Y-38100000D03*
X140655000Y-38100000D03*
X127315000Y-63500000D03*
X129225000Y-63500000D03*
X127315000Y-41910000D03*
X129225000Y-41910000D03*
X127315000Y-38100000D03*
X129225000Y-38100000D03*
X114615000Y-63500000D03*
X116525000Y-63500000D03*
X114615000Y-41910000D03*
X116525000Y-41910000D03*
X114615000Y-38100000D03*
X116525000Y-38100000D03*
X103185000Y-41910000D03*
X105095000Y-41910000D03*
X103185000Y-38100000D03*
X105095000Y-38100000D03*
X91755000Y-63500000D03*
X93665000Y-63500000D03*
X198435000Y-41910000D03*
X200345000Y-41910000D03*
X185735000Y-63500000D03*
X187645000Y-63500000D03*
X198435000Y-63500000D03*
X200345000Y-63500000D03*
X209865000Y-38100000D03*
X211775000Y-38100000D03*
X209865000Y-41910000D03*
X211775000Y-41910000D03*
X209865000Y-63500000D03*
X211775000Y-63500000D03*
X221295000Y-38100000D03*
X223205000Y-38100000D03*
X221295000Y-41910000D03*
X223205000Y-41910000D03*
X150175000Y-38100000D03*
X152085000Y-38100000D03*
X79055000Y-38100000D03*
X80965000Y-38100000D03*
X79055000Y-63500000D03*
X80965000Y-63500000D03*
X91755000Y-38100000D03*
X93665000Y-38100000D03*
X91755000Y-41910000D03*
X93665000Y-41910000D03*
X150175000Y-41910000D03*
X152085000Y-41910000D03*
X198435000Y-38100000D03*
X200345000Y-38100000D03*
X185735000Y-41910000D03*
X187645000Y-41910000D03*
X185735000Y-38100000D03*
X187645000Y-38100000D03*
X174305000Y-63500000D03*
X176215000Y-63500000D03*
X174305000Y-41910000D03*
X176215000Y-41910000D03*
X174305000Y-38100000D03*
X176215000Y-38100000D03*
X162875000Y-63500000D03*
X164785000Y-63500000D03*
X162875000Y-41910000D03*
X164785000Y-41910000D03*
X162875000Y-38100000D03*
X164785000Y-38100000D03*
X150175000Y-63500000D03*
X152085000Y-63500000D03*
X221295000Y-63500000D03*
X223205000Y-63500000D03*
X20635000Y-38100000D03*
X22545000Y-38100000D03*
X20635000Y-41910000D03*
X22545000Y-41910000D03*
X20635000Y-63500000D03*
X22545000Y-63500000D03*
X67625000Y-63500000D03*
X69535000Y-63500000D03*
X103185000Y-63500000D03*
X105095000Y-63500000D03*
X67625000Y-41910000D03*
X69535000Y-41910000D03*
X67625000Y-38100000D03*
X69535000Y-38100000D03*
X56195000Y-63500000D03*
X58105000Y-63500000D03*
X56195000Y-41910000D03*
X58105000Y-41910000D03*
X56195000Y-38100000D03*
X58105000Y-38100000D03*
X43495000Y-63500000D03*
X45405000Y-63500000D03*
X43495000Y-41910000D03*
X45405000Y-41910000D03*
X43495000Y-38100000D03*
X45405000Y-38100000D03*
X32065000Y-41910000D03*
X33975000Y-41910000D03*
X32065000Y-38100000D03*
X33975000Y-38100000D03*
D17*
X181344000Y-58960000D03*
D18*
X179070000Y-58960000D03*
X176530000Y-58960000D03*
D17*
X174256000Y-58960000D03*
X174256000Y-50260000D03*
D18*
X176530000Y-50260000D03*
X179070000Y-50260000D03*
D17*
X181344000Y-50260000D03*
X228334000Y-58960000D03*
D18*
X226060000Y-58960000D03*
X223520000Y-58960000D03*
D17*
X221246000Y-58960000D03*
X221246000Y-50260000D03*
D18*
X223520000Y-50260000D03*
X226060000Y-50260000D03*
D17*
X228334000Y-50260000D03*
X216904000Y-58960000D03*
D18*
X214630000Y-58960000D03*
X212090000Y-58960000D03*
D17*
X209816000Y-58960000D03*
X209816000Y-50260000D03*
D18*
X212090000Y-50260000D03*
X214630000Y-50260000D03*
D17*
X216904000Y-50260000D03*
X205474000Y-58960000D03*
D18*
X203200000Y-58960000D03*
X200660000Y-58960000D03*
D17*
X198386000Y-58960000D03*
X198386000Y-50260000D03*
D18*
X200660000Y-50260000D03*
X203200000Y-50260000D03*
D17*
X205474000Y-50260000D03*
X192774000Y-58960000D03*
D18*
X190500000Y-58960000D03*
X187960000Y-58960000D03*
D17*
X185686000Y-58960000D03*
X185686000Y-50260000D03*
D18*
X187960000Y-50260000D03*
X190500000Y-50260000D03*
D17*
X192774000Y-50260000D03*
X63234000Y-58960000D03*
D18*
X60960000Y-58960000D03*
X58420000Y-58960000D03*
D17*
X56146000Y-58960000D03*
X56146000Y-50260000D03*
D18*
X58420000Y-50260000D03*
X60960000Y-50260000D03*
D17*
X63234000Y-50260000D03*
X27674000Y-58960000D03*
D18*
X25400000Y-58960000D03*
X22860000Y-58960000D03*
D17*
X20586000Y-58960000D03*
X20586000Y-50260000D03*
D18*
X22860000Y-50260000D03*
X25400000Y-50260000D03*
D17*
X27674000Y-50260000D03*
X39104000Y-58960000D03*
D18*
X36830000Y-58960000D03*
X34290000Y-58960000D03*
D17*
X32016000Y-58960000D03*
X32016000Y-50260000D03*
D18*
X34290000Y-50260000D03*
X36830000Y-50260000D03*
D17*
X39104000Y-50260000D03*
X50534000Y-58960000D03*
D18*
X48260000Y-58960000D03*
X45720000Y-58960000D03*
D17*
X43446000Y-58960000D03*
X43446000Y-50260000D03*
D18*
X45720000Y-50260000D03*
X48260000Y-50260000D03*
D17*
X50534000Y-50260000D03*
X86094000Y-58960000D03*
D18*
X83820000Y-58960000D03*
X81280000Y-58960000D03*
D17*
X79006000Y-58960000D03*
X79006000Y-50260000D03*
D18*
X81280000Y-50260000D03*
X83820000Y-50260000D03*
D17*
X86094000Y-50260000D03*
X98794000Y-58960000D03*
D18*
X96520000Y-58960000D03*
X93980000Y-58960000D03*
D17*
X91706000Y-58960000D03*
X91706000Y-50260000D03*
D18*
X93980000Y-50260000D03*
X96520000Y-50260000D03*
D17*
X98794000Y-50260000D03*
X110224000Y-58960000D03*
D18*
X107950000Y-58960000D03*
X105410000Y-58960000D03*
D17*
X103136000Y-58960000D03*
X103136000Y-50260000D03*
D18*
X105410000Y-50260000D03*
X107950000Y-50260000D03*
D17*
X110224000Y-50260000D03*
X74664000Y-58960000D03*
D18*
X72390000Y-58960000D03*
X69850000Y-58960000D03*
D17*
X67576000Y-58960000D03*
X67576000Y-50260000D03*
D18*
X69850000Y-50260000D03*
X72390000Y-50260000D03*
D17*
X74664000Y-50260000D03*
X134354000Y-58960000D03*
D18*
X132080000Y-58960000D03*
X129540000Y-58960000D03*
D17*
X127266000Y-58960000D03*
X127266000Y-50260000D03*
D18*
X129540000Y-50260000D03*
X132080000Y-50260000D03*
D17*
X134354000Y-50260000D03*
X145784000Y-58960000D03*
D18*
X143510000Y-58960000D03*
X140970000Y-58960000D03*
D17*
X138696000Y-58960000D03*
X138696000Y-50260000D03*
D18*
X140970000Y-50260000D03*
X143510000Y-50260000D03*
D17*
X145784000Y-50260000D03*
X169914000Y-58960000D03*
D18*
X167640000Y-58960000D03*
X165100000Y-58960000D03*
D17*
X162826000Y-58960000D03*
X162826000Y-50260000D03*
D18*
X165100000Y-50260000D03*
X167640000Y-50260000D03*
D17*
X169914000Y-50260000D03*
X157214000Y-58960000D03*
D18*
X154940000Y-58960000D03*
X152400000Y-58960000D03*
D17*
X150126000Y-58960000D03*
X150126000Y-50260000D03*
D18*
X152400000Y-50260000D03*
X154940000Y-50260000D03*
D17*
X157214000Y-50260000D03*
X121654000Y-58960000D03*
D18*
X119380000Y-58960000D03*
X116840000Y-58960000D03*
D17*
X114566000Y-58960000D03*
X114566000Y-50260000D03*
D18*
X116840000Y-50260000D03*
X119380000Y-50260000D03*
D17*
X121654000Y-50260000D03*
D19*
X25560000Y-80645000D03*
X25560000Y-81915000D03*
X25560000Y-83185000D03*
X25560000Y-84455000D03*
X20160000Y-84455000D03*
X20160000Y-83185000D03*
X20160000Y-81915000D03*
X20160000Y-80645000D03*
X214790000Y-80645000D03*
X214790000Y-81915000D03*
X214790000Y-83185000D03*
X214790000Y-84455000D03*
X209390000Y-84455000D03*
X209390000Y-83185000D03*
X209390000Y-81915000D03*
X209390000Y-80645000D03*
X190660000Y-80645000D03*
X190660000Y-81915000D03*
X190660000Y-83185000D03*
X190660000Y-84455000D03*
X185260000Y-84455000D03*
X185260000Y-83185000D03*
X185260000Y-81915000D03*
X185260000Y-80645000D03*
X167800000Y-80645000D03*
X167800000Y-81915000D03*
X167800000Y-83185000D03*
X167800000Y-84455000D03*
X162400000Y-84455000D03*
X162400000Y-83185000D03*
X162400000Y-81915000D03*
X162400000Y-80645000D03*
X143670000Y-80645000D03*
X143670000Y-81915000D03*
X143670000Y-83185000D03*
X143670000Y-84455000D03*
X138270000Y-84455000D03*
X138270000Y-83185000D03*
X138270000Y-81915000D03*
X138270000Y-80645000D03*
X48420000Y-80645000D03*
X48420000Y-81915000D03*
X48420000Y-83185000D03*
X48420000Y-84455000D03*
X43020000Y-84455000D03*
X43020000Y-83185000D03*
X43020000Y-81915000D03*
X43020000Y-80645000D03*
X72550000Y-80645000D03*
X72550000Y-81915000D03*
X72550000Y-83185000D03*
X72550000Y-84455000D03*
X67150000Y-84455000D03*
X67150000Y-83185000D03*
X67150000Y-81915000D03*
X67150000Y-80645000D03*
X96680000Y-80645000D03*
X96680000Y-81915000D03*
X96680000Y-83185000D03*
X96680000Y-84455000D03*
X91280000Y-84455000D03*
X91280000Y-83185000D03*
X91280000Y-81915000D03*
X91280000Y-80645000D03*
X119540000Y-80645000D03*
X119540000Y-81915000D03*
X119540000Y-83185000D03*
X119540000Y-84455000D03*
X114140000Y-84455000D03*
X114140000Y-83185000D03*
X114140000Y-81915000D03*
X114140000Y-80645000D03*
D20*
X226060000Y-40640000D03*
D21*
X228600000Y-40640000D03*
X227330000Y-39370000D03*
D20*
X25400000Y-40640000D03*
D21*
X27940000Y-40640000D03*
X26670000Y-39370000D03*
D20*
X36830000Y-40640000D03*
D21*
X39370000Y-40640000D03*
X38100000Y-39370000D03*
D20*
X48260000Y-40640000D03*
D21*
X50800000Y-40640000D03*
X49530000Y-39370000D03*
D20*
X60960000Y-40640000D03*
D21*
X63500000Y-40640000D03*
X62230000Y-39370000D03*
D20*
X72390000Y-40640000D03*
D21*
X74930000Y-40640000D03*
X73660000Y-39370000D03*
D20*
X83820000Y-40640000D03*
D21*
X86360000Y-40640000D03*
X85090000Y-39370000D03*
D20*
X96520000Y-40640000D03*
D21*
X99060000Y-40640000D03*
X97790000Y-39370000D03*
D20*
X107950000Y-40640000D03*
D21*
X110490000Y-40640000D03*
X109220000Y-39370000D03*
D20*
X119380000Y-40640000D03*
D21*
X121920000Y-40640000D03*
X120650000Y-39370000D03*
D20*
X132080000Y-40640000D03*
D21*
X134620000Y-40640000D03*
X133350000Y-39370000D03*
D20*
X143510000Y-40640000D03*
D21*
X146050000Y-40640000D03*
X144780000Y-39370000D03*
D20*
X154940000Y-40640000D03*
D21*
X157480000Y-40640000D03*
X156210000Y-39370000D03*
D20*
X167640000Y-40640000D03*
D21*
X170180000Y-40640000D03*
X168910000Y-39370000D03*
D20*
X179070000Y-40640000D03*
D21*
X181610000Y-40640000D03*
X180340000Y-39370000D03*
D20*
X190500000Y-40640000D03*
D21*
X193040000Y-40640000D03*
X191770000Y-39370000D03*
D20*
X203200000Y-40640000D03*
D21*
X205740000Y-40640000D03*
X204470000Y-39370000D03*
D20*
X214630000Y-40640000D03*
D21*
X217170000Y-40640000D03*
X215900000Y-39370000D03*
D11*
X167955000Y-63500000D03*
X169865000Y-63500000D03*
X162875000Y-45720000D03*
X164785000Y-45720000D03*
X190815000Y-45720000D03*
X192725000Y-45720000D03*
X179385000Y-68580000D03*
X181295000Y-68580000D03*
X174305000Y-68580000D03*
X176215000Y-68580000D03*
X179385000Y-63500000D03*
X181295000Y-63500000D03*
X174305000Y-45720000D03*
X176215000Y-45720000D03*
X179385000Y-45720000D03*
X181295000Y-45720000D03*
X167955000Y-73660000D03*
X169865000Y-73660000D03*
X167955000Y-68580000D03*
X169865000Y-68580000D03*
X155255000Y-68580000D03*
X157165000Y-68580000D03*
X155255000Y-73660000D03*
X157165000Y-73660000D03*
X167925000Y-45720000D03*
X169835000Y-45720000D03*
X84135000Y-73660000D03*
X86045000Y-73660000D03*
X150175000Y-68580000D03*
X152085000Y-68580000D03*
X155255000Y-63500000D03*
X157165000Y-63500000D03*
X150175000Y-45720000D03*
X152085000Y-45720000D03*
X20635000Y-45720000D03*
X22545000Y-45720000D03*
X25715000Y-45720000D03*
X27625000Y-45720000D03*
X25715000Y-63500000D03*
X27625000Y-63500000D03*
X179385000Y-73660000D03*
X181295000Y-73660000D03*
X226375000Y-68580000D03*
X228285000Y-68580000D03*
X221295000Y-68580000D03*
X223205000Y-68580000D03*
X226375000Y-63500000D03*
X228285000Y-63500000D03*
X162875000Y-68580000D03*
X164785000Y-68580000D03*
X61275000Y-73660000D03*
X63185000Y-73660000D03*
X190815000Y-68580000D03*
X192725000Y-68580000D03*
X214945000Y-68580000D03*
X216855000Y-68580000D03*
X209865000Y-68580000D03*
X211775000Y-68580000D03*
X214945000Y-63500000D03*
X216855000Y-63500000D03*
X209865000Y-45720000D03*
X211775000Y-45720000D03*
X20635000Y-68580000D03*
X22545000Y-68580000D03*
X203515000Y-73660000D03*
X205425000Y-73660000D03*
X203515000Y-68580000D03*
X205425000Y-68580000D03*
X198435000Y-68580000D03*
X200345000Y-68580000D03*
X203515000Y-63500000D03*
X205425000Y-63500000D03*
X198435000Y-45720000D03*
X200345000Y-45720000D03*
X203515000Y-45720000D03*
X205425000Y-45720000D03*
X221295000Y-45720000D03*
X223205000Y-45720000D03*
X226375000Y-45720000D03*
X228285000Y-45720000D03*
X185735000Y-68580000D03*
X187645000Y-68580000D03*
X190815000Y-63500000D03*
X192725000Y-63500000D03*
X185735000Y-45720000D03*
X187645000Y-45720000D03*
X214945000Y-45720000D03*
X216855000Y-45720000D03*
X91755000Y-45720000D03*
X93665000Y-45720000D03*
X96835000Y-63500000D03*
X98745000Y-63500000D03*
X91755000Y-68580000D03*
X93665000Y-68580000D03*
X96835000Y-68580000D03*
X98745000Y-68580000D03*
X96835000Y-73660000D03*
X98745000Y-73660000D03*
X108265000Y-45720000D03*
X110175000Y-45720000D03*
X103185000Y-45720000D03*
X105095000Y-45720000D03*
X108265000Y-63500000D03*
X110175000Y-63500000D03*
X190815000Y-73660000D03*
X192725000Y-73660000D03*
X37145000Y-63500000D03*
X39055000Y-63500000D03*
X108265000Y-73660000D03*
X110175000Y-73660000D03*
X119695000Y-45720000D03*
X121605000Y-45720000D03*
X114615000Y-45720000D03*
X116525000Y-45720000D03*
X119695000Y-63500000D03*
X121605000Y-63500000D03*
X25715000Y-68580000D03*
X27625000Y-68580000D03*
X119695000Y-68580000D03*
X121605000Y-68580000D03*
X119695000Y-73660000D03*
X121605000Y-73660000D03*
X132395000Y-45720000D03*
X134305000Y-45720000D03*
X127315000Y-45720000D03*
X129225000Y-45720000D03*
X132395000Y-63500000D03*
X134305000Y-63500000D03*
X127315000Y-68580000D03*
X129225000Y-68580000D03*
X214945000Y-73660000D03*
X216855000Y-73660000D03*
X143825000Y-45720000D03*
X145735000Y-45720000D03*
X132395000Y-73660000D03*
X134305000Y-73660000D03*
X32065000Y-68580000D03*
X33975000Y-68580000D03*
X37145000Y-45720000D03*
X39055000Y-45720000D03*
X32065000Y-45720000D03*
X33975000Y-45720000D03*
X25715000Y-73660000D03*
X27625000Y-73660000D03*
X114615000Y-68580000D03*
X116525000Y-68580000D03*
X155255000Y-45720000D03*
X157165000Y-45720000D03*
X143825000Y-73660000D03*
X145735000Y-73660000D03*
X143825000Y-68580000D03*
X145735000Y-68580000D03*
X138745000Y-68580000D03*
X140655000Y-68580000D03*
X143825000Y-63500000D03*
X145735000Y-63500000D03*
X138745000Y-45720000D03*
X140655000Y-45720000D03*
X132395000Y-68580000D03*
X134305000Y-68580000D03*
X37145000Y-68580000D03*
X39055000Y-68580000D03*
X37145000Y-73660000D03*
X39055000Y-73660000D03*
X43495000Y-45720000D03*
X45405000Y-45720000D03*
X48575000Y-45720000D03*
X50485000Y-45720000D03*
X48575000Y-63500000D03*
X50485000Y-63500000D03*
X43495000Y-68580000D03*
X45405000Y-68580000D03*
X48575000Y-68580000D03*
X50485000Y-68580000D03*
X48575000Y-73660000D03*
X50485000Y-73660000D03*
X56195000Y-45720000D03*
X58105000Y-45720000D03*
X61275000Y-45720000D03*
X63185000Y-45720000D03*
X96835000Y-45720000D03*
X98745000Y-45720000D03*
X56195000Y-68580000D03*
X58105000Y-68580000D03*
X103185000Y-68580000D03*
X105095000Y-68580000D03*
X108265000Y-68580000D03*
X110175000Y-68580000D03*
X67625000Y-45720000D03*
X69535000Y-45720000D03*
X72705000Y-45720000D03*
X74615000Y-45720000D03*
X72705000Y-63500000D03*
X74615000Y-63500000D03*
X67625000Y-68580000D03*
X69535000Y-68580000D03*
X72705000Y-68580000D03*
X74615000Y-68580000D03*
X72705000Y-73660000D03*
X74615000Y-73660000D03*
X79055000Y-45720000D03*
X80965000Y-45720000D03*
X84135000Y-45720000D03*
X86045000Y-45720000D03*
X84135000Y-63500000D03*
X86045000Y-63500000D03*
X79055000Y-68580000D03*
X80965000Y-68580000D03*
X84135000Y-68580000D03*
X86045000Y-68580000D03*
X61275000Y-63500000D03*
X63185000Y-63500000D03*
X61275000Y-68580000D03*
X63185000Y-68580000D03*
D15*
X151130000Y-111760000D03*
X148590000Y-111760000D03*
X146050000Y-111760000D03*
D16*
X143510000Y-111760000D03*
D22*
X37360000Y-87630000D03*
X33760000Y-87630000D03*
X37360000Y-80010000D03*
X33760000Y-80010000D03*
X61490000Y-87630000D03*
X57890000Y-87630000D03*
X61490000Y-80010000D03*
X57890000Y-80010000D03*
X84350000Y-87630000D03*
X80750000Y-87630000D03*
X84350000Y-80010000D03*
X80750000Y-80010000D03*
X108480000Y-87630000D03*
X104880000Y-87630000D03*
X108480000Y-80010000D03*
X104880000Y-80010000D03*
X132610000Y-87630000D03*
X129010000Y-87630000D03*
X132610000Y-80010000D03*
X129010000Y-80010000D03*
X155470000Y-87630000D03*
X151870000Y-87630000D03*
X155470000Y-80010000D03*
X151870000Y-80010000D03*
X179600000Y-87630000D03*
X176000000Y-87630000D03*
X179600000Y-80010000D03*
X176000000Y-80010000D03*
X203730000Y-87630000D03*
X200130000Y-87630000D03*
X203730000Y-80010000D03*
X200130000Y-80010000D03*
X226590000Y-87630000D03*
X222990000Y-87630000D03*
X226590000Y-80010000D03*
X222990000Y-80010000D03*
D23*
X134620000Y-94295000D03*
X134620000Y-96205000D03*
D22*
X128800000Y-102870000D03*
X125200000Y-102870000D03*
X128800000Y-95250000D03*
X125200000Y-95250000D03*
D23*
X134620000Y-99375000D03*
X134620000Y-101285000D03*
D11*
X44765000Y-87630000D03*
X46675000Y-87630000D03*
D24*
X27940000Y-88900000D03*
X41910000Y-88900000D03*
D19*
X28100000Y-98425000D03*
X28100000Y-99695000D03*
X28100000Y-100965000D03*
X28100000Y-102235000D03*
X22700000Y-102235000D03*
X22700000Y-100965000D03*
X22700000Y-99695000D03*
X22700000Y-98425000D03*
D11*
X25794800Y-94615000D03*
X23884800Y-94615000D03*
D24*
X50800000Y-88900000D03*
X66040000Y-88900000D03*
X74930000Y-88900000D03*
X90170000Y-88900000D03*
X99060000Y-88900000D03*
X113030000Y-88900000D03*
X121920000Y-88900000D03*
X137160000Y-88900000D03*
X146050000Y-88900000D03*
X160020000Y-88900000D03*
X170180000Y-88900000D03*
X184150000Y-88900000D03*
X193040000Y-88900000D03*
X208280000Y-88900000D03*
X217170000Y-88900000D03*
X228600000Y-93980000D03*
D25*
X188976000Y-97790000D03*
X188976000Y-100330000D03*
X188976000Y-102870000D03*
X188976000Y-105410000D03*
D26*
X138430000Y-95250000D03*
D27*
X138430000Y-97790000D03*
X138430000Y-100330000D03*
D11*
X101915000Y-95250000D03*
X103825000Y-95250000D03*
X103825000Y-100330000D03*
X101915000Y-100330000D03*
X101915000Y-105410000D03*
X103825000Y-105410000D03*
X113985000Y-95250000D03*
X112075000Y-95250000D03*
X112075000Y-100330000D03*
X113985000Y-100330000D03*
X113985000Y-105410000D03*
X112075000Y-105410000D03*
X106995000Y-95250000D03*
X108905000Y-95250000D03*
X108905000Y-100330000D03*
X106995000Y-100330000D03*
X106995000Y-105410000D03*
X108905000Y-105410000D03*
X119065000Y-95250000D03*
X117155000Y-95250000D03*
X117155000Y-100330000D03*
X119065000Y-100330000D03*
X119065000Y-105410000D03*
X117155000Y-105410000D03*
X166055000Y-99060000D03*
X164145000Y-99060000D03*
X164145000Y-107950000D03*
X166055000Y-107950000D03*
X177485000Y-99060000D03*
X175575000Y-99060000D03*
X175575000Y-107950000D03*
X177485000Y-107950000D03*
X169225000Y-95250000D03*
X171135000Y-95250000D03*
X169225000Y-99060000D03*
X171135000Y-99060000D03*
X169225000Y-104140000D03*
X171135000Y-104140000D03*
X171135000Y-107950000D03*
X169225000Y-107950000D03*
X182565000Y-95250000D03*
X180655000Y-95250000D03*
X182565000Y-99060000D03*
X180655000Y-99060000D03*
X182565000Y-104140000D03*
X180655000Y-104140000D03*
X180655000Y-107950000D03*
X182565000Y-107950000D03*
D28*
X163400000Y-95250000D03*
X166800000Y-95250000D03*
X166800000Y-104140000D03*
X163400000Y-104140000D03*
X174830000Y-95250000D03*
X178230000Y-95250000D03*
X178230000Y-104140000D03*
X174830000Y-104140000D03*
D16*
X166370000Y-111760000D03*
D15*
X168910000Y-111760000D03*
X171450000Y-111760000D03*
X173990000Y-111760000D03*
X176530000Y-111760000D03*
X179070000Y-111760000D03*
D11*
X33975000Y-109220000D03*
X32065000Y-109220000D03*
X32065000Y-104140000D03*
X33975000Y-104140000D03*
D16*
X102870000Y-111760000D03*
D15*
X105410000Y-111760000D03*
X107950000Y-111760000D03*
X110490000Y-111760000D03*
X113030000Y-111760000D03*
X115570000Y-111760000D03*
X118110000Y-111760000D03*
X120650000Y-111760000D03*
X123190000Y-111760000D03*
X125730000Y-111760000D03*
D29*
X206654400Y-84836000D03*
X203835000Y-90982800D03*
X54864000Y-63373000D03*
X48289500Y-85579300D03*
X63185000Y-72087100D03*
X85400900Y-61941000D03*
X87287600Y-72509800D03*
X27154000Y-83702600D03*
X35858300Y-72740900D03*
X38542200Y-61928300D03*
X25387400Y-79438000D03*
X33690900Y-70131400D03*
X27190400Y-72100400D03*
X26885700Y-61922400D03*
X133219000Y-72104500D03*
X135610000Y-63412500D03*
X218165000Y-73660000D03*
X218180000Y-63776000D03*
X121354000Y-72073500D03*
X122647000Y-64859800D03*
X110410000Y-65063400D03*
X108721000Y-75217900D03*
X99484000Y-84455000D03*
X206722000Y-63500000D03*
X204901000Y-72107300D03*
X192967000Y-82877000D03*
X200345000Y-70165100D03*
X217502000Y-80219400D03*
X221893000Y-70146900D03*
X228230000Y-75234600D03*
X227845000Y-65094900D03*
X98270600Y-81351900D03*
X101858000Y-73743700D03*
X27142600Y-81915000D03*
X32144000Y-75241400D03*
D30*
X63500000Y-61512800D03*
X74730800Y-61512800D03*
X152449000Y-78264000D03*
X152748000Y-61824200D03*
X52469600Y-62305400D03*
X36065800Y-77333000D03*
X56781300Y-77486600D03*
X217451000Y-61328800D03*
X205804000Y-60931400D03*
X147893000Y-60735300D03*
X155546000Y-78097900D03*
X181800000Y-60885600D03*
X170227000Y-61328800D03*
X201022000Y-77870400D03*
X193228000Y-60885600D03*
X78424700Y-61845300D03*
X158079000Y-61328800D03*
X78922300Y-76803700D03*
X223670000Y-78271000D03*
X58032200Y-61835500D03*
X181809000Y-80010000D03*
X114575000Y-61328800D03*
X125117000Y-63577300D03*
X96699500Y-71916400D03*
X178541000Y-75345600D03*
X169801000Y-71990400D03*
X88872200Y-72159500D03*
X103352000Y-65263700D03*
X90320700Y-63674000D03*
X118743000Y-71567700D03*
X169476000Y-80645000D03*
X80065400Y-85845600D03*
X74246100Y-80645000D03*
X76459500Y-87047500D03*
X213198000Y-85977600D03*
D29*
X74369500Y-48024600D03*
X98907000Y-48341700D03*
X103910000Y-44142600D03*
X115446000Y-44140200D03*
X134578000Y-48419000D03*
X157238000Y-48457200D03*
X170180000Y-48426400D03*
X175320000Y-44237100D03*
X186720000Y-44254800D03*
X205740000Y-48450800D03*
X211486000Y-47284800D03*
X222250000Y-44294300D03*
X23107300Y-44140100D03*
X32065000Y-44161000D03*
X45100000Y-44140100D03*
X26812200Y-87673000D03*
X22532700Y-75242900D03*
X43548600Y-88905400D03*
X40309000Y-77089600D03*
X49179500Y-89061000D03*
X45405000Y-75233700D03*
X67084700Y-90073000D03*
X39404100Y-99417100D03*
X69189100Y-75353500D03*
X74626900Y-86710100D03*
X90704100Y-87270200D03*
X82265200Y-73660000D03*
X39067400Y-100882000D03*
X103836000Y-85858400D03*
X115952000Y-72088300D03*
X118998000Y-85712800D03*
X125681000Y-75876700D03*
X141295000Y-77342500D03*
X162828000Y-91287000D03*
X150275000Y-76030000D03*
X159189000Y-87532600D03*
X165565000Y-72091600D03*
X172802000Y-88519300D03*
X165202000Y-76187300D03*
X176215000Y-75211700D03*
X182343000Y-87128500D03*
X185964000Y-79475500D03*
X192545000Y-87126200D03*
X200345000Y-75215500D03*
X206273000Y-87486100D03*
X214848000Y-88900000D03*
X212064000Y-75233500D03*
X202947000Y-93110700D03*
X32851700Y-60850300D03*
X32320900Y-67007000D03*
X97594100Y-87139600D03*
X94659500Y-76476500D03*
X130186000Y-60772700D03*
X128051000Y-66995200D03*
X201301000Y-60761600D03*
X198708000Y-66959900D03*
X210365000Y-60779700D03*
X210164000Y-67005800D03*
X107942000Y-102695000D03*
X108905000Y-101914000D03*
X117000000Y-97620400D03*
X195907000Y-87126200D03*
X194498000Y-87126200D03*
X118757000Y-101903000D03*
X162519000Y-93671200D03*
X123077000Y-101257000D03*
X174290000Y-99764700D03*
X180150000Y-102582000D03*
X168478000Y-96841400D03*
X167390000Y-105828000D03*
X178661000Y-97056700D03*
X176828000Y-104457000D03*
X40135700Y-103712000D03*
X127575200Y-111193900D03*
X141807500Y-101013200D03*
X158171300Y-100584100D03*
X170180000Y-109561400D03*
X181852900Y-112400000D03*
X37054100Y-105762400D03*
X123314200Y-113450000D03*
X112989900Y-113450000D03*
X54551900Y-111785000D03*
X34257000Y-107299000D03*
D31*
X58105000Y-68580000D02*
X61275000Y-68580000D01*
X47119700Y-83185000D02*
X48420000Y-83185000D01*
X46444600Y-82509900D02*
X47119700Y-83185000D01*
X46444600Y-79848500D02*
X46444600Y-82509900D01*
X50128600Y-76164500D02*
X46444600Y-79848500D01*
X50661600Y-76164500D02*
X50128600Y-76164500D01*
X56970800Y-69855300D02*
X50661600Y-76164500D01*
X58105000Y-69855300D02*
X56970800Y-69855300D01*
X58105000Y-68580000D02*
X58105000Y-69855300D01*
X48289500Y-84585500D02*
X48289500Y-85579300D01*
X48420000Y-84455000D02*
X48289500Y-84585500D01*
X63185000Y-72087100D02*
X63185000Y-73660000D01*
X64195300Y-63500000D02*
X63185000Y-63500000D01*
X64195300Y-71076800D02*
X64195300Y-63500000D01*
X63185000Y-72087100D02*
X64195300Y-71076800D01*
X84135000Y-68580000D02*
X80965000Y-68580000D01*
X71249700Y-83185000D02*
X72550000Y-83185000D01*
X71249700Y-79479100D02*
X71249700Y-83185000D01*
X80873500Y-69855300D02*
X71249700Y-79479100D01*
X80965000Y-69855300D02*
X80873500Y-69855300D01*
X80965000Y-68580000D02*
X80965000Y-69855300D01*
X85684600Y-62224700D02*
X85400900Y-61941000D01*
X86045000Y-62224700D02*
X85684600Y-62224700D01*
X86045000Y-63500000D02*
X86045000Y-62224700D01*
X87055300Y-73660000D02*
X86045000Y-73660000D01*
X87287600Y-73427700D02*
X87055300Y-73660000D01*
X87287600Y-72509800D02*
X87287600Y-73427700D01*
X73850300Y-84455000D02*
X72550000Y-84455000D01*
X76951900Y-81353400D02*
X73850300Y-84455000D01*
X76951900Y-77297800D02*
X76951900Y-81353400D01*
X79314400Y-74935300D02*
X76951900Y-77297800D01*
X86045000Y-74935300D02*
X79314400Y-74935300D01*
X86045000Y-73660000D02*
X86045000Y-74935300D01*
X74615000Y-72384700D02*
X74615000Y-73660000D01*
X74307800Y-72077400D02*
X74615000Y-72384700D01*
X75625300Y-63500000D02*
X74615000Y-63500000D01*
X75625300Y-70759900D02*
X75625300Y-63500000D01*
X74307800Y-72077400D02*
X75625300Y-70759900D01*
X74009100Y-72376100D02*
X74307800Y-72077400D01*
X71997500Y-72376100D02*
X74009100Y-72376100D01*
X71642800Y-72730800D02*
X71997500Y-72376100D01*
X71642800Y-73837700D02*
X71642800Y-72730800D01*
X70114400Y-75366100D02*
X71642800Y-73837700D01*
X70114400Y-75736800D02*
X70114400Y-75366100D01*
X69100700Y-76750500D02*
X70114400Y-75736800D01*
X69100700Y-82534600D02*
X69100700Y-76750500D01*
X68450300Y-83185000D02*
X69100700Y-82534600D01*
X67150000Y-83185000D02*
X68450300Y-83185000D01*
X69535000Y-68580000D02*
X72705000Y-68580000D01*
X65849700Y-81915000D02*
X67150000Y-81915000D01*
X65849700Y-73414300D02*
X65849700Y-81915000D01*
X69408700Y-69855300D02*
X65849700Y-73414300D01*
X69535000Y-69855300D02*
X69408700Y-69855300D01*
X69535000Y-68580000D02*
X69535000Y-69855300D01*
X105095000Y-68580000D02*
X108265000Y-68580000D01*
X97980300Y-83185000D02*
X96680000Y-83185000D01*
X100439000Y-80726100D02*
X97980300Y-83185000D01*
X100439000Y-73848100D02*
X100439000Y-80726100D01*
X104432000Y-69855300D02*
X100439000Y-73848100D01*
X105095000Y-69855300D02*
X104432000Y-69855300D01*
X105095000Y-68580000D02*
X105095000Y-69855300D01*
X50485000Y-74935300D02*
X50485000Y-73660000D01*
X47562600Y-74935300D02*
X50485000Y-74935300D01*
X47562600Y-72632200D02*
X47562600Y-74935300D01*
X49535800Y-70659000D02*
X47562600Y-72632200D01*
X50386800Y-70659000D02*
X49535800Y-70659000D01*
X51495300Y-69550500D02*
X50386800Y-70659000D01*
X51495300Y-63500000D02*
X51495300Y-69550500D01*
X50485000Y-63500000D02*
X51495300Y-63500000D01*
X45372600Y-77125300D02*
X47562600Y-74935300D01*
X45372600Y-82132700D02*
X45372600Y-77125300D01*
X44320300Y-83185000D02*
X45372600Y-82132700D01*
X43020000Y-83185000D02*
X44320300Y-83185000D01*
X45405000Y-68580000D02*
X48575000Y-68580000D01*
X41719700Y-81915000D02*
X43020000Y-81915000D01*
X41719700Y-73223900D02*
X41719700Y-81915000D01*
X45088300Y-69855300D02*
X41719700Y-73223900D01*
X45405000Y-69855300D02*
X45088300Y-69855300D01*
X45405000Y-68580000D02*
X45405000Y-69855300D01*
X39055000Y-73566000D02*
X39055000Y-73660000D01*
X37873700Y-72384700D02*
X39055000Y-73566000D01*
X36214500Y-72384700D02*
X37873700Y-72384700D01*
X35858300Y-72740900D02*
X36214500Y-72384700D01*
X26860300Y-83996300D02*
X27154000Y-83702600D01*
X26860300Y-84455000D02*
X26860300Y-83996300D01*
X25560000Y-84455000D02*
X26860300Y-84455000D01*
X38838600Y-62224700D02*
X38542200Y-61928300D01*
X39055000Y-62224700D02*
X38838600Y-62224700D01*
X39055000Y-63500000D02*
X39055000Y-62224700D01*
X37145000Y-68580000D02*
X33975000Y-68580000D01*
X24874100Y-79438000D02*
X25387400Y-79438000D01*
X24259700Y-80052400D02*
X24874100Y-79438000D01*
X24259700Y-83185000D02*
X24259700Y-80052400D01*
X25560000Y-83185000D02*
X24259700Y-83185000D01*
X33975000Y-69855300D02*
X33975000Y-68580000D01*
X33967000Y-69855300D02*
X33975000Y-69855300D01*
X33690900Y-70131400D02*
X33967000Y-69855300D01*
X129225000Y-68580000D02*
X132395000Y-68580000D01*
X129225000Y-69855300D02*
X129225000Y-68580000D01*
X129110000Y-69855300D02*
X129225000Y-69855300D01*
X124756000Y-74210100D02*
X129110000Y-69855300D01*
X124756000Y-79269600D02*
X124756000Y-74210100D01*
X120840000Y-83185000D02*
X124756000Y-79269600D01*
X119540000Y-83185000D02*
X120840000Y-83185000D01*
X143119000Y-78332400D02*
X143119000Y-74935400D01*
X139570000Y-81881300D02*
X143119000Y-78332400D01*
X139570000Y-83185000D02*
X139570000Y-81881300D01*
X138270000Y-83185000D02*
X139570000Y-83185000D01*
X142815000Y-74630800D02*
X143119000Y-74935400D01*
X142815000Y-72692500D02*
X142815000Y-74630800D01*
X145001000Y-70505700D02*
X142815000Y-72692500D01*
X146049000Y-70505700D02*
X145001000Y-70505700D01*
X146745000Y-69809100D02*
X146049000Y-70505700D01*
X146745000Y-63500000D02*
X146745000Y-69809100D01*
X145735000Y-63500000D02*
X146745000Y-63500000D01*
X145735000Y-74935400D02*
X143119000Y-74935400D01*
X145735000Y-73660000D02*
X145735000Y-74935400D01*
X140655000Y-69855300D02*
X140655000Y-69055100D01*
X140536000Y-69855300D02*
X140655000Y-69855300D01*
X136970000Y-73421600D02*
X140536000Y-69855300D01*
X136970000Y-81915000D02*
X136970000Y-73421600D01*
X138270000Y-81915000D02*
X136970000Y-81915000D01*
X142340000Y-69055100D02*
X140655000Y-69055100D01*
X142815000Y-68580000D02*
X142340000Y-69055100D01*
X143825000Y-68580000D02*
X142815000Y-68580000D01*
X140655000Y-68580000D02*
X140655000Y-69055100D01*
X119695000Y-68580000D02*
X119695000Y-67942300D01*
X118173000Y-67942300D02*
X119695000Y-67942300D01*
X117535000Y-68580000D02*
X118173000Y-67942300D01*
X116525000Y-68580000D02*
X117535000Y-68580000D01*
X120333000Y-67304600D02*
X119695000Y-67942300D01*
X122368000Y-67304600D02*
X120333000Y-67304600D01*
X123316000Y-68252700D02*
X122368000Y-67304600D01*
X123316000Y-74874200D02*
X123316000Y-68252700D01*
X119109000Y-79081300D02*
X123316000Y-74874200D01*
X118274000Y-79081300D02*
X119109000Y-79081300D01*
X115440000Y-81915000D02*
X118274000Y-79081300D01*
X114140000Y-81915000D02*
X115440000Y-81915000D01*
X27625000Y-62224700D02*
X27625000Y-63500000D01*
X27188000Y-62224700D02*
X27625000Y-62224700D01*
X26885700Y-61922400D02*
X27188000Y-62224700D01*
X27625000Y-72384700D02*
X27625000Y-73660000D01*
X27474700Y-72384700D02*
X27625000Y-72384700D01*
X27190400Y-72100400D02*
X27474700Y-72384700D01*
X25261900Y-72100400D02*
X27190400Y-72100400D01*
X23555400Y-73806900D02*
X25261900Y-72100400D01*
X23555400Y-76071600D02*
X23555400Y-73806900D01*
X22110700Y-77516300D02*
X23555400Y-76071600D01*
X22110700Y-82534600D02*
X22110700Y-77516300D01*
X21460300Y-83185000D02*
X22110700Y-82534600D01*
X20160000Y-83185000D02*
X21460300Y-83185000D01*
X135315000Y-63500000D02*
X134305000Y-63500000D01*
X135403000Y-63412500D02*
X135315000Y-63500000D01*
X135610000Y-63412500D02*
X135403000Y-63412500D01*
X134305000Y-72384700D02*
X133219000Y-72384700D01*
X134305000Y-73660000D02*
X134305000Y-72384700D01*
X120840000Y-84455000D02*
X119540000Y-84455000D01*
X125443000Y-79852000D02*
X120840000Y-84455000D01*
X125443000Y-79037400D02*
X125443000Y-79852000D01*
X129545000Y-74935300D02*
X125443000Y-79037400D01*
X129928000Y-74935300D02*
X129545000Y-74935300D01*
X131172000Y-73690500D02*
X129928000Y-74935300D01*
X131172000Y-72896900D02*
X131172000Y-73690500D01*
X131685000Y-72384700D02*
X131172000Y-72896900D01*
X133219000Y-72384700D02*
X131685000Y-72384700D01*
X133219000Y-72384700D02*
X133219000Y-72104500D01*
X218141000Y-63776000D02*
X218180000Y-63776000D01*
X217865000Y-63500000D02*
X218141000Y-63776000D01*
X216855000Y-63500000D02*
X217865000Y-63500000D01*
X216855000Y-73660000D02*
X218165000Y-73660000D01*
X216855000Y-75751800D02*
X216855000Y-73660000D01*
X210690000Y-81916500D02*
X216855000Y-75751800D01*
X210690000Y-83185000D02*
X210690000Y-81916500D01*
X209390000Y-83185000D02*
X210690000Y-83185000D01*
X121605000Y-64775300D02*
X121605000Y-63500000D01*
X122563000Y-64775300D02*
X121605000Y-64775300D01*
X122647000Y-64859800D02*
X122563000Y-64775300D01*
X121354000Y-72134200D02*
X121354000Y-72073500D01*
X121605000Y-72384700D02*
X121354000Y-72134200D01*
X121605000Y-73660000D02*
X121605000Y-72384700D01*
X121605000Y-73779100D02*
X121605000Y-73660000D01*
X118727000Y-76657300D02*
X121605000Y-73779100D01*
X116307000Y-76657300D02*
X118727000Y-76657300D01*
X112840000Y-80124700D02*
X116307000Y-76657300D01*
X112840000Y-83185000D02*
X112840000Y-80124700D01*
X114140000Y-83185000D02*
X112840000Y-83185000D01*
X22545000Y-69855300D02*
X22545000Y-69055100D01*
X22388500Y-69855300D02*
X22545000Y-69855300D01*
X18859700Y-73384100D02*
X22388500Y-69855300D01*
X18859700Y-81915000D02*
X18859700Y-73384100D01*
X20160000Y-81915000D02*
X18859700Y-81915000D01*
X24229600Y-69055100D02*
X22545000Y-69055100D01*
X24704700Y-68580000D02*
X24229600Y-69055100D01*
X25715000Y-68580000D02*
X24704700Y-68580000D01*
X22545000Y-68580000D02*
X22545000Y-69055100D01*
X110410000Y-65010400D02*
X110410000Y-65063400D01*
X110175000Y-64775300D02*
X110410000Y-65010400D01*
X110175000Y-63500000D02*
X110175000Y-64775300D01*
X108438000Y-74935300D02*
X108721000Y-75217900D01*
X108265000Y-74935300D02*
X108438000Y-74935300D01*
X108265000Y-73660000D02*
X108265000Y-74935300D01*
X96680000Y-84455000D02*
X99484000Y-84455000D01*
X192725000Y-73660000D02*
X192725000Y-72384600D01*
X193735000Y-63500000D02*
X192725000Y-63500000D01*
X193735000Y-71374300D02*
X193735000Y-63500000D01*
X192725000Y-72384600D02*
X193735000Y-71374300D01*
X190078000Y-72384600D02*
X192725000Y-72384600D01*
X189306000Y-73156700D02*
X190078000Y-72384600D01*
X189306000Y-74457300D02*
X189306000Y-73156700D01*
X186890000Y-76873200D02*
X189306000Y-74457300D01*
X186890000Y-82855600D02*
X186890000Y-76873200D01*
X186560000Y-83185000D02*
X186890000Y-82855600D01*
X185260000Y-83185000D02*
X186560000Y-83185000D01*
X99755300Y-63500000D02*
X98745000Y-63500000D01*
X99755300Y-73660000D02*
X99755300Y-63500000D01*
X98745000Y-73660000D02*
X99755300Y-73660000D01*
X98745000Y-75687500D02*
X98745000Y-73660000D01*
X92580300Y-81852200D02*
X98745000Y-75687500D01*
X92580300Y-83185000D02*
X92580300Y-81852200D01*
X91280000Y-83185000D02*
X92580300Y-83185000D01*
X93665000Y-68580000D02*
X93665000Y-69055100D01*
X95349600Y-69055100D02*
X93665000Y-69055100D01*
X95824700Y-68580000D02*
X95349600Y-69055100D01*
X96835000Y-68580000D02*
X95824700Y-68580000D01*
X89979700Y-72740400D02*
X93665000Y-69055100D01*
X89979700Y-81915000D02*
X89979700Y-72740400D01*
X91280000Y-81915000D02*
X89979700Y-81915000D01*
X187645000Y-69048100D02*
X187645000Y-68580000D01*
X184150000Y-72543000D02*
X187645000Y-69048100D01*
X184150000Y-77622100D02*
X184150000Y-72543000D01*
X183960000Y-77812500D02*
X184150000Y-77622100D01*
X183960000Y-81915000D02*
X183960000Y-77812500D01*
X185260000Y-81915000D02*
X183960000Y-81915000D01*
X187645000Y-68580000D02*
X190815000Y-68580000D01*
X203515000Y-73493200D02*
X203515000Y-73660000D01*
X204901000Y-72107300D02*
X203515000Y-73493200D01*
X205425000Y-63500000D02*
X206722000Y-63500000D01*
X202505000Y-73660000D02*
X203515000Y-73660000D01*
X202505000Y-74647600D02*
X202505000Y-73660000D01*
X192697000Y-84455000D02*
X202505000Y-74647600D01*
X190660000Y-84455000D02*
X192697000Y-84455000D01*
X200345000Y-68580000D02*
X203515000Y-68580000D01*
X192659000Y-83185000D02*
X192967000Y-82877000D01*
X190660000Y-83185000D02*
X192659000Y-83185000D01*
X200345000Y-70165100D02*
X200345000Y-68580000D01*
X211775000Y-68580000D02*
X214945000Y-68580000D01*
X211775000Y-68834700D02*
X211775000Y-68580000D01*
X208090000Y-72520000D02*
X211775000Y-68834700D01*
X208090000Y-81915000D02*
X208090000Y-72520000D01*
X209390000Y-81915000D02*
X208090000Y-81915000D01*
X164785000Y-68580000D02*
X167955000Y-68580000D01*
X164785000Y-68834700D02*
X164785000Y-68580000D01*
X161100000Y-72520000D02*
X164785000Y-68834700D01*
X161100000Y-81915000D02*
X161100000Y-72520000D01*
X162400000Y-81915000D02*
X161100000Y-81915000D01*
X223205000Y-68580000D02*
X226375000Y-68580000D01*
X223205000Y-68834700D02*
X223205000Y-68580000D01*
X221893000Y-70146900D02*
X223205000Y-68834700D01*
X217502000Y-81773700D02*
X217502000Y-80219400D01*
X216090000Y-83185000D02*
X217502000Y-81773700D01*
X214790000Y-83185000D02*
X216090000Y-83185000D01*
X182305000Y-73660000D02*
X181295000Y-73660000D01*
X182305000Y-63500000D02*
X182305000Y-73660000D01*
X181295000Y-63500000D02*
X182305000Y-63500000D01*
X181295000Y-74575700D02*
X181295000Y-73660000D01*
X178430000Y-77441000D02*
X181295000Y-74575700D01*
X175652000Y-77441000D02*
X178430000Y-77441000D01*
X169100000Y-83992200D02*
X175652000Y-77441000D01*
X169100000Y-84455000D02*
X169100000Y-83992200D01*
X167800000Y-84455000D02*
X169100000Y-84455000D01*
X157165000Y-73660000D02*
X157165000Y-72384700D01*
X154490000Y-72384700D02*
X157165000Y-72384700D01*
X153888000Y-72986800D02*
X154490000Y-72384700D01*
X153888000Y-75053100D02*
X153888000Y-72986800D01*
X149200000Y-79741400D02*
X153888000Y-75053100D01*
X149200000Y-80225600D02*
X149200000Y-79741400D01*
X144970000Y-84455000D02*
X149200000Y-80225600D01*
X143670000Y-84455000D02*
X144970000Y-84455000D01*
X158175000Y-63500000D02*
X157165000Y-63500000D01*
X158826000Y-64150300D02*
X158175000Y-63500000D01*
X158826000Y-70724100D02*
X158826000Y-64150300D01*
X157165000Y-72384700D02*
X158826000Y-70724100D01*
X152085000Y-68580000D02*
X155255000Y-68580000D01*
X144970000Y-83185000D02*
X143670000Y-83185000D01*
X144970000Y-82975800D02*
X144970000Y-83185000D01*
X153166000Y-74779600D02*
X144970000Y-82975800D01*
X153166000Y-72708600D02*
X153166000Y-74779600D01*
X154525000Y-71350000D02*
X153166000Y-72708600D01*
X156649000Y-71350000D02*
X154525000Y-71350000D01*
X158175000Y-69824000D02*
X156649000Y-71350000D01*
X158175000Y-67609200D02*
X158175000Y-69824000D01*
X157871000Y-67304700D02*
X158175000Y-67609200D01*
X155255000Y-67304700D02*
X157871000Y-67304700D01*
X155255000Y-68580000D02*
X155255000Y-67304700D01*
X163700000Y-83185000D02*
X162400000Y-83185000D01*
X165334000Y-81551100D02*
X163700000Y-83185000D01*
X165334000Y-79466100D02*
X165334000Y-81551100D01*
X169865000Y-74935300D02*
X165334000Y-79466100D01*
X169865000Y-73660000D02*
X169865000Y-74935300D01*
X170875000Y-73660000D02*
X169865000Y-73660000D01*
X170875000Y-63500000D02*
X170875000Y-73660000D01*
X169865000Y-63500000D02*
X170875000Y-63500000D01*
X176215000Y-69855300D02*
X176215000Y-68817500D01*
X176112000Y-69855300D02*
X176215000Y-69855300D01*
X166500000Y-79467200D02*
X176112000Y-69855300D01*
X166500000Y-83185000D02*
X166500000Y-79467200D01*
X167800000Y-83185000D02*
X166500000Y-83185000D01*
X178137000Y-68817500D02*
X176215000Y-68817500D01*
X178375000Y-68580000D02*
X178137000Y-68817500D01*
X179385000Y-68580000D02*
X178375000Y-68580000D01*
X176215000Y-68580000D02*
X176215000Y-68817500D01*
X228164000Y-64775300D02*
X227845000Y-65094900D01*
X228285000Y-64775300D02*
X228164000Y-64775300D01*
X228285000Y-63500000D02*
X228285000Y-64775300D01*
X228230000Y-73514300D02*
X228230000Y-73660000D01*
X227100000Y-72384600D02*
X228230000Y-73514300D01*
X225604000Y-72384600D02*
X227100000Y-72384600D01*
X225216000Y-72773000D02*
X225604000Y-72384600D01*
X225216000Y-73836600D02*
X225216000Y-72773000D01*
X218349000Y-80702900D02*
X225216000Y-73836600D01*
X218349000Y-82196000D02*
X218349000Y-80702900D01*
X216090000Y-84455000D02*
X218349000Y-82196000D01*
X214790000Y-84455000D02*
X216090000Y-84455000D01*
X228285000Y-73660000D02*
X228230000Y-73660000D01*
X228230000Y-73660000D02*
X228230000Y-75234600D01*
X97980300Y-81642200D02*
X98270600Y-81351900D01*
X97980300Y-81915000D02*
X97980300Y-81642200D01*
X96680000Y-81915000D02*
X97980300Y-81915000D01*
X101942000Y-73660000D02*
X103185000Y-73660000D01*
X101858000Y-73743700D02*
X101942000Y-73660000D01*
X110175000Y-69855300D02*
X110175000Y-68580000D01*
X106912000Y-69855300D02*
X110175000Y-69855300D01*
X104383000Y-72384700D02*
X106912000Y-69855300D01*
X103185000Y-72384700D02*
X104383000Y-72384700D01*
X103185000Y-73660000D02*
X103185000Y-72384700D01*
X91755000Y-72384700D02*
X91755000Y-73660000D01*
X94284400Y-69855300D02*
X91755000Y-72384700D01*
X98745000Y-69855300D02*
X94284400Y-69855300D01*
X98745000Y-68580000D02*
X98745000Y-69855300D01*
X92580300Y-80645000D02*
X91280000Y-80645000D01*
X92580300Y-75760600D02*
X92580300Y-80645000D01*
X91755000Y-74935300D02*
X92580300Y-75760600D01*
X91755000Y-73660000D02*
X91755000Y-74935300D01*
X134305000Y-67304700D02*
X134305000Y-68580000D01*
X129728000Y-67304700D02*
X134305000Y-67304700D01*
X128427000Y-66004100D02*
X129728000Y-67304700D01*
X127639000Y-66004100D02*
X128427000Y-66004100D01*
X123967000Y-69676200D02*
X127639000Y-66004100D01*
X123967000Y-78788700D02*
X123967000Y-69676200D01*
X120840000Y-81915000D02*
X123967000Y-78788700D01*
X119540000Y-81915000D02*
X120840000Y-81915000D01*
X127315000Y-73539700D02*
X127315000Y-73660000D01*
X130999000Y-69855300D02*
X127315000Y-73539700D01*
X134305000Y-69855300D02*
X130999000Y-69855300D01*
X134305000Y-68580000D02*
X134305000Y-69855300D01*
X121534000Y-69925900D02*
X121534000Y-70296000D01*
X121605000Y-69855300D02*
X121534000Y-69925900D01*
X121605000Y-68580000D02*
X121605000Y-69855300D01*
X115440000Y-80645000D02*
X114140000Y-80645000D01*
X118778000Y-77307700D02*
X115440000Y-80645000D01*
X119946000Y-77307700D02*
X118778000Y-77307700D01*
X122615000Y-74638700D02*
X119946000Y-77307700D01*
X122615000Y-71376900D02*
X122615000Y-74638700D01*
X121534000Y-70296000D02*
X122615000Y-71376900D01*
X114615000Y-72054800D02*
X114615000Y-73660000D01*
X116374000Y-70296000D02*
X114615000Y-72054800D01*
X121534000Y-70296000D02*
X116374000Y-70296000D01*
X63185000Y-69855300D02*
X63185000Y-68580000D01*
X60655600Y-72384700D02*
X63185000Y-69855300D01*
X56195000Y-72384700D02*
X60655600Y-72384700D01*
X56195000Y-73660000D02*
X56195000Y-72384700D01*
X47119700Y-81915000D02*
X48420000Y-81915000D01*
X47119700Y-80094300D02*
X47119700Y-81915000D01*
X48079700Y-79134300D02*
X47119700Y-80094300D01*
X49710400Y-79134300D02*
X48079700Y-79134300D01*
X55184700Y-73660000D02*
X49710400Y-79134300D01*
X56195000Y-73660000D02*
X55184700Y-73660000D01*
X185735000Y-72384700D02*
X185735000Y-73660000D01*
X188264000Y-69855300D02*
X185735000Y-72384700D01*
X192725000Y-69855300D02*
X188264000Y-69855300D01*
X192725000Y-68580000D02*
X192725000Y-69855300D01*
X185039000Y-80424000D02*
X185260000Y-80645000D01*
X185039000Y-75631300D02*
X185039000Y-80424000D01*
X185735000Y-74935300D02*
X185039000Y-75631300D01*
X185735000Y-73660000D02*
X185735000Y-74935300D01*
X67625000Y-73538900D02*
X67625000Y-73660000D01*
X71308600Y-69855300D02*
X67625000Y-73538900D01*
X74615000Y-69855300D02*
X71308600Y-69855300D01*
X74615000Y-68580000D02*
X74615000Y-69855300D01*
X68450300Y-80645000D02*
X67150000Y-80645000D01*
X68450300Y-75923200D02*
X68450300Y-80645000D01*
X67625000Y-75097900D02*
X68450300Y-75923200D01*
X67625000Y-73660000D02*
X67625000Y-75097900D01*
X50485000Y-68712200D02*
X50485000Y-68580000D01*
X46812500Y-72384700D02*
X50485000Y-68712200D01*
X43495000Y-72384700D02*
X46812500Y-72384700D01*
X43495000Y-73660000D02*
X43495000Y-72384700D01*
X44320300Y-80645000D02*
X43020000Y-80645000D01*
X44320300Y-75760600D02*
X44320300Y-80645000D01*
X43495000Y-74935300D02*
X44320300Y-75760600D01*
X43495000Y-73660000D02*
X43495000Y-74935300D01*
X79055000Y-73571900D02*
X79055000Y-73660000D01*
X82771600Y-69855300D02*
X79055000Y-73571900D01*
X86045000Y-69855300D02*
X82771600Y-69855300D01*
X86045000Y-68580000D02*
X86045000Y-69855300D01*
X74461400Y-81915000D02*
X72550000Y-81915000D01*
X75816400Y-80560000D02*
X74461400Y-81915000D01*
X75816400Y-75888300D02*
X75816400Y-80560000D01*
X78044700Y-73660000D02*
X75816400Y-75888300D01*
X79055000Y-73660000D02*
X78044700Y-73660000D01*
X198435000Y-72384700D02*
X198435000Y-73660000D01*
X202896000Y-72384700D02*
X198435000Y-72384700D01*
X205425000Y-69855300D02*
X202896000Y-72384700D01*
X205425000Y-68580000D02*
X205425000Y-69855300D01*
X191960000Y-81915000D02*
X190660000Y-81915000D01*
X191960000Y-79124400D02*
X191960000Y-81915000D01*
X197425000Y-73660000D02*
X191960000Y-79124400D01*
X198435000Y-73660000D02*
X197425000Y-73660000D01*
X216855000Y-69855300D02*
X216855000Y-68580000D01*
X212394000Y-69855300D02*
X216855000Y-69855300D01*
X209865000Y-72384700D02*
X212394000Y-69855300D01*
X209865000Y-73660000D02*
X209865000Y-72384700D01*
X210690000Y-80645000D02*
X209390000Y-80645000D01*
X210690000Y-75760600D02*
X210690000Y-80645000D01*
X209865000Y-74935300D02*
X210690000Y-75760600D01*
X209865000Y-73660000D02*
X209865000Y-74935300D01*
X138745000Y-73537100D02*
X138745000Y-73660000D01*
X142427000Y-69855300D02*
X138745000Y-73537100D01*
X145735000Y-69855300D02*
X142427000Y-69855300D01*
X145735000Y-68580000D02*
X145735000Y-69855300D01*
X139570000Y-80645000D02*
X138270000Y-80645000D01*
X139570000Y-75760600D02*
X139570000Y-80645000D01*
X138745000Y-74935300D02*
X139570000Y-75760600D01*
X138745000Y-73660000D02*
X138745000Y-74935300D01*
X216090000Y-81915000D02*
X214790000Y-81915000D01*
X216090000Y-77854400D02*
X216090000Y-81915000D01*
X220285000Y-73660000D02*
X216090000Y-77854400D01*
X221295000Y-73660000D02*
X220285000Y-73660000D01*
X228285000Y-69855300D02*
X228285000Y-68580000D01*
X223824000Y-69855300D02*
X228285000Y-69855300D01*
X221295000Y-72384700D02*
X223824000Y-69855300D01*
X221295000Y-73660000D02*
X221295000Y-72384700D01*
X157165000Y-69855300D02*
X157165000Y-68580000D01*
X152704000Y-69855300D02*
X157165000Y-69855300D01*
X150175000Y-72384700D02*
X152704000Y-69855300D01*
X150175000Y-73660000D02*
X150175000Y-72384700D01*
X149165000Y-73660000D02*
X150175000Y-73660000D01*
X144970000Y-77854400D02*
X149165000Y-73660000D01*
X144970000Y-81915000D02*
X144970000Y-77854400D01*
X143670000Y-81915000D02*
X144970000Y-81915000D01*
X169865000Y-69855300D02*
X169865000Y-68580000D01*
X165404000Y-69855300D02*
X169865000Y-69855300D01*
X162875000Y-72384700D02*
X165404000Y-69855300D01*
X162875000Y-73660000D02*
X162875000Y-72384700D01*
X163700000Y-80645000D02*
X162400000Y-80645000D01*
X163700000Y-75760600D02*
X163700000Y-80645000D01*
X162875000Y-74935300D02*
X163700000Y-75760600D01*
X162875000Y-73660000D02*
X162875000Y-74935300D01*
X174305000Y-77301800D02*
X174305000Y-73660000D01*
X169692000Y-81915000D02*
X174305000Y-77301800D01*
X167800000Y-81915000D02*
X169692000Y-81915000D01*
X181295000Y-69855300D02*
X181295000Y-68580000D01*
X178020000Y-69855300D02*
X181295000Y-69855300D01*
X174305000Y-73570800D02*
X178020000Y-69855300D01*
X174305000Y-73660000D02*
X174305000Y-73570800D01*
X32065000Y-75162400D02*
X32065000Y-73660000D01*
X32144000Y-75241400D02*
X32065000Y-75162400D01*
X25560000Y-81915000D02*
X27142600Y-81915000D01*
X32065000Y-72384700D02*
X32065000Y-73660000D01*
X33683400Y-72384700D02*
X32065000Y-72384700D01*
X36212800Y-69855300D02*
X33683400Y-72384700D01*
X39055000Y-69855300D02*
X36212800Y-69855300D01*
X39055000Y-68580000D02*
X39055000Y-69855300D01*
X20635000Y-73538400D02*
X20635000Y-73660000D01*
X24318100Y-69855300D02*
X20635000Y-73538400D01*
X27625000Y-69855300D02*
X24318100Y-69855300D01*
X27625000Y-68580000D02*
X27625000Y-69855300D01*
X21460300Y-80645000D02*
X20160000Y-80645000D01*
X21460300Y-75760600D02*
X21460300Y-80645000D01*
X20635000Y-74935300D02*
X21460300Y-75760600D01*
X20635000Y-73660000D02*
X20635000Y-74935300D01*
D32*
X99060000Y-58960000D02*
X99060000Y-57184700D01*
X33975000Y-63500000D02*
X33975000Y-65025300D01*
X110490000Y-58960000D02*
X110490000Y-57184700D01*
X223205000Y-63500000D02*
X223205000Y-61974700D01*
X228600000Y-60735300D02*
X228600000Y-58960000D01*
X224444000Y-60735300D02*
X228600000Y-60735300D01*
X223205000Y-61974700D02*
X224444000Y-60735300D01*
X152597000Y-61974700D02*
X152748000Y-61824200D01*
X152085000Y-61974700D02*
X152597000Y-61974700D01*
X152085000Y-63500000D02*
X152085000Y-61974700D01*
X145762000Y-57184700D02*
X134620000Y-57184700D01*
X146050000Y-57472300D02*
X145762000Y-57184700D01*
X146050000Y-58960000D02*
X146050000Y-57472300D01*
X99779700Y-56465000D02*
X99060000Y-57184700D01*
X109770000Y-56465000D02*
X99779700Y-56465000D01*
X110490000Y-57184700D02*
X109770000Y-56465000D01*
X129225000Y-63500000D02*
X129225000Y-64746800D01*
X130666000Y-66187300D02*
X129225000Y-64746800D01*
X139493000Y-66187300D02*
X130666000Y-66187300D01*
X140655000Y-65025300D02*
X139493000Y-66187300D01*
X140655000Y-63500000D02*
X140655000Y-65025300D01*
X33760000Y-80010000D02*
X33760000Y-78389000D01*
X34816000Y-77333000D02*
X36065800Y-77333000D01*
X33760000Y-78389000D02*
X34816000Y-77333000D01*
X52370100Y-62305400D02*
X52469600Y-62305400D01*
X50800000Y-60735300D02*
X52370100Y-62305400D01*
X50800000Y-58960000D02*
X50800000Y-60735300D01*
X37209700Y-93089700D02*
X38100000Y-93980000D01*
X23884800Y-93089700D02*
X37209700Y-93089700D01*
X23884800Y-94615000D02*
X23884800Y-93089700D01*
X57890000Y-78434700D02*
X57890000Y-80010000D01*
X57729400Y-78434700D02*
X57890000Y-78434700D01*
X56781300Y-77486600D02*
X57729400Y-78434700D01*
X222559000Y-61328800D02*
X223205000Y-61974700D01*
X217451000Y-61328800D02*
X222559000Y-61328800D01*
X217170000Y-60735300D02*
X217170000Y-58960000D01*
X217451000Y-61016300D02*
X217170000Y-60735300D01*
X217451000Y-61328800D02*
X217451000Y-61016300D01*
X205740000Y-60735300D02*
X205740000Y-58960000D01*
X205804000Y-60798900D02*
X205740000Y-60735300D01*
X205804000Y-60931400D02*
X205804000Y-60798900D01*
X201605000Y-63500000D02*
X200345000Y-63500000D01*
X201605000Y-63972600D02*
X201605000Y-63500000D01*
X202658000Y-65025400D02*
X201605000Y-63972600D01*
X206893000Y-65025400D02*
X202658000Y-65025400D01*
X207901000Y-64017200D02*
X206893000Y-65025400D01*
X207901000Y-61974700D02*
X207901000Y-64017200D01*
X211775000Y-61974700D02*
X207901000Y-61974700D01*
X211775000Y-63500000D02*
X211775000Y-61974700D01*
X206847000Y-61974700D02*
X205804000Y-60931400D01*
X207901000Y-61974700D02*
X206847000Y-61974700D01*
X138430000Y-95250000D02*
X136178000Y-95250000D01*
X136145000Y-95282300D02*
X136178000Y-95250000D01*
X136145000Y-96205000D02*
X136145000Y-95282300D01*
X134620000Y-96205000D02*
X136145000Y-96205000D01*
X134737000Y-85737200D02*
X129010000Y-80010000D01*
X134737000Y-90425800D02*
X134737000Y-85737200D01*
X136178000Y-91866200D02*
X134737000Y-90425800D01*
X136178000Y-95250000D02*
X136178000Y-91866200D01*
X111441000Y-69872800D02*
X111441000Y-66258000D01*
X109462000Y-71851900D02*
X111441000Y-69872800D01*
X107728000Y-71851900D02*
X109462000Y-71851900D01*
X106355000Y-73224000D02*
X107728000Y-71851900D01*
X106355000Y-76959300D02*
X106355000Y-73224000D01*
X104880000Y-78434700D02*
X106355000Y-76959300D01*
X104880000Y-80010000D02*
X104880000Y-78434700D01*
X106355000Y-63500000D02*
X105095000Y-63500000D01*
X106355000Y-63972600D02*
X106355000Y-63500000D01*
X108641000Y-66258000D02*
X106355000Y-63972600D01*
X111441000Y-66258000D02*
X108641000Y-66258000D01*
X111590000Y-66258000D02*
X111441000Y-66258000D01*
X113289000Y-64559300D02*
X111590000Y-66258000D01*
X113755000Y-65025300D02*
X113289000Y-64559300D01*
X115442000Y-65025300D02*
X113755000Y-65025300D01*
X116525000Y-63942300D02*
X115442000Y-65025300D01*
X116525000Y-63500000D02*
X116525000Y-63942300D01*
X110490000Y-60735300D02*
X110490000Y-58960000D01*
X113289000Y-63534000D02*
X110490000Y-60735300D01*
X113289000Y-64559300D02*
X113289000Y-63534000D01*
X146050000Y-60735300D02*
X146050000Y-58960000D01*
X147893000Y-60735300D02*
X146050000Y-60735300D01*
X128946000Y-65025300D02*
X129225000Y-64746800D01*
X124761000Y-65025300D02*
X128946000Y-65025300D01*
X123842000Y-64105500D02*
X124761000Y-65025300D01*
X123842000Y-62656900D02*
X123842000Y-64105500D01*
X121920000Y-60735300D02*
X123842000Y-62656900D01*
X121920000Y-58960000D02*
X121920000Y-60735300D01*
X152041000Y-78264000D02*
X152449000Y-78264000D01*
X151870000Y-78434700D02*
X152041000Y-78264000D01*
X151870000Y-80010000D02*
X151870000Y-78434700D01*
X181650000Y-60735300D02*
X181800000Y-60885600D01*
X181610000Y-60735300D02*
X181650000Y-60735300D01*
X181610000Y-58960000D02*
X181610000Y-60735300D01*
X183494000Y-62579800D02*
X181800000Y-60885600D01*
X183494000Y-63606100D02*
X183494000Y-62579800D01*
X184913000Y-65025300D02*
X183494000Y-63606100D01*
X183235000Y-66703500D02*
X184913000Y-65025300D01*
X183235000Y-74129900D02*
X183235000Y-66703500D01*
X178930000Y-78434700D02*
X183235000Y-74129900D01*
X176000000Y-78434700D02*
X178930000Y-78434700D01*
X176000000Y-80010000D02*
X176000000Y-78434700D01*
X187645000Y-65025300D02*
X187645000Y-63500000D01*
X184913000Y-65025300D02*
X187645000Y-65025300D01*
X176215000Y-65025300D02*
X176215000Y-63500000D01*
X173483000Y-65025300D02*
X176215000Y-65025300D01*
X171776000Y-63317800D02*
X173483000Y-65025300D01*
X171776000Y-62877900D02*
X171776000Y-63317800D01*
X170227000Y-61328800D02*
X171776000Y-62877900D01*
X170227000Y-60781900D02*
X170227000Y-61328800D01*
X170180000Y-60735300D02*
X170227000Y-60781900D01*
X170180000Y-58960000D02*
X170180000Y-60735300D01*
X200130000Y-78434700D02*
X200130000Y-80010000D01*
X200457000Y-78434700D02*
X200130000Y-78434700D01*
X201022000Y-77870400D02*
X200457000Y-78434700D01*
X86360000Y-60735300D02*
X86360000Y-58960000D01*
X87339900Y-61715200D02*
X86360000Y-60735300D01*
X87339900Y-65025400D02*
X87339900Y-61715200D01*
X83278100Y-65025400D02*
X87339900Y-65025400D01*
X82225300Y-63972600D02*
X83278100Y-65025400D01*
X82225300Y-63500000D02*
X82225300Y-63972600D01*
X80965000Y-63500000D02*
X82225300Y-63500000D01*
X93665000Y-63947900D02*
X93665000Y-63500000D01*
X92587500Y-65025400D02*
X93665000Y-63947900D01*
X87339900Y-65025400D02*
X92587500Y-65025400D01*
X193078000Y-60735300D02*
X193228000Y-60885600D01*
X193040000Y-60735300D02*
X193078000Y-60735300D01*
X193040000Y-58960000D02*
X193040000Y-60735300D01*
X159726000Y-73918300D02*
X155546000Y-78097900D01*
X159726000Y-67074800D02*
X159726000Y-73918300D01*
X161776000Y-65025300D02*
X159726000Y-67074800D01*
X164785000Y-65025300D02*
X161776000Y-65025300D01*
X164785000Y-63500000D02*
X164785000Y-65025300D01*
X161776000Y-65025300D02*
X158079000Y-61328800D01*
X157480000Y-60735300D02*
X157480000Y-58960000D01*
X157486000Y-60735300D02*
X157480000Y-60735300D01*
X158079000Y-61328800D02*
X157486000Y-60735300D01*
X74730800Y-60934500D02*
X74730800Y-61512800D01*
X74930000Y-60735300D02*
X74730800Y-60934500D01*
X74930000Y-58960000D02*
X74930000Y-60735300D01*
X63500000Y-58960000D02*
X63500000Y-61512800D01*
X69535000Y-65025300D02*
X69535000Y-63500000D01*
X66803200Y-65025300D02*
X69535000Y-65025300D01*
X65095700Y-63317800D02*
X66803200Y-65025300D01*
X65095700Y-63034000D02*
X65095700Y-63317800D01*
X63574500Y-61512800D02*
X65095700Y-63034000D01*
X63500000Y-61512800D02*
X63574500Y-61512800D01*
X222990000Y-78434700D02*
X222990000Y-80010000D01*
X223507000Y-78434700D02*
X222990000Y-78434700D01*
X223670000Y-78271000D02*
X223507000Y-78434700D01*
X58105000Y-61908300D02*
X58032200Y-61835500D01*
X58105000Y-63500000D02*
X58105000Y-61908300D01*
X80835600Y-61845300D02*
X78424700Y-61845300D01*
X80965000Y-61974700D02*
X80835600Y-61845300D01*
X80965000Y-63500000D02*
X80965000Y-61974700D01*
X78922300Y-76803800D02*
X78922300Y-76803700D01*
X79119100Y-76803800D02*
X78922300Y-76803800D01*
X80750000Y-78434700D02*
X79119100Y-76803800D01*
X80750000Y-80010000D02*
X80750000Y-78434700D01*
X23805300Y-63500000D02*
X22545000Y-63500000D01*
X23805300Y-63972600D02*
X23805300Y-63500000D01*
X24858000Y-65025300D02*
X23805300Y-63972600D01*
X28488800Y-65025300D02*
X24858000Y-65025300D01*
X28895500Y-64618600D02*
X28488800Y-65025300D01*
X28895500Y-61690800D02*
X28895500Y-64618600D01*
X27940000Y-60735300D02*
X28895500Y-61690800D01*
X27940000Y-58960000D02*
X27940000Y-60735300D01*
X27940000Y-57184700D02*
X27940000Y-58960000D01*
X39370000Y-57184700D02*
X27940000Y-57184700D01*
X40529700Y-56025000D02*
X39370000Y-57184700D01*
X97900300Y-56025000D02*
X40529700Y-56025000D01*
X99060000Y-57184700D02*
X97900300Y-56025000D01*
X32638900Y-65025300D02*
X33975000Y-65025300D01*
X30785200Y-66879000D02*
X32638900Y-65025300D01*
X30785200Y-75648600D02*
X30785200Y-66879000D01*
X33525600Y-78389000D02*
X30785200Y-75648600D01*
X33760000Y-78389000D02*
X33525600Y-78389000D01*
X33975000Y-65025300D02*
X40315400Y-65025300D01*
X45405000Y-63947500D02*
X45405000Y-63500000D01*
X44327200Y-65025300D02*
X45405000Y-63947500D01*
X40315400Y-65025300D02*
X44327200Y-65025300D01*
X39370000Y-57184700D02*
X39370000Y-58960000D01*
X40315400Y-61680700D02*
X40315400Y-65025300D01*
X39370000Y-60735300D02*
X40315400Y-61680700D01*
X39370000Y-58960000D02*
X39370000Y-60735300D01*
X141885000Y-111760000D02*
X143510000Y-111760000D01*
X134570000Y-104445000D02*
X141885000Y-111760000D01*
X125200000Y-104445000D02*
X134570000Y-104445000D01*
X125200000Y-102870000D02*
X125200000Y-104445000D01*
X143510000Y-111760000D02*
X146050000Y-111760000D01*
X134620000Y-58960000D02*
X134620000Y-57184700D01*
X134620000Y-57184700D02*
X121920000Y-57184700D01*
X121920000Y-58960000D02*
X121920000Y-57184700D01*
X121920000Y-57184700D02*
X110490000Y-57184700D01*
X226590000Y-75400300D02*
X226590000Y-80010000D01*
X226375000Y-75185300D02*
X226590000Y-75400300D01*
X226375000Y-73660000D02*
X226375000Y-75185300D01*
X21710300Y-85910000D02*
X21710300Y-84455000D01*
X21905000Y-86104700D02*
X21710300Y-85910000D01*
X21905000Y-87630000D02*
X21905000Y-86104700D01*
X185420000Y-61659700D02*
X185420000Y-58960000D01*
X185735000Y-61974700D02*
X185420000Y-61659700D01*
X185735000Y-63500000D02*
X185735000Y-61974700D01*
X190815000Y-73660000D02*
X190815000Y-75185300D01*
X61490000Y-81585300D02*
X61490000Y-80010000D01*
X64359700Y-84455000D02*
X61490000Y-81585300D01*
X67150000Y-84455000D02*
X64359700Y-84455000D01*
X162875000Y-61974700D02*
X162875000Y-63500000D01*
X162560000Y-61659700D02*
X162875000Y-61974700D01*
X162560000Y-58960000D02*
X162560000Y-61659700D01*
X185260000Y-84455000D02*
X186810000Y-84455000D01*
X186810000Y-85910000D02*
X186810000Y-84455000D01*
X187005000Y-86104700D02*
X186810000Y-85910000D01*
X187005000Y-87630000D02*
X187005000Y-86104700D01*
X20635000Y-61974700D02*
X20635000Y-63500000D01*
X20320000Y-61659700D02*
X20635000Y-61974700D01*
X20320000Y-58960000D02*
X20320000Y-61659700D01*
X25715000Y-73660000D02*
X25715000Y-75185300D01*
X112429000Y-98804700D02*
X112545000Y-98688500D01*
X112075000Y-98804700D02*
X112429000Y-98804700D01*
X112075000Y-100330000D02*
X112075000Y-98804700D01*
X179600000Y-87630000D02*
X179600000Y-86054700D01*
X211135000Y-84649700D02*
X211135000Y-87630000D01*
X210940000Y-84455000D02*
X211135000Y-84649700D01*
X209390000Y-84455000D02*
X210940000Y-84455000D01*
X203730000Y-86054700D02*
X203730000Y-87630000D01*
X205965000Y-83820000D02*
X203730000Y-86054700D01*
X206600000Y-84455000D02*
X205965000Y-83820000D01*
X209390000Y-84455000D02*
X206600000Y-84455000D01*
X203730000Y-81585300D02*
X203730000Y-80010000D01*
X205965000Y-83820000D02*
X203730000Y-81585300D01*
X127315000Y-63500000D02*
X127315000Y-61960500D01*
X127000000Y-60735300D02*
X127000000Y-58960000D01*
X127315000Y-61050300D02*
X127000000Y-60735300D01*
X127315000Y-61960500D02*
X127315000Y-61050300D01*
X21149700Y-102235000D02*
X22700000Y-102235000D01*
X21149700Y-89910600D02*
X21149700Y-102235000D01*
X21905000Y-89155300D02*
X21149700Y-89910600D01*
X21905000Y-87630000D02*
X21905000Y-89155300D01*
X205425000Y-73660000D02*
X205964000Y-73660000D01*
X38100000Y-109220000D02*
X33975000Y-109220000D01*
X33975000Y-110745000D02*
X33975000Y-109220000D01*
X31210300Y-110745000D02*
X33975000Y-110745000D01*
X24250300Y-103785000D02*
X31210300Y-110745000D01*
X24250300Y-102235000D02*
X24250300Y-103785000D01*
X22700000Y-102235000D02*
X24250300Y-102235000D01*
X173990000Y-58960000D02*
X173990000Y-57184700D01*
X174305000Y-61050300D02*
X174305000Y-63500000D01*
X173990000Y-60735300D02*
X174305000Y-61050300D01*
X173990000Y-58960000D02*
X173990000Y-60735300D01*
X178411000Y-109475000D02*
X179070000Y-110135000D01*
X177485000Y-109475000D02*
X178411000Y-109475000D01*
X177485000Y-107950000D02*
X177485000Y-109475000D01*
X181809000Y-80010000D02*
X179600000Y-80010000D01*
X179600000Y-86054700D02*
X182455000Y-83200000D01*
X181809000Y-82554400D02*
X182455000Y-83200000D01*
X181809000Y-80010000D02*
X181809000Y-82554400D01*
X183710000Y-84455000D02*
X185260000Y-84455000D01*
X182455000Y-83200000D02*
X183710000Y-84455000D01*
X209865000Y-63500000D02*
X209865000Y-65025300D01*
X134620000Y-99375000D02*
X134620000Y-98959300D01*
X37360000Y-80010000D02*
X37360000Y-81585300D01*
X37145000Y-75185300D02*
X37145000Y-73660000D01*
X37360000Y-75400300D02*
X37145000Y-75185300D01*
X37360000Y-80010000D02*
X37360000Y-75400300D01*
X37360000Y-87630000D02*
X39435300Y-87630000D01*
X39775400Y-87289900D02*
X39435300Y-87630000D01*
X43164600Y-87289900D02*
X39775400Y-87289900D01*
X43504700Y-87630000D02*
X43164600Y-87289900D01*
X44765000Y-87630000D02*
X43504700Y-87630000D01*
X20160000Y-84455000D02*
X21710300Y-84455000D01*
X67150000Y-84455000D02*
X68700300Y-84455000D01*
X61275000Y-75185300D02*
X61275000Y-73660000D01*
X61490000Y-75400300D02*
X61275000Y-75185300D01*
X61490000Y-80010000D02*
X61490000Y-75400300D01*
X48575000Y-73206600D02*
X48575000Y-73660000D01*
X50222200Y-71559400D02*
X48575000Y-73206600D01*
X50766300Y-71559400D02*
X50222200Y-71559400D01*
X54934700Y-67391000D02*
X50766300Y-71559400D01*
X54934700Y-63500000D02*
X54934700Y-67391000D01*
X56195000Y-63500000D02*
X54934700Y-63500000D01*
X103185000Y-61050300D02*
X103185000Y-63500000D01*
X102870000Y-60735300D02*
X103185000Y-61050300D01*
X102870000Y-58960000D02*
X102870000Y-60735300D01*
X111435000Y-73660000D02*
X111435000Y-75189400D01*
X110175000Y-73660000D02*
X111435000Y-73660000D01*
X108480000Y-78434700D02*
X108480000Y-80010000D01*
X111435000Y-75479400D02*
X108480000Y-78434700D01*
X111435000Y-75189400D02*
X111435000Y-75479400D01*
X185420000Y-58960000D02*
X185420000Y-57184700D01*
X72705000Y-75974900D02*
X72705000Y-73660000D01*
X70001100Y-78678800D02*
X72705000Y-75974900D01*
X70001100Y-83154200D02*
X70001100Y-78678800D01*
X68700300Y-84455000D02*
X70001100Y-83154200D01*
X166055000Y-97534700D02*
X166055000Y-99060000D01*
X164625000Y-96105000D02*
X166055000Y-97534700D01*
X164625000Y-95250000D02*
X164625000Y-96105000D01*
X163400000Y-95250000D02*
X164625000Y-95250000D01*
X203730000Y-75894400D02*
X205964000Y-73660000D01*
X203730000Y-80010000D02*
X203730000Y-75894400D01*
X206717000Y-72907200D02*
X206717000Y-66819200D01*
X205964000Y-73660000D02*
X206717000Y-72907200D01*
X39435300Y-92775300D02*
X39435300Y-87630000D01*
X40640000Y-93980000D02*
X39435300Y-92775300D01*
X164145000Y-86054700D02*
X179600000Y-86054700D01*
X163950000Y-85860000D02*
X164145000Y-86054700D01*
X163950000Y-84455000D02*
X163950000Y-85860000D01*
X162400000Y-84455000D02*
X163950000Y-84455000D01*
X163400000Y-105930000D02*
X163400000Y-104140000D01*
X166055000Y-106425000D02*
X166055000Y-107950000D01*
X165560000Y-105930000D02*
X166055000Y-106425000D01*
X163400000Y-105930000D02*
X165560000Y-105930000D01*
X157570000Y-111760000D02*
X151130000Y-111760000D01*
X163400000Y-105930000D02*
X157570000Y-111760000D01*
X148590000Y-111760000D02*
X151130000Y-111760000D01*
X139700000Y-102870000D02*
X128800000Y-102870000D01*
X148590000Y-111760000D02*
X139700000Y-102870000D01*
X179070000Y-111760000D02*
X179070000Y-110135000D01*
X184251000Y-110135000D02*
X188976000Y-105410000D01*
X179070000Y-110135000D02*
X184251000Y-110135000D01*
X208071000Y-66819200D02*
X206717000Y-66819200D01*
X209865000Y-65025300D02*
X208071000Y-66819200D01*
X218140000Y-69850500D02*
X218140000Y-65025300D01*
X215856000Y-72134700D02*
X218140000Y-69850500D01*
X214945000Y-72134700D02*
X215856000Y-72134700D01*
X214945000Y-73660000D02*
X214945000Y-72134700D01*
X209865000Y-65025300D02*
X218140000Y-65025300D01*
X220035000Y-63500000D02*
X221295000Y-63500000D01*
X220035000Y-63657500D02*
X220035000Y-63500000D01*
X218667000Y-65025300D02*
X220035000Y-63657500D01*
X218140000Y-65025300D02*
X218667000Y-65025300D01*
X56195000Y-61050300D02*
X56195000Y-63500000D01*
X55880000Y-60735300D02*
X56195000Y-61050300D01*
X55880000Y-58960000D02*
X55880000Y-60735300D01*
X84350000Y-80010000D02*
X84350000Y-81585300D01*
X117378000Y-75189400D02*
X111435000Y-75189400D01*
X118435000Y-74132600D02*
X117378000Y-75189400D01*
X118435000Y-73660000D02*
X118435000Y-74132600D01*
X119695000Y-73660000D02*
X118435000Y-73660000D01*
X164145000Y-86054700D02*
X164145000Y-87630000D01*
X68895000Y-86104700D02*
X68895000Y-87630000D01*
X69486900Y-85512800D02*
X68895000Y-86104700D01*
X68700300Y-84726300D02*
X68700300Y-84455000D01*
X69486900Y-85512800D02*
X68700300Y-84726300D01*
X114615000Y-61368700D02*
X114615000Y-63500000D01*
X114575000Y-61328800D02*
X114615000Y-61368700D01*
X114575000Y-61010400D02*
X114575000Y-61328800D01*
X114300000Y-60735300D02*
X114575000Y-61010400D01*
X114300000Y-58960000D02*
X114300000Y-60735300D01*
X132610000Y-80010000D02*
X132610000Y-78434700D01*
X132395000Y-75185300D02*
X132395000Y-73660000D01*
X132610000Y-75400300D02*
X132395000Y-75185300D01*
X132610000Y-78434700D02*
X132610000Y-75400300D01*
X134620000Y-94295000D02*
X133587000Y-94295000D01*
X132610000Y-93318200D02*
X132610000Y-87630000D01*
X133587000Y-94295000D02*
X132610000Y-93318200D01*
X128800000Y-95250000D02*
X133031000Y-95250000D01*
X133031000Y-97370200D02*
X133031000Y-95250000D01*
X134620000Y-98959300D02*
X133031000Y-97370200D01*
X133031000Y-94850900D02*
X133587000Y-94295000D01*
X133031000Y-95250000D02*
X133031000Y-94850900D01*
X139820000Y-84455000D02*
X138270000Y-84455000D01*
X139820000Y-85910000D02*
X139820000Y-84455000D01*
X140015000Y-86104700D02*
X139820000Y-85910000D01*
X140015000Y-87630000D02*
X140015000Y-86104700D01*
X143825000Y-73208100D02*
X143825000Y-73660000D01*
X145229000Y-71804100D02*
X143825000Y-73208100D01*
X146024000Y-71804100D02*
X145229000Y-71804100D01*
X148915000Y-68913000D02*
X146024000Y-71804100D01*
X148915000Y-63500000D02*
X148915000Y-68913000D01*
X150175000Y-63500000D02*
X148915000Y-63500000D01*
X138745000Y-61974700D02*
X138745000Y-63500000D01*
X138430000Y-61659700D02*
X138745000Y-61974700D01*
X138430000Y-58960000D02*
X138430000Y-61659700D01*
X127389000Y-78434700D02*
X132610000Y-78434700D01*
X126935000Y-78888800D02*
X127389000Y-78434700D01*
X126935000Y-81131200D02*
X126935000Y-78888800D01*
X131858000Y-86054700D02*
X126935000Y-81131200D01*
X132610000Y-86054700D02*
X131858000Y-86054700D01*
X132610000Y-87630000D02*
X132610000Y-86054700D01*
X149860000Y-57184700D02*
X162560000Y-57184700D01*
X149860000Y-58960000D02*
X149860000Y-57184700D01*
X149860000Y-61682000D02*
X149860000Y-58960000D01*
X148976000Y-62565600D02*
X149860000Y-61682000D01*
X148915000Y-62627200D02*
X148976000Y-62565600D01*
X148915000Y-63500000D02*
X148915000Y-62627200D01*
X125977000Y-63577300D02*
X125117000Y-63577300D01*
X126055000Y-63500000D02*
X125977000Y-63577300D01*
X127315000Y-63500000D02*
X126055000Y-63500000D01*
X136755000Y-97790000D02*
X138430000Y-97790000D01*
X135585000Y-98959300D02*
X136755000Y-97790000D01*
X134620000Y-98959300D02*
X135585000Y-98959300D01*
X140105000Y-97790000D02*
X138430000Y-97790000D01*
X140105000Y-89245600D02*
X140105000Y-97790000D01*
X140015000Y-89155300D02*
X140105000Y-89245600D01*
X140015000Y-87630000D02*
X140015000Y-89155300D01*
X155470000Y-86054700D02*
X155470000Y-87630000D01*
X157705000Y-83820000D02*
X155470000Y-86054700D01*
X158340000Y-84455000D02*
X157705000Y-83820000D01*
X162400000Y-84455000D02*
X158340000Y-84455000D01*
X155470000Y-81585300D02*
X155470000Y-80010000D01*
X157705000Y-83820000D02*
X155470000Y-81585300D01*
X164761000Y-102515000D02*
X166055000Y-101221000D01*
X163400000Y-102515000D02*
X164761000Y-102515000D01*
X163400000Y-104140000D02*
X163400000Y-102515000D01*
X166055000Y-101221000D02*
X166055000Y-99060000D01*
X173605000Y-104140000D02*
X174830000Y-104140000D01*
X171336000Y-101872000D02*
X173605000Y-104140000D01*
X171336000Y-101221000D02*
X171336000Y-101872000D01*
X166055000Y-101221000D02*
X171336000Y-101221000D01*
X174830000Y-95250000D02*
X174830000Y-97534700D01*
X174706000Y-97534700D02*
X174830000Y-97534700D01*
X172580000Y-99660500D02*
X174706000Y-97534700D01*
X172580000Y-99977100D02*
X172580000Y-99660500D01*
X171336000Y-101221000D02*
X172580000Y-99977100D01*
X177485000Y-97534700D02*
X177485000Y-99060000D01*
X174830000Y-97534700D02*
X177485000Y-97534700D01*
X179385000Y-75185300D02*
X179385000Y-73660000D01*
X178702000Y-75185300D02*
X179385000Y-75185300D01*
X178541000Y-75345600D02*
X178702000Y-75185300D01*
X124726000Y-98795700D02*
X128800000Y-102870000D01*
X112653000Y-98795700D02*
X124726000Y-98795700D01*
X112545000Y-98688500D02*
X112653000Y-98795700D01*
X68895000Y-89978200D02*
X68895000Y-87630000D01*
X67624900Y-91248300D02*
X68895000Y-89978200D01*
X66574800Y-91248300D02*
X67624900Y-91248300D01*
X65752700Y-90426200D02*
X66574800Y-91248300D01*
X65390100Y-90426200D02*
X65752700Y-90426200D01*
X63565300Y-88601400D02*
X65390100Y-90426200D01*
X63565300Y-87630000D02*
X63565300Y-88601400D01*
X61490000Y-87630000D02*
X63565300Y-87630000D01*
X101915000Y-105410000D02*
X101915000Y-103885000D01*
X112075000Y-103885000D02*
X101915000Y-103885000D01*
X112075000Y-100330000D02*
X112075000Y-103885000D01*
X101915000Y-103885000D02*
X101915000Y-100330000D01*
X169657000Y-72134700D02*
X169801000Y-71990400D01*
X167955000Y-72134700D02*
X169657000Y-72134700D01*
X167955000Y-73660000D02*
X167955000Y-72134700D01*
X154271000Y-78811100D02*
X155470000Y-80010000D01*
X154271000Y-77569700D02*
X154271000Y-78811100D01*
X155255000Y-76585800D02*
X154271000Y-77569700D01*
X155255000Y-73660000D02*
X155255000Y-76585800D01*
X112075000Y-103885000D02*
X112075000Y-105410000D01*
X113285000Y-106935000D02*
X118110000Y-111760000D01*
X112075000Y-106935000D02*
X113285000Y-106935000D01*
X112075000Y-105410000D02*
X112075000Y-106935000D01*
X198120000Y-61659700D02*
X198120000Y-58960000D01*
X198435000Y-61974700D02*
X198120000Y-61659700D01*
X198435000Y-63500000D02*
X198435000Y-61974700D01*
X198120000Y-57184700D02*
X185420000Y-57184700D01*
X198435000Y-65011000D02*
X198435000Y-63500000D01*
X198708000Y-65284500D02*
X198435000Y-65011000D01*
X200243000Y-66819200D02*
X198708000Y-65284500D01*
X206717000Y-66819200D02*
X200243000Y-66819200D01*
X193540000Y-75185300D02*
X190815000Y-75185300D01*
X195404000Y-73321100D02*
X193540000Y-75185300D01*
X195404000Y-68588600D02*
X195404000Y-73321100D01*
X198708000Y-65284500D02*
X195404000Y-68588600D01*
X187790000Y-78210300D02*
X190815000Y-75185300D01*
X187790000Y-83475300D02*
X187790000Y-78210300D01*
X186810000Y-84455000D02*
X187790000Y-83475300D01*
X137485000Y-63500000D02*
X138745000Y-63500000D01*
X135959000Y-65025300D02*
X137485000Y-63500000D01*
X131542000Y-65025300D02*
X135959000Y-65025300D01*
X130810000Y-64293200D02*
X131542000Y-65025300D01*
X130810000Y-62753500D02*
X130810000Y-64293200D01*
X130017000Y-61960500D02*
X130810000Y-62753500D01*
X127315000Y-61960500D02*
X130017000Y-61960500D01*
X203730000Y-90656000D02*
X188976000Y-105410000D01*
X203730000Y-87630000D02*
X203730000Y-90656000D01*
X96835000Y-72051900D02*
X96699500Y-71916400D01*
X96835000Y-73660000D02*
X96835000Y-72051900D01*
X69507500Y-85533500D02*
X69486900Y-85512800D01*
X78440300Y-85533500D02*
X69507500Y-85533500D01*
X82388500Y-81585300D02*
X78440300Y-85533500D01*
X84350000Y-81585300D02*
X82388500Y-81585300D01*
X86860000Y-81585300D02*
X84350000Y-81585300D01*
X89729700Y-84455000D02*
X86860000Y-81585300D01*
X91280000Y-84455000D02*
X89729700Y-84455000D01*
X101915000Y-100330000D02*
X101915000Y-95250000D01*
X94560000Y-89155300D02*
X93025000Y-89155300D01*
X100655000Y-95250000D02*
X94560000Y-89155300D01*
X101915000Y-95250000D02*
X100655000Y-95250000D01*
X78445900Y-89205300D02*
X84350000Y-89205300D01*
X78440300Y-89199700D02*
X78445900Y-89205300D01*
X84350000Y-87630000D02*
X84350000Y-89205300D01*
X93025000Y-87630000D02*
X93025000Y-89155300D01*
X85628300Y-90483600D02*
X84350000Y-89205300D01*
X91696700Y-90483600D02*
X85628300Y-90483600D01*
X93025000Y-89155300D02*
X91696700Y-90483600D01*
X88872200Y-73912500D02*
X88872200Y-72159500D01*
X84350000Y-78434700D02*
X88872200Y-73912500D01*
X84350000Y-80010000D02*
X84350000Y-78434700D01*
X88872200Y-72159500D02*
X87102600Y-70389900D01*
X85357800Y-72134700D02*
X87102600Y-70389900D01*
X84135000Y-72134700D02*
X85357800Y-72134700D01*
X84135000Y-73660000D02*
X84135000Y-72134700D01*
X79055000Y-65025300D02*
X79055000Y-63500000D01*
X80205500Y-66175800D02*
X79055000Y-65025300D01*
X86005200Y-66175800D02*
X80205500Y-66175800D01*
X87321800Y-67492400D02*
X86005200Y-66175800D01*
X87321800Y-70170700D02*
X87321800Y-67492400D01*
X87102600Y-70389900D02*
X87321800Y-70170700D01*
X103185000Y-65096500D02*
X103352000Y-65263700D01*
X103185000Y-63500000D02*
X103185000Y-65096500D01*
X90494700Y-63500000D02*
X91755000Y-63500000D01*
X90320700Y-63674000D02*
X90494700Y-63500000D01*
X112075000Y-96775300D02*
X112075000Y-95250000D01*
X112545000Y-97245700D02*
X112075000Y-96775300D01*
X112545000Y-98688500D02*
X112545000Y-97245700D01*
X119310000Y-72134700D02*
X118743000Y-71567700D01*
X119695000Y-72134700D02*
X119310000Y-72134700D01*
X119695000Y-73660000D02*
X119695000Y-72134700D01*
X55880000Y-58960000D02*
X55880000Y-57184700D01*
X43180000Y-61659700D02*
X43180000Y-58960000D01*
X43495000Y-61974700D02*
X43180000Y-61659700D01*
X43495000Y-63500000D02*
X43495000Y-61974700D01*
X43180000Y-57184700D02*
X55880000Y-57184700D01*
X43180000Y-58960000D02*
X43180000Y-57184700D01*
X78740000Y-58960000D02*
X78740000Y-57184700D01*
X91755000Y-61974700D02*
X91755000Y-63500000D01*
X91440000Y-61659700D02*
X91755000Y-61974700D01*
X91440000Y-58960000D02*
X91440000Y-61659700D01*
X67310000Y-61659700D02*
X67310000Y-58960000D01*
X67625000Y-61974700D02*
X67310000Y-61659700D01*
X67625000Y-63500000D02*
X67625000Y-61974700D01*
X67310000Y-57184700D02*
X55880000Y-57184700D01*
X67310000Y-58960000D02*
X67310000Y-57184700D01*
X115885000Y-89155300D02*
X115885000Y-87630000D01*
X114608000Y-90432200D02*
X115885000Y-89155300D01*
X109707000Y-90432200D02*
X114608000Y-90432200D01*
X108480000Y-89205300D02*
X109707000Y-90432200D01*
X108480000Y-87630000D02*
X108480000Y-89205300D01*
X112590000Y-84455000D02*
X114140000Y-84455000D01*
X109720000Y-81585300D02*
X112590000Y-84455000D01*
X108480000Y-81585300D02*
X109720000Y-81585300D01*
X108480000Y-80010000D02*
X108480000Y-81585300D01*
X115690000Y-84455000D02*
X114140000Y-84455000D01*
X115690000Y-85910000D02*
X115690000Y-84455000D01*
X115885000Y-86104700D02*
X115690000Y-85910000D01*
X115885000Y-87630000D02*
X115885000Y-86104700D01*
X31676400Y-59033600D02*
X31750000Y-58960000D01*
X31676400Y-61586100D02*
X31676400Y-59033600D01*
X32065000Y-61974700D02*
X31676400Y-61586100D01*
X32065000Y-63500000D02*
X32065000Y-61974700D01*
X23230300Y-77670000D02*
X25715000Y-75185300D01*
X23230300Y-82935000D02*
X23230300Y-77670000D01*
X21710300Y-84455000D02*
X23230300Y-82935000D01*
X25715000Y-75185300D02*
X28885200Y-75185300D01*
X28577700Y-66677900D02*
X28732400Y-66832600D01*
X28059000Y-66677900D02*
X28577700Y-66677900D01*
X27753400Y-66372300D02*
X28059000Y-66677900D01*
X21982000Y-66372300D02*
X27753400Y-66372300D01*
X20635000Y-65025300D02*
X21982000Y-66372300D01*
X20635000Y-63500000D02*
X20635000Y-65025300D01*
X28885400Y-75185100D02*
X28885200Y-75185300D01*
X28885400Y-66985600D02*
X28885400Y-75185100D01*
X28732400Y-66832600D02*
X28885400Y-66985600D01*
X32115000Y-81585300D02*
X37360000Y-81585300D01*
X28885200Y-78355500D02*
X32115000Y-81585300D01*
X28885200Y-75185300D02*
X28885200Y-78355500D01*
X40229700Y-84455000D02*
X43020000Y-84455000D01*
X37360000Y-81585300D02*
X40229700Y-84455000D01*
X32065000Y-63500000D02*
X28732400Y-66832600D01*
X91440000Y-57184700D02*
X78740000Y-57184700D01*
X91440000Y-58960000D02*
X91440000Y-57184700D01*
X78740000Y-57184700D02*
X67310000Y-57184700D01*
X78440300Y-85533500D02*
X78440300Y-89199700D01*
X78440300Y-89199700D02*
X73660000Y-93980000D01*
X209550000Y-58960000D02*
X209550000Y-57184700D01*
X220980000Y-57184700D02*
X220980000Y-58960000D01*
X209550000Y-57184700D02*
X220980000Y-57184700D01*
X198120000Y-58960000D02*
X198120000Y-57184700D01*
X198120000Y-57184700D02*
X209550000Y-57184700D01*
X162560000Y-57184700D02*
X173990000Y-57184700D01*
X173990000Y-57184700D02*
X185420000Y-57184700D01*
X162560000Y-58960000D02*
X162560000Y-57184700D01*
X226590000Y-80010000D02*
X226590000Y-87630000D01*
X211135000Y-89155300D02*
X211135000Y-87630000D01*
X212442000Y-90461800D02*
X211135000Y-89155300D01*
X225334000Y-90461800D02*
X212442000Y-90461800D01*
X226590000Y-89205300D02*
X225334000Y-90461800D01*
X226590000Y-87630000D02*
X226590000Y-89205300D01*
X129660000Y-101285000D02*
X134620000Y-101285000D01*
X125200000Y-96825300D02*
X129660000Y-101285000D01*
X125200000Y-95250000D02*
X125200000Y-96825300D01*
X125200000Y-95250000D02*
X125200000Y-93015300D01*
X49970300Y-80645000D02*
X49970300Y-85862800D01*
X48420000Y-80645000D02*
X49970300Y-80645000D01*
X49702500Y-85862800D02*
X49970300Y-85862800D01*
X47935300Y-87630000D02*
X49702500Y-85862800D01*
X46675000Y-87630000D02*
X47935300Y-87630000D01*
X167315000Y-87630000D02*
X166055000Y-87630000D01*
X167630000Y-87314900D02*
X167315000Y-87630000D01*
X173610000Y-87314900D02*
X167630000Y-87314900D01*
X173925000Y-87630000D02*
X173610000Y-87314900D01*
X176000000Y-87630000D02*
X173925000Y-87630000D01*
X94935000Y-87630000D02*
X94935000Y-86104700D01*
X80750000Y-87630000D02*
X80750000Y-86054700D01*
X72550000Y-80645000D02*
X74246100Y-80645000D01*
X70805000Y-90427100D02*
X70805000Y-87630000D01*
X172720000Y-107950000D02*
X171135000Y-107950000D01*
X176530000Y-111760000D02*
X172720000Y-107950000D01*
X220915000Y-87630000D02*
X222990000Y-87630000D01*
X220659000Y-87374700D02*
X220915000Y-87630000D01*
X214561000Y-87374700D02*
X220659000Y-87374700D01*
X214305000Y-87630000D02*
X214561000Y-87374700D01*
X213045000Y-87630000D02*
X214305000Y-87630000D01*
X80540900Y-85845600D02*
X80065400Y-85845600D01*
X80750000Y-86054700D02*
X80540900Y-85845600D01*
X57698100Y-85862800D02*
X49970300Y-85862800D01*
X57890000Y-86054700D02*
X57698100Y-85862800D01*
X57890000Y-87630000D02*
X57890000Y-86054700D01*
X167800000Y-80645000D02*
X169476000Y-80645000D01*
X136755000Y-100330000D02*
X138430000Y-100330000D01*
X136145000Y-100939000D02*
X136755000Y-100330000D01*
X136145000Y-101285000D02*
X136145000Y-100939000D01*
X134620000Y-101285000D02*
X136145000Y-101285000D01*
X141925000Y-98510300D02*
X141925000Y-87630000D01*
X140105000Y-100330000D02*
X141925000Y-98510300D01*
X138430000Y-100330000D02*
X140105000Y-100330000D01*
X213071000Y-86104700D02*
X213198000Y-85977600D01*
X213045000Y-86104700D02*
X213071000Y-86104700D01*
X213045000Y-87630000D02*
X213045000Y-86104700D01*
X176000000Y-93039800D02*
X176000000Y-87630000D01*
X174623000Y-93039800D02*
X176000000Y-93039800D01*
X173556000Y-94107400D02*
X174623000Y-93039800D01*
X173556000Y-96639400D02*
X173556000Y-94107400D01*
X171135000Y-99060000D02*
X173556000Y-96639400D01*
X68833500Y-92398600D02*
X70805000Y-90427100D01*
X66098400Y-92398600D02*
X68833500Y-92398600D01*
X65277200Y-91577400D02*
X66098400Y-92398600D01*
X64613300Y-91577400D02*
X65277200Y-91577400D01*
X62241200Y-89205300D02*
X64613300Y-91577400D01*
X57890000Y-89205300D02*
X62241200Y-89205300D01*
X57890000Y-87630000D02*
X57890000Y-89205300D01*
X166055000Y-89155300D02*
X166055000Y-87630000D01*
X162488000Y-89155300D02*
X166055000Y-89155300D01*
X161218000Y-90425400D02*
X162488000Y-89155300D01*
X153090000Y-90425400D02*
X161218000Y-90425400D01*
X151870000Y-89205300D02*
X153090000Y-90425400D01*
X151870000Y-87630000D02*
X151870000Y-89205300D01*
X143185000Y-87630000D02*
X142770000Y-87630000D01*
X143484000Y-87331200D02*
X143185000Y-87630000D01*
X149496000Y-87331200D02*
X143484000Y-87331200D01*
X149795000Y-87630000D02*
X149496000Y-87331200D01*
X151870000Y-87630000D02*
X149795000Y-87630000D01*
X142120000Y-86980200D02*
X142770000Y-87630000D01*
X142120000Y-80645000D02*
X142120000Y-86980200D01*
X143670000Y-80645000D02*
X142120000Y-80645000D01*
X213198000Y-80686600D02*
X213198000Y-85977600D01*
X213240000Y-80645000D02*
X213198000Y-80686600D01*
X214790000Y-80645000D02*
X213240000Y-80645000D01*
X129010000Y-89205300D02*
X125200000Y-93015300D01*
X129010000Y-87630000D02*
X129010000Y-89205300D01*
X182565000Y-99060000D02*
X183825000Y-99060000D01*
X183825000Y-106680000D02*
X187635000Y-102870000D01*
X183825000Y-107950000D02*
X183825000Y-106680000D01*
X182565000Y-107950000D02*
X183825000Y-107950000D01*
X183825000Y-93039800D02*
X183825000Y-99060000D01*
X176000000Y-93039800D02*
X183825000Y-93039800D01*
X188915000Y-89155300D02*
X188915000Y-87630000D01*
X185030000Y-93039800D02*
X188915000Y-89155300D01*
X183825000Y-93039800D02*
X185030000Y-93039800D01*
X117795000Y-80839700D02*
X117795000Y-87630000D01*
X117990000Y-80645000D02*
X117795000Y-80839700D01*
X119540000Y-80645000D02*
X117990000Y-80645000D01*
X94885000Y-86054700D02*
X80750000Y-86054700D01*
X94935000Y-86104700D02*
X94885000Y-86054700D01*
X76459500Y-89540700D02*
X76459500Y-87047500D01*
X75573100Y-90427100D02*
X76459500Y-89540700D01*
X70805000Y-90427100D02*
X75573100Y-90427100D01*
X95129700Y-80645000D02*
X96680000Y-80645000D01*
X95129700Y-85961100D02*
X95129700Y-80645000D01*
X95078600Y-85961100D02*
X94935000Y-86104700D01*
X95129700Y-85961100D02*
X95078600Y-85961100D01*
X196419000Y-85910000D02*
X189110000Y-85910000D01*
X198055000Y-87545700D02*
X196419000Y-85910000D01*
X198055000Y-87630000D02*
X198055000Y-87545700D01*
X200130000Y-87630000D02*
X198055000Y-87630000D01*
X46675000Y-86104700D02*
X46675000Y-87630000D01*
X46625000Y-86054700D02*
X46675000Y-86104700D01*
X33760000Y-86054700D02*
X46625000Y-86054700D01*
X33760000Y-87630000D02*
X33760000Y-86054700D01*
X123810000Y-93015300D02*
X125200000Y-93015300D01*
X119055000Y-88260200D02*
X123810000Y-93015300D01*
X119055000Y-87630000D02*
X119055000Y-88260200D01*
X117795000Y-87630000D02*
X119055000Y-87630000D01*
X101136000Y-85961100D02*
X95129700Y-85961100D01*
X102805000Y-87630000D02*
X101136000Y-85961100D01*
X104880000Y-87630000D02*
X102805000Y-87630000D01*
X117795000Y-89155300D02*
X117795000Y-87630000D01*
X115361000Y-91589500D02*
X117795000Y-89155300D01*
X107264000Y-91589500D02*
X115361000Y-91589500D01*
X104880000Y-89205300D02*
X107264000Y-91589500D01*
X104880000Y-87630000D02*
X104880000Y-89205300D01*
X27558900Y-80645000D02*
X25560000Y-80645000D01*
X28347900Y-81434000D02*
X27558900Y-80645000D01*
X28347900Y-84510200D02*
X28347900Y-81434000D01*
X28195100Y-84510200D02*
X28347900Y-84510200D01*
X25075300Y-87630000D02*
X28195100Y-84510200D01*
X23815000Y-87630000D02*
X25075300Y-87630000D01*
X32215500Y-84510200D02*
X33760000Y-86054700D01*
X28347900Y-84510200D02*
X32215500Y-84510200D01*
X188915000Y-86104700D02*
X189110000Y-85910000D01*
X188915000Y-87630000D02*
X188915000Y-86104700D01*
X189110000Y-80645000D02*
X190660000Y-80645000D01*
X189110000Y-85910000D02*
X189110000Y-80645000D01*
X188976000Y-102870000D02*
X187635000Y-102870000D01*
X187635000Y-102870000D02*
X183825000Y-99060000D01*
X141925000Y-87630000D02*
X142770000Y-87630000D01*
D31*
X19624600Y-44195700D02*
X20635000Y-43185300D01*
X19624600Y-48039300D02*
X19624600Y-44195700D01*
X20320000Y-48734700D02*
X19624600Y-48039300D01*
X20320000Y-49497300D02*
X20320000Y-48734700D01*
X26365600Y-43185300D02*
X20635000Y-43185300D01*
X27625000Y-44444700D02*
X26365600Y-43185300D01*
X27625000Y-45720000D02*
X27625000Y-44444700D01*
X20680000Y-49497300D02*
X20320000Y-49497300D01*
X21442700Y-50260000D02*
X20680000Y-49497300D01*
X22860000Y-50260000D02*
X21442700Y-50260000D01*
X20635000Y-41910000D02*
X20635000Y-43185300D01*
X26664700Y-39375300D02*
X20635000Y-39375300D01*
X26670000Y-39370000D02*
X26664700Y-39375300D01*
X20635000Y-38100000D02*
X20635000Y-39375300D01*
X20635000Y-41910000D02*
X20635000Y-39375300D01*
X20320000Y-50260000D02*
X20320000Y-49497300D01*
X24124700Y-38100000D02*
X22545000Y-38100000D01*
X25620000Y-36604700D02*
X24124700Y-38100000D01*
X25620000Y-34290000D02*
X25620000Y-36604700D01*
X27940000Y-38924700D02*
X27940000Y-40640000D01*
X25620000Y-36604700D02*
X27940000Y-38924700D01*
X20540000Y-35040300D02*
X20540000Y-34290000D01*
X22324400Y-36824700D02*
X20540000Y-35040300D01*
X22545000Y-36824700D02*
X22324400Y-36824700D01*
X22545000Y-38100000D02*
X22545000Y-36824700D01*
X23555300Y-41910000D02*
X22545000Y-41910000D01*
X24224700Y-41240600D02*
X23555300Y-41910000D01*
X24224700Y-40640000D02*
X24224700Y-41240600D01*
X25400000Y-40640000D02*
X24224700Y-40640000D01*
X29138200Y-41137600D02*
X27956900Y-42318900D01*
X29138200Y-36458500D02*
X29138200Y-41137600D01*
X27720000Y-35040300D02*
X29138200Y-36458500D01*
X27720000Y-34290000D02*
X27720000Y-35040300D01*
X27940000Y-48734700D02*
X27940000Y-50260000D01*
X28635400Y-48039300D02*
X27940000Y-48734700D01*
X28635400Y-42997400D02*
X28635400Y-48039300D01*
X27956900Y-42318900D02*
X28635400Y-42997400D01*
X27847100Y-42318900D02*
X27956900Y-42318900D01*
X26575300Y-41047100D02*
X27847100Y-42318900D01*
X26575300Y-40640000D02*
X26575300Y-41047100D01*
X25400000Y-40640000D02*
X26575300Y-40640000D01*
X37050000Y-34290000D02*
X37050000Y-37462300D01*
X39370000Y-38875600D02*
X39370000Y-40640000D01*
X37956700Y-37462300D02*
X39370000Y-38875600D01*
X37050000Y-37462300D02*
X37956700Y-37462300D01*
X35623000Y-37462300D02*
X37050000Y-37462300D01*
X34985300Y-38100000D02*
X35623000Y-37462300D01*
X33975000Y-38100000D02*
X34985300Y-38100000D01*
X31970000Y-35040300D02*
X31970000Y-34290000D01*
X33754400Y-36824700D02*
X31970000Y-35040300D01*
X33975000Y-36824700D02*
X33754400Y-36824700D01*
X33975000Y-38100000D02*
X33975000Y-36824700D01*
X37795600Y-43185300D02*
X32065000Y-43185300D01*
X39055000Y-44444700D02*
X37795600Y-43185300D01*
X39055000Y-45720000D02*
X39055000Y-44444700D01*
X31713100Y-43185300D02*
X32065000Y-43185300D01*
X31003200Y-43895200D02*
X31713100Y-43185300D01*
X31003200Y-47987900D02*
X31003200Y-43895200D01*
X31750000Y-48734700D02*
X31003200Y-47987900D01*
X31750000Y-49497300D02*
X31750000Y-48734700D01*
X32110000Y-49497300D02*
X31750000Y-49497300D01*
X32872700Y-50260000D02*
X32110000Y-49497300D01*
X34290000Y-50260000D02*
X32872700Y-50260000D01*
X32065000Y-41910000D02*
X32065000Y-43185300D01*
X38094700Y-39375300D02*
X32065000Y-39375300D01*
X38100000Y-39370000D02*
X38094700Y-39375300D01*
X32065000Y-38100000D02*
X32065000Y-39375300D01*
X32065000Y-41910000D02*
X32065000Y-39375300D01*
X31750000Y-50260000D02*
X31750000Y-49497300D01*
X34985300Y-41910000D02*
X33975000Y-41910000D01*
X35654700Y-41240600D02*
X34985300Y-41910000D01*
X35654700Y-40640000D02*
X35654700Y-41240600D01*
X36830000Y-40640000D02*
X35654700Y-40640000D01*
X40568300Y-41123100D02*
X39379700Y-42311700D01*
X40568300Y-36458600D02*
X40568300Y-41123100D01*
X39150000Y-35040300D02*
X40568300Y-36458600D01*
X39150000Y-34290000D02*
X39150000Y-35040300D01*
X39370000Y-48734700D02*
X39370000Y-50260000D01*
X40065400Y-48039300D02*
X39370000Y-48734700D01*
X40065400Y-42997400D02*
X40065400Y-48039300D01*
X39379700Y-42311700D02*
X40065400Y-42997400D01*
X39269900Y-42311700D02*
X39379700Y-42311700D01*
X38005300Y-41047100D02*
X39269900Y-42311700D01*
X38005300Y-40640000D02*
X38005300Y-41047100D01*
X36830000Y-40640000D02*
X38005300Y-40640000D01*
X43180000Y-50260000D02*
X43180000Y-49497300D01*
X43495000Y-39375300D02*
X43495000Y-38100000D01*
X44124700Y-40005000D02*
X43495000Y-39375300D01*
X44754300Y-39375400D02*
X44124700Y-40005000D01*
X49524600Y-39375400D02*
X44754300Y-39375400D01*
X49530000Y-39370000D02*
X49524600Y-39375400D01*
X43495000Y-40634700D02*
X43495000Y-41910000D01*
X44124700Y-40005000D02*
X43495000Y-40634700D01*
X43495000Y-41910000D02*
X43495000Y-43185300D01*
X49225600Y-43185300D02*
X43495000Y-43185300D01*
X50485000Y-44444700D02*
X49225600Y-43185300D01*
X50485000Y-45720000D02*
X50485000Y-44444700D01*
X44302700Y-50260000D02*
X45720000Y-50260000D01*
X43540000Y-49497300D02*
X44302700Y-50260000D01*
X43180000Y-49497300D02*
X43540000Y-49497300D01*
X42484600Y-44195700D02*
X43495000Y-43185300D01*
X42484600Y-48801900D02*
X42484600Y-44195700D01*
X43180000Y-49497300D02*
X42484600Y-48801900D01*
X45184400Y-36824700D02*
X45405000Y-36824700D01*
X43400000Y-35040300D02*
X45184400Y-36824700D01*
X43400000Y-34290000D02*
X43400000Y-35040300D01*
X45405000Y-38100000D02*
X45405000Y-36824700D01*
X48480000Y-36824700D02*
X45405000Y-36824700D01*
X48704300Y-36824700D02*
X48480000Y-36824700D01*
X50800000Y-38920400D02*
X48704300Y-36824700D01*
X50800000Y-40640000D02*
X50800000Y-38920400D01*
X48480000Y-36824700D02*
X48480000Y-34290000D01*
X46415300Y-41910000D02*
X45405000Y-41910000D01*
X47084700Y-41240600D02*
X46415300Y-41910000D01*
X47084700Y-40640000D02*
X47084700Y-41240600D01*
X48260000Y-40640000D02*
X47084700Y-40640000D01*
X49435300Y-40640000D02*
X48260000Y-40640000D01*
X49435300Y-40938000D02*
X49435300Y-40640000D01*
X50829400Y-42332000D02*
X49435300Y-40938000D01*
X51991100Y-41170300D02*
X50829400Y-42332000D01*
X51991100Y-36451400D02*
X51991100Y-41170300D01*
X50580000Y-35040300D02*
X51991100Y-36451400D01*
X50580000Y-34290000D02*
X50580000Y-35040300D01*
X50800000Y-48734700D02*
X50800000Y-50260000D01*
X51522100Y-48012600D02*
X50800000Y-48734700D01*
X51522100Y-43322700D02*
X51522100Y-48012600D01*
X50829300Y-42629900D02*
X51522100Y-43322700D01*
X50829300Y-42332100D02*
X50829300Y-42629900D01*
X50829400Y-42332000D02*
X50829300Y-42332100D01*
X56100000Y-35040300D02*
X56100000Y-34290000D01*
X57884400Y-36824700D02*
X56100000Y-35040300D01*
X58105000Y-36824700D02*
X57884400Y-36824700D01*
X58105000Y-38100000D02*
X58105000Y-36824700D01*
X62623900Y-38100000D02*
X58105000Y-38100000D01*
X63500000Y-38976100D02*
X62623900Y-38100000D01*
X63500000Y-40640000D02*
X63500000Y-38976100D01*
X56195000Y-38100000D02*
X56195000Y-39375300D01*
X62224700Y-39375300D02*
X56195000Y-39375300D01*
X62230000Y-39370000D02*
X62224700Y-39375300D01*
X58420000Y-50260000D02*
X58420000Y-49497300D01*
X56642700Y-49497300D02*
X55880000Y-50260000D01*
X58420000Y-49497300D02*
X56642700Y-49497300D01*
X60922000Y-46995300D02*
X58420000Y-49497300D01*
X63185000Y-46995300D02*
X60922000Y-46995300D01*
X63185000Y-45720000D02*
X63185000Y-46995300D01*
X56195000Y-39375300D02*
X56195000Y-41910000D01*
X56195000Y-43185300D02*
X56195000Y-41910000D01*
X61925600Y-43185300D02*
X56195000Y-43185300D01*
X63185000Y-44444700D02*
X61925600Y-43185300D01*
X63185000Y-45720000D02*
X63185000Y-44444700D01*
X63500000Y-48734700D02*
X63500000Y-50260000D01*
X64254400Y-47980300D02*
X63500000Y-48734700D01*
X64254400Y-42900000D02*
X64254400Y-47980300D01*
X63280000Y-35040300D02*
X63280000Y-34290000D01*
X64707100Y-36467400D02*
X63280000Y-35040300D01*
X64707100Y-42447300D02*
X64707100Y-36467400D01*
X64254400Y-42900000D02*
X64707100Y-42447300D01*
X62135300Y-40640000D02*
X60960000Y-40640000D01*
X62135300Y-41039500D02*
X62135300Y-40640000D01*
X63995800Y-42900000D02*
X62135300Y-41039500D01*
X64254400Y-42900000D02*
X63995800Y-42900000D01*
X59115300Y-41910000D02*
X58105000Y-41910000D01*
X59784700Y-41240600D02*
X59115300Y-41910000D01*
X59784700Y-40640000D02*
X59784700Y-41240600D01*
X60960000Y-40640000D02*
X59784700Y-40640000D01*
X69850000Y-50260000D02*
X69850000Y-51785300D01*
X67310000Y-51785300D02*
X69850000Y-51785300D01*
X67310000Y-50260000D02*
X67310000Y-51785300D01*
X73660000Y-43185300D02*
X73660000Y-39370000D01*
X74615000Y-44140300D02*
X74615000Y-45720000D01*
X73660000Y-43185300D02*
X74615000Y-44140300D01*
X75533200Y-51785300D02*
X69850000Y-51785300D01*
X75815400Y-51503100D02*
X75533200Y-51785300D01*
X75815400Y-45910100D02*
X75815400Y-51503100D01*
X75625300Y-45720000D02*
X75815400Y-45910100D01*
X74615000Y-45720000D02*
X75625300Y-45720000D01*
X67625000Y-38100000D02*
X67625000Y-41910000D01*
X67625000Y-43185300D02*
X73660000Y-43185300D01*
X67625000Y-41910000D02*
X67625000Y-43185300D01*
X67530000Y-35040300D02*
X69535000Y-35040300D01*
X67530000Y-34290000D02*
X67530000Y-35040300D01*
X72610000Y-35040300D02*
X69535000Y-35040300D01*
X72610000Y-34290000D02*
X72610000Y-35040300D01*
X69535000Y-38100000D02*
X69535000Y-35040300D01*
X75590500Y-39979500D02*
X74930000Y-40640000D01*
X75590500Y-33851800D02*
X75590500Y-39979500D01*
X75278400Y-33539700D02*
X75590500Y-33851800D01*
X74185600Y-33539700D02*
X75278400Y-33539700D01*
X73435300Y-34290000D02*
X74185600Y-33539700D01*
X72610000Y-34290000D02*
X73435300Y-34290000D01*
X70545300Y-41910000D02*
X69535000Y-41910000D01*
X71214700Y-41240600D02*
X70545300Y-41910000D01*
X71214700Y-40640000D02*
X71214700Y-41240600D01*
X72390000Y-40640000D02*
X71214700Y-40640000D01*
X72390000Y-37360300D02*
X72390000Y-40640000D01*
X74710000Y-35040300D02*
X72390000Y-37360300D01*
X74710000Y-34290000D02*
X74710000Y-35040300D01*
X74930000Y-48585100D02*
X74930000Y-50260000D01*
X74369500Y-48024600D02*
X74930000Y-48585100D01*
X81280000Y-50260000D02*
X81280000Y-49497300D01*
X79502700Y-49497300D02*
X78740000Y-50260000D01*
X81280000Y-49497300D02*
X79502700Y-49497300D01*
X83782000Y-46995300D02*
X81280000Y-49497300D01*
X86045000Y-46995300D02*
X83782000Y-46995300D01*
X86045000Y-45720000D02*
X86045000Y-46995300D01*
X79055000Y-38100000D02*
X79055000Y-39375300D01*
X86045000Y-45635600D02*
X86045000Y-45720000D01*
X83594700Y-43185300D02*
X86045000Y-45635600D01*
X79055000Y-43185300D02*
X83594700Y-43185300D01*
X79055000Y-41910000D02*
X79055000Y-43185300D01*
X79055000Y-39375300D02*
X79055000Y-41910000D01*
X85084700Y-39375300D02*
X79055000Y-39375300D01*
X85090000Y-39370000D02*
X85084700Y-39375300D01*
X84260000Y-36999500D02*
X84260000Y-34290000D01*
X84441100Y-36999500D02*
X84260000Y-36999500D01*
X86360000Y-38918400D02*
X84441100Y-36999500D01*
X86360000Y-40640000D02*
X86360000Y-38918400D01*
X81975300Y-38100000D02*
X80965000Y-38100000D01*
X83075800Y-36999500D02*
X81975300Y-38100000D01*
X84260000Y-36999500D02*
X83075800Y-36999500D01*
X78960000Y-35040300D02*
X78960000Y-34290000D01*
X80744400Y-36824700D02*
X78960000Y-35040300D01*
X80965000Y-36824700D02*
X80744400Y-36824700D01*
X80965000Y-38100000D02*
X80965000Y-36824700D01*
X81975300Y-41910000D02*
X80965000Y-41910000D01*
X82644700Y-41240600D02*
X81975300Y-41910000D01*
X82644700Y-40640000D02*
X82644700Y-41240600D01*
X83820000Y-40640000D02*
X82644700Y-40640000D01*
X84995300Y-40640000D02*
X83820000Y-40640000D01*
X84995300Y-40944300D02*
X84995300Y-40640000D01*
X86373600Y-42322600D02*
X84995300Y-40944300D01*
X87055400Y-43004400D02*
X86373600Y-42322600D01*
X87055400Y-48039300D02*
X87055400Y-43004400D01*
X86360000Y-48734700D02*
X87055400Y-48039300D01*
X86360000Y-50260000D02*
X86360000Y-48734700D01*
X86360000Y-35040300D02*
X86360000Y-34290000D01*
X87566800Y-36247100D02*
X86360000Y-35040300D01*
X87566800Y-41129400D02*
X87566800Y-36247100D01*
X86373600Y-42322600D02*
X87566800Y-41129400D01*
X91755000Y-38100000D02*
X91755000Y-41910000D01*
X93665000Y-45720000D02*
X93665000Y-44444700D01*
X92405600Y-43185300D02*
X93665000Y-44444700D01*
X91755000Y-43185300D02*
X92405600Y-43185300D01*
X91755000Y-41910000D02*
X91755000Y-43185300D01*
X94766800Y-44444700D02*
X93665000Y-44444700D01*
X97790000Y-41421500D02*
X94766800Y-44444700D01*
X97790000Y-39370000D02*
X97790000Y-41421500D01*
X91042000Y-44444700D02*
X93665000Y-44444700D01*
X90683100Y-44803600D02*
X91042000Y-44444700D01*
X90683100Y-47977800D02*
X90683100Y-44803600D01*
X91440000Y-48734700D02*
X90683100Y-47977800D01*
X91440000Y-49499400D02*
X91440000Y-48734700D01*
X91802100Y-49499400D02*
X91440000Y-49499400D01*
X92562700Y-50260000D02*
X91802100Y-49499400D01*
X93980000Y-50260000D02*
X92562700Y-50260000D01*
X91440000Y-50260000D02*
X91440000Y-49499400D01*
X96740000Y-34290000D02*
X96740000Y-33539700D01*
X91660000Y-33539700D02*
X91660000Y-34290000D01*
X96740000Y-33539700D02*
X91660000Y-33539700D01*
X93665000Y-36824700D02*
X93665000Y-38100000D01*
X94955600Y-36824700D02*
X93665000Y-36824700D01*
X96740000Y-35040300D02*
X94955600Y-36824700D01*
X96740000Y-34290000D02*
X96740000Y-35040300D01*
X99392600Y-33539700D02*
X96740000Y-33539700D01*
X99672200Y-33819300D02*
X99392600Y-33539700D01*
X99672200Y-40027800D02*
X99672200Y-33819300D01*
X99060000Y-40640000D02*
X99672200Y-40027800D01*
X96520000Y-37360300D02*
X96520000Y-40640000D01*
X98840000Y-35040300D02*
X96520000Y-37360300D01*
X98840000Y-34290000D02*
X98840000Y-35040300D01*
X94675300Y-41910000D02*
X93665000Y-41910000D01*
X95344700Y-41240600D02*
X94675300Y-41910000D01*
X95344700Y-40640000D02*
X95344700Y-41240600D01*
X96520000Y-40640000D02*
X95344700Y-40640000D01*
X99060000Y-48494700D02*
X99060000Y-50260000D01*
X98907000Y-48341700D02*
X99060000Y-48494700D01*
X106675000Y-38100000D02*
X105095000Y-38100000D01*
X108170000Y-36604700D02*
X106675000Y-38100000D01*
X108170000Y-34290000D02*
X108170000Y-36604700D01*
X110490000Y-38924700D02*
X110490000Y-40640000D01*
X108170000Y-36604700D02*
X110490000Y-38924700D01*
X103090000Y-35040300D02*
X103090000Y-34290000D01*
X104874000Y-36824700D02*
X103090000Y-35040300D01*
X105095000Y-36824700D02*
X104874000Y-36824700D01*
X105095000Y-38100000D02*
X105095000Y-36824700D01*
X109215000Y-39375300D02*
X109220000Y-39370000D01*
X103185000Y-39375300D02*
X109215000Y-39375300D01*
X103185000Y-38100000D02*
X103185000Y-39375300D01*
X103185000Y-41910000D02*
X103185000Y-39375300D01*
X103230000Y-49497300D02*
X102870000Y-49497300D01*
X103993000Y-50260000D02*
X103230000Y-49497300D01*
X105410000Y-50260000D02*
X103993000Y-50260000D01*
X105095000Y-44444700D02*
X105095000Y-45720000D01*
X104793000Y-44142600D02*
X105095000Y-44444700D01*
X103910000Y-44142600D02*
X104793000Y-44142600D01*
X102870000Y-50260000D02*
X102870000Y-49497300D01*
X102781000Y-44142600D02*
X103910000Y-44142600D01*
X102175000Y-44749200D02*
X102781000Y-44142600D01*
X102175000Y-48039300D02*
X102175000Y-44749200D01*
X102870000Y-48734700D02*
X102175000Y-48039300D01*
X102870000Y-49497300D02*
X102870000Y-48734700D01*
X106105000Y-41910000D02*
X105095000Y-41910000D01*
X106775000Y-41240600D02*
X106105000Y-41910000D01*
X106775000Y-40640000D02*
X106775000Y-41240600D01*
X107950000Y-40640000D02*
X106775000Y-40640000D01*
X111202000Y-48022800D02*
X111202000Y-42732300D01*
X110490000Y-48734700D02*
X111202000Y-48022800D01*
X110490000Y-50260000D02*
X110490000Y-48734700D01*
X111702000Y-42231800D02*
X111202000Y-42732300D01*
X111702000Y-36472700D02*
X111702000Y-42231800D01*
X110270000Y-35040300D02*
X111702000Y-36472700D01*
X110270000Y-34290000D02*
X110270000Y-35040300D01*
X109125000Y-40640000D02*
X107950000Y-40640000D01*
X109125000Y-41007300D02*
X109125000Y-40640000D01*
X110850000Y-42732300D02*
X109125000Y-41007300D01*
X111202000Y-42732300D02*
X110850000Y-42732300D01*
X118105000Y-38100000D02*
X116525000Y-38100000D01*
X119600000Y-36604700D02*
X118105000Y-38100000D01*
X119600000Y-34290000D02*
X119600000Y-36604700D01*
X121920000Y-38924700D02*
X121920000Y-40640000D01*
X119600000Y-36604700D02*
X121920000Y-38924700D01*
X114520000Y-35040300D02*
X114520000Y-34290000D01*
X116304000Y-36824700D02*
X114520000Y-35040300D01*
X116525000Y-36824700D02*
X116304000Y-36824700D01*
X116525000Y-38100000D02*
X116525000Y-36824700D01*
X120645000Y-39375300D02*
X120650000Y-39370000D01*
X114615000Y-39375300D02*
X120645000Y-39375300D01*
X114615000Y-38100000D02*
X114615000Y-39375300D01*
X114660000Y-49497300D02*
X114300000Y-49497300D01*
X115423000Y-50260000D02*
X114660000Y-49497300D01*
X116840000Y-50260000D02*
X115423000Y-50260000D01*
X114615000Y-39375300D02*
X114615000Y-41910000D01*
X115446000Y-44140200D02*
X115446000Y-44237100D01*
X116525000Y-44444700D02*
X116525000Y-45720000D01*
X116317000Y-44237100D02*
X116525000Y-44444700D01*
X115446000Y-44237100D02*
X116317000Y-44237100D01*
X114300000Y-50260000D02*
X114300000Y-49497300D01*
X114097000Y-44237100D02*
X115446000Y-44237100D01*
X113605000Y-44729200D02*
X114097000Y-44237100D01*
X113605000Y-48039300D02*
X113605000Y-44729200D01*
X114300000Y-48734700D02*
X113605000Y-48039300D01*
X114300000Y-49497300D02*
X114300000Y-48734700D01*
X118205000Y-40640000D02*
X119380000Y-40640000D01*
X117535000Y-41309400D02*
X118205000Y-40640000D01*
X117535000Y-41910000D02*
X117535000Y-41309400D01*
X116525000Y-41910000D02*
X117535000Y-41910000D01*
X121700000Y-35040300D02*
X121700000Y-34290000D01*
X123105000Y-36445000D02*
X121700000Y-35040300D01*
X123105000Y-41174900D02*
X123105000Y-36445000D01*
X121919000Y-42360900D02*
X123105000Y-41174900D01*
X122616000Y-43057900D02*
X121919000Y-42360900D01*
X122616000Y-48039100D02*
X122616000Y-43057900D01*
X121920000Y-48734700D02*
X122616000Y-48039100D01*
X121920000Y-50260000D02*
X121920000Y-48734700D01*
X120555000Y-40640000D02*
X119380000Y-40640000D01*
X120555000Y-40997600D02*
X120555000Y-40640000D01*
X121919000Y-42360900D02*
X120555000Y-40997600D01*
X127000000Y-50260000D02*
X127000000Y-49497300D01*
X129225000Y-45720000D02*
X129225000Y-44444700D01*
X130330000Y-44444700D02*
X129225000Y-44444700D01*
X133350000Y-41424400D02*
X130330000Y-44444700D01*
X133350000Y-39370000D02*
X133350000Y-41424400D01*
X127966000Y-43185300D02*
X127315000Y-43185300D01*
X129225000Y-44444700D02*
X127966000Y-43185300D01*
X127360000Y-49497300D02*
X127000000Y-49497300D01*
X128123000Y-50260000D02*
X127360000Y-49497300D01*
X129540000Y-50260000D02*
X128123000Y-50260000D01*
X126301000Y-44199300D02*
X127315000Y-43185300D01*
X126301000Y-48798300D02*
X126301000Y-44199300D01*
X127000000Y-49497300D02*
X126301000Y-48798300D01*
X127315000Y-38100000D02*
X127315000Y-41910000D01*
X127315000Y-41910000D02*
X127315000Y-43185300D01*
X132300000Y-34290000D02*
X132300000Y-34389800D01*
X133150000Y-33539700D02*
X132300000Y-34389800D01*
X134937000Y-33539700D02*
X133150000Y-33539700D01*
X135253000Y-33855700D02*
X134937000Y-33539700D01*
X135253000Y-40007400D02*
X135253000Y-33855700D01*
X134620000Y-40640000D02*
X135253000Y-40007400D01*
X129865000Y-36824700D02*
X129225000Y-36824700D01*
X132300000Y-34389800D02*
X129865000Y-36824700D01*
X129225000Y-38100000D02*
X129225000Y-36824700D01*
X127441000Y-35040300D02*
X129225000Y-36824700D01*
X127402000Y-35040300D02*
X127441000Y-35040300D01*
X127402000Y-34290000D02*
X127402000Y-35040300D01*
X130235000Y-41910000D02*
X129225000Y-41910000D01*
X130905000Y-41240600D02*
X130235000Y-41910000D01*
X130905000Y-40640000D02*
X130905000Y-41240600D01*
X132080000Y-40640000D02*
X130905000Y-40640000D01*
X132080000Y-37360300D02*
X132080000Y-40640000D01*
X134400000Y-35040300D02*
X132080000Y-37360300D01*
X134400000Y-34290000D02*
X134400000Y-35040300D01*
X134620000Y-48460500D02*
X134578000Y-48419000D01*
X134620000Y-50260000D02*
X134620000Y-48460500D01*
X142235000Y-38100000D02*
X140655000Y-38100000D01*
X143730000Y-36604700D02*
X142235000Y-38100000D01*
X143730000Y-34290000D02*
X143730000Y-36604700D01*
X146050000Y-38924700D02*
X146050000Y-40640000D01*
X143730000Y-36604700D02*
X146050000Y-38924700D01*
X138650000Y-35040300D02*
X138650000Y-34290000D01*
X140434000Y-36824700D02*
X138650000Y-35040300D01*
X140655000Y-36824700D02*
X140434000Y-36824700D01*
X140655000Y-38100000D02*
X140655000Y-36824700D01*
X138745000Y-41910000D02*
X138745000Y-43815000D01*
X139375000Y-44444700D02*
X138745000Y-43815000D01*
X140655000Y-44444700D02*
X139375000Y-44444700D01*
X140655000Y-45720000D02*
X140655000Y-44444700D01*
X138430000Y-48734700D02*
X138430000Y-49497300D01*
X137730000Y-48034700D02*
X138430000Y-48734700D01*
X137730000Y-44756900D02*
X137730000Y-48034700D01*
X138672000Y-43815000D02*
X137730000Y-44756900D01*
X138745000Y-43815000D02*
X138672000Y-43815000D01*
X138790000Y-49497300D02*
X138430000Y-49497300D01*
X139553000Y-50260000D02*
X138790000Y-49497300D01*
X140970000Y-50260000D02*
X139553000Y-50260000D01*
X138745000Y-39375300D02*
X138745000Y-38100000D01*
X139375000Y-40005000D02*
X138745000Y-39375300D01*
X140004000Y-39375400D02*
X139375000Y-40005000D01*
X144775000Y-39375400D02*
X140004000Y-39375400D01*
X144780000Y-39370000D02*
X144775000Y-39375400D01*
X138745000Y-40634700D02*
X138745000Y-41910000D01*
X139375000Y-40005000D02*
X138745000Y-40634700D01*
X138430000Y-50260000D02*
X138430000Y-49497300D01*
X144685000Y-40640000D02*
X143510000Y-40640000D01*
X144685000Y-41007400D02*
X144685000Y-40640000D01*
X145493000Y-41815300D02*
X144685000Y-41007400D01*
X146581000Y-41815300D02*
X145493000Y-41815300D01*
X147240000Y-41156000D02*
X146581000Y-41815300D01*
X147240000Y-36450300D02*
X147240000Y-41156000D01*
X145830000Y-35040300D02*
X147240000Y-36450300D01*
X145830000Y-34290000D02*
X145830000Y-35040300D01*
X140655000Y-41910000D02*
X141665000Y-41910000D01*
X142335000Y-41240600D02*
X141665000Y-41910000D01*
X142335000Y-40640000D02*
X142335000Y-41240600D01*
X143510000Y-40640000D02*
X142335000Y-40640000D01*
X141665000Y-45549900D02*
X141665000Y-41910000D01*
X144850000Y-48734700D02*
X141665000Y-45549900D01*
X146050000Y-48734700D02*
X144850000Y-48734700D01*
X146050000Y-50260000D02*
X146050000Y-48734700D01*
X152085000Y-38100000D02*
X152085000Y-36824700D01*
X150301000Y-35040300D02*
X152085000Y-36824700D01*
X150300000Y-35040300D02*
X150301000Y-35040300D01*
X150300000Y-34290000D02*
X150300000Y-35040300D01*
X158099000Y-40021200D02*
X157480000Y-40640000D01*
X158099000Y-33850200D02*
X158099000Y-40021200D01*
X157788000Y-33539700D02*
X158099000Y-33850200D01*
X155160000Y-33539700D02*
X157788000Y-33539700D01*
X155160000Y-34290000D02*
X155160000Y-33539700D01*
X154335000Y-34575000D02*
X152085000Y-36824700D01*
X154335000Y-34290000D02*
X154335000Y-34575000D01*
X155160000Y-34290000D02*
X154335000Y-34290000D01*
X149860000Y-50260000D02*
X149860000Y-49497300D01*
X152085000Y-45720000D02*
X152085000Y-44444700D01*
X153187000Y-44444700D02*
X152085000Y-44444700D01*
X156210000Y-41421500D02*
X153187000Y-44444700D01*
X156210000Y-39370000D02*
X156210000Y-41421500D01*
X150220000Y-49497300D02*
X149860000Y-49497300D01*
X150983000Y-50260000D02*
X150220000Y-49497300D01*
X152400000Y-50260000D02*
X150983000Y-50260000D01*
X149162000Y-44672700D02*
X150412000Y-43422700D01*
X149162000Y-48619800D02*
X149162000Y-44672700D01*
X149860000Y-49317300D02*
X149162000Y-48619800D01*
X149860000Y-49497300D02*
X149860000Y-49317300D01*
X151434000Y-44444700D02*
X150412000Y-43422700D01*
X152085000Y-44444700D02*
X151434000Y-44444700D01*
X150175000Y-43185300D02*
X150175000Y-41910000D01*
X150412000Y-43422700D02*
X150175000Y-43185300D01*
X150175000Y-41910000D02*
X150175000Y-38100000D01*
X157480000Y-48699400D02*
X157480000Y-50260000D01*
X157238000Y-48457200D02*
X157480000Y-48699400D01*
X154940000Y-37360300D02*
X154940000Y-40640000D01*
X157260000Y-35040300D02*
X154940000Y-37360300D01*
X157260000Y-34290000D02*
X157260000Y-35040300D01*
X153095000Y-41910000D02*
X152085000Y-41910000D01*
X153765000Y-41240600D02*
X153095000Y-41910000D01*
X153765000Y-40640000D02*
X153765000Y-41240600D01*
X154940000Y-40640000D02*
X153765000Y-40640000D01*
X164785000Y-38100000D02*
X164785000Y-36824700D01*
X163001000Y-35040300D02*
X164785000Y-36824700D01*
X162780000Y-35040300D02*
X163001000Y-35040300D01*
X162780000Y-34290000D02*
X162780000Y-35040300D01*
X170839000Y-39981000D02*
X170180000Y-40640000D01*
X170839000Y-33876500D02*
X170839000Y-39981000D01*
X170502000Y-33539700D02*
X170839000Y-33876500D01*
X167860000Y-33539700D02*
X170502000Y-33539700D01*
X167860000Y-34290000D02*
X167860000Y-33539700D01*
X167035000Y-34575000D02*
X164785000Y-36824700D01*
X167035000Y-34290000D02*
X167035000Y-34575000D01*
X167860000Y-34290000D02*
X167035000Y-34290000D01*
X162875000Y-38100000D02*
X162875000Y-41910000D01*
X164785000Y-45720000D02*
X164785000Y-44444700D01*
X163526000Y-43185300D02*
X164785000Y-44444700D01*
X162875000Y-43185300D02*
X163526000Y-43185300D01*
X162875000Y-41910000D02*
X162875000Y-43185300D01*
X165887000Y-44444700D02*
X164785000Y-44444700D01*
X168910000Y-41421500D02*
X165887000Y-44444700D01*
X168910000Y-39370000D02*
X168910000Y-41421500D01*
X162162000Y-44444700D02*
X164785000Y-44444700D01*
X161803000Y-44803600D02*
X162162000Y-44444700D01*
X161803000Y-47977800D02*
X161803000Y-44803600D01*
X162560000Y-48734700D02*
X161803000Y-47977800D01*
X162560000Y-49499400D02*
X162560000Y-48734700D01*
X162922000Y-49499400D02*
X162560000Y-49499400D01*
X163683000Y-50260000D02*
X162922000Y-49499400D01*
X165100000Y-50260000D02*
X163683000Y-50260000D01*
X162560000Y-50260000D02*
X162560000Y-49499400D01*
X170180000Y-48426400D02*
X170180000Y-50260000D01*
X167640000Y-37360300D02*
X167640000Y-40640000D01*
X169960000Y-35040300D02*
X167640000Y-37360300D01*
X169960000Y-34290000D02*
X169960000Y-35040300D01*
X165795000Y-41910000D02*
X164785000Y-41910000D01*
X166465000Y-41240600D02*
X165795000Y-41910000D01*
X166465000Y-40640000D02*
X166465000Y-41240600D01*
X167640000Y-40640000D02*
X166465000Y-40640000D01*
X174305000Y-39375300D02*
X174305000Y-38100000D01*
X174935000Y-40005000D02*
X174305000Y-39375300D01*
X175564000Y-39375400D02*
X174935000Y-40005000D01*
X180335000Y-39375400D02*
X175564000Y-39375400D01*
X180340000Y-39370000D02*
X180335000Y-39375400D01*
X173990000Y-50260000D02*
X173990000Y-48734700D01*
X175767000Y-48734700D02*
X173990000Y-48734700D01*
X176530000Y-49497300D02*
X175767000Y-48734700D01*
X176530000Y-50260000D02*
X176530000Y-49497300D01*
X174305000Y-40634700D02*
X174305000Y-41910000D01*
X174935000Y-40005000D02*
X174305000Y-40634700D01*
X175320000Y-44237100D02*
X175320000Y-44444600D01*
X176215000Y-45339900D02*
X175320000Y-44444600D01*
X176215000Y-45720000D02*
X176215000Y-45339900D01*
X173238000Y-47983000D02*
X173990000Y-48734700D01*
X173238000Y-44806500D02*
X173238000Y-47983000D01*
X173600000Y-44444600D02*
X173238000Y-44806500D01*
X175320000Y-44444600D02*
X173600000Y-44444600D01*
X177225000Y-38100000D02*
X176215000Y-38100000D01*
X178986000Y-36339100D02*
X177225000Y-38100000D01*
X178986000Y-36314200D02*
X178986000Y-36339100D01*
X179355000Y-35945500D02*
X178986000Y-36314200D01*
X179355000Y-35195500D02*
X179355000Y-35945500D01*
X179510000Y-35040300D02*
X179355000Y-35195500D01*
X179510000Y-34290000D02*
X179510000Y-35040300D01*
X181610000Y-38963000D02*
X181610000Y-40640000D01*
X178986000Y-36339100D02*
X181610000Y-38963000D01*
X174210000Y-35040300D02*
X174210000Y-34290000D01*
X175994000Y-36824700D02*
X174210000Y-35040300D01*
X176215000Y-36824700D02*
X175994000Y-36824700D01*
X176215000Y-38100000D02*
X176215000Y-36824700D01*
X177225000Y-41910000D02*
X176215000Y-41910000D01*
X177895000Y-41240600D02*
X177225000Y-41910000D01*
X177895000Y-40640000D02*
X177895000Y-41240600D01*
X179070000Y-40640000D02*
X177895000Y-40640000D01*
X182812000Y-41103600D02*
X181578000Y-42336800D01*
X182812000Y-36242000D02*
X182812000Y-41103600D01*
X181610000Y-35040300D02*
X182812000Y-36242000D01*
X181610000Y-34290000D02*
X181610000Y-35040300D01*
X182378000Y-43136700D02*
X181578000Y-42336800D01*
X182378000Y-47966300D02*
X182378000Y-43136700D01*
X181610000Y-48734700D02*
X182378000Y-47966300D01*
X181610000Y-50260000D02*
X181610000Y-48734700D01*
X180245000Y-40640000D02*
X179070000Y-40640000D01*
X180245000Y-41003600D02*
X180245000Y-40640000D01*
X181578000Y-42336800D02*
X180245000Y-41003600D01*
X190720000Y-34290000D02*
X190720000Y-37462300D01*
X193040000Y-38947100D02*
X193040000Y-40640000D01*
X191555000Y-37462300D02*
X193040000Y-38947100D01*
X190720000Y-37462300D02*
X191555000Y-37462300D01*
X189293000Y-37462300D02*
X190720000Y-37462300D01*
X188655000Y-38100000D02*
X189293000Y-37462300D01*
X187645000Y-38100000D02*
X188655000Y-38100000D01*
X185640000Y-35040300D02*
X185640000Y-34290000D01*
X187424000Y-36824700D02*
X185640000Y-35040300D01*
X187645000Y-36824700D02*
X187424000Y-36824700D01*
X187645000Y-38100000D02*
X187645000Y-36824700D01*
X187645000Y-45180000D02*
X187645000Y-45720000D01*
X186720000Y-44254800D02*
X187645000Y-45180000D01*
X185215000Y-44254800D02*
X186720000Y-44254800D01*
X184725000Y-44745600D02*
X185215000Y-44254800D01*
X184725000Y-48039300D02*
X184725000Y-44745600D01*
X185420000Y-48734700D02*
X184725000Y-48039300D01*
X185420000Y-49497300D02*
X185420000Y-48734700D01*
X185780000Y-49497300D02*
X185420000Y-49497300D01*
X186543000Y-50260000D02*
X185780000Y-49497300D01*
X187960000Y-50260000D02*
X186543000Y-50260000D01*
X191765000Y-39375300D02*
X185735000Y-39375300D01*
X191770000Y-39370000D02*
X191765000Y-39375300D01*
X185735000Y-38100000D02*
X185735000Y-39375300D01*
X185735000Y-39375300D02*
X185735000Y-41910000D01*
X185420000Y-50260000D02*
X185420000Y-49497300D01*
X188655000Y-41910000D02*
X187645000Y-41910000D01*
X189325000Y-41240600D02*
X188655000Y-41910000D01*
X189325000Y-40640000D02*
X189325000Y-41240600D01*
X190500000Y-40640000D02*
X189325000Y-40640000D01*
X193735000Y-48039300D02*
X193735000Y-42756100D01*
X193040000Y-48734700D02*
X193735000Y-48039300D01*
X193040000Y-50260000D02*
X193040000Y-48734700D01*
X192820000Y-35040300D02*
X192820000Y-34290000D01*
X194217000Y-36437700D02*
X192820000Y-35040300D01*
X194217000Y-42274100D02*
X194217000Y-36437700D01*
X193735000Y-42756100D02*
X194217000Y-42274100D01*
X193456000Y-42756100D02*
X193735000Y-42756100D01*
X191675000Y-40975800D02*
X193456000Y-42756100D01*
X191675000Y-40640000D02*
X191675000Y-40975800D01*
X190500000Y-40640000D02*
X191675000Y-40640000D01*
X200345000Y-38100000D02*
X200345000Y-36824700D01*
X198561000Y-35040300D02*
X200345000Y-36824700D01*
X198340000Y-35040300D02*
X198561000Y-35040300D01*
X198340000Y-34290000D02*
X198340000Y-35040300D01*
X202595000Y-34575000D02*
X200345000Y-36824700D01*
X202595000Y-34290000D02*
X202595000Y-34575000D01*
X203420000Y-34290000D02*
X202595000Y-34290000D01*
X206358000Y-40021900D02*
X205740000Y-40640000D01*
X206358000Y-33828100D02*
X206358000Y-40021900D01*
X206070000Y-33539700D02*
X206358000Y-33828100D01*
X203420000Y-33539700D02*
X206070000Y-33539700D01*
X203420000Y-34290000D02*
X203420000Y-33539700D01*
X198435000Y-38100000D02*
X198435000Y-41910000D01*
X199086000Y-43185300D02*
X200345000Y-44444700D01*
X198435000Y-43185300D02*
X199086000Y-43185300D01*
X200345000Y-45720000D02*
X200345000Y-44444700D01*
X198435000Y-41910000D02*
X198435000Y-43185300D01*
X197395000Y-44225700D02*
X198435000Y-43185300D01*
X197395000Y-48009300D02*
X197395000Y-44225700D01*
X198120000Y-48734700D02*
X197395000Y-48009300D01*
X198120000Y-49659800D02*
X198120000Y-48734700D01*
X198642000Y-49659800D02*
X198120000Y-49659800D01*
X199243000Y-50260000D02*
X198642000Y-49659800D01*
X200660000Y-50260000D02*
X199243000Y-50260000D01*
X201442000Y-44444700D02*
X200345000Y-44444700D01*
X204470000Y-41416900D02*
X201442000Y-44444700D01*
X204470000Y-39370000D02*
X204470000Y-41416900D01*
X198120000Y-50260000D02*
X198120000Y-49659800D01*
X205740000Y-48450800D02*
X205740000Y-50260000D01*
X203200000Y-37360300D02*
X203200000Y-40640000D01*
X205520000Y-35040300D02*
X203200000Y-37360300D01*
X205520000Y-34290000D02*
X205520000Y-35040300D01*
X201355000Y-41910000D02*
X200345000Y-41910000D01*
X202025000Y-41240600D02*
X201355000Y-41910000D01*
X202025000Y-40640000D02*
X202025000Y-41240600D01*
X203200000Y-40640000D02*
X202025000Y-40640000D01*
X209865000Y-39375300D02*
X209865000Y-38100000D01*
X210495000Y-40005000D02*
X209865000Y-39375300D01*
X211124000Y-39375400D02*
X210495000Y-40005000D01*
X215895000Y-39375400D02*
X211124000Y-39375400D01*
X215900000Y-39370000D02*
X215895000Y-39375400D01*
X209865000Y-40634700D02*
X209865000Y-41910000D01*
X210495000Y-40005000D02*
X209865000Y-40634700D01*
X211775000Y-46995300D02*
X211775000Y-45720000D01*
X211486000Y-47284800D02*
X211775000Y-46995300D01*
X211486000Y-47284800D02*
X211486000Y-48734700D01*
X212090000Y-48734700D02*
X211486000Y-48734700D01*
X212090000Y-50260000D02*
X212090000Y-48734700D01*
X209550000Y-48734700D02*
X209550000Y-50260000D01*
X211486000Y-48734700D02*
X209550000Y-48734700D01*
X211595000Y-36824700D02*
X211775000Y-36824700D01*
X209770000Y-34999800D02*
X211595000Y-36824700D01*
X209770000Y-34249500D02*
X209770000Y-34999800D01*
X211775000Y-38100000D02*
X211775000Y-36824700D01*
X214850000Y-34290000D02*
X214850000Y-36642300D01*
X217170000Y-38962300D02*
X214850000Y-36642300D01*
X217170000Y-40640000D02*
X217170000Y-38962300D01*
X211957000Y-36642300D02*
X211775000Y-36824700D01*
X214850000Y-36642300D02*
X211957000Y-36642300D01*
X212785000Y-41910000D02*
X211775000Y-41910000D01*
X213455000Y-41240600D02*
X212785000Y-41910000D01*
X213455000Y-40640000D02*
X213455000Y-41240600D01*
X214630000Y-40640000D02*
X213455000Y-40640000D01*
X215805000Y-40640000D02*
X214630000Y-40640000D01*
X215805000Y-40984800D02*
X215805000Y-40640000D01*
X217173000Y-42352200D02*
X215805000Y-40984800D01*
X218373000Y-41152100D02*
X217173000Y-42352200D01*
X218373000Y-36463100D02*
X218373000Y-41152100D01*
X216950000Y-35040300D02*
X218373000Y-36463100D01*
X216950000Y-34290000D02*
X216950000Y-35040300D01*
X217170000Y-48734700D02*
X217170000Y-50260000D01*
X217878000Y-48026900D02*
X217170000Y-48734700D01*
X217878000Y-43057300D02*
X217878000Y-48026900D01*
X217173000Y-42352200D02*
X217878000Y-43057300D01*
X224785000Y-38100000D02*
X223205000Y-38100000D01*
X226280000Y-36604700D02*
X224785000Y-38100000D01*
X226280000Y-34290000D02*
X226280000Y-36604700D01*
X228600000Y-38924700D02*
X228600000Y-40640000D01*
X226280000Y-36604700D02*
X228600000Y-38924700D01*
X221200000Y-35040300D02*
X221200000Y-34290000D01*
X222984000Y-36824700D02*
X221200000Y-35040300D01*
X223205000Y-36824700D02*
X222984000Y-36824700D01*
X223205000Y-38100000D02*
X223205000Y-36824700D01*
X221295000Y-39375300D02*
X221295000Y-38100000D01*
X221925000Y-40005000D02*
X221295000Y-39375300D01*
X222554000Y-39375400D02*
X221925000Y-40005000D01*
X227325000Y-39375400D02*
X222554000Y-39375400D01*
X227330000Y-39370000D02*
X227325000Y-39375400D01*
X221295000Y-40634700D02*
X221295000Y-41910000D01*
X221925000Y-40005000D02*
X221295000Y-40634700D01*
X222757000Y-48734700D02*
X220980000Y-48734700D01*
X223520000Y-49497300D02*
X222757000Y-48734700D01*
X223520000Y-50260000D02*
X223520000Y-49497300D01*
X220980000Y-50260000D02*
X220980000Y-48734700D01*
X223205000Y-45399600D02*
X222250000Y-44444600D01*
X223205000Y-45720000D02*
X223205000Y-45399600D01*
X220244000Y-47999200D02*
X220980000Y-48734700D01*
X220244000Y-44718800D02*
X220244000Y-47999200D01*
X220519000Y-44444600D02*
X220244000Y-44718800D01*
X222250000Y-44444600D02*
X220519000Y-44444600D01*
X222250000Y-44294300D02*
X222250000Y-44444600D01*
X224215000Y-41910000D02*
X223205000Y-41910000D01*
X224885000Y-41240600D02*
X224215000Y-41910000D01*
X224885000Y-40640000D02*
X224885000Y-41240600D01*
X226060000Y-40640000D02*
X224885000Y-40640000D01*
X228600000Y-48734700D02*
X228600000Y-50260000D01*
X229345000Y-47990000D02*
X228600000Y-48734700D01*
X229345000Y-41815300D02*
X229345000Y-47990000D01*
X229785000Y-41374800D02*
X229345000Y-41815300D01*
X229785000Y-36445500D02*
X229785000Y-41374800D01*
X228380000Y-35040300D02*
X229785000Y-36445500D01*
X228380000Y-34290000D02*
X228380000Y-35040300D01*
X227235000Y-40640000D02*
X226060000Y-40640000D01*
X227235000Y-41007400D02*
X227235000Y-40640000D01*
X228043000Y-41815300D02*
X227235000Y-41007400D01*
X229345000Y-41815300D02*
X228043000Y-41815300D01*
X22640000Y-33702300D02*
X22640000Y-34290000D01*
X33482300Y-22860000D02*
X22640000Y-33702300D01*
X38100000Y-22860000D02*
X33482300Y-22860000D01*
X20939600Y-44140100D02*
X23107300Y-44140100D01*
X20635000Y-44444700D02*
X20939600Y-44140100D01*
X20635000Y-45720000D02*
X20635000Y-44444700D01*
X32065000Y-44161000D02*
X32065000Y-45720000D01*
X34070000Y-33345300D02*
X34070000Y-34290000D01*
X43180000Y-24235300D02*
X34070000Y-33345300D01*
X43180000Y-22860000D02*
X43180000Y-24235300D01*
X45500000Y-33539700D02*
X45500000Y-34290000D01*
X48260000Y-30779700D02*
X45500000Y-33539700D01*
X48260000Y-22860000D02*
X48260000Y-30779700D01*
X43799600Y-44140100D02*
X45100000Y-44140100D01*
X43495000Y-44444700D02*
X43799600Y-44140100D01*
X43495000Y-45720000D02*
X43495000Y-44444700D01*
X55184700Y-45720000D02*
X56195000Y-45720000D01*
X55184700Y-33539700D02*
X55184700Y-45720000D01*
X53340000Y-31695000D02*
X55184700Y-33539700D01*
X53340000Y-22860000D02*
X53340000Y-31695000D01*
X58200000Y-33539700D02*
X58200000Y-34290000D01*
X55184700Y-33539700D02*
X58200000Y-33539700D01*
X66614700Y-45720000D02*
X67625000Y-45720000D01*
X66614700Y-33539700D02*
X66614700Y-45720000D01*
X69630000Y-33539700D02*
X69630000Y-34290000D01*
X66614700Y-33539700D02*
X69630000Y-33539700D01*
X66614700Y-32430000D02*
X66614700Y-32984800D01*
X66614700Y-32984800D02*
X66614700Y-33539700D01*
X58420000Y-24790100D02*
X58420000Y-22860000D01*
X66614700Y-32984800D02*
X58420000Y-24790100D01*
X78044700Y-45720000D02*
X79055000Y-45720000D01*
X78044700Y-33539700D02*
X78044700Y-45720000D01*
X77152100Y-32647100D02*
X78044700Y-33539700D01*
X73287100Y-32647100D02*
X77152100Y-32647100D01*
X63500000Y-22860000D02*
X73287100Y-32647100D01*
X81060000Y-33539700D02*
X81060000Y-34290000D01*
X78044700Y-33539700D02*
X81060000Y-33539700D01*
X89407500Y-31996700D02*
X90834600Y-33423800D01*
X77716700Y-31996700D02*
X89407500Y-31996700D01*
X68580000Y-22860000D02*
X77716700Y-31996700D01*
X91373400Y-32885000D02*
X90834600Y-33423800D01*
X99670800Y-32885000D02*
X91373400Y-32885000D01*
X100356000Y-33570500D02*
X99670800Y-32885000D01*
X100356000Y-41049700D02*
X100356000Y-33570500D01*
X96961300Y-44444700D02*
X100356000Y-41049700D01*
X96835000Y-44444700D02*
X96961300Y-44444700D01*
X96835000Y-45720000D02*
X96835000Y-44444700D01*
X93760000Y-35040300D02*
X93760000Y-34290000D01*
X91137700Y-35040300D02*
X93760000Y-35040300D01*
X90834600Y-34737200D02*
X91137700Y-35040300D01*
X90834600Y-33423800D02*
X90834600Y-34737200D01*
X99638600Y-31342600D02*
X102175000Y-33878600D01*
X82142600Y-31342600D02*
X99638600Y-31342600D01*
X73660000Y-22860000D02*
X82142600Y-31342600D01*
X102514000Y-33539700D02*
X102175000Y-33878600D01*
X105190000Y-33539700D02*
X102514000Y-33539700D01*
X105190000Y-34290000D02*
X105190000Y-33539700D01*
X107255000Y-45720000D02*
X108265000Y-45720000D01*
X107255000Y-45593700D02*
X107255000Y-45720000D01*
X104846000Y-43185400D02*
X107255000Y-45593700D01*
X102475000Y-43185400D02*
X104846000Y-43185400D01*
X102175000Y-42884900D02*
X102475000Y-43185400D01*
X102175000Y-33878600D02*
X102175000Y-42884900D01*
X82178200Y-26298200D02*
X78740000Y-22860000D01*
X106038000Y-26298200D02*
X82178200Y-26298200D01*
X113605000Y-33864900D02*
X106038000Y-26298200D01*
X113930000Y-33539700D02*
X113605000Y-33864900D01*
X116620000Y-33539700D02*
X113930000Y-33539700D01*
X116620000Y-34290000D02*
X116620000Y-33539700D01*
X113605000Y-42928500D02*
X113605000Y-33864900D01*
X113862000Y-43185400D02*
X113605000Y-42928500D01*
X116276000Y-43185400D02*
X113862000Y-43185400D01*
X118685000Y-45593700D02*
X116276000Y-43185400D01*
X118685000Y-45720000D02*
X118685000Y-45593700D01*
X119695000Y-45720000D02*
X118685000Y-45720000D01*
X129502000Y-32870300D02*
X129502000Y-34290000D01*
X135210000Y-32870300D02*
X129502000Y-32870300D01*
X135927000Y-33587000D02*
X135210000Y-32870300D01*
X135927000Y-41038900D02*
X135927000Y-33587000D01*
X132521000Y-44444700D02*
X135927000Y-41038900D01*
X132395000Y-44444700D02*
X132521000Y-44444700D01*
X132395000Y-45720000D02*
X132395000Y-44444700D01*
X127000000Y-30368300D02*
X127000000Y-22860000D01*
X129502000Y-32870300D02*
X127000000Y-30368300D01*
X140750000Y-34290000D02*
X140750000Y-33539700D01*
X140750000Y-32905300D02*
X140750000Y-33539700D01*
X132080000Y-24235300D02*
X140750000Y-32905300D01*
X132080000Y-22860000D02*
X132080000Y-24235300D01*
X143825000Y-44444700D02*
X143825000Y-45720000D01*
X144928000Y-44444700D02*
X143825000Y-44444700D01*
X147891000Y-41482400D02*
X144928000Y-44444700D01*
X147891000Y-35050400D02*
X147891000Y-41482400D01*
X146380000Y-33539700D02*
X147891000Y-35050400D01*
X140750000Y-33539700D02*
X146380000Y-33539700D01*
X147840000Y-33539700D02*
X152400000Y-33539700D01*
X137160000Y-22860000D02*
X147840000Y-33539700D01*
X152400000Y-34290000D02*
X152400000Y-33539700D01*
X153050000Y-32889300D02*
X152400000Y-33539700D01*
X158082000Y-32889300D02*
X153050000Y-32889300D01*
X158791000Y-33598300D02*
X158082000Y-32889300D01*
X158791000Y-41008300D02*
X158791000Y-33598300D01*
X155355000Y-44444700D02*
X158791000Y-41008300D01*
X155255000Y-44444700D02*
X155355000Y-44444700D01*
X155255000Y-45720000D02*
X155255000Y-44444700D01*
X164880000Y-34290000D02*
X164880000Y-33539700D01*
X163484000Y-32143500D02*
X164880000Y-33539700D01*
X151524000Y-32143500D02*
X163484000Y-32143500D01*
X142240000Y-22860000D02*
X151524000Y-32143500D01*
X165557000Y-32862800D02*
X164880000Y-33539700D01*
X170754000Y-32862800D02*
X165557000Y-32862800D01*
X171516000Y-33625200D02*
X170754000Y-32862800D01*
X171516000Y-40996300D02*
X171516000Y-33625200D01*
X168068000Y-44444700D02*
X171516000Y-40996300D01*
X167925000Y-44444700D02*
X168068000Y-44444700D01*
X167925000Y-45720000D02*
X167925000Y-44444700D01*
X155486000Y-31026500D02*
X147320000Y-22860000D01*
X170604000Y-31026500D02*
X155486000Y-31026500D01*
X173295000Y-33716700D02*
X170604000Y-31026500D01*
X173472000Y-33539700D02*
X173295000Y-33716700D01*
X176310000Y-33539700D02*
X173472000Y-33539700D01*
X176310000Y-34290000D02*
X176310000Y-33539700D01*
X178375000Y-45720000D02*
X179385000Y-45720000D01*
X175840000Y-43185400D02*
X178375000Y-45720000D01*
X173597000Y-43185400D02*
X175840000Y-43185400D01*
X173295000Y-42882700D02*
X173597000Y-43185400D01*
X173295000Y-33716700D02*
X173295000Y-42882700D01*
X187572000Y-33534000D02*
X184719000Y-33534000D01*
X187740000Y-33702300D02*
X187572000Y-33534000D01*
X187740000Y-34290000D02*
X187740000Y-33702300D01*
X184719000Y-42872800D02*
X184719000Y-33534000D01*
X185146000Y-43299800D02*
X184719000Y-42872800D01*
X187384000Y-43299800D02*
X185146000Y-43299800D01*
X189805000Y-45720000D02*
X187384000Y-43299800D01*
X190815000Y-45720000D02*
X189805000Y-45720000D01*
X156753000Y-27212900D02*
X152400000Y-22860000D01*
X178398000Y-27212900D02*
X156753000Y-27212900D01*
X184719000Y-33534000D02*
X178398000Y-27212900D01*
X200440000Y-34290000D02*
X200440000Y-33539700D01*
X193370000Y-26469600D02*
X200440000Y-33539700D01*
X161090000Y-26469600D02*
X193370000Y-26469600D01*
X157480000Y-22860000D02*
X161090000Y-26469600D01*
X201090000Y-32889400D02*
X200440000Y-33539700D01*
X206339000Y-32889400D02*
X201090000Y-32889400D01*
X207044000Y-33594700D02*
X206339000Y-32889400D01*
X207044000Y-41010300D02*
X207044000Y-33594700D01*
X203610000Y-44444700D02*
X207044000Y-41010300D01*
X203515000Y-44444700D02*
X203610000Y-44444700D01*
X203515000Y-45720000D02*
X203515000Y-44444700D01*
X211870000Y-33499200D02*
X211870000Y-34249500D01*
X209135000Y-33499200D02*
X211870000Y-33499200D01*
X208855000Y-33779300D02*
X209135000Y-33499200D01*
X208855000Y-42895900D02*
X208855000Y-33779300D01*
X209583000Y-43624600D02*
X208855000Y-42895900D01*
X212644000Y-43624600D02*
X209583000Y-43624600D01*
X213935000Y-44915300D02*
X212644000Y-43624600D01*
X213935000Y-45720000D02*
X213935000Y-44915300D01*
X214945000Y-45720000D02*
X213935000Y-45720000D01*
X165519000Y-25819200D02*
X162560000Y-22860000D01*
X200894000Y-25819200D02*
X165519000Y-25819200D01*
X208855000Y-33779300D02*
X200894000Y-25819200D01*
X220285000Y-33539700D02*
X220257000Y-33567400D01*
X223300000Y-33539700D02*
X220285000Y-33539700D01*
X223300000Y-34290000D02*
X223300000Y-33539700D01*
X169015000Y-24235400D02*
X167640000Y-22860000D01*
X210925000Y-24235400D02*
X169015000Y-24235400D01*
X220257000Y-33567400D02*
X210925000Y-24235400D01*
X220257000Y-42854600D02*
X220257000Y-33567400D01*
X220655000Y-43252100D02*
X220257000Y-42854600D01*
X222897000Y-43252100D02*
X220655000Y-43252100D01*
X225365000Y-45720000D02*
X222897000Y-43252100D01*
X226375000Y-45720000D02*
X225365000Y-45720000D01*
X27940000Y-88800800D02*
X26812200Y-87673000D01*
X27940000Y-88900000D02*
X27940000Y-88800800D01*
X22827300Y-91657900D02*
X26812200Y-87673000D01*
X22827300Y-96695500D02*
X22827300Y-91657900D01*
X25144400Y-99012600D02*
X22827300Y-96695500D01*
X25144400Y-101136000D02*
X25144400Y-99012600D01*
X27068400Y-103060000D02*
X25144400Y-101136000D01*
X31054600Y-103060000D02*
X27068400Y-103060000D01*
X31379900Y-102735000D02*
X31054600Y-103060000D01*
X47783000Y-102735000D02*
X31379900Y-102735000D01*
X54126900Y-96391200D02*
X47783000Y-102735000D01*
X66168800Y-96391200D02*
X54126900Y-96391200D01*
X68580000Y-93980000D02*
X66168800Y-96391200D01*
X22545000Y-74935300D02*
X22545000Y-73660000D01*
X22532700Y-74947600D02*
X22545000Y-74935300D01*
X22532700Y-75242900D02*
X22532700Y-74947600D01*
X47994800Y-88905400D02*
X43548600Y-88905400D01*
X49297700Y-87602500D02*
X47994800Y-88905400D01*
X52392800Y-87602500D02*
X49297700Y-87602500D01*
X54896000Y-90105700D02*
X52392800Y-87602500D01*
X60545500Y-90105700D02*
X54896000Y-90105700D01*
X63044900Y-92605100D02*
X60545500Y-90105700D01*
X64665100Y-92605100D02*
X63044900Y-92605100D01*
X66040000Y-93980000D02*
X64665100Y-92605100D01*
X41915400Y-88905400D02*
X41910000Y-88900000D01*
X43548600Y-88905400D02*
X41915400Y-88905400D01*
X34985300Y-73660000D02*
X33975000Y-73660000D01*
X34985300Y-73500200D02*
X34985300Y-73660000D01*
X34771100Y-73286000D02*
X34985300Y-73500200D01*
X34771100Y-72519600D02*
X34771100Y-73286000D01*
X35567400Y-71723300D02*
X34771100Y-72519600D01*
X39099300Y-71723300D02*
X35567400Y-71723300D01*
X40309000Y-72933000D02*
X39099300Y-71723300D01*
X40309000Y-77089600D02*
X40309000Y-72933000D01*
X53375300Y-91475300D02*
X50800000Y-88900000D01*
X60995300Y-91475300D02*
X53375300Y-91475300D01*
X63500000Y-93980000D02*
X60995300Y-91475300D01*
X50639000Y-89061000D02*
X50800000Y-88900000D01*
X49179500Y-89061000D02*
X50639000Y-89061000D01*
X45405000Y-75233700D02*
X45405000Y-73660000D01*
X66040000Y-88806800D02*
X66040000Y-88900000D01*
X59382000Y-82148800D02*
X66040000Y-88806800D01*
X57183400Y-82148800D02*
X59382000Y-82148800D01*
X55729400Y-80694800D02*
X57183400Y-82148800D01*
X55729400Y-77018000D02*
X55729400Y-80694800D01*
X57812100Y-74935300D02*
X55729400Y-77018000D01*
X58105000Y-74935300D02*
X57812100Y-74935300D01*
X58105000Y-73660000D02*
X58105000Y-74935300D01*
X66040000Y-89028300D02*
X67084700Y-90073000D01*
X66040000Y-88900000D02*
X66040000Y-89028300D01*
X45362900Y-99417100D02*
X48260000Y-96520000D01*
X39404100Y-99417100D02*
X45362900Y-99417100D01*
X69535000Y-75007600D02*
X69535000Y-73660000D01*
X69189100Y-75353500D02*
X69535000Y-75007600D01*
X74626900Y-88596900D02*
X74626900Y-86710100D01*
X74930000Y-88900000D02*
X74626900Y-88596900D01*
X90704100Y-88365900D02*
X90704100Y-87270200D01*
X90170000Y-88900000D02*
X90704100Y-88365900D01*
X80965000Y-73660000D02*
X82265200Y-73660000D01*
X46437800Y-100882000D02*
X39067400Y-100882000D01*
X50800000Y-96520000D02*
X46437800Y-100882000D01*
X103055000Y-85077000D02*
X103836000Y-85858400D01*
X103055000Y-78675100D02*
X103055000Y-85077000D01*
X105095000Y-76634700D02*
X103055000Y-78675100D01*
X105095000Y-73660000D02*
X105095000Y-76634700D01*
X109988000Y-85858400D02*
X103836000Y-85858400D01*
X113030000Y-88900000D02*
X109988000Y-85858400D01*
X116525000Y-72384700D02*
X116525000Y-73660000D01*
X116248000Y-72384700D02*
X116525000Y-72384700D01*
X115952000Y-72088300D02*
X116248000Y-72384700D01*
X121920000Y-88634400D02*
X118998000Y-85712800D01*
X121920000Y-88900000D02*
X121920000Y-88634400D01*
X135940000Y-87679600D02*
X137160000Y-88900000D01*
X135940000Y-73093200D02*
X135940000Y-87679600D01*
X134023000Y-71176300D02*
X135940000Y-73093200D01*
X131961000Y-71176300D02*
X134023000Y-71176300D01*
X130235000Y-72902300D02*
X131961000Y-71176300D01*
X130235000Y-73660000D02*
X130235000Y-72902300D01*
X129225000Y-73660000D02*
X130235000Y-73660000D01*
X127076000Y-75876700D02*
X125681000Y-75876700D01*
X129225000Y-73727900D02*
X127076000Y-75876700D01*
X129225000Y-73660000D02*
X129225000Y-73727900D01*
X140655000Y-76702100D02*
X141295000Y-77342500D01*
X140655000Y-73660000D02*
X140655000Y-76702100D01*
X162770000Y-91344700D02*
X162828000Y-91287000D01*
X148495000Y-91344700D02*
X162770000Y-91344700D01*
X146050000Y-88900000D02*
X148495000Y-91344700D01*
X159189000Y-88069300D02*
X159189000Y-87532600D01*
X160020000Y-88900000D02*
X159189000Y-88069300D01*
X151369000Y-74935300D02*
X150275000Y-76030000D01*
X152085000Y-74935300D02*
X151369000Y-74935300D01*
X152085000Y-73660000D02*
X152085000Y-74935300D01*
X165272000Y-72384700D02*
X165565000Y-72091600D01*
X164785000Y-72384700D02*
X165272000Y-72384700D01*
X164785000Y-73660000D02*
X164785000Y-72384700D01*
X164785000Y-74935300D02*
X164785000Y-73660000D01*
X165202000Y-75351800D02*
X164785000Y-74935300D01*
X165202000Y-76187300D02*
X165202000Y-75351800D01*
X172421000Y-88900000D02*
X172802000Y-88519300D01*
X170180000Y-88900000D02*
X172421000Y-88900000D01*
X176215000Y-75211700D02*
X176215000Y-73660000D01*
X182378000Y-87128500D02*
X182343000Y-87128500D01*
X184150000Y-88900000D02*
X182378000Y-87128500D01*
X187645000Y-75154000D02*
X187645000Y-73660000D01*
X185964000Y-76834600D02*
X187645000Y-75154000D01*
X185964000Y-79475500D02*
X185964000Y-76834600D01*
X192545000Y-88404700D02*
X192545000Y-87126200D01*
X193040000Y-88900000D02*
X192545000Y-88404700D01*
X200345000Y-73660000D02*
X200345000Y-75215500D01*
X206866000Y-87486100D02*
X206273000Y-87486100D01*
X208280000Y-88900000D02*
X206866000Y-87486100D01*
X217170000Y-88900000D02*
X214848000Y-88900000D01*
X211775000Y-74945000D02*
X211775000Y-73660000D01*
X212064000Y-75233500D02*
X211775000Y-74945000D01*
X228600000Y-93110700D02*
X228600000Y-93980000D01*
X229295000Y-92415300D02*
X228600000Y-93110700D01*
X229295000Y-72679100D02*
X229295000Y-92415300D01*
X228346000Y-71729400D02*
X229295000Y-72679100D01*
X225262000Y-71729400D02*
X228346000Y-71729400D01*
X224215000Y-72776000D02*
X225262000Y-71729400D01*
X224215000Y-73660000D02*
X224215000Y-72776000D01*
X223205000Y-73660000D02*
X224215000Y-73660000D01*
X228600000Y-93110700D02*
X202947000Y-93110700D01*
X24256700Y-46421400D02*
X24691900Y-46421400D01*
X23555300Y-45720000D02*
X24256700Y-46421400D01*
X22545000Y-45720000D02*
X23555300Y-45720000D01*
X24704700Y-46408600D02*
X24691900Y-46421400D01*
X24704700Y-45720000D02*
X24704700Y-46408600D01*
X25715000Y-45720000D02*
X24704700Y-45720000D01*
X24691900Y-48026600D02*
X24691900Y-46421400D01*
X25400000Y-48734700D02*
X24691900Y-48026600D01*
X25400000Y-50260000D02*
X25400000Y-48734700D01*
X25400000Y-61909700D02*
X25400000Y-58960000D01*
X25715000Y-62224700D02*
X25400000Y-61909700D01*
X25715000Y-63500000D02*
X25715000Y-62224700D01*
X22860000Y-57434700D02*
X22860000Y-58960000D01*
X19673100Y-57434700D02*
X22860000Y-57434700D01*
X19377900Y-57729900D02*
X19673100Y-57434700D01*
X19377900Y-68333200D02*
X19377900Y-57729900D01*
X19624700Y-68580000D02*
X19377900Y-68333200D01*
X20635000Y-68580000D02*
X19624700Y-68580000D01*
X36830000Y-50260000D02*
X36830000Y-46995300D01*
X36260600Y-46995300D02*
X36830000Y-46995300D01*
X34985300Y-45720000D02*
X36260600Y-46995300D01*
X33975000Y-45720000D02*
X34985300Y-45720000D01*
X37145000Y-46995300D02*
X37145000Y-45720000D01*
X36830000Y-46995300D02*
X37145000Y-46995300D01*
X36830000Y-61909700D02*
X36830000Y-58960000D01*
X37145000Y-62224700D02*
X36830000Y-61909700D01*
X37145000Y-63500000D02*
X37145000Y-62224700D01*
X33216700Y-60485300D02*
X32851700Y-60850300D01*
X34290000Y-60485300D02*
X33216700Y-60485300D01*
X34290000Y-58960000D02*
X34290000Y-60485300D01*
X32065000Y-67304700D02*
X32065000Y-68580000D01*
X32320900Y-67048800D02*
X32065000Y-67304700D01*
X32320900Y-67007000D02*
X32320900Y-67048800D01*
X48575000Y-45720000D02*
X47564700Y-45720000D01*
X47564700Y-45720000D02*
X45405000Y-45720000D01*
X47564700Y-48039400D02*
X47564700Y-45720000D01*
X48260000Y-48734700D02*
X47564700Y-48039400D01*
X48260000Y-50260000D02*
X48260000Y-48734700D01*
X48260000Y-61909700D02*
X48260000Y-58960000D01*
X48575000Y-62224700D02*
X48260000Y-61909700D01*
X48575000Y-63500000D02*
X48575000Y-62224700D01*
X45720000Y-60485300D02*
X45720000Y-58960000D01*
X46415400Y-61180700D02*
X45720000Y-60485300D01*
X46415400Y-64479000D02*
X46415400Y-61180700D01*
X43589700Y-67304700D02*
X46415400Y-64479000D01*
X43495000Y-67304700D02*
X43589700Y-67304700D01*
X43495000Y-68580000D02*
X43495000Y-67304700D01*
X61275000Y-45720000D02*
X58105000Y-45720000D01*
X60960000Y-51785300D02*
X60960000Y-50260000D01*
X55295100Y-51785300D02*
X60960000Y-51785300D01*
X54941000Y-51431200D02*
X55295100Y-51785300D01*
X54941000Y-49086000D02*
X54941000Y-51431200D01*
X57031700Y-46995300D02*
X54941000Y-49086000D01*
X58105000Y-46995300D02*
X57031700Y-46995300D01*
X58105000Y-45720000D02*
X58105000Y-46995300D01*
X60960000Y-61909700D02*
X60960000Y-58960000D01*
X61275000Y-62224700D02*
X60960000Y-61909700D01*
X61275000Y-63500000D02*
X61275000Y-62224700D01*
X58420000Y-60485300D02*
X58420000Y-58960000D01*
X59115400Y-61180700D02*
X58420000Y-60485300D01*
X59115400Y-64470900D02*
X59115400Y-61180700D01*
X56281600Y-67304700D02*
X59115400Y-64470900D01*
X56195000Y-67304700D02*
X56281600Y-67304700D01*
X56195000Y-68580000D02*
X56195000Y-67304700D01*
X71246700Y-46421400D02*
X71681900Y-46421400D01*
X70545300Y-45720000D02*
X71246700Y-46421400D01*
X69535000Y-45720000D02*
X70545300Y-45720000D01*
X71694700Y-46408600D02*
X71681900Y-46421400D01*
X71694700Y-45720000D02*
X71694700Y-46408600D01*
X72705000Y-45720000D02*
X71694700Y-45720000D01*
X71681900Y-48026600D02*
X71681900Y-46421400D01*
X72390000Y-48734700D02*
X71681900Y-48026600D01*
X72390000Y-50260000D02*
X72390000Y-48734700D01*
X72390000Y-61909700D02*
X72390000Y-58960000D01*
X72705000Y-62224700D02*
X72390000Y-61909700D01*
X72705000Y-63500000D02*
X72705000Y-62224700D01*
X69850000Y-60485300D02*
X69850000Y-58960000D01*
X70583300Y-61218600D02*
X69850000Y-60485300D01*
X70583300Y-65285800D02*
X70583300Y-61218600D01*
X68564400Y-67304700D02*
X70583300Y-65285800D01*
X67625000Y-67304700D02*
X68564400Y-67304700D01*
X67625000Y-68580000D02*
X67625000Y-67304700D01*
X84135000Y-45720000D02*
X80965000Y-45720000D01*
X83820000Y-51785300D02*
X83820000Y-50260000D01*
X78117100Y-51785300D02*
X83820000Y-51785300D01*
X77854600Y-51522800D02*
X78117100Y-51785300D01*
X77854600Y-49027300D02*
X77854600Y-51522800D01*
X79886600Y-46995300D02*
X77854600Y-49027300D01*
X80965000Y-46995300D02*
X79886600Y-46995300D01*
X80965000Y-45720000D02*
X80965000Y-46995300D01*
X84135000Y-62224700D02*
X84135000Y-63500000D01*
X83820000Y-61909700D02*
X84135000Y-62224700D01*
X83820000Y-58960000D02*
X83820000Y-61909700D01*
X81280000Y-60485300D02*
X81280000Y-58960000D01*
X78330600Y-60485300D02*
X81280000Y-60485300D01*
X77399400Y-61416500D02*
X78330600Y-60485300D01*
X77399400Y-67934700D02*
X77399400Y-61416500D01*
X78044700Y-68580000D02*
X77399400Y-67934700D01*
X79055000Y-68580000D02*
X78044700Y-68580000D01*
X96520000Y-48413700D02*
X96520000Y-50260000D01*
X97938400Y-46995300D02*
X96520000Y-48413700D01*
X98745000Y-46995300D02*
X97938400Y-46995300D01*
X98745000Y-45720000D02*
X98745000Y-46995300D01*
X91755000Y-46995300D02*
X91755000Y-45720000D01*
X93173400Y-48413700D02*
X91755000Y-46995300D01*
X96520000Y-48413700D02*
X93173400Y-48413700D01*
X96520000Y-61909700D02*
X96520000Y-58960000D01*
X96835000Y-62224700D02*
X96520000Y-61909700D01*
X96835000Y-63500000D02*
X96835000Y-62224700D01*
X93980000Y-60485300D02*
X93980000Y-58960000D01*
X94675400Y-61180700D02*
X93980000Y-60485300D01*
X94675400Y-64479700D02*
X94675400Y-61180700D01*
X91850400Y-67304700D02*
X94675400Y-64479700D01*
X91755000Y-67304700D02*
X91850400Y-67304700D01*
X91755000Y-68580000D02*
X91755000Y-67304700D01*
X97594100Y-87434100D02*
X97594100Y-87139600D01*
X99060000Y-88900000D02*
X97594100Y-87434100D01*
X93665000Y-75482000D02*
X93665000Y-73660000D01*
X94659500Y-76476500D02*
X93665000Y-75482000D01*
X106211000Y-46995300D02*
X107950000Y-48734700D01*
X103185000Y-46995300D02*
X106211000Y-46995300D01*
X103185000Y-45720000D02*
X103185000Y-46995300D01*
X107950000Y-50260000D02*
X107950000Y-48734700D01*
X109689000Y-46995300D02*
X107950000Y-48734700D01*
X110175000Y-46995300D02*
X109689000Y-46995300D01*
X110175000Y-45720000D02*
X110175000Y-46995300D01*
X107950000Y-61909700D02*
X107950000Y-58960000D01*
X108265000Y-62224700D02*
X107950000Y-61909700D01*
X108265000Y-63500000D02*
X108265000Y-62224700D01*
X105410000Y-57434700D02*
X105410000Y-58960000D01*
X102290000Y-57434700D02*
X105410000Y-57434700D01*
X101969000Y-57755200D02*
X102290000Y-57434700D01*
X101969000Y-68374600D02*
X101969000Y-57755200D01*
X102175000Y-68580000D02*
X101969000Y-68374600D01*
X103185000Y-68580000D02*
X102175000Y-68580000D01*
X117641000Y-46995300D02*
X119380000Y-48734700D01*
X114615000Y-46995300D02*
X117641000Y-46995300D01*
X114615000Y-45720000D02*
X114615000Y-46995300D01*
X119380000Y-50260000D02*
X119380000Y-48734700D01*
X121119000Y-46995300D02*
X119380000Y-48734700D01*
X121605000Y-46995300D02*
X121119000Y-46995300D01*
X121605000Y-45720000D02*
X121605000Y-46995300D01*
X119380000Y-61909700D02*
X119380000Y-58960000D01*
X119695000Y-62224700D02*
X119380000Y-61909700D01*
X119695000Y-63500000D02*
X119695000Y-62224700D01*
X116840000Y-60485300D02*
X116840000Y-58960000D01*
X117535000Y-61180700D02*
X116840000Y-60485300D01*
X117535000Y-64479300D02*
X117535000Y-61180700D01*
X114710000Y-67304700D02*
X117535000Y-64479300D01*
X114615000Y-67304700D02*
X114710000Y-67304700D01*
X114615000Y-68580000D02*
X114615000Y-67304700D01*
X132080000Y-50260000D02*
X132080000Y-48426300D01*
X134305000Y-46995300D02*
X134305000Y-45720000D01*
X132874000Y-48426300D02*
X134305000Y-46995300D01*
X132080000Y-48426300D02*
X132874000Y-48426300D01*
X130649000Y-46995300D02*
X132080000Y-48426300D01*
X127315000Y-46995300D02*
X130649000Y-46995300D01*
X127315000Y-45720000D02*
X127315000Y-46995300D01*
X132080000Y-61909700D02*
X132080000Y-58960000D01*
X132395000Y-62224700D02*
X132080000Y-61909700D01*
X132395000Y-63500000D02*
X132395000Y-62224700D01*
X129899000Y-60485300D02*
X130186000Y-60772700D01*
X129540000Y-60485300D02*
X129899000Y-60485300D01*
X129540000Y-58960000D02*
X129540000Y-60485300D01*
X127315000Y-67304700D02*
X127315000Y-68580000D01*
X127741000Y-67304700D02*
X127315000Y-67304700D01*
X128051000Y-66995200D02*
X127741000Y-67304700D01*
X143510000Y-48734700D02*
X143510000Y-50260000D01*
X141771000Y-46995300D02*
X143510000Y-48734700D01*
X138745000Y-46995300D02*
X141771000Y-46995300D01*
X138745000Y-45720000D02*
X138745000Y-46995300D01*
X143510000Y-51785300D02*
X143510000Y-50260000D01*
X146706000Y-51785300D02*
X143510000Y-51785300D01*
X146967000Y-51524200D02*
X146706000Y-51785300D01*
X146967000Y-45942100D02*
X146967000Y-51524200D01*
X146745000Y-45720000D02*
X146967000Y-45942100D01*
X145735000Y-45720000D02*
X146745000Y-45720000D01*
X143510000Y-61909700D02*
X143510000Y-58960000D01*
X143825000Y-62224700D02*
X143510000Y-61909700D01*
X143825000Y-63500000D02*
X143825000Y-62224700D01*
X140970000Y-60485300D02*
X140970000Y-58960000D01*
X141665000Y-61180700D02*
X140970000Y-60485300D01*
X141665000Y-65381200D02*
X141665000Y-61180700D01*
X139742000Y-67304700D02*
X141665000Y-65381200D01*
X138745000Y-67304700D02*
X139742000Y-67304700D01*
X138745000Y-68580000D02*
X138745000Y-67304700D01*
X157165000Y-46995300D02*
X157165000Y-45720000D01*
X155426000Y-48734600D02*
X157165000Y-46995300D01*
X154940000Y-48734600D02*
X155426000Y-48734600D01*
X154940000Y-50260000D02*
X154940000Y-48734600D01*
X150175000Y-46995300D02*
X150175000Y-45720000D01*
X151914000Y-48734600D02*
X150175000Y-46995300D01*
X154940000Y-48734600D02*
X151914000Y-48734600D01*
X155255000Y-60800300D02*
X155255000Y-63500000D01*
X154940000Y-60485300D02*
X155255000Y-60800300D01*
X154940000Y-58960000D02*
X154940000Y-60485300D01*
X152400000Y-60485300D02*
X152400000Y-58960000D01*
X152859000Y-60485300D02*
X152400000Y-60485300D01*
X153773000Y-61399400D02*
X152859000Y-60485300D01*
X153773000Y-63793100D02*
X153773000Y-61399400D01*
X150261000Y-67304700D02*
X153773000Y-63793100D01*
X150175000Y-67304700D02*
X150261000Y-67304700D01*
X150175000Y-68580000D02*
X150175000Y-67304700D01*
X167640000Y-48413700D02*
X167640000Y-50260000D01*
X169058000Y-46995300D02*
X167640000Y-48413700D01*
X169835000Y-46995300D02*
X169058000Y-46995300D01*
X169835000Y-45720000D02*
X169835000Y-46995300D01*
X162875000Y-46995300D02*
X162875000Y-45720000D01*
X164293000Y-48413700D02*
X162875000Y-46995300D01*
X167640000Y-48413700D02*
X164293000Y-48413700D01*
X167955000Y-62224700D02*
X167955000Y-63500000D01*
X167640000Y-61909700D02*
X167955000Y-62224700D01*
X167640000Y-58960000D02*
X167640000Y-61909700D01*
X165100000Y-60485300D02*
X165100000Y-58960000D01*
X165795000Y-61180700D02*
X165100000Y-60485300D01*
X165795000Y-65321000D02*
X165795000Y-61180700D01*
X163812000Y-67304700D02*
X165795000Y-65321000D01*
X162875000Y-67304700D02*
X163812000Y-67304700D01*
X162875000Y-68580000D02*
X162875000Y-67304700D01*
X179070000Y-50260000D02*
X179070000Y-47702400D01*
X179777000Y-46995300D02*
X179070000Y-47702400D01*
X181295000Y-46995300D02*
X179777000Y-46995300D01*
X181295000Y-45720000D02*
X181295000Y-46995300D01*
X174305000Y-46995300D02*
X174305000Y-45720000D01*
X175012000Y-47702400D02*
X174305000Y-46995300D01*
X179070000Y-47702400D02*
X175012000Y-47702400D01*
X179385000Y-60800300D02*
X179385000Y-63500000D01*
X179070000Y-60485300D02*
X179385000Y-60800300D01*
X179070000Y-58960000D02*
X179070000Y-60485300D01*
X176530000Y-60485300D02*
X176530000Y-58960000D01*
X177263000Y-61218600D02*
X176530000Y-60485300D01*
X177263000Y-65285800D02*
X177263000Y-61218600D01*
X175244000Y-67304700D02*
X177263000Y-65285800D01*
X174305000Y-67304700D02*
X175244000Y-67304700D01*
X174305000Y-68580000D02*
X174305000Y-67304700D01*
X188761000Y-46995300D02*
X190500000Y-48734700D01*
X185735000Y-46995300D02*
X188761000Y-46995300D01*
X185735000Y-45720000D02*
X185735000Y-46995300D01*
X190500000Y-50260000D02*
X190500000Y-48734700D01*
X192239000Y-46995300D02*
X190500000Y-48734700D01*
X192725000Y-46995300D02*
X192239000Y-46995300D01*
X192725000Y-45720000D02*
X192725000Y-46995300D01*
X190500000Y-61909700D02*
X190500000Y-58960000D01*
X190815000Y-62224700D02*
X190500000Y-61909700D01*
X190815000Y-63500000D02*
X190815000Y-62224700D01*
X187960000Y-60485300D02*
X187960000Y-58960000D01*
X188693000Y-61218600D02*
X187960000Y-60485300D01*
X188693000Y-65285800D02*
X188693000Y-61218600D01*
X186674000Y-67304700D02*
X188693000Y-65285800D01*
X185735000Y-67304700D02*
X186674000Y-67304700D01*
X185735000Y-68580000D02*
X185735000Y-67304700D01*
X205425000Y-46995300D02*
X205425000Y-45720000D01*
X203686000Y-48734600D02*
X205425000Y-46995300D01*
X203200000Y-48734600D02*
X203686000Y-48734600D01*
X203200000Y-50260000D02*
X203200000Y-48734600D01*
X198435000Y-46995300D02*
X198435000Y-45720000D01*
X200174000Y-48734600D02*
X198435000Y-46995300D01*
X203200000Y-48734600D02*
X200174000Y-48734600D01*
X203515000Y-60800300D02*
X203515000Y-63500000D01*
X203200000Y-60485300D02*
X203515000Y-60800300D01*
X203200000Y-58960000D02*
X203200000Y-60485300D01*
X198435000Y-67304700D02*
X198435000Y-68580000D01*
X198708000Y-67031300D02*
X198435000Y-67304700D01*
X198708000Y-66959900D02*
X198708000Y-67031300D01*
X201024000Y-60485300D02*
X201301000Y-60761600D01*
X200660000Y-60485300D02*
X201024000Y-60485300D01*
X200660000Y-58960000D02*
X200660000Y-60485300D01*
X214630000Y-50260000D02*
X214630000Y-46995300D01*
X216855000Y-46995300D02*
X214630000Y-46995300D01*
X216855000Y-45720000D02*
X216855000Y-46995300D01*
X214195000Y-46995300D02*
X214630000Y-46995300D01*
X213162000Y-45962700D02*
X214195000Y-46995300D01*
X213162000Y-45122800D02*
X213162000Y-45962700D01*
X212484000Y-44444700D02*
X213162000Y-45122800D01*
X209865000Y-44444700D02*
X212484000Y-44444700D01*
X209865000Y-45720000D02*
X209865000Y-44444700D01*
X214630000Y-61909700D02*
X214630000Y-58960000D01*
X214945000Y-62224700D02*
X214630000Y-61909700D01*
X214945000Y-63500000D02*
X214945000Y-62224700D01*
X209865000Y-67304700D02*
X209865000Y-68580000D01*
X210164000Y-67005800D02*
X209865000Y-67304700D01*
X210660000Y-60485300D02*
X210365000Y-60779700D01*
X212090000Y-60485300D02*
X210660000Y-60485300D01*
X212090000Y-58960000D02*
X212090000Y-60485300D01*
X226060000Y-50260000D02*
X226060000Y-47702400D01*
X226767000Y-46995300D02*
X226060000Y-47702400D01*
X228285000Y-46995300D02*
X226767000Y-46995300D01*
X228285000Y-45720000D02*
X228285000Y-46995300D01*
X221295000Y-46995300D02*
X221295000Y-45720000D01*
X222002000Y-47702400D02*
X221295000Y-46995300D01*
X226060000Y-47702400D02*
X222002000Y-47702400D01*
X226060000Y-57434700D02*
X226060000Y-58960000D01*
X229184000Y-57434700D02*
X226060000Y-57434700D01*
X229502000Y-57753300D02*
X229184000Y-57434700D01*
X229502000Y-61160100D02*
X229502000Y-57753300D01*
X228438000Y-62224700D02*
X229502000Y-61160100D01*
X226375000Y-62224700D02*
X228438000Y-62224700D01*
X226375000Y-63500000D02*
X226375000Y-62224700D01*
X223520000Y-57434700D02*
X223520000Y-58960000D01*
X224185000Y-56769800D02*
X223520000Y-57434700D01*
X229441000Y-56769800D02*
X224185000Y-56769800D01*
X230159000Y-57487900D02*
X229441000Y-56769800D01*
X230159000Y-64101200D02*
X230159000Y-57487900D01*
X226956000Y-67304700D02*
X230159000Y-64101200D01*
X221295000Y-67304700D02*
X226956000Y-67304700D01*
X221295000Y-68580000D02*
X221295000Y-67304700D01*
X26799700Y-98425000D02*
X28100000Y-98425000D01*
X26799700Y-96895200D02*
X26799700Y-98425000D01*
X25794800Y-95890300D02*
X26799700Y-96895200D01*
X25794800Y-94615000D02*
X25794800Y-95890300D01*
X43815000Y-98425000D02*
X28100000Y-98425000D01*
X45720000Y-96520000D02*
X43815000Y-98425000D01*
X56047400Y-111927000D02*
X53340000Y-109220000D01*
X101327000Y-111927000D02*
X56047400Y-111927000D01*
X101495000Y-111760000D02*
X101327000Y-111927000D01*
X102870000Y-111760000D02*
X101495000Y-111760000D01*
X108142000Y-102894000D02*
X107942000Y-102695000D01*
X109234000Y-102894000D02*
X108142000Y-102894000D01*
X109915000Y-102213000D02*
X109234000Y-102894000D01*
X109915000Y-95250000D02*
X109915000Y-102213000D01*
X108905000Y-95250000D02*
X109915000Y-95250000D01*
X108905000Y-101914000D02*
X108905000Y-100330000D01*
X57882500Y-111222000D02*
X55880000Y-109220000D01*
X99920200Y-111222000D02*
X57882500Y-111222000D01*
X100758000Y-110385000D02*
X99920200Y-111222000D01*
X104035000Y-110385000D02*
X100758000Y-110385000D01*
X105410000Y-111760000D02*
X104035000Y-110385000D01*
X107950000Y-111760000D02*
X107950000Y-110385000D01*
X108905000Y-109430000D02*
X107950000Y-110385000D01*
X108905000Y-105410000D02*
X108905000Y-109430000D01*
X59772100Y-110572000D02*
X58420000Y-109220000D01*
X99191200Y-110572000D02*
X59772100Y-110572000D01*
X100080000Y-109683000D02*
X99191200Y-110572000D01*
X107248000Y-109683000D02*
X100080000Y-109683000D01*
X107950000Y-110385000D02*
X107248000Y-109683000D01*
X118095000Y-96525300D02*
X117000000Y-97620400D01*
X119065000Y-96525300D02*
X118095000Y-96525300D01*
X119065000Y-95250000D02*
X119065000Y-96525300D01*
X195907000Y-93398600D02*
X195907000Y-87126200D01*
X188976000Y-100330000D02*
X195907000Y-93398600D01*
X194498000Y-92268200D02*
X194498000Y-87126200D01*
X188976000Y-97790000D02*
X194498000Y-92268200D01*
X119055000Y-101605000D02*
X118757000Y-101903000D01*
X119065000Y-101605000D02*
X119055000Y-101605000D01*
X119065000Y-100330000D02*
X119065000Y-101605000D01*
X116980000Y-113170000D02*
X115570000Y-111760000D01*
X121192000Y-113170000D02*
X116980000Y-113170000D01*
X122041000Y-112321000D02*
X121192000Y-113170000D01*
X122041000Y-107375000D02*
X122041000Y-112321000D01*
X120075000Y-105410000D02*
X122041000Y-107375000D01*
X119065000Y-105410000D02*
X120075000Y-105410000D01*
X106995000Y-95250000D02*
X103825000Y-95250000D01*
X103825000Y-100330000D02*
X106995000Y-100330000D01*
X106995000Y-105410000D02*
X103825000Y-105410000D01*
X113985000Y-95250000D02*
X117155000Y-95250000D01*
X117155000Y-100330000D02*
X113985000Y-100330000D01*
X113985000Y-105410000D02*
X117155000Y-105410000D01*
X162340000Y-94242600D02*
X162708000Y-93874600D01*
X162340000Y-98265300D02*
X162340000Y-94242600D01*
X163135000Y-99060000D02*
X162340000Y-98265300D01*
X164145000Y-99060000D02*
X163135000Y-99060000D01*
X162708000Y-93859800D02*
X162519000Y-93671200D01*
X162708000Y-93874600D02*
X162708000Y-93859800D01*
X167850000Y-93874600D02*
X162708000Y-93874600D01*
X169225000Y-95250000D02*
X167850000Y-93874600D01*
X169225000Y-97784700D02*
X169225000Y-99060000D01*
X170795000Y-97784700D02*
X169225000Y-97784700D01*
X172170000Y-96409800D02*
X170795000Y-97784700D01*
X172170000Y-94297100D02*
X172170000Y-96409800D01*
X171848000Y-93974700D02*
X172170000Y-94297100D01*
X169225000Y-93974700D02*
X171848000Y-93974700D01*
X169225000Y-95250000D02*
X169225000Y-93974700D01*
X164145000Y-107950000D02*
X164145000Y-109225000D01*
X123077000Y-103628000D02*
X123077000Y-101257000D01*
X132584000Y-113135000D02*
X123077000Y-103628000D01*
X160235000Y-113135000D02*
X132584000Y-113135000D01*
X164145000Y-109225000D02*
X160235000Y-113135000D01*
X169225000Y-104140000D02*
X169225000Y-107950000D01*
X166939000Y-109225000D02*
X164145000Y-109225000D01*
X168215000Y-107950000D02*
X166939000Y-109225000D01*
X169225000Y-107950000D02*
X168215000Y-107950000D01*
X174565000Y-99489600D02*
X174290000Y-99764700D01*
X174565000Y-99060000D02*
X174565000Y-99489600D01*
X175575000Y-99060000D02*
X174565000Y-99060000D01*
X180655000Y-95250000D02*
X180655000Y-99060000D01*
X174860000Y-100335000D02*
X174290000Y-99764700D01*
X178369000Y-100335000D02*
X174860000Y-100335000D01*
X179645000Y-99060000D02*
X178369000Y-100335000D01*
X180655000Y-99060000D02*
X179645000Y-99060000D01*
X180433000Y-102865000D02*
X180150000Y-102582000D01*
X180655000Y-102865000D02*
X180433000Y-102865000D01*
X180655000Y-104140000D02*
X180655000Y-102865000D01*
X175575000Y-106675000D02*
X175575000Y-107950000D01*
X180655000Y-106675000D02*
X175575000Y-106675000D01*
X180655000Y-107950000D02*
X180655000Y-106675000D01*
X180655000Y-106675000D02*
X180655000Y-104140000D01*
X167775000Y-95919000D02*
X168478000Y-96621800D01*
X167775000Y-95250000D02*
X167775000Y-95919000D01*
X166800000Y-95250000D02*
X167775000Y-95250000D01*
X171135000Y-96525300D02*
X171135000Y-95250000D01*
X171038000Y-96621800D02*
X171135000Y-96525300D01*
X168478000Y-96621800D02*
X171038000Y-96621800D01*
X168478000Y-96621800D02*
X168478000Y-96841400D01*
X167775000Y-104140000D02*
X167582000Y-104140000D01*
X167775000Y-103607000D02*
X167775000Y-104140000D01*
X168517000Y-102865000D02*
X167775000Y-103607000D01*
X169934000Y-102865000D02*
X168517000Y-102865000D01*
X171135000Y-104065000D02*
X169934000Y-102865000D01*
X171135000Y-104140000D02*
X171135000Y-104065000D01*
X167390000Y-104332000D02*
X167582000Y-104140000D01*
X167390000Y-105828000D02*
X167390000Y-104332000D01*
X166800000Y-104140000D02*
X167582000Y-104140000D01*
X178718000Y-95250000D02*
X178230000Y-95250000D01*
X178718000Y-95170200D02*
X178718000Y-95250000D01*
X179913000Y-93974700D02*
X178718000Y-95170200D01*
X182565000Y-93974700D02*
X179913000Y-93974700D01*
X182565000Y-95250000D02*
X182565000Y-93974700D01*
X178230000Y-96625300D02*
X178230000Y-95250000D01*
X178661000Y-97056700D02*
X178230000Y-96625300D01*
X177255000Y-104140000D02*
X177742000Y-104140000D01*
X176938000Y-104457000D02*
X177255000Y-104140000D01*
X176828000Y-104457000D02*
X176938000Y-104457000D01*
X177742000Y-103615000D02*
X177742000Y-104140000D01*
X179730000Y-101627000D02*
X177742000Y-103615000D01*
X181327000Y-101627000D02*
X179730000Y-101627000D01*
X182565000Y-102865000D02*
X181327000Y-101627000D01*
X182565000Y-104140000D02*
X182565000Y-102865000D01*
X178230000Y-104140000D02*
X177742000Y-104140000D01*
X32065000Y-104140000D02*
X32065000Y-109220000D01*
X35413800Y-103712000D02*
X40135700Y-103712000D01*
X34985300Y-104140000D02*
X35413800Y-103712000D01*
X33975000Y-104140000D02*
X34985300Y-104140000D01*
X126765900Y-110384600D02*
X127575200Y-111193900D01*
X124565400Y-110384600D02*
X126765900Y-110384600D01*
X123190000Y-111760000D02*
X124565400Y-110384600D01*
X142236600Y-100584100D02*
X158171300Y-100584100D01*
X141807500Y-101013200D02*
X142236600Y-100584100D01*
X181113300Y-113139600D02*
X181852900Y-112400000D01*
X165304700Y-113139600D02*
X181113300Y-113139600D01*
X164994600Y-112829500D02*
X165304700Y-113139600D01*
X164994600Y-110688000D02*
X164994600Y-112829500D01*
X165807200Y-109875400D02*
X164994600Y-110688000D01*
X169866000Y-109875400D02*
X165807200Y-109875400D01*
X170180000Y-109561400D02*
X169866000Y-109875400D01*
X65124600Y-107595400D02*
X78740000Y-93980000D01*
X38887100Y-107595400D02*
X65124600Y-107595400D01*
X37054100Y-105762400D02*
X38887100Y-107595400D01*
X124040000Y-113450000D02*
X123314200Y-113450000D01*
X125730000Y-111760000D02*
X124040000Y-113450000D01*
X56216900Y-113450000D02*
X54551900Y-111785000D01*
X112989900Y-113450000D02*
X56216900Y-113450000D01*
X34257000Y-107251000D02*
X34257000Y-107299000D01*
X36670900Y-104837100D02*
X34257000Y-107251000D01*
X65342900Y-104837100D02*
X36670900Y-104837100D01*
X76200000Y-93980000D02*
X65342900Y-104837100D01*
M02*
