G04 #@! TF.GenerationSoftware,KiCad,Pcbnew,(5.0.0-rc2-dev-158-g52ab6216c)*
G04 #@! TF.CreationDate,2018-03-09T12:59:15-06:00*
G04 #@! TF.ProjectId,Hybrid_bat_measure_18CH_v0.4_Teensy3.5,4879627269645F6261745F6D65617375,rev?*
G04 #@! TF.SameCoordinates,Original*
G04 #@! TF.FileFunction,Paste,Top*
G04 #@! TF.FilePolarity,Positive*
%FSLAX46Y46*%
G04 Gerber Fmt 4.6, Leading zero omitted, Abs format (unit mm)*
G04 Created by KiCad (PCBNEW (5.0.0-rc2-dev-158-g52ab6216c)) date 03/09/18 12:59:15*
%MOMM*%
%LPD*%
G01*
G04 APERTURE LIST*
%ADD10R,0.970000X1.500000*%
%ADD11R,0.600000X0.450000*%
%ADD12R,1.252000X2.000000*%
%ADD13R,1.784000X2.000000*%
%ADD14R,1.550000X0.600000*%
%ADD15R,2.600000X1.600000*%
%ADD16R,1.500000X0.970000*%
%ADD17R,0.900000X1.700000*%
G04 APERTURE END LIST*
D10*
X140015000Y-87630000D03*
X141925000Y-87630000D03*
X93025000Y-87630000D03*
X94935000Y-87630000D03*
X115885000Y-87630000D03*
X117795000Y-87630000D03*
X211135000Y-87630000D03*
X213045000Y-87630000D03*
X164145000Y-87630000D03*
X166055000Y-87630000D03*
X187005000Y-87630000D03*
X188915000Y-87630000D03*
X68895000Y-87630000D03*
X70805000Y-87630000D03*
X21905000Y-87630000D03*
X23815000Y-87630000D03*
D11*
X105190000Y-34290000D03*
X103090000Y-34290000D03*
X98840000Y-34290000D03*
X96740000Y-34290000D03*
X110270000Y-34290000D03*
X108170000Y-34290000D03*
X116620000Y-34290000D03*
X114520000Y-34290000D03*
X129502000Y-34290000D03*
X127402000Y-34290000D03*
X86360000Y-34290000D03*
X84260000Y-34290000D03*
X74710000Y-34290000D03*
X72610000Y-34290000D03*
X69630000Y-34290000D03*
X67530000Y-34290000D03*
X121700000Y-34290000D03*
X119600000Y-34290000D03*
X39150000Y-34290000D03*
X37050000Y-34290000D03*
X45500000Y-34290000D03*
X43400000Y-34290000D03*
X50580000Y-34290000D03*
X48480000Y-34290000D03*
X58200000Y-34290000D03*
X56100000Y-34290000D03*
X228380000Y-34290000D03*
X226280000Y-34290000D03*
X63280000Y-34290000D03*
X61180000Y-34290000D03*
X81060000Y-34290000D03*
X78960000Y-34290000D03*
X93760000Y-34290000D03*
X91660000Y-34290000D03*
X169960000Y-34290000D03*
X167860000Y-34290000D03*
X211870000Y-34249500D03*
X209770000Y-34249500D03*
X205520000Y-34290000D03*
X203420000Y-34290000D03*
X192820000Y-34290000D03*
X190720000Y-34290000D03*
X187740000Y-34290000D03*
X185640000Y-34290000D03*
X176310000Y-34290000D03*
X174210000Y-34290000D03*
X164880000Y-34290000D03*
X162780000Y-34290000D03*
X157260000Y-34290000D03*
X155160000Y-34290000D03*
X200440000Y-34290000D03*
X198340000Y-34290000D03*
X223300000Y-34290000D03*
X221200000Y-34290000D03*
X34070000Y-34290000D03*
X31970000Y-34290000D03*
X181610000Y-34290000D03*
X179510000Y-34290000D03*
X134400000Y-34290000D03*
X132300000Y-34290000D03*
X140750000Y-34290000D03*
X138650000Y-34290000D03*
X145830000Y-34290000D03*
X143730000Y-34290000D03*
X216950000Y-34290000D03*
X214850000Y-34290000D03*
X152400000Y-34290000D03*
X150300000Y-34290000D03*
D10*
X20635000Y-73660000D03*
X22545000Y-73660000D03*
X32065000Y-73660000D03*
X33975000Y-73660000D03*
X174305000Y-73660000D03*
X176215000Y-73660000D03*
X162875000Y-73660000D03*
X164785000Y-73660000D03*
X150175000Y-73660000D03*
X152085000Y-73660000D03*
X221295000Y-73660000D03*
X223205000Y-73660000D03*
X138745000Y-73660000D03*
X140655000Y-73660000D03*
X209865000Y-73660000D03*
X211775000Y-73660000D03*
X198435000Y-73660000D03*
X200345000Y-73660000D03*
X79055000Y-73660000D03*
X80965000Y-73660000D03*
X67625000Y-73660000D03*
X69535000Y-73660000D03*
X43495000Y-73660000D03*
X45405000Y-73660000D03*
X185735000Y-73660000D03*
X187645000Y-73660000D03*
X56195000Y-73660000D03*
X58105000Y-73660000D03*
X114615000Y-73660000D03*
X116525000Y-73660000D03*
X127315000Y-73660000D03*
X129225000Y-73660000D03*
X91755000Y-73660000D03*
X93665000Y-73660000D03*
X103185000Y-73660000D03*
X105095000Y-73660000D03*
D11*
X22640000Y-34290000D03*
X20540000Y-34290000D03*
X27720000Y-34290000D03*
X25620000Y-34290000D03*
D10*
X226375000Y-73660000D03*
X228285000Y-73660000D03*
X32065000Y-63500000D03*
X33975000Y-63500000D03*
X79055000Y-41910000D03*
X80965000Y-41910000D03*
X138745000Y-63500000D03*
X140655000Y-63500000D03*
X138745000Y-41910000D03*
X140655000Y-41910000D03*
X138745000Y-38100000D03*
X140655000Y-38100000D03*
X127315000Y-63500000D03*
X129225000Y-63500000D03*
X127315000Y-41910000D03*
X129225000Y-41910000D03*
X127315000Y-38100000D03*
X129225000Y-38100000D03*
X114615000Y-63500000D03*
X116525000Y-63500000D03*
X114615000Y-41910000D03*
X116525000Y-41910000D03*
X114615000Y-38100000D03*
X116525000Y-38100000D03*
X103185000Y-41910000D03*
X105095000Y-41910000D03*
X103185000Y-38100000D03*
X105095000Y-38100000D03*
X91755000Y-63500000D03*
X93665000Y-63500000D03*
X198435000Y-41910000D03*
X200345000Y-41910000D03*
X185735000Y-63500000D03*
X187645000Y-63500000D03*
X198435000Y-63500000D03*
X200345000Y-63500000D03*
X209865000Y-38100000D03*
X211775000Y-38100000D03*
X209865000Y-41910000D03*
X211775000Y-41910000D03*
X209865000Y-63500000D03*
X211775000Y-63500000D03*
X221295000Y-38100000D03*
X223205000Y-38100000D03*
X221295000Y-41910000D03*
X223205000Y-41910000D03*
X150175000Y-38100000D03*
X152085000Y-38100000D03*
X79055000Y-38100000D03*
X80965000Y-38100000D03*
X79055000Y-63500000D03*
X80965000Y-63500000D03*
X91755000Y-38100000D03*
X93665000Y-38100000D03*
X91755000Y-41910000D03*
X93665000Y-41910000D03*
X150175000Y-41910000D03*
X152085000Y-41910000D03*
X198435000Y-38100000D03*
X200345000Y-38100000D03*
X185735000Y-41910000D03*
X187645000Y-41910000D03*
X185735000Y-38100000D03*
X187645000Y-38100000D03*
X174305000Y-63500000D03*
X176215000Y-63500000D03*
X174305000Y-41910000D03*
X176215000Y-41910000D03*
X174305000Y-38100000D03*
X176215000Y-38100000D03*
X162875000Y-63500000D03*
X164785000Y-63500000D03*
X162875000Y-41910000D03*
X164785000Y-41910000D03*
X162875000Y-38100000D03*
X164785000Y-38100000D03*
X150175000Y-63500000D03*
X152085000Y-63500000D03*
X221295000Y-63500000D03*
X223205000Y-63500000D03*
X20635000Y-38100000D03*
X22545000Y-38100000D03*
X20635000Y-41910000D03*
X22545000Y-41910000D03*
X20635000Y-63500000D03*
X22545000Y-63500000D03*
X67625000Y-63500000D03*
X69535000Y-63500000D03*
X103185000Y-63500000D03*
X105095000Y-63500000D03*
X67625000Y-41910000D03*
X69535000Y-41910000D03*
X67625000Y-38100000D03*
X69535000Y-38100000D03*
X56195000Y-63500000D03*
X58105000Y-63500000D03*
X56195000Y-41910000D03*
X58105000Y-41910000D03*
X56195000Y-38100000D03*
X58105000Y-38100000D03*
X43495000Y-63500000D03*
X45405000Y-63500000D03*
X43495000Y-41910000D03*
X45405000Y-41910000D03*
X43495000Y-38100000D03*
X45405000Y-38100000D03*
X32065000Y-41910000D03*
X33975000Y-41910000D03*
X32065000Y-38100000D03*
X33975000Y-38100000D03*
D12*
X181344000Y-58960000D03*
D13*
X179070000Y-58960000D03*
X176530000Y-58960000D03*
D12*
X174256000Y-58960000D03*
X174256000Y-50260000D03*
D13*
X176530000Y-50260000D03*
X179070000Y-50260000D03*
D12*
X181344000Y-50260000D03*
X228334000Y-58960000D03*
D13*
X226060000Y-58960000D03*
X223520000Y-58960000D03*
D12*
X221246000Y-58960000D03*
X221246000Y-50260000D03*
D13*
X223520000Y-50260000D03*
X226060000Y-50260000D03*
D12*
X228334000Y-50260000D03*
X216904000Y-58960000D03*
D13*
X214630000Y-58960000D03*
X212090000Y-58960000D03*
D12*
X209816000Y-58960000D03*
X209816000Y-50260000D03*
D13*
X212090000Y-50260000D03*
X214630000Y-50260000D03*
D12*
X216904000Y-50260000D03*
X205474000Y-58960000D03*
D13*
X203200000Y-58960000D03*
X200660000Y-58960000D03*
D12*
X198386000Y-58960000D03*
X198386000Y-50260000D03*
D13*
X200660000Y-50260000D03*
X203200000Y-50260000D03*
D12*
X205474000Y-50260000D03*
X192774000Y-58960000D03*
D13*
X190500000Y-58960000D03*
X187960000Y-58960000D03*
D12*
X185686000Y-58960000D03*
X185686000Y-50260000D03*
D13*
X187960000Y-50260000D03*
X190500000Y-50260000D03*
D12*
X192774000Y-50260000D03*
X63234000Y-58960000D03*
D13*
X60960000Y-58960000D03*
X58420000Y-58960000D03*
D12*
X56146000Y-58960000D03*
X56146000Y-50260000D03*
D13*
X58420000Y-50260000D03*
X60960000Y-50260000D03*
D12*
X63234000Y-50260000D03*
X27674000Y-58960000D03*
D13*
X25400000Y-58960000D03*
X22860000Y-58960000D03*
D12*
X20586000Y-58960000D03*
X20586000Y-50260000D03*
D13*
X22860000Y-50260000D03*
X25400000Y-50260000D03*
D12*
X27674000Y-50260000D03*
X39104000Y-58960000D03*
D13*
X36830000Y-58960000D03*
X34290000Y-58960000D03*
D12*
X32016000Y-58960000D03*
X32016000Y-50260000D03*
D13*
X34290000Y-50260000D03*
X36830000Y-50260000D03*
D12*
X39104000Y-50260000D03*
X50534000Y-58960000D03*
D13*
X48260000Y-58960000D03*
X45720000Y-58960000D03*
D12*
X43446000Y-58960000D03*
X43446000Y-50260000D03*
D13*
X45720000Y-50260000D03*
X48260000Y-50260000D03*
D12*
X50534000Y-50260000D03*
X86094000Y-58960000D03*
D13*
X83820000Y-58960000D03*
X81280000Y-58960000D03*
D12*
X79006000Y-58960000D03*
X79006000Y-50260000D03*
D13*
X81280000Y-50260000D03*
X83820000Y-50260000D03*
D12*
X86094000Y-50260000D03*
X98794000Y-58960000D03*
D13*
X96520000Y-58960000D03*
X93980000Y-58960000D03*
D12*
X91706000Y-58960000D03*
X91706000Y-50260000D03*
D13*
X93980000Y-50260000D03*
X96520000Y-50260000D03*
D12*
X98794000Y-50260000D03*
X110224000Y-58960000D03*
D13*
X107950000Y-58960000D03*
X105410000Y-58960000D03*
D12*
X103136000Y-58960000D03*
X103136000Y-50260000D03*
D13*
X105410000Y-50260000D03*
X107950000Y-50260000D03*
D12*
X110224000Y-50260000D03*
X74664000Y-58960000D03*
D13*
X72390000Y-58960000D03*
X69850000Y-58960000D03*
D12*
X67576000Y-58960000D03*
X67576000Y-50260000D03*
D13*
X69850000Y-50260000D03*
X72390000Y-50260000D03*
D12*
X74664000Y-50260000D03*
X134354000Y-58960000D03*
D13*
X132080000Y-58960000D03*
X129540000Y-58960000D03*
D12*
X127266000Y-58960000D03*
X127266000Y-50260000D03*
D13*
X129540000Y-50260000D03*
X132080000Y-50260000D03*
D12*
X134354000Y-50260000D03*
X145784000Y-58960000D03*
D13*
X143510000Y-58960000D03*
X140970000Y-58960000D03*
D12*
X138696000Y-58960000D03*
X138696000Y-50260000D03*
D13*
X140970000Y-50260000D03*
X143510000Y-50260000D03*
D12*
X145784000Y-50260000D03*
X169914000Y-58960000D03*
D13*
X167640000Y-58960000D03*
X165100000Y-58960000D03*
D12*
X162826000Y-58960000D03*
X162826000Y-50260000D03*
D13*
X165100000Y-50260000D03*
X167640000Y-50260000D03*
D12*
X169914000Y-50260000D03*
X157214000Y-58960000D03*
D13*
X154940000Y-58960000D03*
X152400000Y-58960000D03*
D12*
X150126000Y-58960000D03*
X150126000Y-50260000D03*
D13*
X152400000Y-50260000D03*
X154940000Y-50260000D03*
D12*
X157214000Y-50260000D03*
X121654000Y-58960000D03*
D13*
X119380000Y-58960000D03*
X116840000Y-58960000D03*
D12*
X114566000Y-58960000D03*
X114566000Y-50260000D03*
D13*
X116840000Y-50260000D03*
X119380000Y-50260000D03*
D12*
X121654000Y-50260000D03*
D14*
X25560000Y-80645000D03*
X25560000Y-81915000D03*
X25560000Y-83185000D03*
X25560000Y-84455000D03*
X20160000Y-84455000D03*
X20160000Y-83185000D03*
X20160000Y-81915000D03*
X20160000Y-80645000D03*
X214790000Y-80645000D03*
X214790000Y-81915000D03*
X214790000Y-83185000D03*
X214790000Y-84455000D03*
X209390000Y-84455000D03*
X209390000Y-83185000D03*
X209390000Y-81915000D03*
X209390000Y-80645000D03*
X190660000Y-80645000D03*
X190660000Y-81915000D03*
X190660000Y-83185000D03*
X190660000Y-84455000D03*
X185260000Y-84455000D03*
X185260000Y-83185000D03*
X185260000Y-81915000D03*
X185260000Y-80645000D03*
X167800000Y-80645000D03*
X167800000Y-81915000D03*
X167800000Y-83185000D03*
X167800000Y-84455000D03*
X162400000Y-84455000D03*
X162400000Y-83185000D03*
X162400000Y-81915000D03*
X162400000Y-80645000D03*
X143670000Y-80645000D03*
X143670000Y-81915000D03*
X143670000Y-83185000D03*
X143670000Y-84455000D03*
X138270000Y-84455000D03*
X138270000Y-83185000D03*
X138270000Y-81915000D03*
X138270000Y-80645000D03*
X48420000Y-80645000D03*
X48420000Y-81915000D03*
X48420000Y-83185000D03*
X48420000Y-84455000D03*
X43020000Y-84455000D03*
X43020000Y-83185000D03*
X43020000Y-81915000D03*
X43020000Y-80645000D03*
X72550000Y-80645000D03*
X72550000Y-81915000D03*
X72550000Y-83185000D03*
X72550000Y-84455000D03*
X67150000Y-84455000D03*
X67150000Y-83185000D03*
X67150000Y-81915000D03*
X67150000Y-80645000D03*
X96680000Y-80645000D03*
X96680000Y-81915000D03*
X96680000Y-83185000D03*
X96680000Y-84455000D03*
X91280000Y-84455000D03*
X91280000Y-83185000D03*
X91280000Y-81915000D03*
X91280000Y-80645000D03*
X119540000Y-80645000D03*
X119540000Y-81915000D03*
X119540000Y-83185000D03*
X119540000Y-84455000D03*
X114140000Y-84455000D03*
X114140000Y-83185000D03*
X114140000Y-81915000D03*
X114140000Y-80645000D03*
D10*
X167955000Y-63500000D03*
X169865000Y-63500000D03*
X162875000Y-45720000D03*
X164785000Y-45720000D03*
X190815000Y-45720000D03*
X192725000Y-45720000D03*
X179385000Y-68580000D03*
X181295000Y-68580000D03*
X174305000Y-68580000D03*
X176215000Y-68580000D03*
X179385000Y-63500000D03*
X181295000Y-63500000D03*
X174305000Y-45720000D03*
X176215000Y-45720000D03*
X179385000Y-45720000D03*
X181295000Y-45720000D03*
X167955000Y-73660000D03*
X169865000Y-73660000D03*
X167955000Y-68580000D03*
X169865000Y-68580000D03*
X155255000Y-68580000D03*
X157165000Y-68580000D03*
X155255000Y-73660000D03*
X157165000Y-73660000D03*
X167925000Y-45720000D03*
X169835000Y-45720000D03*
X84135000Y-73660000D03*
X86045000Y-73660000D03*
X150175000Y-68580000D03*
X152085000Y-68580000D03*
X155255000Y-63500000D03*
X157165000Y-63500000D03*
X150175000Y-45720000D03*
X152085000Y-45720000D03*
X20635000Y-45720000D03*
X22545000Y-45720000D03*
X25715000Y-45720000D03*
X27625000Y-45720000D03*
X25715000Y-63500000D03*
X27625000Y-63500000D03*
X179385000Y-73660000D03*
X181295000Y-73660000D03*
X226375000Y-68580000D03*
X228285000Y-68580000D03*
X221295000Y-68580000D03*
X223205000Y-68580000D03*
X226375000Y-63500000D03*
X228285000Y-63500000D03*
X162875000Y-68580000D03*
X164785000Y-68580000D03*
X61275000Y-73660000D03*
X63185000Y-73660000D03*
X190815000Y-68580000D03*
X192725000Y-68580000D03*
X214945000Y-68580000D03*
X216855000Y-68580000D03*
X209865000Y-68580000D03*
X211775000Y-68580000D03*
X214945000Y-63500000D03*
X216855000Y-63500000D03*
X209865000Y-45720000D03*
X211775000Y-45720000D03*
X20635000Y-68580000D03*
X22545000Y-68580000D03*
X203515000Y-73660000D03*
X205425000Y-73660000D03*
X203515000Y-68580000D03*
X205425000Y-68580000D03*
X198435000Y-68580000D03*
X200345000Y-68580000D03*
X203515000Y-63500000D03*
X205425000Y-63500000D03*
X198435000Y-45720000D03*
X200345000Y-45720000D03*
X203515000Y-45720000D03*
X205425000Y-45720000D03*
X221295000Y-45720000D03*
X223205000Y-45720000D03*
X226375000Y-45720000D03*
X228285000Y-45720000D03*
X185735000Y-68580000D03*
X187645000Y-68580000D03*
X190815000Y-63500000D03*
X192725000Y-63500000D03*
X185735000Y-45720000D03*
X187645000Y-45720000D03*
X214945000Y-45720000D03*
X216855000Y-45720000D03*
X91755000Y-45720000D03*
X93665000Y-45720000D03*
X96835000Y-63500000D03*
X98745000Y-63500000D03*
X91755000Y-68580000D03*
X93665000Y-68580000D03*
X96835000Y-68580000D03*
X98745000Y-68580000D03*
X96835000Y-73660000D03*
X98745000Y-73660000D03*
X108265000Y-45720000D03*
X110175000Y-45720000D03*
X103185000Y-45720000D03*
X105095000Y-45720000D03*
X108265000Y-63500000D03*
X110175000Y-63500000D03*
X190815000Y-73660000D03*
X192725000Y-73660000D03*
X37145000Y-63500000D03*
X39055000Y-63500000D03*
X108265000Y-73660000D03*
X110175000Y-73660000D03*
X119695000Y-45720000D03*
X121605000Y-45720000D03*
X114615000Y-45720000D03*
X116525000Y-45720000D03*
X119695000Y-63500000D03*
X121605000Y-63500000D03*
X25715000Y-68580000D03*
X27625000Y-68580000D03*
X119695000Y-68580000D03*
X121605000Y-68580000D03*
X119695000Y-73660000D03*
X121605000Y-73660000D03*
X132395000Y-45720000D03*
X134305000Y-45720000D03*
X127315000Y-45720000D03*
X129225000Y-45720000D03*
X132395000Y-63500000D03*
X134305000Y-63500000D03*
X127315000Y-68580000D03*
X129225000Y-68580000D03*
X214945000Y-73660000D03*
X216855000Y-73660000D03*
X143825000Y-45720000D03*
X145735000Y-45720000D03*
X132395000Y-73660000D03*
X134305000Y-73660000D03*
X32065000Y-68580000D03*
X33975000Y-68580000D03*
X37145000Y-45720000D03*
X39055000Y-45720000D03*
X32065000Y-45720000D03*
X33975000Y-45720000D03*
X25715000Y-73660000D03*
X27625000Y-73660000D03*
X114615000Y-68580000D03*
X116525000Y-68580000D03*
X155255000Y-45720000D03*
X157165000Y-45720000D03*
X143825000Y-73660000D03*
X145735000Y-73660000D03*
X143825000Y-68580000D03*
X145735000Y-68580000D03*
X138745000Y-68580000D03*
X140655000Y-68580000D03*
X143825000Y-63500000D03*
X145735000Y-63500000D03*
X138745000Y-45720000D03*
X140655000Y-45720000D03*
X132395000Y-68580000D03*
X134305000Y-68580000D03*
X37145000Y-68580000D03*
X39055000Y-68580000D03*
X37145000Y-73660000D03*
X39055000Y-73660000D03*
X43495000Y-45720000D03*
X45405000Y-45720000D03*
X48575000Y-45720000D03*
X50485000Y-45720000D03*
X48575000Y-63500000D03*
X50485000Y-63500000D03*
X43495000Y-68580000D03*
X45405000Y-68580000D03*
X48575000Y-68580000D03*
X50485000Y-68580000D03*
X48575000Y-73660000D03*
X50485000Y-73660000D03*
X56195000Y-45720000D03*
X58105000Y-45720000D03*
X61275000Y-45720000D03*
X63185000Y-45720000D03*
X96835000Y-45720000D03*
X98745000Y-45720000D03*
X56195000Y-68580000D03*
X58105000Y-68580000D03*
X103185000Y-68580000D03*
X105095000Y-68580000D03*
X108265000Y-68580000D03*
X110175000Y-68580000D03*
X67625000Y-45720000D03*
X69535000Y-45720000D03*
X72705000Y-45720000D03*
X74615000Y-45720000D03*
X72705000Y-63500000D03*
X74615000Y-63500000D03*
X67625000Y-68580000D03*
X69535000Y-68580000D03*
X72705000Y-68580000D03*
X74615000Y-68580000D03*
X72705000Y-73660000D03*
X74615000Y-73660000D03*
X79055000Y-45720000D03*
X80965000Y-45720000D03*
X84135000Y-45720000D03*
X86045000Y-45720000D03*
X84135000Y-63500000D03*
X86045000Y-63500000D03*
X79055000Y-68580000D03*
X80965000Y-68580000D03*
X84135000Y-68580000D03*
X86045000Y-68580000D03*
X61275000Y-63500000D03*
X63185000Y-63500000D03*
X61275000Y-68580000D03*
X63185000Y-68580000D03*
D15*
X37360000Y-87630000D03*
X33760000Y-87630000D03*
X37360000Y-80010000D03*
X33760000Y-80010000D03*
X61490000Y-87630000D03*
X57890000Y-87630000D03*
X61490000Y-80010000D03*
X57890000Y-80010000D03*
X84350000Y-87630000D03*
X80750000Y-87630000D03*
X84350000Y-80010000D03*
X80750000Y-80010000D03*
X108480000Y-87630000D03*
X104880000Y-87630000D03*
X108480000Y-80010000D03*
X104880000Y-80010000D03*
X132610000Y-87630000D03*
X129010000Y-87630000D03*
X132610000Y-80010000D03*
X129010000Y-80010000D03*
X155470000Y-87630000D03*
X151870000Y-87630000D03*
X155470000Y-80010000D03*
X151870000Y-80010000D03*
X179600000Y-87630000D03*
X176000000Y-87630000D03*
X179600000Y-80010000D03*
X176000000Y-80010000D03*
X203730000Y-87630000D03*
X200130000Y-87630000D03*
X203730000Y-80010000D03*
X200130000Y-80010000D03*
X226590000Y-87630000D03*
X222990000Y-87630000D03*
X226590000Y-80010000D03*
X222990000Y-80010000D03*
D16*
X134620000Y-94295000D03*
X134620000Y-96205000D03*
D15*
X128800000Y-102870000D03*
X125200000Y-102870000D03*
X128800000Y-95250000D03*
X125200000Y-95250000D03*
D16*
X134620000Y-99375000D03*
X134620000Y-101285000D03*
D10*
X44765000Y-87630000D03*
X46675000Y-87630000D03*
D14*
X28100000Y-98425000D03*
X28100000Y-99695000D03*
X28100000Y-100965000D03*
X28100000Y-102235000D03*
X22700000Y-102235000D03*
X22700000Y-100965000D03*
X22700000Y-99695000D03*
X22700000Y-98425000D03*
D10*
X25794800Y-94615000D03*
X23884800Y-94615000D03*
X101915000Y-95250000D03*
X103825000Y-95250000D03*
X103825000Y-100330000D03*
X101915000Y-100330000D03*
X101915000Y-105410000D03*
X103825000Y-105410000D03*
X113985000Y-95250000D03*
X112075000Y-95250000D03*
X112075000Y-100330000D03*
X113985000Y-100330000D03*
X113985000Y-105410000D03*
X112075000Y-105410000D03*
X106995000Y-95250000D03*
X108905000Y-95250000D03*
X108905000Y-100330000D03*
X106995000Y-100330000D03*
X106995000Y-105410000D03*
X108905000Y-105410000D03*
X119065000Y-95250000D03*
X117155000Y-95250000D03*
X117155000Y-100330000D03*
X119065000Y-100330000D03*
X119065000Y-105410000D03*
X117155000Y-105410000D03*
X166055000Y-99060000D03*
X164145000Y-99060000D03*
X164145000Y-107950000D03*
X166055000Y-107950000D03*
X177485000Y-99060000D03*
X175575000Y-99060000D03*
X175575000Y-107950000D03*
X177485000Y-107950000D03*
X169225000Y-95250000D03*
X171135000Y-95250000D03*
X169225000Y-99060000D03*
X171135000Y-99060000D03*
X169225000Y-104140000D03*
X171135000Y-104140000D03*
X171135000Y-107950000D03*
X169225000Y-107950000D03*
X182565000Y-95250000D03*
X180655000Y-95250000D03*
X182565000Y-99060000D03*
X180655000Y-99060000D03*
X182565000Y-104140000D03*
X180655000Y-104140000D03*
X180655000Y-107950000D03*
X182565000Y-107950000D03*
D17*
X163400000Y-95250000D03*
X166800000Y-95250000D03*
X166800000Y-104140000D03*
X163400000Y-104140000D03*
X174830000Y-95250000D03*
X178230000Y-95250000D03*
X178230000Y-104140000D03*
X174830000Y-104140000D03*
D10*
X33975000Y-109220000D03*
X32065000Y-109220000D03*
X32065000Y-104140000D03*
X33975000Y-104140000D03*
M02*
