G04 #@! TF.GenerationSoftware,KiCad,Pcbnew,(5.0.0-rc2-dev-158-g52ab6216c)*
G04 #@! TF.CreationDate,2018-03-09T12:59:15-06:00*
G04 #@! TF.ProjectId,Hybrid_bat_measure_18CH_v0.4_Teensy3.5,4879627269645F6261745F6D65617375,rev?*
G04 #@! TF.SameCoordinates,Original*
G04 #@! TF.FileFunction,Copper,L2,Bot,Signal*
G04 #@! TF.FilePolarity,Positive*
%FSLAX46Y46*%
G04 Gerber Fmt 4.6, Leading zero omitted, Abs format (unit mm)*
G04 Created by KiCad (PCBNEW (5.0.0-rc2-dev-158-g52ab6216c)) date 03/09/18 12:59:15*
%MOMM*%
%LPD*%
G01*
G04 APERTURE LIST*
%ADD10C,1.600000*%
%ADD11R,1.600000X1.600000*%
%ADD12O,1.700000X1.700000*%
%ADD13R,1.700000X1.700000*%
%ADD14R,1.300000X1.300000*%
%ADD15C,1.300000*%
%ADD16C,1.397000*%
%ADD17R,1.800000X1.800000*%
%ADD18O,1.800000X1.800000*%
%ADD19C,0.800000*%
%ADD20C,1.000000*%
%ADD21C,0.250000*%
%ADD22C,0.750000*%
%ADD23C,0.254000*%
G04 APERTURE END LIST*
D10*
X54610000Y-106220000D03*
X52070000Y-106220000D03*
X49530000Y-106220000D03*
X46990000Y-106220000D03*
X44450000Y-106220000D03*
X53340000Y-99060000D03*
X55880000Y-99060000D03*
X58420000Y-99060000D03*
X60960000Y-99060000D03*
X76200000Y-99060000D03*
X78740000Y-99060000D03*
X81280000Y-99060000D03*
X86360000Y-99060000D03*
X88900000Y-99060000D03*
X91440000Y-99060000D03*
X93980000Y-99060000D03*
X96520000Y-99060000D03*
X96520000Y-101600000D03*
X93980000Y-101600000D03*
X91440000Y-101600000D03*
X88900000Y-101600000D03*
X86360000Y-101600000D03*
X81280000Y-101600000D03*
X78740000Y-101600000D03*
X76200000Y-101600000D03*
X60960000Y-101600000D03*
X58420000Y-101600000D03*
X55880000Y-101600000D03*
X53340000Y-101600000D03*
X50800000Y-96520000D03*
X48260000Y-96520000D03*
X45720000Y-96520000D03*
X40640000Y-96520000D03*
X38100000Y-93980000D03*
X40640000Y-93980000D03*
X43180000Y-93980000D03*
X45720000Y-93980000D03*
X48260000Y-93980000D03*
X50800000Y-93980000D03*
X53340000Y-93980000D03*
X55880000Y-93980000D03*
X58420000Y-93980000D03*
X60960000Y-93980000D03*
X63500000Y-93980000D03*
X66040000Y-93980000D03*
X68580000Y-93980000D03*
X71120000Y-93980000D03*
X73660000Y-93980000D03*
X76200000Y-93980000D03*
D11*
X38100000Y-109220000D03*
D10*
X40640000Y-109220000D03*
X43180000Y-109220000D03*
X45720000Y-109220000D03*
X48260000Y-109220000D03*
X50800000Y-109220000D03*
X53340000Y-109220000D03*
X55880000Y-109220000D03*
X58420000Y-109220000D03*
X60960000Y-109220000D03*
X63500000Y-109220000D03*
X66040000Y-109220000D03*
X68580000Y-109220000D03*
X78740000Y-93980000D03*
X81280000Y-93980000D03*
X83820000Y-93980000D03*
X86360000Y-93980000D03*
X88900000Y-93980000D03*
X91440000Y-93980000D03*
X93980000Y-93980000D03*
X96520000Y-93980000D03*
X83820000Y-96520000D03*
X83820000Y-99060000D03*
X83820000Y-101600000D03*
X83820000Y-104140000D03*
X83820000Y-106680000D03*
X96520000Y-109220000D03*
X93980000Y-109220000D03*
X91440000Y-109220000D03*
X88900000Y-109220000D03*
X71120000Y-109220000D03*
X73660000Y-109220000D03*
X76200000Y-109220000D03*
X86360000Y-109220000D03*
X83820000Y-109220000D03*
X81280000Y-109220000D03*
X78740000Y-109220000D03*
D12*
X81280000Y-22860000D03*
X78740000Y-22860000D03*
X76200000Y-22860000D03*
X73660000Y-22860000D03*
X71120000Y-22860000D03*
X68580000Y-22860000D03*
X66040000Y-22860000D03*
X63500000Y-22860000D03*
X60960000Y-22860000D03*
X58420000Y-22860000D03*
X55880000Y-22860000D03*
X53340000Y-22860000D03*
X50800000Y-22860000D03*
X48260000Y-22860000D03*
X45720000Y-22860000D03*
X43180000Y-22860000D03*
X40640000Y-22860000D03*
D13*
X38100000Y-22860000D03*
D12*
X170180000Y-22860000D03*
X167640000Y-22860000D03*
X165100000Y-22860000D03*
X162560000Y-22860000D03*
X160020000Y-22860000D03*
X157480000Y-22860000D03*
X154940000Y-22860000D03*
X152400000Y-22860000D03*
X149860000Y-22860000D03*
X147320000Y-22860000D03*
X144780000Y-22860000D03*
X142240000Y-22860000D03*
X139700000Y-22860000D03*
X137160000Y-22860000D03*
X134620000Y-22860000D03*
X132080000Y-22860000D03*
X129540000Y-22860000D03*
D13*
X127000000Y-22860000D03*
D14*
X226060000Y-40640000D03*
D15*
X228600000Y-40640000D03*
X227330000Y-39370000D03*
D14*
X25400000Y-40640000D03*
D15*
X27940000Y-40640000D03*
X26670000Y-39370000D03*
D14*
X36830000Y-40640000D03*
D15*
X39370000Y-40640000D03*
X38100000Y-39370000D03*
D14*
X48260000Y-40640000D03*
D15*
X50800000Y-40640000D03*
X49530000Y-39370000D03*
D14*
X60960000Y-40640000D03*
D15*
X63500000Y-40640000D03*
X62230000Y-39370000D03*
D14*
X72390000Y-40640000D03*
D15*
X74930000Y-40640000D03*
X73660000Y-39370000D03*
D14*
X83820000Y-40640000D03*
D15*
X86360000Y-40640000D03*
X85090000Y-39370000D03*
D14*
X96520000Y-40640000D03*
D15*
X99060000Y-40640000D03*
X97790000Y-39370000D03*
D14*
X107950000Y-40640000D03*
D15*
X110490000Y-40640000D03*
X109220000Y-39370000D03*
D14*
X119380000Y-40640000D03*
D15*
X121920000Y-40640000D03*
X120650000Y-39370000D03*
D14*
X132080000Y-40640000D03*
D15*
X134620000Y-40640000D03*
X133350000Y-39370000D03*
D14*
X143510000Y-40640000D03*
D15*
X146050000Y-40640000D03*
X144780000Y-39370000D03*
D14*
X154940000Y-40640000D03*
D15*
X157480000Y-40640000D03*
X156210000Y-39370000D03*
D14*
X167640000Y-40640000D03*
D15*
X170180000Y-40640000D03*
X168910000Y-39370000D03*
D14*
X179070000Y-40640000D03*
D15*
X181610000Y-40640000D03*
X180340000Y-39370000D03*
D14*
X190500000Y-40640000D03*
D15*
X193040000Y-40640000D03*
X191770000Y-39370000D03*
D14*
X203200000Y-40640000D03*
D15*
X205740000Y-40640000D03*
X204470000Y-39370000D03*
D14*
X214630000Y-40640000D03*
D15*
X217170000Y-40640000D03*
X215900000Y-39370000D03*
D12*
X151130000Y-111760000D03*
X148590000Y-111760000D03*
X146050000Y-111760000D03*
D13*
X143510000Y-111760000D03*
D16*
X188976000Y-97790000D03*
X188976000Y-100330000D03*
X188976000Y-102870000D03*
X188976000Y-105410000D03*
D17*
X138430000Y-95250000D03*
D18*
X138430000Y-97790000D03*
X138430000Y-100330000D03*
D13*
X166370000Y-111760000D03*
D12*
X168910000Y-111760000D03*
X171450000Y-111760000D03*
X173990000Y-111760000D03*
X176530000Y-111760000D03*
X179070000Y-111760000D03*
D13*
X102870000Y-111760000D03*
D12*
X105410000Y-111760000D03*
X107950000Y-111760000D03*
X110490000Y-111760000D03*
X113030000Y-111760000D03*
X115570000Y-111760000D03*
X118110000Y-111760000D03*
X120650000Y-111760000D03*
X123190000Y-111760000D03*
X125730000Y-111760000D03*
D19*
X206654400Y-84836000D03*
X203835000Y-90982800D03*
X54864000Y-63373000D03*
X48289500Y-85579300D03*
X63185000Y-72087100D03*
X85400900Y-61941000D03*
X87287600Y-72509800D03*
X27154000Y-83702600D03*
X35858300Y-72740900D03*
X38542200Y-61928300D03*
X25387400Y-79438000D03*
X33690900Y-70131400D03*
X27190400Y-72100400D03*
X26885700Y-61922400D03*
X133219000Y-72104500D03*
X135610000Y-63412500D03*
X218165000Y-73660000D03*
X218180000Y-63776000D03*
X121354000Y-72073500D03*
X122647000Y-64859800D03*
X110410000Y-65063400D03*
X108721000Y-75217900D03*
X99484000Y-84455000D03*
X206722000Y-63500000D03*
X204901000Y-72107300D03*
X192967000Y-82877000D03*
X200345000Y-70165100D03*
X217502000Y-80219400D03*
X221893000Y-70146900D03*
X228230000Y-75234600D03*
X227845000Y-65094900D03*
X98270600Y-81351900D03*
X101858000Y-73743700D03*
X27142600Y-81915000D03*
X32144000Y-75241400D03*
D20*
X63500000Y-61512800D03*
X74730800Y-61512800D03*
X152449000Y-78264000D03*
X152748000Y-61824200D03*
X52469600Y-62305400D03*
X36065800Y-77333000D03*
X56781300Y-77486600D03*
X217451000Y-61328800D03*
X205804000Y-60931400D03*
X147893000Y-60735300D03*
X155546000Y-78097900D03*
X181800000Y-60885600D03*
X170227000Y-61328800D03*
X201022000Y-77870400D03*
X193228000Y-60885600D03*
X78424700Y-61845300D03*
X158079000Y-61328800D03*
X78922300Y-76803700D03*
X223670000Y-78271000D03*
X58032200Y-61835500D03*
X181809000Y-80010000D03*
X114575000Y-61328800D03*
X125117000Y-63577300D03*
X96699500Y-71916400D03*
X178541000Y-75345600D03*
X169801000Y-71990400D03*
X88872200Y-72159500D03*
X103352000Y-65263700D03*
X90320700Y-63674000D03*
X118743000Y-71567700D03*
X169476000Y-80645000D03*
X80065400Y-85845600D03*
X74246100Y-80645000D03*
X76459500Y-87047500D03*
X213198000Y-85977600D03*
D19*
X74369500Y-48024600D03*
X98907000Y-48341700D03*
X103910000Y-44142600D03*
X115446000Y-44140200D03*
X134578000Y-48419000D03*
X157238000Y-48457200D03*
X170180000Y-48426400D03*
X175320000Y-44237100D03*
X186720000Y-44254800D03*
X205740000Y-48450800D03*
X211486000Y-47284800D03*
X222250000Y-44294300D03*
X23107300Y-44140100D03*
X32065000Y-44161000D03*
X45100000Y-44140100D03*
X26812200Y-87673000D03*
X22532700Y-75242900D03*
X43548600Y-88905400D03*
X40309000Y-77089600D03*
X49179500Y-89061000D03*
X45405000Y-75233700D03*
X67084700Y-90073000D03*
X39404100Y-99417100D03*
X69189100Y-75353500D03*
X74626900Y-86710100D03*
X90704100Y-87270200D03*
X82265200Y-73660000D03*
X39067400Y-100882000D03*
X103836000Y-85858400D03*
X115952000Y-72088300D03*
X118998000Y-85712800D03*
X125681000Y-75876700D03*
X141295000Y-77342500D03*
X162828000Y-91287000D03*
X150275000Y-76030000D03*
X159189000Y-87532600D03*
X165565000Y-72091600D03*
X172802000Y-88519300D03*
X165202000Y-76187300D03*
X176215000Y-75211700D03*
X182343000Y-87128500D03*
X185964000Y-79475500D03*
X192545000Y-87126200D03*
X200345000Y-75215500D03*
X206273000Y-87486100D03*
X214848000Y-88900000D03*
X212064000Y-75233500D03*
X202947000Y-93110700D03*
X32851700Y-60850300D03*
X32320900Y-67007000D03*
X97594100Y-87139600D03*
X94659500Y-76476500D03*
X130186000Y-60772700D03*
X128051000Y-66995200D03*
X201301000Y-60761600D03*
X198708000Y-66959900D03*
X210365000Y-60779700D03*
X210164000Y-67005800D03*
X107942000Y-102695000D03*
X108905000Y-101914000D03*
X117000000Y-97620400D03*
X195907000Y-87126200D03*
X194498000Y-87126200D03*
X118757000Y-101903000D03*
X162519000Y-93671200D03*
X123077000Y-101257000D03*
X174290000Y-99764700D03*
X180150000Y-102582000D03*
X168478000Y-96841400D03*
X167390000Y-105828000D03*
X178661000Y-97056700D03*
X176828000Y-104457000D03*
X40135700Y-103712000D03*
X127575200Y-111193900D03*
X141807500Y-101013200D03*
X158171300Y-100584100D03*
X170180000Y-109561400D03*
X181852900Y-112400000D03*
X37054100Y-105762400D03*
X123314200Y-113450000D03*
X112989900Y-113450000D03*
X54551900Y-111785000D03*
X34257000Y-107299000D03*
D21*
X50248800Y-85579300D02*
X48289500Y-85579300D01*
X63185000Y-72643100D02*
X50248800Y-85579300D01*
X63185000Y-72087100D02*
X63185000Y-72643100D01*
X85400900Y-70623100D02*
X87287600Y-72509800D01*
X85400900Y-61941000D02*
X85400900Y-70623100D01*
X33069400Y-75529800D02*
X35858300Y-72740900D01*
X33069400Y-77787200D02*
X33069400Y-75529800D01*
X27154000Y-83702600D02*
X33069400Y-77787200D01*
X38542200Y-70057000D02*
X38542200Y-61928300D01*
X35858300Y-72740900D02*
X38542200Y-70057000D01*
X33690900Y-71134500D02*
X33690900Y-70131400D01*
X25387400Y-79438000D02*
X33690900Y-71134500D01*
X26885700Y-71795700D02*
X27190400Y-72100400D01*
X26885700Y-61922400D02*
X26885700Y-71795700D01*
X133219000Y-65803300D02*
X133219000Y-72104500D01*
X135610000Y-63412500D02*
X133219000Y-65803300D01*
X218180000Y-73644900D02*
X218165000Y-73660000D01*
X218180000Y-63776000D02*
X218180000Y-73644900D01*
X122647000Y-70780700D02*
X121354000Y-72073500D01*
X122647000Y-64859800D02*
X122647000Y-70780700D01*
X110410000Y-73528900D02*
X108721000Y-75217900D01*
X110410000Y-65063400D02*
X110410000Y-73528900D01*
X108721000Y-75217900D02*
X99484000Y-84455000D01*
X204901000Y-65321300D02*
X206722000Y-63500000D01*
X204901000Y-72107300D02*
X204901000Y-65321300D01*
X192967000Y-77543400D02*
X200345000Y-70165100D01*
X192967000Y-82877000D02*
X192967000Y-77543400D01*
X221893000Y-75828200D02*
X217502000Y-80219400D01*
X221893000Y-70146900D02*
X221893000Y-75828200D01*
X228230000Y-65480200D02*
X227845000Y-65094900D01*
X228230000Y-75234600D02*
X228230000Y-65480200D01*
X101858000Y-77764400D02*
X101858000Y-73743700D01*
X98270600Y-81351900D02*
X101858000Y-77764400D01*
X27142600Y-80242800D02*
X27142600Y-81915000D01*
X32144000Y-75241400D02*
X27142600Y-80242800D01*
D22*
X52870200Y-73575500D02*
X56781300Y-77486600D01*
X52469600Y-73575500D02*
X52870200Y-73575500D01*
X38100000Y-77618600D02*
X38100000Y-93980000D01*
X42143100Y-73575500D02*
X38100000Y-77618600D01*
X52469600Y-73575500D02*
X42143100Y-73575500D01*
X36351400Y-77618600D02*
X36065800Y-77333000D01*
X38100000Y-77618600D02*
X36351400Y-77618600D01*
X143510000Y-100330000D02*
X138430000Y-95250000D01*
X143510000Y-111760000D02*
X143510000Y-100330000D01*
X152449000Y-79555700D02*
X152449000Y-78264000D01*
X138430000Y-93574700D02*
X152449000Y-79555700D01*
X138430000Y-95250000D02*
X138430000Y-93574700D01*
X155380000Y-78264000D02*
X152449000Y-78264000D01*
X155546000Y-78097900D02*
X155380000Y-78264000D01*
X201530000Y-65205000D02*
X205804000Y-60931400D01*
X201530000Y-68157100D02*
X201530000Y-65205000D01*
X193228000Y-63158000D02*
X193228000Y-60885600D01*
X198227000Y-68157100D02*
X193228000Y-63158000D01*
X201530000Y-68157100D02*
X198227000Y-68157100D01*
X181800000Y-60885600D02*
X193228000Y-60885600D01*
X181357000Y-61328800D02*
X170227000Y-61328800D01*
X181800000Y-60885600D02*
X181357000Y-61328800D01*
X152748000Y-61824200D02*
X152748000Y-61586600D01*
X148744000Y-61586600D02*
X147893000Y-60735300D01*
X152748000Y-61586600D02*
X148744000Y-61586600D01*
X170227000Y-61328800D02*
X158079000Y-61328800D01*
X153006000Y-61328800D02*
X152748000Y-61586600D01*
X158079000Y-61328800D02*
X153006000Y-61328800D01*
X215711000Y-59588500D02*
X217451000Y-61328800D01*
X207146000Y-59588500D02*
X215711000Y-59588500D01*
X205804000Y-60931400D02*
X207146000Y-59588500D01*
X74730800Y-61512800D02*
X63500000Y-61512800D01*
X201530000Y-77361900D02*
X201530000Y-68157100D01*
X201022000Y-77870400D02*
X201530000Y-77361900D01*
X223670000Y-67548300D02*
X223670000Y-78271000D01*
X217451000Y-61328800D02*
X223670000Y-67548300D01*
X52469600Y-73575500D02*
X52469600Y-62305400D01*
X57562300Y-62305400D02*
X58032200Y-61835500D01*
X52469600Y-62305400D02*
X57562300Y-62305400D01*
X63177300Y-61835500D02*
X63500000Y-61512800D01*
X58032200Y-61835500D02*
X63177300Y-61835500D01*
X77042100Y-63227900D02*
X78424700Y-61845300D01*
X75326900Y-61512800D02*
X77042100Y-63227900D01*
X74730800Y-61512800D02*
X75326900Y-61512800D01*
X78922300Y-65108200D02*
X78922300Y-76803700D01*
X77042100Y-63227900D02*
X78922300Y-65108200D01*
X177445000Y-113385000D02*
X179070000Y-111760000D01*
X154381000Y-113385000D02*
X177445000Y-113385000D01*
X152755000Y-111760000D02*
X154381000Y-113385000D01*
X151130000Y-111760000D02*
X152755000Y-111760000D01*
X132354000Y-97790000D02*
X138430000Y-97790000D01*
X130567000Y-99576200D02*
X132354000Y-97790000D01*
X130294000Y-99576200D02*
X130567000Y-99576200D01*
X118110000Y-111760000D02*
X130294000Y-99576200D01*
X181809000Y-78613300D02*
X178541000Y-75345600D01*
X181809000Y-80010000D02*
X181809000Y-78613300D01*
X175186000Y-71990400D02*
X178541000Y-75345600D01*
X169801000Y-71990400D02*
X175186000Y-71990400D01*
X107287000Y-61328800D02*
X103352000Y-65263700D01*
X114575000Y-61328800D02*
X107287000Y-61328800D01*
X103253000Y-65363200D02*
X96699500Y-71916400D01*
X103253000Y-65363100D02*
X103253000Y-65363200D01*
X103352000Y-65263700D02*
X103253000Y-65363100D01*
X90320700Y-71916400D02*
X90320700Y-63674000D01*
X89115300Y-71916400D02*
X90320700Y-71916400D01*
X88872200Y-72159500D02*
X89115300Y-71916400D01*
X90320700Y-71916400D02*
X96699500Y-71916400D01*
X118743000Y-63966400D02*
X118743000Y-71567700D01*
X117213000Y-63966400D02*
X118743000Y-63966400D01*
X114575000Y-61328800D02*
X117213000Y-63966400D01*
X119132000Y-63577300D02*
X125117000Y-63577300D01*
X118743000Y-63966400D02*
X119132000Y-63577300D01*
X73660000Y-103184000D02*
X73660000Y-93980000D01*
X82236300Y-103184000D02*
X73660000Y-103184000D01*
X83820000Y-101600000D02*
X82236300Y-103184000D01*
X40766100Y-104912000D02*
X38907500Y-104912000D01*
X42494000Y-103184000D02*
X40766100Y-104912000D01*
X73660000Y-103184000D02*
X42494000Y-103184000D01*
X38907500Y-106142000D02*
X38907500Y-104912000D01*
X38100000Y-106950000D02*
X38907500Y-106142000D01*
X38100000Y-109220000D02*
X38100000Y-106950000D01*
X42228400Y-95568400D02*
X40640000Y-93980000D01*
X42228400Y-99924500D02*
X42228400Y-95568400D01*
X38907500Y-103245000D02*
X42228400Y-99924500D01*
X38907500Y-104912000D02*
X38907500Y-103245000D01*
X183278000Y-103387000D02*
X183278000Y-102870000D01*
X176530000Y-110135000D02*
X183278000Y-103387000D01*
X176530000Y-111760000D02*
X176530000Y-110135000D01*
X74246100Y-83632200D02*
X76459500Y-85845600D01*
X74246100Y-80645000D02*
X74246100Y-83632200D01*
X76459500Y-85845600D02*
X80065400Y-85845600D01*
X183278000Y-102870000D02*
X188976000Y-102870000D01*
X196306000Y-102870000D02*
X213198000Y-85977600D01*
X188976000Y-102870000D02*
X196306000Y-102870000D01*
X125325000Y-111760000D02*
X120650000Y-111760000D01*
X136755000Y-100330000D02*
X125325000Y-111760000D01*
X138430000Y-100330000D02*
X136755000Y-100330000D01*
X183278000Y-94446200D02*
X169476000Y-80645000D01*
X183278000Y-102870000D02*
X183278000Y-94446200D01*
X76459500Y-85845600D02*
X76459500Y-87047500D01*
D21*
X40640000Y-25400000D02*
X40640000Y-22860000D01*
X26670000Y-39370000D02*
X40640000Y-25400000D01*
X45720000Y-31750000D02*
X45720000Y-22860000D01*
X38100000Y-39370000D02*
X45720000Y-31750000D01*
X50800000Y-38100000D02*
X49530000Y-39370000D01*
X50800000Y-22860000D02*
X50800000Y-38100000D01*
X62569800Y-39030200D02*
X62569800Y-34977600D01*
X62230000Y-39370000D02*
X62569800Y-39030200D01*
X62569800Y-34977600D02*
X62569800Y-30925100D01*
X55880000Y-28287800D02*
X55880000Y-22860000D01*
X62569800Y-34977600D02*
X55880000Y-28287800D01*
X73660000Y-36935300D02*
X73660000Y-39370000D01*
X60960000Y-24235300D02*
X73660000Y-36935300D01*
X60960000Y-22860000D02*
X60960000Y-24235300D01*
X72390000Y-46045100D02*
X74369500Y-48024600D01*
X72390000Y-40640000D02*
X72390000Y-46045100D01*
X82550000Y-39370000D02*
X66040000Y-22860000D01*
X85090000Y-39370000D02*
X82550000Y-39370000D01*
X87630000Y-39370000D02*
X71120000Y-22860000D01*
X97790000Y-39370000D02*
X87630000Y-39370000D01*
X96520000Y-45954700D02*
X98907000Y-48341700D01*
X96520000Y-40640000D02*
X96520000Y-45954700D01*
X107132000Y-39370000D02*
X103910000Y-42591500D01*
X109220000Y-39370000D02*
X107132000Y-39370000D01*
X103910000Y-42591500D02*
X103910000Y-44142600D01*
X88988700Y-27669700D02*
X103910000Y-42591500D01*
X81009700Y-27669700D02*
X88988700Y-27669700D01*
X76200000Y-22860000D02*
X81009700Y-27669700D01*
X95851500Y-22860000D02*
X81280000Y-22860000D01*
X115446000Y-42454200D02*
X95851500Y-22860000D01*
X118530000Y-39370000D02*
X115446000Y-42454200D01*
X120650000Y-39370000D02*
X118530000Y-39370000D01*
X115446000Y-42454200D02*
X115446000Y-44140200D01*
X133350000Y-28045300D02*
X133350000Y-39370000D01*
X129540000Y-24235300D02*
X133350000Y-28045300D01*
X129540000Y-22860000D02*
X129540000Y-24235300D01*
X132080000Y-45920500D02*
X134578000Y-48419000D01*
X132080000Y-40640000D02*
X132080000Y-45920500D01*
X144780000Y-34395300D02*
X144780000Y-39370000D01*
X134620000Y-24235300D02*
X144780000Y-34395300D01*
X134620000Y-22860000D02*
X134620000Y-24235300D01*
X141075000Y-24235300D02*
X156210000Y-39370000D01*
X139700000Y-24235300D02*
X141075000Y-24235300D01*
X139700000Y-22860000D02*
X139700000Y-24235300D01*
X154940000Y-46159400D02*
X157238000Y-48457200D01*
X154940000Y-40640000D02*
X154940000Y-46159400D01*
X161290000Y-39370000D02*
X144780000Y-22860000D01*
X168910000Y-39370000D02*
X161290000Y-39370000D01*
X167640000Y-45886400D02*
X170180000Y-48426400D01*
X167640000Y-40640000D02*
X167640000Y-45886400D01*
X159908000Y-32908100D02*
X149860000Y-22860000D01*
X165958000Y-32908100D02*
X159908000Y-32908100D01*
X175320000Y-42270200D02*
X165958000Y-32908100D01*
X178220000Y-39370000D02*
X175320000Y-42270200D01*
X180340000Y-39370000D02*
X178220000Y-39370000D01*
X175320000Y-42270200D02*
X175320000Y-44237100D01*
X189686000Y-39370000D02*
X186720000Y-42336300D01*
X191770000Y-39370000D02*
X189686000Y-39370000D01*
X186720000Y-42336300D02*
X186720000Y-44254800D01*
X164013000Y-31932700D02*
X154940000Y-22860000D01*
X176316000Y-31932700D02*
X164013000Y-31932700D01*
X186720000Y-42336300D02*
X176316000Y-31932700D01*
X163292000Y-26132500D02*
X160020000Y-22860000D01*
X191232000Y-26132500D02*
X163292000Y-26132500D01*
X204470000Y-39370000D02*
X191232000Y-26132500D01*
X203200000Y-45910800D02*
X205740000Y-48450800D01*
X203200000Y-40640000D02*
X203200000Y-45910800D01*
X215900000Y-41448300D02*
X215900000Y-39370000D01*
X212055000Y-45293000D02*
X215900000Y-41448300D01*
X212055000Y-46715000D02*
X212055000Y-45293000D01*
X211486000Y-47284800D02*
X212055000Y-46715000D01*
X192232000Y-25470000D02*
X212055000Y-45293000D01*
X167710000Y-25470000D02*
X192232000Y-25470000D01*
X165100000Y-22860000D02*
X167710000Y-25470000D01*
X202711000Y-22860000D02*
X170180000Y-22860000D01*
X222250000Y-42398800D02*
X202711000Y-22860000D01*
X225279000Y-39370000D02*
X222250000Y-42398800D01*
X227330000Y-39370000D02*
X225279000Y-39370000D01*
X222250000Y-42398800D02*
X222250000Y-44294300D01*
X23107300Y-39228000D02*
X23107300Y-44140100D01*
X38100000Y-24235300D02*
X23107300Y-39228000D01*
X38100000Y-22860000D02*
X38100000Y-24235300D01*
X32065000Y-38177300D02*
X32065000Y-44161000D01*
X43180000Y-27062300D02*
X32065000Y-38177300D01*
X43180000Y-22860000D02*
X43180000Y-27062300D01*
X47084600Y-42155500D02*
X45100000Y-44140100D01*
X47084600Y-25410700D02*
X47084600Y-42155500D01*
X48260000Y-24235300D02*
X47084600Y-25410700D01*
X48260000Y-22860000D02*
X48260000Y-24235300D01*
X22532700Y-83393500D02*
X22532700Y-75242900D01*
X26812200Y-87673000D02*
X22532700Y-83393500D01*
X43548600Y-80329200D02*
X43548600Y-88905400D01*
X40309000Y-77089600D02*
X43548600Y-80329200D01*
X45405000Y-85286500D02*
X45405000Y-75233700D01*
X49179500Y-89061000D02*
X45405000Y-85286500D01*
X64867000Y-90073000D02*
X67084700Y-90073000D01*
X60960000Y-93980000D02*
X64867000Y-90073000D01*
X71905700Y-78070100D02*
X69189100Y-75353500D01*
X73220000Y-78070100D02*
X71905700Y-78070100D01*
X73220000Y-85303200D02*
X73220000Y-78070100D01*
X74626900Y-86710100D02*
X73220000Y-85303200D01*
X34989000Y-95002000D02*
X39404100Y-99417100D01*
X34989000Y-76931200D02*
X34989000Y-95002000D01*
X51432900Y-60487300D02*
X34989000Y-76931200D01*
X78516800Y-60487300D02*
X51432900Y-60487300D01*
X79954800Y-61925300D02*
X78516800Y-60487300D01*
X79954800Y-77224200D02*
X79954800Y-61925300D01*
X79108900Y-78070100D02*
X79954800Y-77224200D01*
X73220000Y-78070100D02*
X79108900Y-78070100D01*
X82265200Y-78831300D02*
X82265200Y-73660000D01*
X90704100Y-87270200D02*
X82265200Y-78831300D01*
X34330600Y-96145400D02*
X39067400Y-100882000D01*
X34330600Y-76669800D02*
X34330600Y-96145400D01*
X51171200Y-59829200D02*
X34330600Y-76669800D01*
X78778400Y-59829200D02*
X51171200Y-59829200D01*
X82265200Y-63316000D02*
X78778400Y-59829200D01*
X82265200Y-73660000D02*
X82265200Y-63316000D01*
X100198000Y-89496100D02*
X103836000Y-85858400D01*
X73910000Y-89496100D02*
X100198000Y-89496100D01*
X72207300Y-87793400D02*
X73910000Y-89496100D01*
X56986600Y-87793400D02*
X72207300Y-87793400D01*
X50800000Y-93980000D02*
X56986600Y-87793400D01*
X115952000Y-72088300D02*
X115952000Y-84895400D01*
X116769000Y-85712800D02*
X118998000Y-85712800D01*
X115952000Y-84895400D02*
X116769000Y-85712800D01*
X102526000Y-84895400D02*
X115952000Y-84895400D01*
X98576100Y-88845800D02*
X102526000Y-84895400D01*
X74423100Y-88845800D02*
X98576100Y-88845800D01*
X72720400Y-87143100D02*
X74423100Y-88845800D01*
X55096900Y-87143100D02*
X72720400Y-87143100D01*
X48260000Y-93980000D02*
X55096900Y-87143100D01*
X121049000Y-75876700D02*
X125681000Y-75876700D01*
X116264000Y-71092600D02*
X121049000Y-75876700D01*
X114950000Y-71092600D02*
X116264000Y-71092600D01*
X97846800Y-88195500D02*
X114950000Y-71092600D01*
X74803700Y-88195500D02*
X97846800Y-88195500D01*
X73100900Y-86492700D02*
X74803700Y-88195500D01*
X53207300Y-86492700D02*
X73100900Y-86492700D01*
X45720000Y-93980000D02*
X53207300Y-86492700D01*
X162828000Y-80984300D02*
X162828000Y-91287000D01*
X156920000Y-75076500D02*
X162828000Y-80984300D01*
X143561000Y-75076500D02*
X156920000Y-75076500D01*
X141295000Y-77342500D02*
X143561000Y-75076500D01*
X124801000Y-93837100D02*
X141295000Y-77342500D01*
X109882000Y-93837100D02*
X124801000Y-93837100D01*
X94499400Y-109220000D02*
X109882000Y-93837100D01*
X93980000Y-109220000D02*
X94499400Y-109220000D01*
X150576000Y-75729000D02*
X150275000Y-76030000D01*
X156618000Y-75729000D02*
X150576000Y-75729000D01*
X159189000Y-78300000D02*
X156618000Y-75729000D01*
X159189000Y-87532600D02*
X159189000Y-78300000D01*
X131817000Y-94487400D02*
X150275000Y-76030000D01*
X111253000Y-94487400D02*
X131817000Y-94487400D01*
X96520000Y-109220000D02*
X111253000Y-94487400D01*
X165202000Y-80919100D02*
X172802000Y-88519300D01*
X165202000Y-76187300D02*
X165202000Y-80919100D01*
X165220000Y-71747400D02*
X165565000Y-72091600D01*
X139728000Y-71747400D02*
X165220000Y-71747400D01*
X121541000Y-89935200D02*
X139728000Y-71747400D01*
X107346000Y-89935200D02*
X121541000Y-89935200D01*
X103301000Y-93980000D02*
X107346000Y-89935200D01*
X96520000Y-93980000D02*
X103301000Y-93980000D01*
X170224000Y-75211700D02*
X176215000Y-75211700D01*
X166108000Y-71094900D02*
X170224000Y-75211700D01*
X139002000Y-71094900D02*
X166108000Y-71094900D01*
X120974000Y-89122300D02*
X139002000Y-71094900D01*
X106780000Y-89122300D02*
X120974000Y-89122300D01*
X103247000Y-92654600D02*
X106780000Y-89122300D01*
X95305400Y-92654600D02*
X103247000Y-92654600D01*
X93980000Y-93980000D02*
X95305400Y-92654600D01*
X176215000Y-81000600D02*
X176215000Y-75211700D01*
X182343000Y-87128500D02*
X176215000Y-81000600D01*
X93448600Y-91971400D02*
X91440000Y-93980000D01*
X102900000Y-91971400D02*
X93448600Y-91971400D01*
X106562000Y-88309400D02*
X102900000Y-91971400D01*
X120408000Y-88309400D02*
X106562000Y-88309400D01*
X138289000Y-70428100D02*
X120408000Y-88309400D01*
X176917000Y-70428100D02*
X138289000Y-70428100D01*
X185964000Y-79475500D02*
X176917000Y-70428100D01*
X185964000Y-80545900D02*
X192545000Y-87126200D01*
X185964000Y-79475500D02*
X185964000Y-80545900D01*
X206231000Y-87444500D02*
X199996000Y-87444500D01*
X206273000Y-87486100D02*
X206231000Y-87444500D01*
X199996000Y-75564400D02*
X200345000Y-75215500D01*
X199996000Y-87444500D02*
X199996000Y-75564400D01*
X199387000Y-88053800D02*
X199996000Y-87444500D01*
X180218000Y-88053800D02*
X199387000Y-88053800D01*
X164574000Y-72409300D02*
X180218000Y-88053800D01*
X139986000Y-72409300D02*
X164574000Y-72409300D01*
X121810000Y-90585500D02*
X139986000Y-72409300D01*
X108535000Y-90585500D02*
X121810000Y-90585500D01*
X103770000Y-95350200D02*
X108535000Y-90585500D01*
X90270200Y-95350200D02*
X103770000Y-95350200D01*
X88900000Y-93980000D02*
X90270200Y-95350200D01*
X212686000Y-75856000D02*
X212064000Y-75233500D01*
X212686000Y-84825200D02*
X212686000Y-75856000D01*
X214848000Y-86093900D02*
X214848000Y-88900000D01*
X213579000Y-84825200D02*
X214848000Y-86093900D01*
X212686000Y-84825200D02*
X213579000Y-84825200D01*
X208807000Y-88704100D02*
X212686000Y-84825200D01*
X179949000Y-88704100D02*
X208807000Y-88704100D01*
X164364000Y-73118900D02*
X179949000Y-88704100D01*
X140196000Y-73118900D02*
X164364000Y-73118900D01*
X122080000Y-91235800D02*
X140196000Y-73118900D01*
X108804000Y-91235800D02*
X122080000Y-91235800D01*
X104039000Y-96001300D02*
X108804000Y-91235800D01*
X88381300Y-96001300D02*
X104039000Y-96001300D01*
X86360000Y-93980000D02*
X88381300Y-96001300D01*
X183436000Y-93110700D02*
X202947000Y-93110700D01*
X164101000Y-73775800D02*
X183436000Y-93110700D01*
X141405000Y-73775800D02*
X164101000Y-73775800D01*
X123295000Y-91886200D02*
X141405000Y-73775800D01*
X109629000Y-91886200D02*
X123295000Y-91886200D01*
X104837000Y-96678700D02*
X109629000Y-91886200D01*
X86518700Y-96678700D02*
X104837000Y-96678700D01*
X83820000Y-93980000D02*
X86518700Y-96678700D01*
X32320900Y-61381100D02*
X32320900Y-67007000D01*
X32851700Y-60850300D02*
X32320900Y-61381100D01*
X94659500Y-84205000D02*
X94659500Y-76476500D01*
X97594100Y-87139600D02*
X94659500Y-84205000D01*
X128051000Y-62907900D02*
X130186000Y-60772700D01*
X128051000Y-66995200D02*
X128051000Y-62907900D01*
X198708000Y-63353900D02*
X201301000Y-60761600D01*
X198708000Y-66959900D02*
X198708000Y-63353900D01*
X210365000Y-66804500D02*
X210164000Y-67005800D01*
X210365000Y-60779700D02*
X210365000Y-66804500D01*
X107942000Y-105312000D02*
X107942000Y-102695000D01*
X102870000Y-110385000D02*
X107942000Y-105312000D01*
X102870000Y-111760000D02*
X102870000Y-110385000D01*
X108905000Y-106890000D02*
X108905000Y-101914000D01*
X105410000Y-110385000D02*
X108905000Y-106890000D01*
X105410000Y-111760000D02*
X105410000Y-110385000D01*
X117000000Y-103875000D02*
X117000000Y-97620400D01*
X110490000Y-110385000D02*
X117000000Y-103875000D01*
X110490000Y-111760000D02*
X110490000Y-110385000D01*
X109058000Y-113192000D02*
X110490000Y-111760000D01*
X64931900Y-113192000D02*
X109058000Y-113192000D01*
X60960000Y-109220000D02*
X64931900Y-113192000D01*
X177883000Y-69101700D02*
X195907000Y-87126200D01*
X137776000Y-69101700D02*
X177883000Y-69101700D01*
X120194000Y-86683600D02*
X137776000Y-69101700D01*
X105539000Y-86683600D02*
X120194000Y-86683600D01*
X102076000Y-90146400D02*
X105539000Y-86683600D01*
X72272400Y-90146400D02*
X102076000Y-90146400D01*
X70611100Y-88485100D02*
X72272400Y-90146400D01*
X61374900Y-88485100D02*
X70611100Y-88485100D01*
X55880000Y-93980000D02*
X61374900Y-88485100D01*
X194498000Y-86653100D02*
X194498000Y-87126200D01*
X177597000Y-69752000D02*
X194498000Y-86653100D01*
X138045000Y-69752000D02*
X177597000Y-69752000D01*
X120463000Y-87334000D02*
X138045000Y-69752000D01*
X105919000Y-87334000D02*
X120463000Y-87334000D01*
X102457000Y-90796700D02*
X105919000Y-87334000D01*
X69984200Y-90796700D02*
X102457000Y-90796700D01*
X68323000Y-89135500D02*
X69984200Y-90796700D01*
X63264500Y-89135500D02*
X68323000Y-89135500D01*
X58420000Y-93980000D02*
X63264500Y-89135500D01*
X118757000Y-104657000D02*
X118757000Y-101903000D01*
X113030000Y-110385000D02*
X118757000Y-104657000D01*
X113030000Y-111760000D02*
X113030000Y-110385000D01*
X157222000Y-88373900D02*
X162519000Y-93671200D01*
X157222000Y-78237100D02*
X157222000Y-88373900D01*
X156015000Y-77029800D02*
X157222000Y-78237100D01*
X151841000Y-77029800D02*
X156015000Y-77029800D01*
X130194000Y-98675900D02*
X151841000Y-77029800D01*
X129656000Y-98675900D02*
X130194000Y-98675900D01*
X126100000Y-102231000D02*
X129656000Y-98675900D01*
X122676000Y-102231000D02*
X126100000Y-102231000D01*
X118421000Y-97975700D02*
X122676000Y-102231000D01*
X118421000Y-97699600D02*
X118421000Y-97975700D01*
X117390000Y-96669500D02*
X118421000Y-97699600D01*
X112640000Y-96669500D02*
X117390000Y-96669500D01*
X107017000Y-102292000D02*
X112640000Y-96669500D01*
X107017000Y-102517000D02*
X107017000Y-102292000D01*
X97629100Y-111905000D02*
X107017000Y-102517000D01*
X78884600Y-111905000D02*
X97629100Y-111905000D01*
X76200000Y-109220000D02*
X78884600Y-111905000D01*
X117831000Y-96011500D02*
X123077000Y-101257000D01*
X112363000Y-96011500D02*
X117831000Y-96011500D01*
X106367000Y-102007000D02*
X112363000Y-96011500D01*
X106367000Y-102237000D02*
X106367000Y-102007000D01*
X97393200Y-111210000D02*
X106367000Y-102237000D01*
X80730300Y-111210000D02*
X97393200Y-111210000D01*
X78740000Y-109220000D02*
X80730300Y-111210000D01*
X168449000Y-93924000D02*
X174290000Y-99764700D01*
X164154000Y-93924000D02*
X168449000Y-93924000D01*
X157872000Y-87642800D02*
X164154000Y-93924000D01*
X157872000Y-77967700D02*
X157872000Y-87642800D01*
X156284000Y-76379400D02*
X157872000Y-77967700D01*
X151274000Y-76379400D02*
X156284000Y-76379400D01*
X132353000Y-95300100D02*
X151274000Y-76379400D01*
X112122000Y-95300100D02*
X132353000Y-95300100D01*
X105391000Y-102031000D02*
X112122000Y-95300100D01*
X105391000Y-102285000D02*
X105391000Y-102031000D01*
X97131000Y-110545000D02*
X105391000Y-102285000D01*
X82605400Y-110545000D02*
X97131000Y-110545000D01*
X81280000Y-109220000D02*
X82605400Y-110545000D01*
X180150000Y-97180200D02*
X180150000Y-102582000D01*
X157396000Y-74426200D02*
X180150000Y-97180200D01*
X142890000Y-74426200D02*
X157396000Y-74426200D01*
X124129000Y-93186800D02*
X142890000Y-74426200D01*
X109613000Y-93186800D02*
X124129000Y-93186800D01*
X97792600Y-105007000D02*
X109613000Y-93186800D01*
X88032900Y-105007000D02*
X97792600Y-105007000D01*
X83820000Y-109220000D02*
X88032900Y-105007000D01*
X166370000Y-98949500D02*
X168478000Y-96841400D01*
X166370000Y-111760000D02*
X166370000Y-98949500D01*
X168910000Y-107348000D02*
X167390000Y-105828000D01*
X168910000Y-111760000D02*
X168910000Y-107348000D01*
X171450000Y-104268000D02*
X178661000Y-97056700D01*
X171450000Y-111760000D02*
X171450000Y-104268000D01*
X173990000Y-107295000D02*
X176828000Y-104457000D01*
X173990000Y-111760000D02*
X173990000Y-107295000D01*
X43180000Y-100667000D02*
X43180000Y-93980000D01*
X40135700Y-103712000D02*
X43180000Y-100667000D01*
X131626800Y-111193900D02*
X141807500Y-101013200D01*
X127575200Y-111193900D02*
X131626800Y-111193900D01*
X170180000Y-97222800D02*
X170180000Y-109561400D01*
X168836400Y-95879200D02*
X170180000Y-97222800D01*
X162876200Y-95879200D02*
X168836400Y-95879200D01*
X158171300Y-100584100D02*
X162876200Y-95879200D01*
X29101100Y-97809400D02*
X37054100Y-105762400D01*
X29101100Y-88537800D02*
X29101100Y-97809400D01*
X26209300Y-85646000D02*
X29101100Y-88537800D01*
X26209300Y-80090500D02*
X26209300Y-85646000D01*
X28995800Y-77304000D02*
X26209300Y-80090500D01*
X28995800Y-76894100D02*
X28995800Y-77304000D01*
X36346600Y-69543300D02*
X28995800Y-76894100D01*
X36346600Y-62768800D02*
X36346600Y-69543300D01*
X40432000Y-58683400D02*
X36346600Y-62768800D01*
X216263900Y-58683400D02*
X40432000Y-58683400D01*
X224705900Y-67125400D02*
X216263900Y-58683400D01*
X224705900Y-80375500D02*
X224705900Y-67125400D01*
X192681400Y-112400000D02*
X224705900Y-80375500D01*
X181852900Y-112400000D02*
X192681400Y-112400000D01*
X123314200Y-113450000D02*
X112989900Y-113450000D01*
X34257000Y-107757200D02*
X34257000Y-107299000D01*
X38284800Y-111785000D02*
X34257000Y-107757200D01*
X54551900Y-111785000D02*
X38284800Y-111785000D01*
D23*
G36*
X230430001Y-113590000D02*
X124349200Y-113590000D01*
X124349200Y-113244126D01*
X124195850Y-112873906D01*
X124260625Y-112830625D01*
X124301133Y-112770000D01*
X124618867Y-112770000D01*
X124659375Y-112830625D01*
X125150582Y-113158839D01*
X125583744Y-113245000D01*
X125876256Y-113245000D01*
X126309418Y-113158839D01*
X126800625Y-112830625D01*
X127128839Y-112339418D01*
X127167455Y-112145282D01*
X127369326Y-112228900D01*
X127781074Y-112228900D01*
X128161480Y-112071331D01*
X128278911Y-111953900D01*
X131551953Y-111953900D01*
X131626800Y-111968788D01*
X131701647Y-111953900D01*
X131701652Y-111953900D01*
X131923337Y-111909804D01*
X132174729Y-111741829D01*
X132217131Y-111678370D01*
X141847302Y-102048200D01*
X142013374Y-102048200D01*
X142393780Y-101890631D01*
X142500001Y-101784410D01*
X142500000Y-110294386D01*
X142412235Y-110311843D01*
X142202191Y-110452191D01*
X142061843Y-110662235D01*
X142012560Y-110910000D01*
X142012560Y-112610000D01*
X142061843Y-112857765D01*
X142202191Y-113067809D01*
X142412235Y-113208157D01*
X142660000Y-113257440D01*
X144360000Y-113257440D01*
X144607765Y-113208157D01*
X144817809Y-113067809D01*
X144958157Y-112857765D01*
X144967184Y-112812381D01*
X144979375Y-112830625D01*
X145470582Y-113158839D01*
X145903744Y-113245000D01*
X146196256Y-113245000D01*
X146629418Y-113158839D01*
X147120625Y-112830625D01*
X147333843Y-112511522D01*
X147394817Y-112641358D01*
X147823076Y-113031645D01*
X148233110Y-113201476D01*
X148463000Y-113080155D01*
X148463000Y-111887000D01*
X148717000Y-111887000D01*
X148717000Y-113080155D01*
X148946890Y-113201476D01*
X149356924Y-113031645D01*
X149785183Y-112641358D01*
X149860000Y-112482046D01*
X149934817Y-112641358D01*
X150363076Y-113031645D01*
X150773110Y-113201476D01*
X151003000Y-113080155D01*
X151003000Y-111887000D01*
X151257000Y-111887000D01*
X151257000Y-113080155D01*
X151486890Y-113201476D01*
X151896924Y-113031645D01*
X152325183Y-112641358D01*
X152571486Y-112116892D01*
X152450819Y-111887000D01*
X151257000Y-111887000D01*
X151003000Y-111887000D01*
X148717000Y-111887000D01*
X148463000Y-111887000D01*
X148443000Y-111887000D01*
X148443000Y-111633000D01*
X148463000Y-111633000D01*
X148463000Y-110439845D01*
X148717000Y-110439845D01*
X148717000Y-111633000D01*
X151003000Y-111633000D01*
X151003000Y-110439845D01*
X151257000Y-110439845D01*
X151257000Y-111633000D01*
X152450819Y-111633000D01*
X152571486Y-111403108D01*
X152325183Y-110878642D01*
X151896924Y-110488355D01*
X151486890Y-110318524D01*
X151257000Y-110439845D01*
X151003000Y-110439845D01*
X150773110Y-110318524D01*
X150363076Y-110488355D01*
X149934817Y-110878642D01*
X149860000Y-111037954D01*
X149785183Y-110878642D01*
X149356924Y-110488355D01*
X148946890Y-110318524D01*
X148717000Y-110439845D01*
X148463000Y-110439845D01*
X148233110Y-110318524D01*
X147823076Y-110488355D01*
X147394817Y-110878642D01*
X147333843Y-111008478D01*
X147120625Y-110689375D01*
X146629418Y-110361161D01*
X146196256Y-110275000D01*
X145903744Y-110275000D01*
X145470582Y-110361161D01*
X144979375Y-110689375D01*
X144967184Y-110707619D01*
X144958157Y-110662235D01*
X144817809Y-110452191D01*
X144607765Y-110311843D01*
X144520000Y-110294386D01*
X144520000Y-100429471D01*
X144539786Y-100330000D01*
X144520000Y-100230529D01*
X144520000Y-100230524D01*
X144461399Y-99935918D01*
X144324526Y-99731073D01*
X144294518Y-99686162D01*
X144294516Y-99686160D01*
X144238169Y-99601831D01*
X144153840Y-99545484D01*
X142398356Y-97790000D01*
X152658276Y-97790000D01*
X152843380Y-98720580D01*
X153370511Y-99509489D01*
X154159420Y-100036620D01*
X154855103Y-100175000D01*
X155324897Y-100175000D01*
X156020580Y-100036620D01*
X156809489Y-99509489D01*
X157336620Y-98720580D01*
X157521724Y-97790000D01*
X157336620Y-96859420D01*
X156809489Y-96070511D01*
X156020580Y-95543380D01*
X155324897Y-95405000D01*
X154855103Y-95405000D01*
X154159420Y-95543380D01*
X153370511Y-96070511D01*
X152843380Y-96859420D01*
X152658276Y-97790000D01*
X142398356Y-97790000D01*
X139977440Y-95369085D01*
X139977440Y-94350000D01*
X139928157Y-94102235D01*
X139787809Y-93892191D01*
X139639777Y-93793278D01*
X153092841Y-80340215D01*
X153177169Y-80283869D01*
X153233516Y-80199540D01*
X153233518Y-80199538D01*
X153357807Y-80013526D01*
X153400399Y-79949782D01*
X153459000Y-79655176D01*
X153459000Y-79655171D01*
X153478786Y-79555700D01*
X153459000Y-79456229D01*
X153459000Y-79274000D01*
X155280682Y-79274000D01*
X155380310Y-79293786D01*
X155575199Y-79254959D01*
X155686099Y-79232900D01*
X155771766Y-79232900D01*
X156188926Y-79060107D01*
X156462000Y-78787033D01*
X156462001Y-88299038D01*
X156447112Y-88373879D01*
X156462001Y-88448742D01*
X156462001Y-88448752D01*
X156474046Y-88509304D01*
X156506088Y-88670416D01*
X156506095Y-88670426D01*
X156506097Y-88670437D01*
X156578968Y-88779496D01*
X156631657Y-88858356D01*
X156631668Y-88858367D01*
X156674072Y-88921829D01*
X156737516Y-88964221D01*
X161484000Y-93710974D01*
X161484000Y-93877074D01*
X161641569Y-94257480D01*
X161932720Y-94548631D01*
X162313126Y-94706200D01*
X162724874Y-94706200D01*
X163105280Y-94548631D01*
X163396431Y-94257480D01*
X163401181Y-94246012D01*
X163563686Y-94408495D01*
X163606071Y-94471929D01*
X163669545Y-94514341D01*
X163669564Y-94514360D01*
X163733852Y-94557310D01*
X163857463Y-94639904D01*
X163857489Y-94639909D01*
X163857508Y-94639922D01*
X163992882Y-94666841D01*
X164079148Y-94684000D01*
X164079177Y-94684000D01*
X164154049Y-94698888D01*
X164228872Y-94684000D01*
X168134210Y-94684000D01*
X168569432Y-95119200D01*
X162951046Y-95119200D01*
X162876199Y-95104312D01*
X162801352Y-95119200D01*
X162801348Y-95119200D01*
X162579663Y-95163296D01*
X162579661Y-95163297D01*
X162579662Y-95163297D01*
X162391726Y-95288871D01*
X162391724Y-95288873D01*
X162328271Y-95331271D01*
X162285873Y-95394724D01*
X158131499Y-99549100D01*
X157965426Y-99549100D01*
X157585020Y-99706669D01*
X157293869Y-99997820D01*
X157136300Y-100378226D01*
X157136300Y-100789974D01*
X157293869Y-101170380D01*
X157585020Y-101461531D01*
X157965426Y-101619100D01*
X158377174Y-101619100D01*
X158757580Y-101461531D01*
X159048731Y-101170380D01*
X159206300Y-100789974D01*
X159206300Y-100623901D01*
X163191003Y-96639200D01*
X167443000Y-96639200D01*
X167443000Y-96801621D01*
X165885519Y-98359177D01*
X165822072Y-98401571D01*
X165779668Y-98465033D01*
X165779659Y-98465042D01*
X165740515Y-98523629D01*
X165654097Y-98652963D01*
X165654095Y-98652972D01*
X165654090Y-98652980D01*
X165625844Y-98795000D01*
X165610001Y-98874648D01*
X165610001Y-98874657D01*
X165595112Y-98949518D01*
X165610001Y-99024361D01*
X165610000Y-110262560D01*
X165520000Y-110262560D01*
X165272235Y-110311843D01*
X165062191Y-110452191D01*
X164921843Y-110662235D01*
X164872560Y-110910000D01*
X164872560Y-112610000D01*
X164921843Y-112857765D01*
X165062191Y-113067809D01*
X165272235Y-113208157D01*
X165520000Y-113257440D01*
X167220000Y-113257440D01*
X167467765Y-113208157D01*
X167677809Y-113067809D01*
X167818157Y-112857765D01*
X167827184Y-112812381D01*
X167839375Y-112830625D01*
X168330582Y-113158839D01*
X168763744Y-113245000D01*
X169056256Y-113245000D01*
X169489418Y-113158839D01*
X169980625Y-112830625D01*
X170180000Y-112532239D01*
X170379375Y-112830625D01*
X170870582Y-113158839D01*
X171303744Y-113245000D01*
X171596256Y-113245000D01*
X172029418Y-113158839D01*
X172520625Y-112830625D01*
X172720000Y-112532239D01*
X172919375Y-112830625D01*
X173410582Y-113158839D01*
X173843744Y-113245000D01*
X174136256Y-113245000D01*
X174569418Y-113158839D01*
X175060625Y-112830625D01*
X175260000Y-112532239D01*
X175459375Y-112830625D01*
X175950582Y-113158839D01*
X176383744Y-113245000D01*
X176676256Y-113245000D01*
X177109418Y-113158839D01*
X177600625Y-112830625D01*
X177813843Y-112511522D01*
X177874817Y-112641358D01*
X178303076Y-113031645D01*
X178713110Y-113201476D01*
X178943000Y-113080155D01*
X178943000Y-111887000D01*
X179197000Y-111887000D01*
X179197000Y-113080155D01*
X179426890Y-113201476D01*
X179836924Y-113031645D01*
X180265183Y-112641358D01*
X180511486Y-112116892D01*
X180390819Y-111887000D01*
X179197000Y-111887000D01*
X178943000Y-111887000D01*
X178923000Y-111887000D01*
X178923000Y-111633000D01*
X178943000Y-111633000D01*
X178943000Y-110439845D01*
X179197000Y-110439845D01*
X179197000Y-111633000D01*
X180390819Y-111633000D01*
X180511486Y-111403108D01*
X180265183Y-110878642D01*
X179836924Y-110488355D01*
X179426890Y-110318524D01*
X179197000Y-110439845D01*
X178943000Y-110439845D01*
X178713110Y-110318524D01*
X178303076Y-110488355D01*
X177874817Y-110878642D01*
X177813843Y-111008478D01*
X177600625Y-110689375D01*
X177540000Y-110648867D01*
X177540000Y-110553355D01*
X181749167Y-106344188D01*
X188221417Y-106344188D01*
X188283071Y-106579800D01*
X188783480Y-106755927D01*
X189313199Y-106727148D01*
X189668929Y-106579800D01*
X189730583Y-106344188D01*
X188976000Y-105589605D01*
X188221417Y-106344188D01*
X181749167Y-106344188D01*
X182875875Y-105217480D01*
X187630073Y-105217480D01*
X187658852Y-105747199D01*
X187806200Y-106102929D01*
X188041812Y-106164583D01*
X188796395Y-105410000D01*
X189155605Y-105410000D01*
X189910188Y-106164583D01*
X190145800Y-106102929D01*
X190321927Y-105602520D01*
X190293148Y-105072801D01*
X190145800Y-104717071D01*
X189910188Y-104655417D01*
X189155605Y-105410000D01*
X188796395Y-105410000D01*
X188041812Y-104655417D01*
X187806200Y-104717071D01*
X187630073Y-105217480D01*
X182875875Y-105217480D01*
X183921838Y-104171517D01*
X184006169Y-104115169D01*
X184163304Y-103880000D01*
X188100146Y-103880000D01*
X188220633Y-104000487D01*
X188541211Y-104133275D01*
X188283071Y-104240200D01*
X188221417Y-104475812D01*
X188976000Y-105230395D01*
X189730583Y-104475812D01*
X189668929Y-104240200D01*
X189389816Y-104141962D01*
X189731367Y-104000487D01*
X189851854Y-103880000D01*
X196206535Y-103880000D01*
X196306012Y-103899786D01*
X196430927Y-103874938D01*
X196700082Y-103821399D01*
X196700088Y-103821395D01*
X196700093Y-103821394D01*
X196851730Y-103720071D01*
X197034169Y-103598169D01*
X197090522Y-103513830D01*
X213539164Y-87064801D01*
X213840926Y-86939807D01*
X214088000Y-86692733D01*
X214088001Y-88196288D01*
X213970569Y-88313720D01*
X213813000Y-88694126D01*
X213813000Y-89105874D01*
X213970569Y-89486280D01*
X214245444Y-89761155D01*
X192366599Y-111640000D01*
X182556611Y-111640000D01*
X182439180Y-111522569D01*
X182058774Y-111365000D01*
X181647026Y-111365000D01*
X181266620Y-111522569D01*
X180975469Y-111813720D01*
X180817900Y-112194126D01*
X180817900Y-112605874D01*
X180975469Y-112986280D01*
X181266620Y-113277431D01*
X181647026Y-113435000D01*
X182058774Y-113435000D01*
X182439180Y-113277431D01*
X182556611Y-113160000D01*
X192606553Y-113160000D01*
X192681400Y-113174888D01*
X192756247Y-113160000D01*
X192756252Y-113160000D01*
X192977937Y-113115904D01*
X193229329Y-112947929D01*
X193271731Y-112884470D01*
X197460335Y-108695866D01*
X223425000Y-108695866D01*
X223425000Y-109744134D01*
X223826155Y-110712608D01*
X224567392Y-111453845D01*
X225535866Y-111855000D01*
X226584134Y-111855000D01*
X227552608Y-111453845D01*
X228293845Y-110712608D01*
X228695000Y-109744134D01*
X228695000Y-108695866D01*
X228293845Y-107727392D01*
X227552608Y-106986155D01*
X226584134Y-106585000D01*
X225535866Y-106585000D01*
X224567392Y-106986155D01*
X223826155Y-107727392D01*
X223425000Y-108695866D01*
X197460335Y-108695866D01*
X225190373Y-80965829D01*
X225253829Y-80923429D01*
X225421804Y-80672037D01*
X225465900Y-80450352D01*
X225465900Y-80450348D01*
X225480788Y-80375501D01*
X225465900Y-80300654D01*
X225465900Y-67200247D01*
X225480788Y-67125400D01*
X225465900Y-67050553D01*
X225465900Y-67050548D01*
X225421804Y-66828863D01*
X225253829Y-66577471D01*
X225190373Y-66535071D01*
X223544328Y-64889026D01*
X226810000Y-64889026D01*
X226810000Y-65300774D01*
X226967569Y-65681180D01*
X227258720Y-65972331D01*
X227470001Y-66059846D01*
X227470000Y-74530889D01*
X227352569Y-74648320D01*
X227195000Y-75028726D01*
X227195000Y-75440474D01*
X227352569Y-75820880D01*
X227643720Y-76112031D01*
X228024126Y-76269600D01*
X228435874Y-76269600D01*
X228816280Y-76112031D01*
X229107431Y-75820880D01*
X229265000Y-75440474D01*
X229265000Y-75028726D01*
X229107431Y-74648320D01*
X228990000Y-74530889D01*
X228990000Y-65555196D01*
X229004888Y-65480501D01*
X228990000Y-65405501D01*
X228990000Y-65405348D01*
X228975161Y-65330749D01*
X228946019Y-65183941D01*
X228945934Y-65183814D01*
X228945904Y-65183663D01*
X228880000Y-65085031D01*
X228880000Y-64889026D01*
X228722431Y-64508620D01*
X228431280Y-64217469D01*
X228050874Y-64059900D01*
X227639126Y-64059900D01*
X227258720Y-64217469D01*
X226967569Y-64508620D01*
X226810000Y-64889026D01*
X223544328Y-64889026D01*
X216854231Y-58198930D01*
X216811829Y-58135471D01*
X216560437Y-57967496D01*
X216338752Y-57923400D01*
X216338747Y-57923400D01*
X216263900Y-57908512D01*
X216189053Y-57923400D01*
X40506846Y-57923400D01*
X40431999Y-57908512D01*
X40357152Y-57923400D01*
X40357148Y-57923400D01*
X40135463Y-57967496D01*
X39884071Y-58135471D01*
X39841671Y-58198927D01*
X35862130Y-62178469D01*
X35798671Y-62220871D01*
X35630696Y-62472264D01*
X35586600Y-62693949D01*
X35586600Y-62693953D01*
X35571712Y-62768800D01*
X35586600Y-62843647D01*
X35586601Y-69228497D01*
X34725900Y-70089198D01*
X34725900Y-69925526D01*
X34568331Y-69545120D01*
X34277180Y-69253969D01*
X33896774Y-69096400D01*
X33485026Y-69096400D01*
X33104620Y-69253969D01*
X32813469Y-69545120D01*
X32655900Y-69925526D01*
X32655900Y-70337274D01*
X32813469Y-70717680D01*
X32923193Y-70827404D01*
X25347599Y-78403000D01*
X25181526Y-78403000D01*
X24801120Y-78560569D01*
X24509969Y-78851720D01*
X24352400Y-79232126D01*
X24352400Y-79643874D01*
X24509969Y-80024280D01*
X24801120Y-80315431D01*
X25181526Y-80473000D01*
X25449300Y-80473000D01*
X25449301Y-85235299D01*
X23292700Y-83078699D01*
X23292700Y-75946611D01*
X23410131Y-75829180D01*
X23567700Y-75448774D01*
X23567700Y-75037026D01*
X23410131Y-74656620D01*
X23118980Y-74365469D01*
X22738574Y-74207900D01*
X22326826Y-74207900D01*
X21946420Y-74365469D01*
X21655269Y-74656620D01*
X21497700Y-75037026D01*
X21497700Y-75448774D01*
X21655269Y-75829180D01*
X21772701Y-75946612D01*
X21772700Y-83318653D01*
X21757812Y-83393500D01*
X21772700Y-83468347D01*
X21772700Y-83468351D01*
X21816796Y-83690036D01*
X21984771Y-83941429D01*
X22048230Y-83983831D01*
X25777200Y-87712802D01*
X25777200Y-87878874D01*
X25934769Y-88259280D01*
X26225920Y-88550431D01*
X26606326Y-88708000D01*
X27018074Y-88708000D01*
X27398480Y-88550431D01*
X27689631Y-88259280D01*
X27706662Y-88218164D01*
X28341100Y-88852602D01*
X28341101Y-97734548D01*
X28326212Y-97809400D01*
X28385197Y-98105937D01*
X28496299Y-98272212D01*
X28553172Y-98357329D01*
X28616628Y-98399729D01*
X36019100Y-105802203D01*
X36019100Y-105968274D01*
X36176669Y-106348680D01*
X36467820Y-106639831D01*
X36848226Y-106797400D01*
X37259974Y-106797400D01*
X37640380Y-106639831D01*
X37931531Y-106348680D01*
X38089100Y-105968274D01*
X38089100Y-105934561D01*
X43015000Y-105934561D01*
X43015000Y-106505439D01*
X43233466Y-107032862D01*
X43637138Y-107436534D01*
X44164561Y-107655000D01*
X44735439Y-107655000D01*
X45262862Y-107436534D01*
X45666534Y-107032862D01*
X45720000Y-106903784D01*
X45773466Y-107032862D01*
X46177138Y-107436534D01*
X46704561Y-107655000D01*
X47275439Y-107655000D01*
X47802862Y-107436534D01*
X48206534Y-107032862D01*
X48260000Y-106903784D01*
X48313466Y-107032862D01*
X48717138Y-107436534D01*
X49244561Y-107655000D01*
X49815439Y-107655000D01*
X50342862Y-107436534D01*
X50746534Y-107032862D01*
X50800000Y-106903784D01*
X50853466Y-107032862D01*
X51257138Y-107436534D01*
X51784561Y-107655000D01*
X52355439Y-107655000D01*
X52882862Y-107436534D01*
X53286534Y-107032862D01*
X53340000Y-106903784D01*
X53393466Y-107032862D01*
X53797138Y-107436534D01*
X54324561Y-107655000D01*
X54895439Y-107655000D01*
X55422862Y-107436534D01*
X55826534Y-107032862D01*
X56045000Y-106505439D01*
X56045000Y-105934561D01*
X55826534Y-105407138D01*
X55422862Y-105003466D01*
X54895439Y-104785000D01*
X54324561Y-104785000D01*
X53797138Y-105003466D01*
X53393466Y-105407138D01*
X53340000Y-105536216D01*
X53286534Y-105407138D01*
X52882862Y-105003466D01*
X52355439Y-104785000D01*
X51784561Y-104785000D01*
X51257138Y-105003466D01*
X50853466Y-105407138D01*
X50800000Y-105536216D01*
X50746534Y-105407138D01*
X50342862Y-105003466D01*
X49815439Y-104785000D01*
X49244561Y-104785000D01*
X48717138Y-105003466D01*
X48313466Y-105407138D01*
X48260000Y-105536216D01*
X48206534Y-105407138D01*
X47802862Y-105003466D01*
X47275439Y-104785000D01*
X46704561Y-104785000D01*
X46177138Y-105003466D01*
X45773466Y-105407138D01*
X45720000Y-105536216D01*
X45666534Y-105407138D01*
X45262862Y-105003466D01*
X44735439Y-104785000D01*
X44164561Y-104785000D01*
X43637138Y-105003466D01*
X43233466Y-105407138D01*
X43015000Y-105934561D01*
X38089100Y-105934561D01*
X38089100Y-105556526D01*
X37931531Y-105176120D01*
X37640380Y-104884969D01*
X37259974Y-104727400D01*
X37093903Y-104727400D01*
X29861100Y-97494599D01*
X29861100Y-88612648D01*
X29875988Y-88537800D01*
X29861100Y-88462952D01*
X29861100Y-88462948D01*
X29817004Y-88241263D01*
X29817004Y-88241262D01*
X29691429Y-88053327D01*
X29649029Y-87989871D01*
X29585573Y-87947471D01*
X26969300Y-85331199D01*
X26969300Y-84737600D01*
X27359874Y-84737600D01*
X27740280Y-84580031D01*
X28031431Y-84288880D01*
X28189000Y-83908474D01*
X28189000Y-83742401D01*
X33553873Y-78377529D01*
X33570600Y-78366352D01*
X33570601Y-96070555D01*
X33555712Y-96145416D01*
X33582443Y-96279787D01*
X33614697Y-96441937D01*
X33614701Y-96441943D01*
X33614703Y-96441952D01*
X33710556Y-96585400D01*
X33782672Y-96693329D01*
X33846132Y-96735732D01*
X38032400Y-100921823D01*
X38032400Y-101087874D01*
X38189969Y-101468280D01*
X38481120Y-101759431D01*
X38861526Y-101917000D01*
X39273274Y-101917000D01*
X39653680Y-101759431D01*
X39944831Y-101468280D01*
X40102400Y-101087874D01*
X40102400Y-100676126D01*
X39951081Y-100310809D01*
X39990380Y-100294531D01*
X40281531Y-100003380D01*
X40439100Y-99622974D01*
X40439100Y-99211226D01*
X40281531Y-98830820D01*
X39990380Y-98539669D01*
X39609974Y-98382100D01*
X39443903Y-98382100D01*
X37296363Y-96234561D01*
X39205000Y-96234561D01*
X39205000Y-96805439D01*
X39423466Y-97332862D01*
X39827138Y-97736534D01*
X40354561Y-97955000D01*
X40925439Y-97955000D01*
X41452862Y-97736534D01*
X41856534Y-97332862D01*
X42075000Y-96805439D01*
X42075000Y-96234561D01*
X41856534Y-95707138D01*
X41452862Y-95303466D01*
X41339417Y-95256475D01*
X41394005Y-95233864D01*
X41468139Y-94987745D01*
X40640000Y-94159605D01*
X39811861Y-94987745D01*
X39885995Y-95233864D01*
X39944448Y-95254874D01*
X39827138Y-95303466D01*
X39423466Y-95707138D01*
X39205000Y-96234561D01*
X37296363Y-96234561D01*
X35749000Y-94687199D01*
X35749000Y-78430805D01*
X35957318Y-78569999D01*
X36251924Y-78628600D01*
X36251929Y-78628600D01*
X36351399Y-78648386D01*
X36450870Y-78628600D01*
X37090000Y-78628600D01*
X37090001Y-92960603D01*
X36883466Y-93167138D01*
X36665000Y-93694561D01*
X36665000Y-94265439D01*
X36883466Y-94792862D01*
X37287138Y-95196534D01*
X37814561Y-95415000D01*
X38385439Y-95415000D01*
X38912862Y-95196534D01*
X39316534Y-94792862D01*
X39363525Y-94679417D01*
X39386136Y-94734005D01*
X39632255Y-94808139D01*
X40460395Y-93980000D01*
X39632255Y-93151861D01*
X39386136Y-93225995D01*
X39365126Y-93284448D01*
X39316534Y-93167138D01*
X39121651Y-92972255D01*
X39811861Y-92972255D01*
X40640000Y-93800395D01*
X41468139Y-92972255D01*
X41394005Y-92726136D01*
X40856777Y-92533035D01*
X40286546Y-92560222D01*
X39885995Y-92726136D01*
X39811861Y-92972255D01*
X39121651Y-92972255D01*
X39110000Y-92960604D01*
X39110000Y-78036955D01*
X39451322Y-77695633D01*
X39722720Y-77967031D01*
X40103126Y-78124600D01*
X40269199Y-78124600D01*
X42788600Y-80644002D01*
X42788601Y-88201688D01*
X42671169Y-88319120D01*
X42513600Y-88699526D01*
X42513600Y-89111274D01*
X42671169Y-89491680D01*
X42962320Y-89782831D01*
X43342726Y-89940400D01*
X43754474Y-89940400D01*
X44134880Y-89782831D01*
X44426031Y-89491680D01*
X44583600Y-89111274D01*
X44583600Y-88699526D01*
X44426031Y-88319120D01*
X44308600Y-88201689D01*
X44308600Y-80404046D01*
X44323488Y-80329199D01*
X44308600Y-80254352D01*
X44308600Y-80254348D01*
X44264504Y-80032663D01*
X44096529Y-79781271D01*
X44033073Y-79738871D01*
X41344000Y-77049799D01*
X41344000Y-76883726D01*
X41186431Y-76503320D01*
X40915033Y-76231922D01*
X42561456Y-74585500D01*
X44589489Y-74585500D01*
X44527569Y-74647420D01*
X44370000Y-75027826D01*
X44370000Y-75439574D01*
X44527569Y-75819980D01*
X44645001Y-75937412D01*
X44645000Y-85211653D01*
X44630112Y-85286500D01*
X44645000Y-85361347D01*
X44645000Y-85361351D01*
X44689096Y-85583036D01*
X44857071Y-85834429D01*
X44920530Y-85876831D01*
X48144500Y-89100802D01*
X48144500Y-89266874D01*
X48302069Y-89647280D01*
X48593220Y-89938431D01*
X48659368Y-89965830D01*
X46058302Y-92566897D01*
X46005439Y-92545000D01*
X45434561Y-92545000D01*
X44907138Y-92763466D01*
X44503466Y-93167138D01*
X44450000Y-93296216D01*
X44396534Y-93167138D01*
X43992862Y-92763466D01*
X43465439Y-92545000D01*
X42894561Y-92545000D01*
X42367138Y-92763466D01*
X41963466Y-93167138D01*
X41916475Y-93280583D01*
X41893864Y-93225995D01*
X41647745Y-93151861D01*
X40819605Y-93980000D01*
X41647745Y-94808139D01*
X41893864Y-94734005D01*
X41914874Y-94675552D01*
X41963466Y-94792862D01*
X42367138Y-95196534D01*
X42420001Y-95218431D01*
X42420000Y-100352249D01*
X40095784Y-102677000D01*
X39929826Y-102677000D01*
X39549420Y-102834569D01*
X39258269Y-103125720D01*
X39100700Y-103506126D01*
X39100700Y-103917874D01*
X39258269Y-104298280D01*
X39549420Y-104589431D01*
X39929826Y-104747000D01*
X40341574Y-104747000D01*
X40721980Y-104589431D01*
X41013131Y-104298280D01*
X41170700Y-103917874D01*
X41170700Y-103751687D01*
X43664511Y-101257304D01*
X43727929Y-101214929D01*
X43770353Y-101151437D01*
X43770384Y-101151406D01*
X43811347Y-101090085D01*
X43895904Y-100963537D01*
X43895913Y-100963492D01*
X43895937Y-100963456D01*
X43924046Y-100822060D01*
X43940000Y-100741852D01*
X43940000Y-100741804D01*
X43954888Y-100666912D01*
X43940000Y-100592110D01*
X43940000Y-98774561D01*
X51905000Y-98774561D01*
X51905000Y-99345439D01*
X52123466Y-99872862D01*
X52527138Y-100276534D01*
X52656216Y-100330000D01*
X52527138Y-100383466D01*
X52123466Y-100787138D01*
X51905000Y-101314561D01*
X51905000Y-101885439D01*
X52123466Y-102412862D01*
X52527138Y-102816534D01*
X53054561Y-103035000D01*
X53625439Y-103035000D01*
X54152862Y-102816534D01*
X54556534Y-102412862D01*
X54610000Y-102283784D01*
X54663466Y-102412862D01*
X55067138Y-102816534D01*
X55594561Y-103035000D01*
X56165439Y-103035000D01*
X56692862Y-102816534D01*
X57096534Y-102412862D01*
X57150000Y-102283784D01*
X57203466Y-102412862D01*
X57607138Y-102816534D01*
X58134561Y-103035000D01*
X58705439Y-103035000D01*
X59232862Y-102816534D01*
X59636534Y-102412862D01*
X59690000Y-102283784D01*
X59743466Y-102412862D01*
X60147138Y-102816534D01*
X60674561Y-103035000D01*
X61245439Y-103035000D01*
X61772862Y-102816534D01*
X62176534Y-102412862D01*
X62395000Y-101885439D01*
X62395000Y-101314561D01*
X62176534Y-100787138D01*
X61772862Y-100383466D01*
X61643784Y-100330000D01*
X61772862Y-100276534D01*
X62176534Y-99872862D01*
X62395000Y-99345439D01*
X62395000Y-98774561D01*
X62176534Y-98247138D01*
X61772862Y-97843466D01*
X61245439Y-97625000D01*
X60674561Y-97625000D01*
X60147138Y-97843466D01*
X59743466Y-98247138D01*
X59690000Y-98376216D01*
X59636534Y-98247138D01*
X59232862Y-97843466D01*
X58705439Y-97625000D01*
X58134561Y-97625000D01*
X57607138Y-97843466D01*
X57203466Y-98247138D01*
X57150000Y-98376216D01*
X57096534Y-98247138D01*
X56692862Y-97843466D01*
X56165439Y-97625000D01*
X55594561Y-97625000D01*
X55067138Y-97843466D01*
X54663466Y-98247138D01*
X54610000Y-98376216D01*
X54556534Y-98247138D01*
X54152862Y-97843466D01*
X53625439Y-97625000D01*
X53054561Y-97625000D01*
X52527138Y-97843466D01*
X52123466Y-98247138D01*
X51905000Y-98774561D01*
X43940000Y-98774561D01*
X43940000Y-95218430D01*
X43992862Y-95196534D01*
X44396534Y-94792862D01*
X44450000Y-94663784D01*
X44503466Y-94792862D01*
X44907138Y-95196534D01*
X45036216Y-95250000D01*
X44907138Y-95303466D01*
X44503466Y-95707138D01*
X44285000Y-96234561D01*
X44285000Y-96805439D01*
X44503466Y-97332862D01*
X44907138Y-97736534D01*
X45434561Y-97955000D01*
X46005439Y-97955000D01*
X46532862Y-97736534D01*
X46936534Y-97332862D01*
X46990000Y-97203784D01*
X47043466Y-97332862D01*
X47447138Y-97736534D01*
X47974561Y-97955000D01*
X48545439Y-97955000D01*
X49072862Y-97736534D01*
X49476534Y-97332862D01*
X49530000Y-97203784D01*
X49583466Y-97332862D01*
X49987138Y-97736534D01*
X50514561Y-97955000D01*
X51085439Y-97955000D01*
X51612862Y-97736534D01*
X52016534Y-97332862D01*
X52235000Y-96805439D01*
X52235000Y-96234561D01*
X52016534Y-95707138D01*
X51612862Y-95303466D01*
X51483784Y-95250000D01*
X51612862Y-95196534D01*
X52016534Y-94792862D01*
X52070000Y-94663784D01*
X52123466Y-94792862D01*
X52527138Y-95196534D01*
X53054561Y-95415000D01*
X53625439Y-95415000D01*
X54152862Y-95196534D01*
X54556534Y-94792862D01*
X54610000Y-94663784D01*
X54663466Y-94792862D01*
X55067138Y-95196534D01*
X55594561Y-95415000D01*
X56165439Y-95415000D01*
X56692862Y-95196534D01*
X57096534Y-94792862D01*
X57150000Y-94663784D01*
X57203466Y-94792862D01*
X57607138Y-95196534D01*
X58134561Y-95415000D01*
X58705439Y-95415000D01*
X59232862Y-95196534D01*
X59636534Y-94792862D01*
X59690000Y-94663784D01*
X59743466Y-94792862D01*
X60147138Y-95196534D01*
X60674561Y-95415000D01*
X61245439Y-95415000D01*
X61772862Y-95196534D01*
X62176534Y-94792862D01*
X62230000Y-94663784D01*
X62283466Y-94792862D01*
X62687138Y-95196534D01*
X63214561Y-95415000D01*
X63785439Y-95415000D01*
X64312862Y-95196534D01*
X64716534Y-94792862D01*
X64770000Y-94663784D01*
X64823466Y-94792862D01*
X65227138Y-95196534D01*
X65754561Y-95415000D01*
X66325439Y-95415000D01*
X66852862Y-95196534D01*
X67256534Y-94792862D01*
X67310000Y-94663784D01*
X67363466Y-94792862D01*
X67767138Y-95196534D01*
X68294561Y-95415000D01*
X68865439Y-95415000D01*
X69392862Y-95196534D01*
X69796534Y-94792862D01*
X69850000Y-94663784D01*
X69903466Y-94792862D01*
X70307138Y-95196534D01*
X70834561Y-95415000D01*
X71405439Y-95415000D01*
X71932862Y-95196534D01*
X72141651Y-94987745D01*
X72831861Y-94987745D01*
X72905995Y-95233864D01*
X73443223Y-95426965D01*
X74013454Y-95399778D01*
X74414005Y-95233864D01*
X74488139Y-94987745D01*
X73660000Y-94159605D01*
X72831861Y-94987745D01*
X72141651Y-94987745D01*
X72336534Y-94792862D01*
X72383525Y-94679417D01*
X72406136Y-94734005D01*
X72652255Y-94808139D01*
X73480395Y-93980000D01*
X72652255Y-93151861D01*
X72406136Y-93225995D01*
X72385126Y-93284448D01*
X72336534Y-93167138D01*
X72141651Y-92972255D01*
X72831861Y-92972255D01*
X73660000Y-93800395D01*
X74488139Y-92972255D01*
X74414005Y-92726136D01*
X73876777Y-92533035D01*
X73306546Y-92560222D01*
X72905995Y-92726136D01*
X72831861Y-92972255D01*
X72141651Y-92972255D01*
X71932862Y-92763466D01*
X71405439Y-92545000D01*
X70834561Y-92545000D01*
X70307138Y-92763466D01*
X69903466Y-93167138D01*
X69850000Y-93296216D01*
X69796534Y-93167138D01*
X69392862Y-92763466D01*
X68865439Y-92545000D01*
X68294561Y-92545000D01*
X67767138Y-92763466D01*
X67363466Y-93167138D01*
X67310000Y-93296216D01*
X67256534Y-93167138D01*
X66852862Y-92763466D01*
X66325439Y-92545000D01*
X65754561Y-92545000D01*
X65227138Y-92763466D01*
X64823466Y-93167138D01*
X64770000Y-93296216D01*
X64716534Y-93167138D01*
X64312862Y-92763466D01*
X63785439Y-92545000D01*
X63469802Y-92545000D01*
X65181803Y-90833000D01*
X66380989Y-90833000D01*
X66498420Y-90950431D01*
X66878826Y-91108000D01*
X67290574Y-91108000D01*
X67670980Y-90950431D01*
X67962131Y-90659280D01*
X68119700Y-90278874D01*
X68119700Y-90007001D01*
X69393871Y-91281173D01*
X69436271Y-91344629D01*
X69687663Y-91512604D01*
X69909348Y-91556700D01*
X69909352Y-91556700D01*
X69984200Y-91571588D01*
X70059048Y-91556700D01*
X92788497Y-91556700D01*
X91778302Y-92566896D01*
X91725439Y-92545000D01*
X91154561Y-92545000D01*
X90627138Y-92763466D01*
X90223466Y-93167138D01*
X90170000Y-93296216D01*
X90116534Y-93167138D01*
X89712862Y-92763466D01*
X89185439Y-92545000D01*
X88614561Y-92545000D01*
X88087138Y-92763466D01*
X87683466Y-93167138D01*
X87630000Y-93296216D01*
X87576534Y-93167138D01*
X87172862Y-92763466D01*
X86645439Y-92545000D01*
X86074561Y-92545000D01*
X85547138Y-92763466D01*
X85143466Y-93167138D01*
X85090000Y-93296216D01*
X85036534Y-93167138D01*
X84632862Y-92763466D01*
X84105439Y-92545000D01*
X83534561Y-92545000D01*
X83007138Y-92763466D01*
X82603466Y-93167138D01*
X82550000Y-93296216D01*
X82496534Y-93167138D01*
X82092862Y-92763466D01*
X81565439Y-92545000D01*
X80994561Y-92545000D01*
X80467138Y-92763466D01*
X80063466Y-93167138D01*
X80010000Y-93296216D01*
X79956534Y-93167138D01*
X79552862Y-92763466D01*
X79025439Y-92545000D01*
X78454561Y-92545000D01*
X77927138Y-92763466D01*
X77523466Y-93167138D01*
X77470000Y-93296216D01*
X77416534Y-93167138D01*
X77012862Y-92763466D01*
X76485439Y-92545000D01*
X75914561Y-92545000D01*
X75387138Y-92763466D01*
X74983466Y-93167138D01*
X74936475Y-93280583D01*
X74913864Y-93225995D01*
X74667745Y-93151861D01*
X73839605Y-93980000D01*
X74667745Y-94808139D01*
X74913864Y-94734005D01*
X74934874Y-94675552D01*
X74983466Y-94792862D01*
X75387138Y-95196534D01*
X75914561Y-95415000D01*
X76485439Y-95415000D01*
X77012862Y-95196534D01*
X77416534Y-94792862D01*
X77470000Y-94663784D01*
X77523466Y-94792862D01*
X77927138Y-95196534D01*
X78454561Y-95415000D01*
X79025439Y-95415000D01*
X79552862Y-95196534D01*
X79956534Y-94792862D01*
X80010000Y-94663784D01*
X80063466Y-94792862D01*
X80467138Y-95196534D01*
X80994561Y-95415000D01*
X81565439Y-95415000D01*
X82092862Y-95196534D01*
X82496534Y-94792862D01*
X82550000Y-94663784D01*
X82603466Y-94792862D01*
X83007138Y-95196534D01*
X83136216Y-95250000D01*
X83007138Y-95303466D01*
X82603466Y-95707138D01*
X82385000Y-96234561D01*
X82385000Y-96805439D01*
X82603466Y-97332862D01*
X83007138Y-97736534D01*
X83136216Y-97790000D01*
X83007138Y-97843466D01*
X82603466Y-98247138D01*
X82550000Y-98376216D01*
X82496534Y-98247138D01*
X82092862Y-97843466D01*
X81565439Y-97625000D01*
X80994561Y-97625000D01*
X80467138Y-97843466D01*
X80063466Y-98247138D01*
X80010000Y-98376216D01*
X79956534Y-98247138D01*
X79552862Y-97843466D01*
X79025439Y-97625000D01*
X78454561Y-97625000D01*
X77927138Y-97843466D01*
X77523466Y-98247138D01*
X77470000Y-98376216D01*
X77416534Y-98247138D01*
X77012862Y-97843466D01*
X76485439Y-97625000D01*
X75914561Y-97625000D01*
X75387138Y-97843466D01*
X74983466Y-98247138D01*
X74765000Y-98774561D01*
X74765000Y-99345439D01*
X74983466Y-99872862D01*
X75387138Y-100276534D01*
X75516216Y-100330000D01*
X75387138Y-100383466D01*
X74983466Y-100787138D01*
X74765000Y-101314561D01*
X74765000Y-101885439D01*
X74983466Y-102412862D01*
X75387138Y-102816534D01*
X75914561Y-103035000D01*
X76485439Y-103035000D01*
X77012862Y-102816534D01*
X77416534Y-102412862D01*
X77470000Y-102283784D01*
X77523466Y-102412862D01*
X77927138Y-102816534D01*
X78454561Y-103035000D01*
X79025439Y-103035000D01*
X79552862Y-102816534D01*
X79956534Y-102412862D01*
X80010000Y-102283784D01*
X80063466Y-102412862D01*
X80467138Y-102816534D01*
X80994561Y-103035000D01*
X81565439Y-103035000D01*
X82092862Y-102816534D01*
X82496534Y-102412862D01*
X82543525Y-102299417D01*
X82566136Y-102354005D01*
X82812255Y-102428139D01*
X83640395Y-101600000D01*
X82812255Y-100771861D01*
X82566136Y-100845995D01*
X82545126Y-100904448D01*
X82496534Y-100787138D01*
X82092862Y-100383466D01*
X81963784Y-100330000D01*
X82092862Y-100276534D01*
X82496534Y-99872862D01*
X82550000Y-99743784D01*
X82603466Y-99872862D01*
X83007138Y-100276534D01*
X83120583Y-100323525D01*
X83065995Y-100346136D01*
X82991861Y-100592255D01*
X83820000Y-101420395D01*
X84648139Y-100592255D01*
X84574005Y-100346136D01*
X84515552Y-100325126D01*
X84632862Y-100276534D01*
X85036534Y-99872862D01*
X85090000Y-99743784D01*
X85143466Y-99872862D01*
X85547138Y-100276534D01*
X85676216Y-100330000D01*
X85547138Y-100383466D01*
X85143466Y-100787138D01*
X85096475Y-100900583D01*
X85073864Y-100845995D01*
X84827745Y-100771861D01*
X83999605Y-101600000D01*
X84827745Y-102428139D01*
X85073864Y-102354005D01*
X85094874Y-102295552D01*
X85143466Y-102412862D01*
X85547138Y-102816534D01*
X86074561Y-103035000D01*
X86645439Y-103035000D01*
X87172862Y-102816534D01*
X87576534Y-102412862D01*
X87630000Y-102283784D01*
X87683466Y-102412862D01*
X88087138Y-102816534D01*
X88614561Y-103035000D01*
X89185439Y-103035000D01*
X89712862Y-102816534D01*
X90116534Y-102412862D01*
X90170000Y-102283784D01*
X90223466Y-102412862D01*
X90627138Y-102816534D01*
X91154561Y-103035000D01*
X91725439Y-103035000D01*
X92252862Y-102816534D01*
X92656534Y-102412862D01*
X92710000Y-102283784D01*
X92763466Y-102412862D01*
X93167138Y-102816534D01*
X93694561Y-103035000D01*
X94265439Y-103035000D01*
X94792862Y-102816534D01*
X95196534Y-102412862D01*
X95250000Y-102283784D01*
X95303466Y-102412862D01*
X95707138Y-102816534D01*
X96234561Y-103035000D01*
X96805439Y-103035000D01*
X97332862Y-102816534D01*
X97736534Y-102412862D01*
X97955000Y-101885439D01*
X97955000Y-101314561D01*
X97736534Y-100787138D01*
X97332862Y-100383466D01*
X97203784Y-100330000D01*
X97332862Y-100276534D01*
X97736534Y-99872862D01*
X97955000Y-99345439D01*
X97955000Y-98774561D01*
X97736534Y-98247138D01*
X97332862Y-97843466D01*
X96805439Y-97625000D01*
X96234561Y-97625000D01*
X95707138Y-97843466D01*
X95303466Y-98247138D01*
X95250000Y-98376216D01*
X95196534Y-98247138D01*
X94792862Y-97843466D01*
X94265439Y-97625000D01*
X93694561Y-97625000D01*
X93167138Y-97843466D01*
X92763466Y-98247138D01*
X92710000Y-98376216D01*
X92656534Y-98247138D01*
X92252862Y-97843466D01*
X91725439Y-97625000D01*
X91154561Y-97625000D01*
X90627138Y-97843466D01*
X90223466Y-98247138D01*
X90170000Y-98376216D01*
X90116534Y-98247138D01*
X89712862Y-97843466D01*
X89185439Y-97625000D01*
X88614561Y-97625000D01*
X88087138Y-97843466D01*
X87683466Y-98247138D01*
X87630000Y-98376216D01*
X87576534Y-98247138D01*
X87172862Y-97843466D01*
X86645439Y-97625000D01*
X86074561Y-97625000D01*
X85547138Y-97843466D01*
X85143466Y-98247138D01*
X85090000Y-98376216D01*
X85036534Y-98247138D01*
X84632862Y-97843466D01*
X84503784Y-97790000D01*
X84632862Y-97736534D01*
X85036534Y-97332862D01*
X85255000Y-96805439D01*
X85255000Y-96489802D01*
X85928371Y-97163173D01*
X85970771Y-97226629D01*
X86222163Y-97394604D01*
X86443848Y-97438700D01*
X86443852Y-97438700D01*
X86518699Y-97453588D01*
X86593546Y-97438700D01*
X104286217Y-97438700D01*
X97477803Y-104247000D01*
X88107742Y-104247000D01*
X88032890Y-104232112D01*
X87942896Y-104250014D01*
X87736363Y-104291096D01*
X87736358Y-104291099D01*
X87736354Y-104291100D01*
X87634028Y-104359474D01*
X87484971Y-104459071D01*
X87442568Y-104522532D01*
X85255000Y-106710152D01*
X85255000Y-106394561D01*
X85036534Y-105867138D01*
X84632862Y-105463466D01*
X84503784Y-105410000D01*
X84632862Y-105356534D01*
X85036534Y-104952862D01*
X85255000Y-104425439D01*
X85255000Y-103854561D01*
X85036534Y-103327138D01*
X84632862Y-102923466D01*
X84519417Y-102876475D01*
X84574005Y-102853864D01*
X84648139Y-102607745D01*
X83820000Y-101779605D01*
X82991861Y-102607745D01*
X83065995Y-102853864D01*
X83124448Y-102874874D01*
X83007138Y-102923466D01*
X82603466Y-103327138D01*
X82385000Y-103854561D01*
X82385000Y-104425439D01*
X82603466Y-104952862D01*
X83007138Y-105356534D01*
X83136216Y-105410000D01*
X83007138Y-105463466D01*
X82603466Y-105867138D01*
X82385000Y-106394561D01*
X82385000Y-106965439D01*
X82603466Y-107492862D01*
X83007138Y-107896534D01*
X83136216Y-107950000D01*
X83007138Y-108003466D01*
X82603466Y-108407138D01*
X82550000Y-108536216D01*
X82496534Y-108407138D01*
X82092862Y-108003466D01*
X81565439Y-107785000D01*
X80994561Y-107785000D01*
X80467138Y-108003466D01*
X80063466Y-108407138D01*
X80010000Y-108536216D01*
X79956534Y-108407138D01*
X79552862Y-108003466D01*
X79025439Y-107785000D01*
X78454561Y-107785000D01*
X77927138Y-108003466D01*
X77523466Y-108407138D01*
X77470000Y-108536216D01*
X77416534Y-108407138D01*
X77012862Y-108003466D01*
X76485439Y-107785000D01*
X75914561Y-107785000D01*
X75387138Y-108003466D01*
X74983466Y-108407138D01*
X74930000Y-108536216D01*
X74876534Y-108407138D01*
X74472862Y-108003466D01*
X73945439Y-107785000D01*
X73374561Y-107785000D01*
X72847138Y-108003466D01*
X72443466Y-108407138D01*
X72390000Y-108536216D01*
X72336534Y-108407138D01*
X71932862Y-108003466D01*
X71405439Y-107785000D01*
X70834561Y-107785000D01*
X70307138Y-108003466D01*
X69903466Y-108407138D01*
X69850000Y-108536216D01*
X69796534Y-108407138D01*
X69392862Y-108003466D01*
X68865439Y-107785000D01*
X68294561Y-107785000D01*
X67767138Y-108003466D01*
X67363466Y-108407138D01*
X67310000Y-108536216D01*
X67256534Y-108407138D01*
X66852862Y-108003466D01*
X66325439Y-107785000D01*
X65754561Y-107785000D01*
X65227138Y-108003466D01*
X64823466Y-108407138D01*
X64770000Y-108536216D01*
X64716534Y-108407138D01*
X64312862Y-108003466D01*
X63785439Y-107785000D01*
X63214561Y-107785000D01*
X62687138Y-108003466D01*
X62283466Y-108407138D01*
X62230000Y-108536216D01*
X62176534Y-108407138D01*
X61772862Y-108003466D01*
X61245439Y-107785000D01*
X60674561Y-107785000D01*
X60147138Y-108003466D01*
X59743466Y-108407138D01*
X59690000Y-108536216D01*
X59636534Y-108407138D01*
X59232862Y-108003466D01*
X58705439Y-107785000D01*
X58134561Y-107785000D01*
X57607138Y-108003466D01*
X57203466Y-108407138D01*
X57150000Y-108536216D01*
X57096534Y-108407138D01*
X56692862Y-108003466D01*
X56165439Y-107785000D01*
X55594561Y-107785000D01*
X55067138Y-108003466D01*
X54663466Y-108407138D01*
X54610000Y-108536216D01*
X54556534Y-108407138D01*
X54152862Y-108003466D01*
X53625439Y-107785000D01*
X53054561Y-107785000D01*
X52527138Y-108003466D01*
X52123466Y-108407138D01*
X52070000Y-108536216D01*
X52016534Y-108407138D01*
X51612862Y-108003466D01*
X51085439Y-107785000D01*
X50514561Y-107785000D01*
X49987138Y-108003466D01*
X49583466Y-108407138D01*
X49530000Y-108536216D01*
X49476534Y-108407138D01*
X49072862Y-108003466D01*
X48545439Y-107785000D01*
X47974561Y-107785000D01*
X47447138Y-108003466D01*
X47043466Y-108407138D01*
X46990000Y-108536216D01*
X46936534Y-108407138D01*
X46532862Y-108003466D01*
X46005439Y-107785000D01*
X45434561Y-107785000D01*
X44907138Y-108003466D01*
X44503466Y-108407138D01*
X44450000Y-108536216D01*
X44396534Y-108407138D01*
X43992862Y-108003466D01*
X43465439Y-107785000D01*
X42894561Y-107785000D01*
X42367138Y-108003466D01*
X41963466Y-108407138D01*
X41910000Y-108536216D01*
X41856534Y-108407138D01*
X41452862Y-108003466D01*
X40925439Y-107785000D01*
X40354561Y-107785000D01*
X39827138Y-108003466D01*
X39535000Y-108295604D01*
X39535000Y-108293690D01*
X39438327Y-108060301D01*
X39259698Y-107881673D01*
X39026309Y-107785000D01*
X38385750Y-107785000D01*
X38227000Y-107943750D01*
X38227000Y-109093000D01*
X38247000Y-109093000D01*
X38247000Y-109347000D01*
X38227000Y-109347000D01*
X38227000Y-109367000D01*
X37973000Y-109367000D01*
X37973000Y-109347000D01*
X37953000Y-109347000D01*
X37953000Y-109093000D01*
X37973000Y-109093000D01*
X37973000Y-107943750D01*
X37814250Y-107785000D01*
X37173691Y-107785000D01*
X36940302Y-107881673D01*
X36761673Y-108060301D01*
X36665000Y-108293690D01*
X36665000Y-108934250D01*
X36823748Y-109092998D01*
X36667600Y-109092998D01*
X35229753Y-107655152D01*
X35292000Y-107504874D01*
X35292000Y-107093126D01*
X35134431Y-106712720D01*
X34843280Y-106421569D01*
X34462874Y-106264000D01*
X34051126Y-106264000D01*
X33670720Y-106421569D01*
X33379569Y-106712720D01*
X33222000Y-107093126D01*
X33222000Y-107504874D01*
X33379569Y-107885280D01*
X33539376Y-108045087D01*
X33541096Y-108053736D01*
X33709071Y-108305129D01*
X33772530Y-108347531D01*
X37694473Y-112269476D01*
X37736871Y-112332929D01*
X37800324Y-112375327D01*
X37800326Y-112375329D01*
X37885141Y-112432000D01*
X37988263Y-112500904D01*
X38209948Y-112545000D01*
X38209952Y-112545000D01*
X38284799Y-112559888D01*
X38359646Y-112545000D01*
X53848189Y-112545000D01*
X53965620Y-112662431D01*
X54346026Y-112820000D01*
X54757774Y-112820000D01*
X55138180Y-112662431D01*
X55429331Y-112371280D01*
X55586900Y-111990874D01*
X55586900Y-111579126D01*
X55429331Y-111198720D01*
X55138180Y-110907569D01*
X54757774Y-110750000D01*
X54346026Y-110750000D01*
X53965620Y-110907569D01*
X53848189Y-111025000D01*
X38599603Y-111025000D01*
X38227002Y-110652399D01*
X38227002Y-110496252D01*
X38385750Y-110655000D01*
X39026309Y-110655000D01*
X39259698Y-110558327D01*
X39438327Y-110379699D01*
X39535000Y-110146310D01*
X39535000Y-110144396D01*
X39827138Y-110436534D01*
X40354561Y-110655000D01*
X40925439Y-110655000D01*
X41452862Y-110436534D01*
X41856534Y-110032862D01*
X41910000Y-109903784D01*
X41963466Y-110032862D01*
X42367138Y-110436534D01*
X42894561Y-110655000D01*
X43465439Y-110655000D01*
X43992862Y-110436534D01*
X44396534Y-110032862D01*
X44450000Y-109903784D01*
X44503466Y-110032862D01*
X44907138Y-110436534D01*
X45434561Y-110655000D01*
X46005439Y-110655000D01*
X46532862Y-110436534D01*
X46936534Y-110032862D01*
X46990000Y-109903784D01*
X47043466Y-110032862D01*
X47447138Y-110436534D01*
X47974561Y-110655000D01*
X48545439Y-110655000D01*
X49072862Y-110436534D01*
X49476534Y-110032862D01*
X49530000Y-109903784D01*
X49583466Y-110032862D01*
X49987138Y-110436534D01*
X50514561Y-110655000D01*
X51085439Y-110655000D01*
X51612862Y-110436534D01*
X52016534Y-110032862D01*
X52070000Y-109903784D01*
X52123466Y-110032862D01*
X52527138Y-110436534D01*
X53054561Y-110655000D01*
X53625439Y-110655000D01*
X54152862Y-110436534D01*
X54556534Y-110032862D01*
X54610000Y-109903784D01*
X54663466Y-110032862D01*
X55067138Y-110436534D01*
X55594561Y-110655000D01*
X56165439Y-110655000D01*
X56692862Y-110436534D01*
X57096534Y-110032862D01*
X57150000Y-109903784D01*
X57203466Y-110032862D01*
X57607138Y-110436534D01*
X58134561Y-110655000D01*
X58705439Y-110655000D01*
X59232862Y-110436534D01*
X59636534Y-110032862D01*
X59690000Y-109903784D01*
X59743466Y-110032862D01*
X60147138Y-110436534D01*
X60674561Y-110655000D01*
X61245439Y-110655000D01*
X61298286Y-110633110D01*
X64255102Y-113590000D01*
X18490000Y-113590000D01*
X18490000Y-108695866D01*
X20225000Y-108695866D01*
X20225000Y-109744134D01*
X20626155Y-110712608D01*
X21367392Y-111453845D01*
X22335866Y-111855000D01*
X23384134Y-111855000D01*
X24352608Y-111453845D01*
X25093845Y-110712608D01*
X25495000Y-109744134D01*
X25495000Y-108695866D01*
X25093845Y-107727392D01*
X24352608Y-106986155D01*
X23384134Y-106585000D01*
X22335866Y-106585000D01*
X21367392Y-106986155D01*
X20626155Y-107727392D01*
X20225000Y-108695866D01*
X18490000Y-108695866D01*
X18490000Y-61716526D01*
X25850700Y-61716526D01*
X25850700Y-62128274D01*
X26008269Y-62508680D01*
X26125700Y-62626111D01*
X26125701Y-71720848D01*
X26110812Y-71795700D01*
X26155400Y-72019859D01*
X26155400Y-72306274D01*
X26312969Y-72686680D01*
X26604120Y-72977831D01*
X26984526Y-73135400D01*
X27396274Y-73135400D01*
X27776680Y-72977831D01*
X28067831Y-72686680D01*
X28225400Y-72306274D01*
X28225400Y-71894526D01*
X28067831Y-71514120D01*
X27776680Y-71222969D01*
X27645700Y-71168715D01*
X27645700Y-66801126D01*
X31285900Y-66801126D01*
X31285900Y-67212874D01*
X31443469Y-67593280D01*
X31734620Y-67884431D01*
X32115026Y-68042000D01*
X32526774Y-68042000D01*
X32907180Y-67884431D01*
X33198331Y-67593280D01*
X33355900Y-67212874D01*
X33355900Y-66801126D01*
X33198331Y-66420720D01*
X33080900Y-66303289D01*
X33080900Y-61875638D01*
X33437980Y-61727731D01*
X33729131Y-61436580D01*
X33886700Y-61056174D01*
X33886700Y-60644426D01*
X33729131Y-60264020D01*
X33437980Y-59972869D01*
X33057574Y-59815300D01*
X32645826Y-59815300D01*
X32265420Y-59972869D01*
X31974269Y-60264020D01*
X31816700Y-60644426D01*
X31816700Y-60803952D01*
X31772971Y-60833171D01*
X31604996Y-61084564D01*
X31560900Y-61306249D01*
X31560900Y-61306253D01*
X31546012Y-61381100D01*
X31560900Y-61455947D01*
X31560901Y-66303288D01*
X31443469Y-66420720D01*
X31285900Y-66801126D01*
X27645700Y-66801126D01*
X27645700Y-62626111D01*
X27763131Y-62508680D01*
X27920700Y-62128274D01*
X27920700Y-61716526D01*
X27763131Y-61336120D01*
X27471980Y-61044969D01*
X27091574Y-60887400D01*
X26679826Y-60887400D01*
X26299420Y-61044969D01*
X26008269Y-61336120D01*
X25850700Y-61716526D01*
X18490000Y-61716526D01*
X18490000Y-54737000D01*
X230430000Y-54737000D01*
X230430001Y-113590000D01*
X230430001Y-113590000D01*
G37*
X230430001Y-113590000D02*
X124349200Y-113590000D01*
X124349200Y-113244126D01*
X124195850Y-112873906D01*
X124260625Y-112830625D01*
X124301133Y-112770000D01*
X124618867Y-112770000D01*
X124659375Y-112830625D01*
X125150582Y-113158839D01*
X125583744Y-113245000D01*
X125876256Y-113245000D01*
X126309418Y-113158839D01*
X126800625Y-112830625D01*
X127128839Y-112339418D01*
X127167455Y-112145282D01*
X127369326Y-112228900D01*
X127781074Y-112228900D01*
X128161480Y-112071331D01*
X128278911Y-111953900D01*
X131551953Y-111953900D01*
X131626800Y-111968788D01*
X131701647Y-111953900D01*
X131701652Y-111953900D01*
X131923337Y-111909804D01*
X132174729Y-111741829D01*
X132217131Y-111678370D01*
X141847302Y-102048200D01*
X142013374Y-102048200D01*
X142393780Y-101890631D01*
X142500001Y-101784410D01*
X142500000Y-110294386D01*
X142412235Y-110311843D01*
X142202191Y-110452191D01*
X142061843Y-110662235D01*
X142012560Y-110910000D01*
X142012560Y-112610000D01*
X142061843Y-112857765D01*
X142202191Y-113067809D01*
X142412235Y-113208157D01*
X142660000Y-113257440D01*
X144360000Y-113257440D01*
X144607765Y-113208157D01*
X144817809Y-113067809D01*
X144958157Y-112857765D01*
X144967184Y-112812381D01*
X144979375Y-112830625D01*
X145470582Y-113158839D01*
X145903744Y-113245000D01*
X146196256Y-113245000D01*
X146629418Y-113158839D01*
X147120625Y-112830625D01*
X147333843Y-112511522D01*
X147394817Y-112641358D01*
X147823076Y-113031645D01*
X148233110Y-113201476D01*
X148463000Y-113080155D01*
X148463000Y-111887000D01*
X148717000Y-111887000D01*
X148717000Y-113080155D01*
X148946890Y-113201476D01*
X149356924Y-113031645D01*
X149785183Y-112641358D01*
X149860000Y-112482046D01*
X149934817Y-112641358D01*
X150363076Y-113031645D01*
X150773110Y-113201476D01*
X151003000Y-113080155D01*
X151003000Y-111887000D01*
X151257000Y-111887000D01*
X151257000Y-113080155D01*
X151486890Y-113201476D01*
X151896924Y-113031645D01*
X152325183Y-112641358D01*
X152571486Y-112116892D01*
X152450819Y-111887000D01*
X151257000Y-111887000D01*
X151003000Y-111887000D01*
X148717000Y-111887000D01*
X148463000Y-111887000D01*
X148443000Y-111887000D01*
X148443000Y-111633000D01*
X148463000Y-111633000D01*
X148463000Y-110439845D01*
X148717000Y-110439845D01*
X148717000Y-111633000D01*
X151003000Y-111633000D01*
X151003000Y-110439845D01*
X151257000Y-110439845D01*
X151257000Y-111633000D01*
X152450819Y-111633000D01*
X152571486Y-111403108D01*
X152325183Y-110878642D01*
X151896924Y-110488355D01*
X151486890Y-110318524D01*
X151257000Y-110439845D01*
X151003000Y-110439845D01*
X150773110Y-110318524D01*
X150363076Y-110488355D01*
X149934817Y-110878642D01*
X149860000Y-111037954D01*
X149785183Y-110878642D01*
X149356924Y-110488355D01*
X148946890Y-110318524D01*
X148717000Y-110439845D01*
X148463000Y-110439845D01*
X148233110Y-110318524D01*
X147823076Y-110488355D01*
X147394817Y-110878642D01*
X147333843Y-111008478D01*
X147120625Y-110689375D01*
X146629418Y-110361161D01*
X146196256Y-110275000D01*
X145903744Y-110275000D01*
X145470582Y-110361161D01*
X144979375Y-110689375D01*
X144967184Y-110707619D01*
X144958157Y-110662235D01*
X144817809Y-110452191D01*
X144607765Y-110311843D01*
X144520000Y-110294386D01*
X144520000Y-100429471D01*
X144539786Y-100330000D01*
X144520000Y-100230529D01*
X144520000Y-100230524D01*
X144461399Y-99935918D01*
X144324526Y-99731073D01*
X144294518Y-99686162D01*
X144294516Y-99686160D01*
X144238169Y-99601831D01*
X144153840Y-99545484D01*
X142398356Y-97790000D01*
X152658276Y-97790000D01*
X152843380Y-98720580D01*
X153370511Y-99509489D01*
X154159420Y-100036620D01*
X154855103Y-100175000D01*
X155324897Y-100175000D01*
X156020580Y-100036620D01*
X156809489Y-99509489D01*
X157336620Y-98720580D01*
X157521724Y-97790000D01*
X157336620Y-96859420D01*
X156809489Y-96070511D01*
X156020580Y-95543380D01*
X155324897Y-95405000D01*
X154855103Y-95405000D01*
X154159420Y-95543380D01*
X153370511Y-96070511D01*
X152843380Y-96859420D01*
X152658276Y-97790000D01*
X142398356Y-97790000D01*
X139977440Y-95369085D01*
X139977440Y-94350000D01*
X139928157Y-94102235D01*
X139787809Y-93892191D01*
X139639777Y-93793278D01*
X153092841Y-80340215D01*
X153177169Y-80283869D01*
X153233516Y-80199540D01*
X153233518Y-80199538D01*
X153357807Y-80013526D01*
X153400399Y-79949782D01*
X153459000Y-79655176D01*
X153459000Y-79655171D01*
X153478786Y-79555700D01*
X153459000Y-79456229D01*
X153459000Y-79274000D01*
X155280682Y-79274000D01*
X155380310Y-79293786D01*
X155575199Y-79254959D01*
X155686099Y-79232900D01*
X155771766Y-79232900D01*
X156188926Y-79060107D01*
X156462000Y-78787033D01*
X156462001Y-88299038D01*
X156447112Y-88373879D01*
X156462001Y-88448742D01*
X156462001Y-88448752D01*
X156474046Y-88509304D01*
X156506088Y-88670416D01*
X156506095Y-88670426D01*
X156506097Y-88670437D01*
X156578968Y-88779496D01*
X156631657Y-88858356D01*
X156631668Y-88858367D01*
X156674072Y-88921829D01*
X156737516Y-88964221D01*
X161484000Y-93710974D01*
X161484000Y-93877074D01*
X161641569Y-94257480D01*
X161932720Y-94548631D01*
X162313126Y-94706200D01*
X162724874Y-94706200D01*
X163105280Y-94548631D01*
X163396431Y-94257480D01*
X163401181Y-94246012D01*
X163563686Y-94408495D01*
X163606071Y-94471929D01*
X163669545Y-94514341D01*
X163669564Y-94514360D01*
X163733852Y-94557310D01*
X163857463Y-94639904D01*
X163857489Y-94639909D01*
X163857508Y-94639922D01*
X163992882Y-94666841D01*
X164079148Y-94684000D01*
X164079177Y-94684000D01*
X164154049Y-94698888D01*
X164228872Y-94684000D01*
X168134210Y-94684000D01*
X168569432Y-95119200D01*
X162951046Y-95119200D01*
X162876199Y-95104312D01*
X162801352Y-95119200D01*
X162801348Y-95119200D01*
X162579663Y-95163296D01*
X162579661Y-95163297D01*
X162579662Y-95163297D01*
X162391726Y-95288871D01*
X162391724Y-95288873D01*
X162328271Y-95331271D01*
X162285873Y-95394724D01*
X158131499Y-99549100D01*
X157965426Y-99549100D01*
X157585020Y-99706669D01*
X157293869Y-99997820D01*
X157136300Y-100378226D01*
X157136300Y-100789974D01*
X157293869Y-101170380D01*
X157585020Y-101461531D01*
X157965426Y-101619100D01*
X158377174Y-101619100D01*
X158757580Y-101461531D01*
X159048731Y-101170380D01*
X159206300Y-100789974D01*
X159206300Y-100623901D01*
X163191003Y-96639200D01*
X167443000Y-96639200D01*
X167443000Y-96801621D01*
X165885519Y-98359177D01*
X165822072Y-98401571D01*
X165779668Y-98465033D01*
X165779659Y-98465042D01*
X165740515Y-98523629D01*
X165654097Y-98652963D01*
X165654095Y-98652972D01*
X165654090Y-98652980D01*
X165625844Y-98795000D01*
X165610001Y-98874648D01*
X165610001Y-98874657D01*
X165595112Y-98949518D01*
X165610001Y-99024361D01*
X165610000Y-110262560D01*
X165520000Y-110262560D01*
X165272235Y-110311843D01*
X165062191Y-110452191D01*
X164921843Y-110662235D01*
X164872560Y-110910000D01*
X164872560Y-112610000D01*
X164921843Y-112857765D01*
X165062191Y-113067809D01*
X165272235Y-113208157D01*
X165520000Y-113257440D01*
X167220000Y-113257440D01*
X167467765Y-113208157D01*
X167677809Y-113067809D01*
X167818157Y-112857765D01*
X167827184Y-112812381D01*
X167839375Y-112830625D01*
X168330582Y-113158839D01*
X168763744Y-113245000D01*
X169056256Y-113245000D01*
X169489418Y-113158839D01*
X169980625Y-112830625D01*
X170180000Y-112532239D01*
X170379375Y-112830625D01*
X170870582Y-113158839D01*
X171303744Y-113245000D01*
X171596256Y-113245000D01*
X172029418Y-113158839D01*
X172520625Y-112830625D01*
X172720000Y-112532239D01*
X172919375Y-112830625D01*
X173410582Y-113158839D01*
X173843744Y-113245000D01*
X174136256Y-113245000D01*
X174569418Y-113158839D01*
X175060625Y-112830625D01*
X175260000Y-112532239D01*
X175459375Y-112830625D01*
X175950582Y-113158839D01*
X176383744Y-113245000D01*
X176676256Y-113245000D01*
X177109418Y-113158839D01*
X177600625Y-112830625D01*
X177813843Y-112511522D01*
X177874817Y-112641358D01*
X178303076Y-113031645D01*
X178713110Y-113201476D01*
X178943000Y-113080155D01*
X178943000Y-111887000D01*
X179197000Y-111887000D01*
X179197000Y-113080155D01*
X179426890Y-113201476D01*
X179836924Y-113031645D01*
X180265183Y-112641358D01*
X180511486Y-112116892D01*
X180390819Y-111887000D01*
X179197000Y-111887000D01*
X178943000Y-111887000D01*
X178923000Y-111887000D01*
X178923000Y-111633000D01*
X178943000Y-111633000D01*
X178943000Y-110439845D01*
X179197000Y-110439845D01*
X179197000Y-111633000D01*
X180390819Y-111633000D01*
X180511486Y-111403108D01*
X180265183Y-110878642D01*
X179836924Y-110488355D01*
X179426890Y-110318524D01*
X179197000Y-110439845D01*
X178943000Y-110439845D01*
X178713110Y-110318524D01*
X178303076Y-110488355D01*
X177874817Y-110878642D01*
X177813843Y-111008478D01*
X177600625Y-110689375D01*
X177540000Y-110648867D01*
X177540000Y-110553355D01*
X181749167Y-106344188D01*
X188221417Y-106344188D01*
X188283071Y-106579800D01*
X188783480Y-106755927D01*
X189313199Y-106727148D01*
X189668929Y-106579800D01*
X189730583Y-106344188D01*
X188976000Y-105589605D01*
X188221417Y-106344188D01*
X181749167Y-106344188D01*
X182875875Y-105217480D01*
X187630073Y-105217480D01*
X187658852Y-105747199D01*
X187806200Y-106102929D01*
X188041812Y-106164583D01*
X188796395Y-105410000D01*
X189155605Y-105410000D01*
X189910188Y-106164583D01*
X190145800Y-106102929D01*
X190321927Y-105602520D01*
X190293148Y-105072801D01*
X190145800Y-104717071D01*
X189910188Y-104655417D01*
X189155605Y-105410000D01*
X188796395Y-105410000D01*
X188041812Y-104655417D01*
X187806200Y-104717071D01*
X187630073Y-105217480D01*
X182875875Y-105217480D01*
X183921838Y-104171517D01*
X184006169Y-104115169D01*
X184163304Y-103880000D01*
X188100146Y-103880000D01*
X188220633Y-104000487D01*
X188541211Y-104133275D01*
X188283071Y-104240200D01*
X188221417Y-104475812D01*
X188976000Y-105230395D01*
X189730583Y-104475812D01*
X189668929Y-104240200D01*
X189389816Y-104141962D01*
X189731367Y-104000487D01*
X189851854Y-103880000D01*
X196206535Y-103880000D01*
X196306012Y-103899786D01*
X196430927Y-103874938D01*
X196700082Y-103821399D01*
X196700088Y-103821395D01*
X196700093Y-103821394D01*
X196851730Y-103720071D01*
X197034169Y-103598169D01*
X197090522Y-103513830D01*
X213539164Y-87064801D01*
X213840926Y-86939807D01*
X214088000Y-86692733D01*
X214088001Y-88196288D01*
X213970569Y-88313720D01*
X213813000Y-88694126D01*
X213813000Y-89105874D01*
X213970569Y-89486280D01*
X214245444Y-89761155D01*
X192366599Y-111640000D01*
X182556611Y-111640000D01*
X182439180Y-111522569D01*
X182058774Y-111365000D01*
X181647026Y-111365000D01*
X181266620Y-111522569D01*
X180975469Y-111813720D01*
X180817900Y-112194126D01*
X180817900Y-112605874D01*
X180975469Y-112986280D01*
X181266620Y-113277431D01*
X181647026Y-113435000D01*
X182058774Y-113435000D01*
X182439180Y-113277431D01*
X182556611Y-113160000D01*
X192606553Y-113160000D01*
X192681400Y-113174888D01*
X192756247Y-113160000D01*
X192756252Y-113160000D01*
X192977937Y-113115904D01*
X193229329Y-112947929D01*
X193271731Y-112884470D01*
X197460335Y-108695866D01*
X223425000Y-108695866D01*
X223425000Y-109744134D01*
X223826155Y-110712608D01*
X224567392Y-111453845D01*
X225535866Y-111855000D01*
X226584134Y-111855000D01*
X227552608Y-111453845D01*
X228293845Y-110712608D01*
X228695000Y-109744134D01*
X228695000Y-108695866D01*
X228293845Y-107727392D01*
X227552608Y-106986155D01*
X226584134Y-106585000D01*
X225535866Y-106585000D01*
X224567392Y-106986155D01*
X223826155Y-107727392D01*
X223425000Y-108695866D01*
X197460335Y-108695866D01*
X225190373Y-80965829D01*
X225253829Y-80923429D01*
X225421804Y-80672037D01*
X225465900Y-80450352D01*
X225465900Y-80450348D01*
X225480788Y-80375501D01*
X225465900Y-80300654D01*
X225465900Y-67200247D01*
X225480788Y-67125400D01*
X225465900Y-67050553D01*
X225465900Y-67050548D01*
X225421804Y-66828863D01*
X225253829Y-66577471D01*
X225190373Y-66535071D01*
X223544328Y-64889026D01*
X226810000Y-64889026D01*
X226810000Y-65300774D01*
X226967569Y-65681180D01*
X227258720Y-65972331D01*
X227470001Y-66059846D01*
X227470000Y-74530889D01*
X227352569Y-74648320D01*
X227195000Y-75028726D01*
X227195000Y-75440474D01*
X227352569Y-75820880D01*
X227643720Y-76112031D01*
X228024126Y-76269600D01*
X228435874Y-76269600D01*
X228816280Y-76112031D01*
X229107431Y-75820880D01*
X229265000Y-75440474D01*
X229265000Y-75028726D01*
X229107431Y-74648320D01*
X228990000Y-74530889D01*
X228990000Y-65555196D01*
X229004888Y-65480501D01*
X228990000Y-65405501D01*
X228990000Y-65405348D01*
X228975161Y-65330749D01*
X228946019Y-65183941D01*
X228945934Y-65183814D01*
X228945904Y-65183663D01*
X228880000Y-65085031D01*
X228880000Y-64889026D01*
X228722431Y-64508620D01*
X228431280Y-64217469D01*
X228050874Y-64059900D01*
X227639126Y-64059900D01*
X227258720Y-64217469D01*
X226967569Y-64508620D01*
X226810000Y-64889026D01*
X223544328Y-64889026D01*
X216854231Y-58198930D01*
X216811829Y-58135471D01*
X216560437Y-57967496D01*
X216338752Y-57923400D01*
X216338747Y-57923400D01*
X216263900Y-57908512D01*
X216189053Y-57923400D01*
X40506846Y-57923400D01*
X40431999Y-57908512D01*
X40357152Y-57923400D01*
X40357148Y-57923400D01*
X40135463Y-57967496D01*
X39884071Y-58135471D01*
X39841671Y-58198927D01*
X35862130Y-62178469D01*
X35798671Y-62220871D01*
X35630696Y-62472264D01*
X35586600Y-62693949D01*
X35586600Y-62693953D01*
X35571712Y-62768800D01*
X35586600Y-62843647D01*
X35586601Y-69228497D01*
X34725900Y-70089198D01*
X34725900Y-69925526D01*
X34568331Y-69545120D01*
X34277180Y-69253969D01*
X33896774Y-69096400D01*
X33485026Y-69096400D01*
X33104620Y-69253969D01*
X32813469Y-69545120D01*
X32655900Y-69925526D01*
X32655900Y-70337274D01*
X32813469Y-70717680D01*
X32923193Y-70827404D01*
X25347599Y-78403000D01*
X25181526Y-78403000D01*
X24801120Y-78560569D01*
X24509969Y-78851720D01*
X24352400Y-79232126D01*
X24352400Y-79643874D01*
X24509969Y-80024280D01*
X24801120Y-80315431D01*
X25181526Y-80473000D01*
X25449300Y-80473000D01*
X25449301Y-85235299D01*
X23292700Y-83078699D01*
X23292700Y-75946611D01*
X23410131Y-75829180D01*
X23567700Y-75448774D01*
X23567700Y-75037026D01*
X23410131Y-74656620D01*
X23118980Y-74365469D01*
X22738574Y-74207900D01*
X22326826Y-74207900D01*
X21946420Y-74365469D01*
X21655269Y-74656620D01*
X21497700Y-75037026D01*
X21497700Y-75448774D01*
X21655269Y-75829180D01*
X21772701Y-75946612D01*
X21772700Y-83318653D01*
X21757812Y-83393500D01*
X21772700Y-83468347D01*
X21772700Y-83468351D01*
X21816796Y-83690036D01*
X21984771Y-83941429D01*
X22048230Y-83983831D01*
X25777200Y-87712802D01*
X25777200Y-87878874D01*
X25934769Y-88259280D01*
X26225920Y-88550431D01*
X26606326Y-88708000D01*
X27018074Y-88708000D01*
X27398480Y-88550431D01*
X27689631Y-88259280D01*
X27706662Y-88218164D01*
X28341100Y-88852602D01*
X28341101Y-97734548D01*
X28326212Y-97809400D01*
X28385197Y-98105937D01*
X28496299Y-98272212D01*
X28553172Y-98357329D01*
X28616628Y-98399729D01*
X36019100Y-105802203D01*
X36019100Y-105968274D01*
X36176669Y-106348680D01*
X36467820Y-106639831D01*
X36848226Y-106797400D01*
X37259974Y-106797400D01*
X37640380Y-106639831D01*
X37931531Y-106348680D01*
X38089100Y-105968274D01*
X38089100Y-105934561D01*
X43015000Y-105934561D01*
X43015000Y-106505439D01*
X43233466Y-107032862D01*
X43637138Y-107436534D01*
X44164561Y-107655000D01*
X44735439Y-107655000D01*
X45262862Y-107436534D01*
X45666534Y-107032862D01*
X45720000Y-106903784D01*
X45773466Y-107032862D01*
X46177138Y-107436534D01*
X46704561Y-107655000D01*
X47275439Y-107655000D01*
X47802862Y-107436534D01*
X48206534Y-107032862D01*
X48260000Y-106903784D01*
X48313466Y-107032862D01*
X48717138Y-107436534D01*
X49244561Y-107655000D01*
X49815439Y-107655000D01*
X50342862Y-107436534D01*
X50746534Y-107032862D01*
X50800000Y-106903784D01*
X50853466Y-107032862D01*
X51257138Y-107436534D01*
X51784561Y-107655000D01*
X52355439Y-107655000D01*
X52882862Y-107436534D01*
X53286534Y-107032862D01*
X53340000Y-106903784D01*
X53393466Y-107032862D01*
X53797138Y-107436534D01*
X54324561Y-107655000D01*
X54895439Y-107655000D01*
X55422862Y-107436534D01*
X55826534Y-107032862D01*
X56045000Y-106505439D01*
X56045000Y-105934561D01*
X55826534Y-105407138D01*
X55422862Y-105003466D01*
X54895439Y-104785000D01*
X54324561Y-104785000D01*
X53797138Y-105003466D01*
X53393466Y-105407138D01*
X53340000Y-105536216D01*
X53286534Y-105407138D01*
X52882862Y-105003466D01*
X52355439Y-104785000D01*
X51784561Y-104785000D01*
X51257138Y-105003466D01*
X50853466Y-105407138D01*
X50800000Y-105536216D01*
X50746534Y-105407138D01*
X50342862Y-105003466D01*
X49815439Y-104785000D01*
X49244561Y-104785000D01*
X48717138Y-105003466D01*
X48313466Y-105407138D01*
X48260000Y-105536216D01*
X48206534Y-105407138D01*
X47802862Y-105003466D01*
X47275439Y-104785000D01*
X46704561Y-104785000D01*
X46177138Y-105003466D01*
X45773466Y-105407138D01*
X45720000Y-105536216D01*
X45666534Y-105407138D01*
X45262862Y-105003466D01*
X44735439Y-104785000D01*
X44164561Y-104785000D01*
X43637138Y-105003466D01*
X43233466Y-105407138D01*
X43015000Y-105934561D01*
X38089100Y-105934561D01*
X38089100Y-105556526D01*
X37931531Y-105176120D01*
X37640380Y-104884969D01*
X37259974Y-104727400D01*
X37093903Y-104727400D01*
X29861100Y-97494599D01*
X29861100Y-88612648D01*
X29875988Y-88537800D01*
X29861100Y-88462952D01*
X29861100Y-88462948D01*
X29817004Y-88241263D01*
X29817004Y-88241262D01*
X29691429Y-88053327D01*
X29649029Y-87989871D01*
X29585573Y-87947471D01*
X26969300Y-85331199D01*
X26969300Y-84737600D01*
X27359874Y-84737600D01*
X27740280Y-84580031D01*
X28031431Y-84288880D01*
X28189000Y-83908474D01*
X28189000Y-83742401D01*
X33553873Y-78377529D01*
X33570600Y-78366352D01*
X33570601Y-96070555D01*
X33555712Y-96145416D01*
X33582443Y-96279787D01*
X33614697Y-96441937D01*
X33614701Y-96441943D01*
X33614703Y-96441952D01*
X33710556Y-96585400D01*
X33782672Y-96693329D01*
X33846132Y-96735732D01*
X38032400Y-100921823D01*
X38032400Y-101087874D01*
X38189969Y-101468280D01*
X38481120Y-101759431D01*
X38861526Y-101917000D01*
X39273274Y-101917000D01*
X39653680Y-101759431D01*
X39944831Y-101468280D01*
X40102400Y-101087874D01*
X40102400Y-100676126D01*
X39951081Y-100310809D01*
X39990380Y-100294531D01*
X40281531Y-100003380D01*
X40439100Y-99622974D01*
X40439100Y-99211226D01*
X40281531Y-98830820D01*
X39990380Y-98539669D01*
X39609974Y-98382100D01*
X39443903Y-98382100D01*
X37296363Y-96234561D01*
X39205000Y-96234561D01*
X39205000Y-96805439D01*
X39423466Y-97332862D01*
X39827138Y-97736534D01*
X40354561Y-97955000D01*
X40925439Y-97955000D01*
X41452862Y-97736534D01*
X41856534Y-97332862D01*
X42075000Y-96805439D01*
X42075000Y-96234561D01*
X41856534Y-95707138D01*
X41452862Y-95303466D01*
X41339417Y-95256475D01*
X41394005Y-95233864D01*
X41468139Y-94987745D01*
X40640000Y-94159605D01*
X39811861Y-94987745D01*
X39885995Y-95233864D01*
X39944448Y-95254874D01*
X39827138Y-95303466D01*
X39423466Y-95707138D01*
X39205000Y-96234561D01*
X37296363Y-96234561D01*
X35749000Y-94687199D01*
X35749000Y-78430805D01*
X35957318Y-78569999D01*
X36251924Y-78628600D01*
X36251929Y-78628600D01*
X36351399Y-78648386D01*
X36450870Y-78628600D01*
X37090000Y-78628600D01*
X37090001Y-92960603D01*
X36883466Y-93167138D01*
X36665000Y-93694561D01*
X36665000Y-94265439D01*
X36883466Y-94792862D01*
X37287138Y-95196534D01*
X37814561Y-95415000D01*
X38385439Y-95415000D01*
X38912862Y-95196534D01*
X39316534Y-94792862D01*
X39363525Y-94679417D01*
X39386136Y-94734005D01*
X39632255Y-94808139D01*
X40460395Y-93980000D01*
X39632255Y-93151861D01*
X39386136Y-93225995D01*
X39365126Y-93284448D01*
X39316534Y-93167138D01*
X39121651Y-92972255D01*
X39811861Y-92972255D01*
X40640000Y-93800395D01*
X41468139Y-92972255D01*
X41394005Y-92726136D01*
X40856777Y-92533035D01*
X40286546Y-92560222D01*
X39885995Y-92726136D01*
X39811861Y-92972255D01*
X39121651Y-92972255D01*
X39110000Y-92960604D01*
X39110000Y-78036955D01*
X39451322Y-77695633D01*
X39722720Y-77967031D01*
X40103126Y-78124600D01*
X40269199Y-78124600D01*
X42788600Y-80644002D01*
X42788601Y-88201688D01*
X42671169Y-88319120D01*
X42513600Y-88699526D01*
X42513600Y-89111274D01*
X42671169Y-89491680D01*
X42962320Y-89782831D01*
X43342726Y-89940400D01*
X43754474Y-89940400D01*
X44134880Y-89782831D01*
X44426031Y-89491680D01*
X44583600Y-89111274D01*
X44583600Y-88699526D01*
X44426031Y-88319120D01*
X44308600Y-88201689D01*
X44308600Y-80404046D01*
X44323488Y-80329199D01*
X44308600Y-80254352D01*
X44308600Y-80254348D01*
X44264504Y-80032663D01*
X44096529Y-79781271D01*
X44033073Y-79738871D01*
X41344000Y-77049799D01*
X41344000Y-76883726D01*
X41186431Y-76503320D01*
X40915033Y-76231922D01*
X42561456Y-74585500D01*
X44589489Y-74585500D01*
X44527569Y-74647420D01*
X44370000Y-75027826D01*
X44370000Y-75439574D01*
X44527569Y-75819980D01*
X44645001Y-75937412D01*
X44645000Y-85211653D01*
X44630112Y-85286500D01*
X44645000Y-85361347D01*
X44645000Y-85361351D01*
X44689096Y-85583036D01*
X44857071Y-85834429D01*
X44920530Y-85876831D01*
X48144500Y-89100802D01*
X48144500Y-89266874D01*
X48302069Y-89647280D01*
X48593220Y-89938431D01*
X48659368Y-89965830D01*
X46058302Y-92566897D01*
X46005439Y-92545000D01*
X45434561Y-92545000D01*
X44907138Y-92763466D01*
X44503466Y-93167138D01*
X44450000Y-93296216D01*
X44396534Y-93167138D01*
X43992862Y-92763466D01*
X43465439Y-92545000D01*
X42894561Y-92545000D01*
X42367138Y-92763466D01*
X41963466Y-93167138D01*
X41916475Y-93280583D01*
X41893864Y-93225995D01*
X41647745Y-93151861D01*
X40819605Y-93980000D01*
X41647745Y-94808139D01*
X41893864Y-94734005D01*
X41914874Y-94675552D01*
X41963466Y-94792862D01*
X42367138Y-95196534D01*
X42420001Y-95218431D01*
X42420000Y-100352249D01*
X40095784Y-102677000D01*
X39929826Y-102677000D01*
X39549420Y-102834569D01*
X39258269Y-103125720D01*
X39100700Y-103506126D01*
X39100700Y-103917874D01*
X39258269Y-104298280D01*
X39549420Y-104589431D01*
X39929826Y-104747000D01*
X40341574Y-104747000D01*
X40721980Y-104589431D01*
X41013131Y-104298280D01*
X41170700Y-103917874D01*
X41170700Y-103751687D01*
X43664511Y-101257304D01*
X43727929Y-101214929D01*
X43770353Y-101151437D01*
X43770384Y-101151406D01*
X43811347Y-101090085D01*
X43895904Y-100963537D01*
X43895913Y-100963492D01*
X43895937Y-100963456D01*
X43924046Y-100822060D01*
X43940000Y-100741852D01*
X43940000Y-100741804D01*
X43954888Y-100666912D01*
X43940000Y-100592110D01*
X43940000Y-98774561D01*
X51905000Y-98774561D01*
X51905000Y-99345439D01*
X52123466Y-99872862D01*
X52527138Y-100276534D01*
X52656216Y-100330000D01*
X52527138Y-100383466D01*
X52123466Y-100787138D01*
X51905000Y-101314561D01*
X51905000Y-101885439D01*
X52123466Y-102412862D01*
X52527138Y-102816534D01*
X53054561Y-103035000D01*
X53625439Y-103035000D01*
X54152862Y-102816534D01*
X54556534Y-102412862D01*
X54610000Y-102283784D01*
X54663466Y-102412862D01*
X55067138Y-102816534D01*
X55594561Y-103035000D01*
X56165439Y-103035000D01*
X56692862Y-102816534D01*
X57096534Y-102412862D01*
X57150000Y-102283784D01*
X57203466Y-102412862D01*
X57607138Y-102816534D01*
X58134561Y-103035000D01*
X58705439Y-103035000D01*
X59232862Y-102816534D01*
X59636534Y-102412862D01*
X59690000Y-102283784D01*
X59743466Y-102412862D01*
X60147138Y-102816534D01*
X60674561Y-103035000D01*
X61245439Y-103035000D01*
X61772862Y-102816534D01*
X62176534Y-102412862D01*
X62395000Y-101885439D01*
X62395000Y-101314561D01*
X62176534Y-100787138D01*
X61772862Y-100383466D01*
X61643784Y-100330000D01*
X61772862Y-100276534D01*
X62176534Y-99872862D01*
X62395000Y-99345439D01*
X62395000Y-98774561D01*
X62176534Y-98247138D01*
X61772862Y-97843466D01*
X61245439Y-97625000D01*
X60674561Y-97625000D01*
X60147138Y-97843466D01*
X59743466Y-98247138D01*
X59690000Y-98376216D01*
X59636534Y-98247138D01*
X59232862Y-97843466D01*
X58705439Y-97625000D01*
X58134561Y-97625000D01*
X57607138Y-97843466D01*
X57203466Y-98247138D01*
X57150000Y-98376216D01*
X57096534Y-98247138D01*
X56692862Y-97843466D01*
X56165439Y-97625000D01*
X55594561Y-97625000D01*
X55067138Y-97843466D01*
X54663466Y-98247138D01*
X54610000Y-98376216D01*
X54556534Y-98247138D01*
X54152862Y-97843466D01*
X53625439Y-97625000D01*
X53054561Y-97625000D01*
X52527138Y-97843466D01*
X52123466Y-98247138D01*
X51905000Y-98774561D01*
X43940000Y-98774561D01*
X43940000Y-95218430D01*
X43992862Y-95196534D01*
X44396534Y-94792862D01*
X44450000Y-94663784D01*
X44503466Y-94792862D01*
X44907138Y-95196534D01*
X45036216Y-95250000D01*
X44907138Y-95303466D01*
X44503466Y-95707138D01*
X44285000Y-96234561D01*
X44285000Y-96805439D01*
X44503466Y-97332862D01*
X44907138Y-97736534D01*
X45434561Y-97955000D01*
X46005439Y-97955000D01*
X46532862Y-97736534D01*
X46936534Y-97332862D01*
X46990000Y-97203784D01*
X47043466Y-97332862D01*
X47447138Y-97736534D01*
X47974561Y-97955000D01*
X48545439Y-97955000D01*
X49072862Y-97736534D01*
X49476534Y-97332862D01*
X49530000Y-97203784D01*
X49583466Y-97332862D01*
X49987138Y-97736534D01*
X50514561Y-97955000D01*
X51085439Y-97955000D01*
X51612862Y-97736534D01*
X52016534Y-97332862D01*
X52235000Y-96805439D01*
X52235000Y-96234561D01*
X52016534Y-95707138D01*
X51612862Y-95303466D01*
X51483784Y-95250000D01*
X51612862Y-95196534D01*
X52016534Y-94792862D01*
X52070000Y-94663784D01*
X52123466Y-94792862D01*
X52527138Y-95196534D01*
X53054561Y-95415000D01*
X53625439Y-95415000D01*
X54152862Y-95196534D01*
X54556534Y-94792862D01*
X54610000Y-94663784D01*
X54663466Y-94792862D01*
X55067138Y-95196534D01*
X55594561Y-95415000D01*
X56165439Y-95415000D01*
X56692862Y-95196534D01*
X57096534Y-94792862D01*
X57150000Y-94663784D01*
X57203466Y-94792862D01*
X57607138Y-95196534D01*
X58134561Y-95415000D01*
X58705439Y-95415000D01*
X59232862Y-95196534D01*
X59636534Y-94792862D01*
X59690000Y-94663784D01*
X59743466Y-94792862D01*
X60147138Y-95196534D01*
X60674561Y-95415000D01*
X61245439Y-95415000D01*
X61772862Y-95196534D01*
X62176534Y-94792862D01*
X62230000Y-94663784D01*
X62283466Y-94792862D01*
X62687138Y-95196534D01*
X63214561Y-95415000D01*
X63785439Y-95415000D01*
X64312862Y-95196534D01*
X64716534Y-94792862D01*
X64770000Y-94663784D01*
X64823466Y-94792862D01*
X65227138Y-95196534D01*
X65754561Y-95415000D01*
X66325439Y-95415000D01*
X66852862Y-95196534D01*
X67256534Y-94792862D01*
X67310000Y-94663784D01*
X67363466Y-94792862D01*
X67767138Y-95196534D01*
X68294561Y-95415000D01*
X68865439Y-95415000D01*
X69392862Y-95196534D01*
X69796534Y-94792862D01*
X69850000Y-94663784D01*
X69903466Y-94792862D01*
X70307138Y-95196534D01*
X70834561Y-95415000D01*
X71405439Y-95415000D01*
X71932862Y-95196534D01*
X72141651Y-94987745D01*
X72831861Y-94987745D01*
X72905995Y-95233864D01*
X73443223Y-95426965D01*
X74013454Y-95399778D01*
X74414005Y-95233864D01*
X74488139Y-94987745D01*
X73660000Y-94159605D01*
X72831861Y-94987745D01*
X72141651Y-94987745D01*
X72336534Y-94792862D01*
X72383525Y-94679417D01*
X72406136Y-94734005D01*
X72652255Y-94808139D01*
X73480395Y-93980000D01*
X72652255Y-93151861D01*
X72406136Y-93225995D01*
X72385126Y-93284448D01*
X72336534Y-93167138D01*
X72141651Y-92972255D01*
X72831861Y-92972255D01*
X73660000Y-93800395D01*
X74488139Y-92972255D01*
X74414005Y-92726136D01*
X73876777Y-92533035D01*
X73306546Y-92560222D01*
X72905995Y-92726136D01*
X72831861Y-92972255D01*
X72141651Y-92972255D01*
X71932862Y-92763466D01*
X71405439Y-92545000D01*
X70834561Y-92545000D01*
X70307138Y-92763466D01*
X69903466Y-93167138D01*
X69850000Y-93296216D01*
X69796534Y-93167138D01*
X69392862Y-92763466D01*
X68865439Y-92545000D01*
X68294561Y-92545000D01*
X67767138Y-92763466D01*
X67363466Y-93167138D01*
X67310000Y-93296216D01*
X67256534Y-93167138D01*
X66852862Y-92763466D01*
X66325439Y-92545000D01*
X65754561Y-92545000D01*
X65227138Y-92763466D01*
X64823466Y-93167138D01*
X64770000Y-93296216D01*
X64716534Y-93167138D01*
X64312862Y-92763466D01*
X63785439Y-92545000D01*
X63469802Y-92545000D01*
X65181803Y-90833000D01*
X66380989Y-90833000D01*
X66498420Y-90950431D01*
X66878826Y-91108000D01*
X67290574Y-91108000D01*
X67670980Y-90950431D01*
X67962131Y-90659280D01*
X68119700Y-90278874D01*
X68119700Y-90007001D01*
X69393871Y-91281173D01*
X69436271Y-91344629D01*
X69687663Y-91512604D01*
X69909348Y-91556700D01*
X69909352Y-91556700D01*
X69984200Y-91571588D01*
X70059048Y-91556700D01*
X92788497Y-91556700D01*
X91778302Y-92566896D01*
X91725439Y-92545000D01*
X91154561Y-92545000D01*
X90627138Y-92763466D01*
X90223466Y-93167138D01*
X90170000Y-93296216D01*
X90116534Y-93167138D01*
X89712862Y-92763466D01*
X89185439Y-92545000D01*
X88614561Y-92545000D01*
X88087138Y-92763466D01*
X87683466Y-93167138D01*
X87630000Y-93296216D01*
X87576534Y-93167138D01*
X87172862Y-92763466D01*
X86645439Y-92545000D01*
X86074561Y-92545000D01*
X85547138Y-92763466D01*
X85143466Y-93167138D01*
X85090000Y-93296216D01*
X85036534Y-93167138D01*
X84632862Y-92763466D01*
X84105439Y-92545000D01*
X83534561Y-92545000D01*
X83007138Y-92763466D01*
X82603466Y-93167138D01*
X82550000Y-93296216D01*
X82496534Y-93167138D01*
X82092862Y-92763466D01*
X81565439Y-92545000D01*
X80994561Y-92545000D01*
X80467138Y-92763466D01*
X80063466Y-93167138D01*
X80010000Y-93296216D01*
X79956534Y-93167138D01*
X79552862Y-92763466D01*
X79025439Y-92545000D01*
X78454561Y-92545000D01*
X77927138Y-92763466D01*
X77523466Y-93167138D01*
X77470000Y-93296216D01*
X77416534Y-93167138D01*
X77012862Y-92763466D01*
X76485439Y-92545000D01*
X75914561Y-92545000D01*
X75387138Y-92763466D01*
X74983466Y-93167138D01*
X74936475Y-93280583D01*
X74913864Y-93225995D01*
X74667745Y-93151861D01*
X73839605Y-93980000D01*
X74667745Y-94808139D01*
X74913864Y-94734005D01*
X74934874Y-94675552D01*
X74983466Y-94792862D01*
X75387138Y-95196534D01*
X75914561Y-95415000D01*
X76485439Y-95415000D01*
X77012862Y-95196534D01*
X77416534Y-94792862D01*
X77470000Y-94663784D01*
X77523466Y-94792862D01*
X77927138Y-95196534D01*
X78454561Y-95415000D01*
X79025439Y-95415000D01*
X79552862Y-95196534D01*
X79956534Y-94792862D01*
X80010000Y-94663784D01*
X80063466Y-94792862D01*
X80467138Y-95196534D01*
X80994561Y-95415000D01*
X81565439Y-95415000D01*
X82092862Y-95196534D01*
X82496534Y-94792862D01*
X82550000Y-94663784D01*
X82603466Y-94792862D01*
X83007138Y-95196534D01*
X83136216Y-95250000D01*
X83007138Y-95303466D01*
X82603466Y-95707138D01*
X82385000Y-96234561D01*
X82385000Y-96805439D01*
X82603466Y-97332862D01*
X83007138Y-97736534D01*
X83136216Y-97790000D01*
X83007138Y-97843466D01*
X82603466Y-98247138D01*
X82550000Y-98376216D01*
X82496534Y-98247138D01*
X82092862Y-97843466D01*
X81565439Y-97625000D01*
X80994561Y-97625000D01*
X80467138Y-97843466D01*
X80063466Y-98247138D01*
X80010000Y-98376216D01*
X79956534Y-98247138D01*
X79552862Y-97843466D01*
X79025439Y-97625000D01*
X78454561Y-97625000D01*
X77927138Y-97843466D01*
X77523466Y-98247138D01*
X77470000Y-98376216D01*
X77416534Y-98247138D01*
X77012862Y-97843466D01*
X76485439Y-97625000D01*
X75914561Y-97625000D01*
X75387138Y-97843466D01*
X74983466Y-98247138D01*
X74765000Y-98774561D01*
X74765000Y-99345439D01*
X74983466Y-99872862D01*
X75387138Y-100276534D01*
X75516216Y-100330000D01*
X75387138Y-100383466D01*
X74983466Y-100787138D01*
X74765000Y-101314561D01*
X74765000Y-101885439D01*
X74983466Y-102412862D01*
X75387138Y-102816534D01*
X75914561Y-103035000D01*
X76485439Y-103035000D01*
X77012862Y-102816534D01*
X77416534Y-102412862D01*
X77470000Y-102283784D01*
X77523466Y-102412862D01*
X77927138Y-102816534D01*
X78454561Y-103035000D01*
X79025439Y-103035000D01*
X79552862Y-102816534D01*
X79956534Y-102412862D01*
X80010000Y-102283784D01*
X80063466Y-102412862D01*
X80467138Y-102816534D01*
X80994561Y-103035000D01*
X81565439Y-103035000D01*
X82092862Y-102816534D01*
X82496534Y-102412862D01*
X82543525Y-102299417D01*
X82566136Y-102354005D01*
X82812255Y-102428139D01*
X83640395Y-101600000D01*
X82812255Y-100771861D01*
X82566136Y-100845995D01*
X82545126Y-100904448D01*
X82496534Y-100787138D01*
X82092862Y-100383466D01*
X81963784Y-100330000D01*
X82092862Y-100276534D01*
X82496534Y-99872862D01*
X82550000Y-99743784D01*
X82603466Y-99872862D01*
X83007138Y-100276534D01*
X83120583Y-100323525D01*
X83065995Y-100346136D01*
X82991861Y-100592255D01*
X83820000Y-101420395D01*
X84648139Y-100592255D01*
X84574005Y-100346136D01*
X84515552Y-100325126D01*
X84632862Y-100276534D01*
X85036534Y-99872862D01*
X85090000Y-99743784D01*
X85143466Y-99872862D01*
X85547138Y-100276534D01*
X85676216Y-100330000D01*
X85547138Y-100383466D01*
X85143466Y-100787138D01*
X85096475Y-100900583D01*
X85073864Y-100845995D01*
X84827745Y-100771861D01*
X83999605Y-101600000D01*
X84827745Y-102428139D01*
X85073864Y-102354005D01*
X85094874Y-102295552D01*
X85143466Y-102412862D01*
X85547138Y-102816534D01*
X86074561Y-103035000D01*
X86645439Y-103035000D01*
X87172862Y-102816534D01*
X87576534Y-102412862D01*
X87630000Y-102283784D01*
X87683466Y-102412862D01*
X88087138Y-102816534D01*
X88614561Y-103035000D01*
X89185439Y-103035000D01*
X89712862Y-102816534D01*
X90116534Y-102412862D01*
X90170000Y-102283784D01*
X90223466Y-102412862D01*
X90627138Y-102816534D01*
X91154561Y-103035000D01*
X91725439Y-103035000D01*
X92252862Y-102816534D01*
X92656534Y-102412862D01*
X92710000Y-102283784D01*
X92763466Y-102412862D01*
X93167138Y-102816534D01*
X93694561Y-103035000D01*
X94265439Y-103035000D01*
X94792862Y-102816534D01*
X95196534Y-102412862D01*
X95250000Y-102283784D01*
X95303466Y-102412862D01*
X95707138Y-102816534D01*
X96234561Y-103035000D01*
X96805439Y-103035000D01*
X97332862Y-102816534D01*
X97736534Y-102412862D01*
X97955000Y-101885439D01*
X97955000Y-101314561D01*
X97736534Y-100787138D01*
X97332862Y-100383466D01*
X97203784Y-100330000D01*
X97332862Y-100276534D01*
X97736534Y-99872862D01*
X97955000Y-99345439D01*
X97955000Y-98774561D01*
X97736534Y-98247138D01*
X97332862Y-97843466D01*
X96805439Y-97625000D01*
X96234561Y-97625000D01*
X95707138Y-97843466D01*
X95303466Y-98247138D01*
X95250000Y-98376216D01*
X95196534Y-98247138D01*
X94792862Y-97843466D01*
X94265439Y-97625000D01*
X93694561Y-97625000D01*
X93167138Y-97843466D01*
X92763466Y-98247138D01*
X92710000Y-98376216D01*
X92656534Y-98247138D01*
X92252862Y-97843466D01*
X91725439Y-97625000D01*
X91154561Y-97625000D01*
X90627138Y-97843466D01*
X90223466Y-98247138D01*
X90170000Y-98376216D01*
X90116534Y-98247138D01*
X89712862Y-97843466D01*
X89185439Y-97625000D01*
X88614561Y-97625000D01*
X88087138Y-97843466D01*
X87683466Y-98247138D01*
X87630000Y-98376216D01*
X87576534Y-98247138D01*
X87172862Y-97843466D01*
X86645439Y-97625000D01*
X86074561Y-97625000D01*
X85547138Y-97843466D01*
X85143466Y-98247138D01*
X85090000Y-98376216D01*
X85036534Y-98247138D01*
X84632862Y-97843466D01*
X84503784Y-97790000D01*
X84632862Y-97736534D01*
X85036534Y-97332862D01*
X85255000Y-96805439D01*
X85255000Y-96489802D01*
X85928371Y-97163173D01*
X85970771Y-97226629D01*
X86222163Y-97394604D01*
X86443848Y-97438700D01*
X86443852Y-97438700D01*
X86518699Y-97453588D01*
X86593546Y-97438700D01*
X104286217Y-97438700D01*
X97477803Y-104247000D01*
X88107742Y-104247000D01*
X88032890Y-104232112D01*
X87942896Y-104250014D01*
X87736363Y-104291096D01*
X87736358Y-104291099D01*
X87736354Y-104291100D01*
X87634028Y-104359474D01*
X87484971Y-104459071D01*
X87442568Y-104522532D01*
X85255000Y-106710152D01*
X85255000Y-106394561D01*
X85036534Y-105867138D01*
X84632862Y-105463466D01*
X84503784Y-105410000D01*
X84632862Y-105356534D01*
X85036534Y-104952862D01*
X85255000Y-104425439D01*
X85255000Y-103854561D01*
X85036534Y-103327138D01*
X84632862Y-102923466D01*
X84519417Y-102876475D01*
X84574005Y-102853864D01*
X84648139Y-102607745D01*
X83820000Y-101779605D01*
X82991861Y-102607745D01*
X83065995Y-102853864D01*
X83124448Y-102874874D01*
X83007138Y-102923466D01*
X82603466Y-103327138D01*
X82385000Y-103854561D01*
X82385000Y-104425439D01*
X82603466Y-104952862D01*
X83007138Y-105356534D01*
X83136216Y-105410000D01*
X83007138Y-105463466D01*
X82603466Y-105867138D01*
X82385000Y-106394561D01*
X82385000Y-106965439D01*
X82603466Y-107492862D01*
X83007138Y-107896534D01*
X83136216Y-107950000D01*
X83007138Y-108003466D01*
X82603466Y-108407138D01*
X82550000Y-108536216D01*
X82496534Y-108407138D01*
X82092862Y-108003466D01*
X81565439Y-107785000D01*
X80994561Y-107785000D01*
X80467138Y-108003466D01*
X80063466Y-108407138D01*
X80010000Y-108536216D01*
X79956534Y-108407138D01*
X79552862Y-108003466D01*
X79025439Y-107785000D01*
X78454561Y-107785000D01*
X77927138Y-108003466D01*
X77523466Y-108407138D01*
X77470000Y-108536216D01*
X77416534Y-108407138D01*
X77012862Y-108003466D01*
X76485439Y-107785000D01*
X75914561Y-107785000D01*
X75387138Y-108003466D01*
X74983466Y-108407138D01*
X74930000Y-108536216D01*
X74876534Y-108407138D01*
X74472862Y-108003466D01*
X73945439Y-107785000D01*
X73374561Y-107785000D01*
X72847138Y-108003466D01*
X72443466Y-108407138D01*
X72390000Y-108536216D01*
X72336534Y-108407138D01*
X71932862Y-108003466D01*
X71405439Y-107785000D01*
X70834561Y-107785000D01*
X70307138Y-108003466D01*
X69903466Y-108407138D01*
X69850000Y-108536216D01*
X69796534Y-108407138D01*
X69392862Y-108003466D01*
X68865439Y-107785000D01*
X68294561Y-107785000D01*
X67767138Y-108003466D01*
X67363466Y-108407138D01*
X67310000Y-108536216D01*
X67256534Y-108407138D01*
X66852862Y-108003466D01*
X66325439Y-107785000D01*
X65754561Y-107785000D01*
X65227138Y-108003466D01*
X64823466Y-108407138D01*
X64770000Y-108536216D01*
X64716534Y-108407138D01*
X64312862Y-108003466D01*
X63785439Y-107785000D01*
X63214561Y-107785000D01*
X62687138Y-108003466D01*
X62283466Y-108407138D01*
X62230000Y-108536216D01*
X62176534Y-108407138D01*
X61772862Y-108003466D01*
X61245439Y-107785000D01*
X60674561Y-107785000D01*
X60147138Y-108003466D01*
X59743466Y-108407138D01*
X59690000Y-108536216D01*
X59636534Y-108407138D01*
X59232862Y-108003466D01*
X58705439Y-107785000D01*
X58134561Y-107785000D01*
X57607138Y-108003466D01*
X57203466Y-108407138D01*
X57150000Y-108536216D01*
X57096534Y-108407138D01*
X56692862Y-108003466D01*
X56165439Y-107785000D01*
X55594561Y-107785000D01*
X55067138Y-108003466D01*
X54663466Y-108407138D01*
X54610000Y-108536216D01*
X54556534Y-108407138D01*
X54152862Y-108003466D01*
X53625439Y-107785000D01*
X53054561Y-107785000D01*
X52527138Y-108003466D01*
X52123466Y-108407138D01*
X52070000Y-108536216D01*
X52016534Y-108407138D01*
X51612862Y-108003466D01*
X51085439Y-107785000D01*
X50514561Y-107785000D01*
X49987138Y-108003466D01*
X49583466Y-108407138D01*
X49530000Y-108536216D01*
X49476534Y-108407138D01*
X49072862Y-108003466D01*
X48545439Y-107785000D01*
X47974561Y-107785000D01*
X47447138Y-108003466D01*
X47043466Y-108407138D01*
X46990000Y-108536216D01*
X46936534Y-108407138D01*
X46532862Y-108003466D01*
X46005439Y-107785000D01*
X45434561Y-107785000D01*
X44907138Y-108003466D01*
X44503466Y-108407138D01*
X44450000Y-108536216D01*
X44396534Y-108407138D01*
X43992862Y-108003466D01*
X43465439Y-107785000D01*
X42894561Y-107785000D01*
X42367138Y-108003466D01*
X41963466Y-108407138D01*
X41910000Y-108536216D01*
X41856534Y-108407138D01*
X41452862Y-108003466D01*
X40925439Y-107785000D01*
X40354561Y-107785000D01*
X39827138Y-108003466D01*
X39535000Y-108295604D01*
X39535000Y-108293690D01*
X39438327Y-108060301D01*
X39259698Y-107881673D01*
X39026309Y-107785000D01*
X38385750Y-107785000D01*
X38227000Y-107943750D01*
X38227000Y-109093000D01*
X38247000Y-109093000D01*
X38247000Y-109347000D01*
X38227000Y-109347000D01*
X38227000Y-109367000D01*
X37973000Y-109367000D01*
X37973000Y-109347000D01*
X37953000Y-109347000D01*
X37953000Y-109093000D01*
X37973000Y-109093000D01*
X37973000Y-107943750D01*
X37814250Y-107785000D01*
X37173691Y-107785000D01*
X36940302Y-107881673D01*
X36761673Y-108060301D01*
X36665000Y-108293690D01*
X36665000Y-108934250D01*
X36823748Y-109092998D01*
X36667600Y-109092998D01*
X35229753Y-107655152D01*
X35292000Y-107504874D01*
X35292000Y-107093126D01*
X35134431Y-106712720D01*
X34843280Y-106421569D01*
X34462874Y-106264000D01*
X34051126Y-106264000D01*
X33670720Y-106421569D01*
X33379569Y-106712720D01*
X33222000Y-107093126D01*
X33222000Y-107504874D01*
X33379569Y-107885280D01*
X33539376Y-108045087D01*
X33541096Y-108053736D01*
X33709071Y-108305129D01*
X33772530Y-108347531D01*
X37694473Y-112269476D01*
X37736871Y-112332929D01*
X37800324Y-112375327D01*
X37800326Y-112375329D01*
X37885141Y-112432000D01*
X37988263Y-112500904D01*
X38209948Y-112545000D01*
X38209952Y-112545000D01*
X38284799Y-112559888D01*
X38359646Y-112545000D01*
X53848189Y-112545000D01*
X53965620Y-112662431D01*
X54346026Y-112820000D01*
X54757774Y-112820000D01*
X55138180Y-112662431D01*
X55429331Y-112371280D01*
X55586900Y-111990874D01*
X55586900Y-111579126D01*
X55429331Y-111198720D01*
X55138180Y-110907569D01*
X54757774Y-110750000D01*
X54346026Y-110750000D01*
X53965620Y-110907569D01*
X53848189Y-111025000D01*
X38599603Y-111025000D01*
X38227002Y-110652399D01*
X38227002Y-110496252D01*
X38385750Y-110655000D01*
X39026309Y-110655000D01*
X39259698Y-110558327D01*
X39438327Y-110379699D01*
X39535000Y-110146310D01*
X39535000Y-110144396D01*
X39827138Y-110436534D01*
X40354561Y-110655000D01*
X40925439Y-110655000D01*
X41452862Y-110436534D01*
X41856534Y-110032862D01*
X41910000Y-109903784D01*
X41963466Y-110032862D01*
X42367138Y-110436534D01*
X42894561Y-110655000D01*
X43465439Y-110655000D01*
X43992862Y-110436534D01*
X44396534Y-110032862D01*
X44450000Y-109903784D01*
X44503466Y-110032862D01*
X44907138Y-110436534D01*
X45434561Y-110655000D01*
X46005439Y-110655000D01*
X46532862Y-110436534D01*
X46936534Y-110032862D01*
X46990000Y-109903784D01*
X47043466Y-110032862D01*
X47447138Y-110436534D01*
X47974561Y-110655000D01*
X48545439Y-110655000D01*
X49072862Y-110436534D01*
X49476534Y-110032862D01*
X49530000Y-109903784D01*
X49583466Y-110032862D01*
X49987138Y-110436534D01*
X50514561Y-110655000D01*
X51085439Y-110655000D01*
X51612862Y-110436534D01*
X52016534Y-110032862D01*
X52070000Y-109903784D01*
X52123466Y-110032862D01*
X52527138Y-110436534D01*
X53054561Y-110655000D01*
X53625439Y-110655000D01*
X54152862Y-110436534D01*
X54556534Y-110032862D01*
X54610000Y-109903784D01*
X54663466Y-110032862D01*
X55067138Y-110436534D01*
X55594561Y-110655000D01*
X56165439Y-110655000D01*
X56692862Y-110436534D01*
X57096534Y-110032862D01*
X57150000Y-109903784D01*
X57203466Y-110032862D01*
X57607138Y-110436534D01*
X58134561Y-110655000D01*
X58705439Y-110655000D01*
X59232862Y-110436534D01*
X59636534Y-110032862D01*
X59690000Y-109903784D01*
X59743466Y-110032862D01*
X60147138Y-110436534D01*
X60674561Y-110655000D01*
X61245439Y-110655000D01*
X61298286Y-110633110D01*
X64255102Y-113590000D01*
X18490000Y-113590000D01*
X18490000Y-108695866D01*
X20225000Y-108695866D01*
X20225000Y-109744134D01*
X20626155Y-110712608D01*
X21367392Y-111453845D01*
X22335866Y-111855000D01*
X23384134Y-111855000D01*
X24352608Y-111453845D01*
X25093845Y-110712608D01*
X25495000Y-109744134D01*
X25495000Y-108695866D01*
X25093845Y-107727392D01*
X24352608Y-106986155D01*
X23384134Y-106585000D01*
X22335866Y-106585000D01*
X21367392Y-106986155D01*
X20626155Y-107727392D01*
X20225000Y-108695866D01*
X18490000Y-108695866D01*
X18490000Y-61716526D01*
X25850700Y-61716526D01*
X25850700Y-62128274D01*
X26008269Y-62508680D01*
X26125700Y-62626111D01*
X26125701Y-71720848D01*
X26110812Y-71795700D01*
X26155400Y-72019859D01*
X26155400Y-72306274D01*
X26312969Y-72686680D01*
X26604120Y-72977831D01*
X26984526Y-73135400D01*
X27396274Y-73135400D01*
X27776680Y-72977831D01*
X28067831Y-72686680D01*
X28225400Y-72306274D01*
X28225400Y-71894526D01*
X28067831Y-71514120D01*
X27776680Y-71222969D01*
X27645700Y-71168715D01*
X27645700Y-66801126D01*
X31285900Y-66801126D01*
X31285900Y-67212874D01*
X31443469Y-67593280D01*
X31734620Y-67884431D01*
X32115026Y-68042000D01*
X32526774Y-68042000D01*
X32907180Y-67884431D01*
X33198331Y-67593280D01*
X33355900Y-67212874D01*
X33355900Y-66801126D01*
X33198331Y-66420720D01*
X33080900Y-66303289D01*
X33080900Y-61875638D01*
X33437980Y-61727731D01*
X33729131Y-61436580D01*
X33886700Y-61056174D01*
X33886700Y-60644426D01*
X33729131Y-60264020D01*
X33437980Y-59972869D01*
X33057574Y-59815300D01*
X32645826Y-59815300D01*
X32265420Y-59972869D01*
X31974269Y-60264020D01*
X31816700Y-60644426D01*
X31816700Y-60803952D01*
X31772971Y-60833171D01*
X31604996Y-61084564D01*
X31560900Y-61306249D01*
X31560900Y-61306253D01*
X31546012Y-61381100D01*
X31560900Y-61455947D01*
X31560901Y-66303288D01*
X31443469Y-66420720D01*
X31285900Y-66801126D01*
X27645700Y-66801126D01*
X27645700Y-62626111D01*
X27763131Y-62508680D01*
X27920700Y-62128274D01*
X27920700Y-61716526D01*
X27763131Y-61336120D01*
X27471980Y-61044969D01*
X27091574Y-60887400D01*
X26679826Y-60887400D01*
X26299420Y-61044969D01*
X26008269Y-61336120D01*
X25850700Y-61716526D01*
X18490000Y-61716526D01*
X18490000Y-54737000D01*
X230430000Y-54737000D01*
X230430001Y-113590000D01*
G36*
X151439001Y-78791545D02*
X151439000Y-79137344D01*
X137786161Y-92790184D01*
X137701832Y-92846531D01*
X137645485Y-92930860D01*
X137645482Y-92930863D01*
X137499654Y-93149112D01*
X137478602Y-93180618D01*
X137429099Y-93429488D01*
X137400214Y-93574700D01*
X137420001Y-93674175D01*
X137420001Y-93724440D01*
X137282235Y-93751843D01*
X137072191Y-93892191D01*
X136931843Y-94102235D01*
X136882560Y-94350000D01*
X136882560Y-96150000D01*
X136931843Y-96397765D01*
X137072191Y-96607809D01*
X137282235Y-96748157D01*
X137328498Y-96757359D01*
X137192034Y-96882424D01*
X136938954Y-97425258D01*
X137059003Y-97663000D01*
X138303000Y-97663000D01*
X138303000Y-97643000D01*
X138557000Y-97643000D01*
X138557000Y-97663000D01*
X138577000Y-97663000D01*
X138577000Y-97917000D01*
X138557000Y-97917000D01*
X138557000Y-97937000D01*
X138303000Y-97937000D01*
X138303000Y-97917000D01*
X137059003Y-97917000D01*
X136938954Y-98154742D01*
X137192034Y-98697576D01*
X137579174Y-99052376D01*
X137323327Y-99223327D01*
X137258732Y-99320000D01*
X136854470Y-99320000D01*
X136754999Y-99300214D01*
X136655528Y-99320000D01*
X136655524Y-99320000D01*
X136360918Y-99378601D01*
X136026831Y-99601831D01*
X135970483Y-99686162D01*
X125331463Y-110325182D01*
X125150582Y-110361161D01*
X124659375Y-110689375D01*
X124618867Y-110750000D01*
X124301133Y-110750000D01*
X124260625Y-110689375D01*
X123769418Y-110361161D01*
X123336256Y-110275000D01*
X123043744Y-110275000D01*
X122610582Y-110361161D01*
X122119375Y-110689375D01*
X122078867Y-110750000D01*
X121761133Y-110750000D01*
X121720625Y-110689375D01*
X121229418Y-110361161D01*
X120796256Y-110275000D01*
X120503744Y-110275000D01*
X120070582Y-110361161D01*
X119579375Y-110689375D01*
X119366157Y-111008478D01*
X119305183Y-110878642D01*
X118876924Y-110488355D01*
X118466890Y-110318524D01*
X118237000Y-110439845D01*
X118237000Y-111633000D01*
X118257000Y-111633000D01*
X118257000Y-111887000D01*
X118237000Y-111887000D01*
X118237000Y-111907000D01*
X117983000Y-111907000D01*
X117983000Y-111887000D01*
X117963000Y-111887000D01*
X117963000Y-111633000D01*
X117983000Y-111633000D01*
X117983000Y-110439845D01*
X117753110Y-110318524D01*
X117343076Y-110488355D01*
X116914817Y-110878642D01*
X116853843Y-111008478D01*
X116640625Y-110689375D01*
X116149418Y-110361161D01*
X115716256Y-110275000D01*
X115423744Y-110275000D01*
X114990582Y-110361161D01*
X114499375Y-110689375D01*
X114300000Y-110987761D01*
X114100625Y-110689375D01*
X113920632Y-110569108D01*
X119241502Y-105247309D01*
X119304929Y-105204929D01*
X119347347Y-105141446D01*
X119347371Y-105141422D01*
X119388213Y-105080286D01*
X119472904Y-104953537D01*
X119472911Y-104953502D01*
X119472929Y-104953475D01*
X119500569Y-104814456D01*
X119517000Y-104731852D01*
X119517000Y-104731814D01*
X119531888Y-104656933D01*
X119517000Y-104582120D01*
X119517000Y-102606711D01*
X119634431Y-102489280D01*
X119792000Y-102108874D01*
X119792000Y-101697126D01*
X119634431Y-101316720D01*
X119343280Y-101025569D01*
X118962874Y-100868000D01*
X118551126Y-100868000D01*
X118170720Y-101025569D01*
X117879569Y-101316720D01*
X117760000Y-101605386D01*
X117760000Y-98354407D01*
X117798613Y-98412195D01*
X117830654Y-98460151D01*
X117830661Y-98460158D01*
X117873071Y-98523629D01*
X117936519Y-98566023D01*
X122085664Y-102715462D01*
X122128071Y-102778929D01*
X122251268Y-102861247D01*
X122379437Y-102946893D01*
X122379451Y-102946896D01*
X122379463Y-102946904D01*
X122546074Y-102980045D01*
X122675972Y-103005888D01*
X122750834Y-102991000D01*
X126025104Y-102991000D01*
X126099902Y-103005888D01*
X126174799Y-102991000D01*
X126174852Y-102991000D01*
X126254271Y-102975203D01*
X126396446Y-102946941D01*
X126396486Y-102946914D01*
X126396537Y-102946904D01*
X126525428Y-102860782D01*
X126584398Y-102821390D01*
X126584431Y-102821357D01*
X126647929Y-102778929D01*
X126690303Y-102715512D01*
X129970746Y-99435900D01*
X130119145Y-99435900D01*
X130193984Y-99450788D01*
X130268840Y-99435900D01*
X130268852Y-99435900D01*
X130366726Y-99416432D01*
X130490522Y-99391810D01*
X130490528Y-99391806D01*
X130490537Y-99391804D01*
X130632279Y-99297095D01*
X130678460Y-99266239D01*
X130678464Y-99266235D01*
X130741929Y-99223829D01*
X130784326Y-99160377D01*
X151355530Y-78590029D01*
X151439001Y-78791545D01*
X151439001Y-78791545D01*
G37*
X151439001Y-78791545D02*
X151439000Y-79137344D01*
X137786161Y-92790184D01*
X137701832Y-92846531D01*
X137645485Y-92930860D01*
X137645482Y-92930863D01*
X137499654Y-93149112D01*
X137478602Y-93180618D01*
X137429099Y-93429488D01*
X137400214Y-93574700D01*
X137420001Y-93674175D01*
X137420001Y-93724440D01*
X137282235Y-93751843D01*
X137072191Y-93892191D01*
X136931843Y-94102235D01*
X136882560Y-94350000D01*
X136882560Y-96150000D01*
X136931843Y-96397765D01*
X137072191Y-96607809D01*
X137282235Y-96748157D01*
X137328498Y-96757359D01*
X137192034Y-96882424D01*
X136938954Y-97425258D01*
X137059003Y-97663000D01*
X138303000Y-97663000D01*
X138303000Y-97643000D01*
X138557000Y-97643000D01*
X138557000Y-97663000D01*
X138577000Y-97663000D01*
X138577000Y-97917000D01*
X138557000Y-97917000D01*
X138557000Y-97937000D01*
X138303000Y-97937000D01*
X138303000Y-97917000D01*
X137059003Y-97917000D01*
X136938954Y-98154742D01*
X137192034Y-98697576D01*
X137579174Y-99052376D01*
X137323327Y-99223327D01*
X137258732Y-99320000D01*
X136854470Y-99320000D01*
X136754999Y-99300214D01*
X136655528Y-99320000D01*
X136655524Y-99320000D01*
X136360918Y-99378601D01*
X136026831Y-99601831D01*
X135970483Y-99686162D01*
X125331463Y-110325182D01*
X125150582Y-110361161D01*
X124659375Y-110689375D01*
X124618867Y-110750000D01*
X124301133Y-110750000D01*
X124260625Y-110689375D01*
X123769418Y-110361161D01*
X123336256Y-110275000D01*
X123043744Y-110275000D01*
X122610582Y-110361161D01*
X122119375Y-110689375D01*
X122078867Y-110750000D01*
X121761133Y-110750000D01*
X121720625Y-110689375D01*
X121229418Y-110361161D01*
X120796256Y-110275000D01*
X120503744Y-110275000D01*
X120070582Y-110361161D01*
X119579375Y-110689375D01*
X119366157Y-111008478D01*
X119305183Y-110878642D01*
X118876924Y-110488355D01*
X118466890Y-110318524D01*
X118237000Y-110439845D01*
X118237000Y-111633000D01*
X118257000Y-111633000D01*
X118257000Y-111887000D01*
X118237000Y-111887000D01*
X118237000Y-111907000D01*
X117983000Y-111907000D01*
X117983000Y-111887000D01*
X117963000Y-111887000D01*
X117963000Y-111633000D01*
X117983000Y-111633000D01*
X117983000Y-110439845D01*
X117753110Y-110318524D01*
X117343076Y-110488355D01*
X116914817Y-110878642D01*
X116853843Y-111008478D01*
X116640625Y-110689375D01*
X116149418Y-110361161D01*
X115716256Y-110275000D01*
X115423744Y-110275000D01*
X114990582Y-110361161D01*
X114499375Y-110689375D01*
X114300000Y-110987761D01*
X114100625Y-110689375D01*
X113920632Y-110569108D01*
X119241502Y-105247309D01*
X119304929Y-105204929D01*
X119347347Y-105141446D01*
X119347371Y-105141422D01*
X119388213Y-105080286D01*
X119472904Y-104953537D01*
X119472911Y-104953502D01*
X119472929Y-104953475D01*
X119500569Y-104814456D01*
X119517000Y-104731852D01*
X119517000Y-104731814D01*
X119531888Y-104656933D01*
X119517000Y-104582120D01*
X119517000Y-102606711D01*
X119634431Y-102489280D01*
X119792000Y-102108874D01*
X119792000Y-101697126D01*
X119634431Y-101316720D01*
X119343280Y-101025569D01*
X118962874Y-100868000D01*
X118551126Y-100868000D01*
X118170720Y-101025569D01*
X117879569Y-101316720D01*
X117760000Y-101605386D01*
X117760000Y-98354407D01*
X117798613Y-98412195D01*
X117830654Y-98460151D01*
X117830661Y-98460158D01*
X117873071Y-98523629D01*
X117936519Y-98566023D01*
X122085664Y-102715462D01*
X122128071Y-102778929D01*
X122251268Y-102861247D01*
X122379437Y-102946893D01*
X122379451Y-102946896D01*
X122379463Y-102946904D01*
X122546074Y-102980045D01*
X122675972Y-103005888D01*
X122750834Y-102991000D01*
X126025104Y-102991000D01*
X126099902Y-103005888D01*
X126174799Y-102991000D01*
X126174852Y-102991000D01*
X126254271Y-102975203D01*
X126396446Y-102946941D01*
X126396486Y-102946914D01*
X126396537Y-102946904D01*
X126525428Y-102860782D01*
X126584398Y-102821390D01*
X126584431Y-102821357D01*
X126647929Y-102778929D01*
X126690303Y-102715512D01*
X129970746Y-99435900D01*
X130119145Y-99435900D01*
X130193984Y-99450788D01*
X130268840Y-99435900D01*
X130268852Y-99435900D01*
X130366726Y-99416432D01*
X130490522Y-99391810D01*
X130490528Y-99391806D01*
X130490537Y-99391804D01*
X130632279Y-99297095D01*
X130678460Y-99266239D01*
X130678464Y-99266235D01*
X130741929Y-99223829D01*
X130784326Y-99160377D01*
X151355530Y-78590029D01*
X151439001Y-78791545D01*
G36*
X195887638Y-101860000D02*
X189851854Y-101860000D01*
X189731367Y-101739513D01*
X189394553Y-101600000D01*
X189731367Y-101460487D01*
X190106487Y-101085367D01*
X190309500Y-100595250D01*
X190309500Y-100064750D01*
X190106487Y-99574633D01*
X189731367Y-99199513D01*
X189394553Y-99060000D01*
X189731367Y-98920487D01*
X190106487Y-98545367D01*
X190309500Y-98055250D01*
X190309500Y-97524750D01*
X190106487Y-97034633D01*
X189731367Y-96659513D01*
X189241250Y-96456500D01*
X188710750Y-96456500D01*
X188220633Y-96659513D01*
X187845513Y-97034633D01*
X187642500Y-97524750D01*
X187642500Y-98055250D01*
X187845513Y-98545367D01*
X188220633Y-98920487D01*
X188557447Y-99060000D01*
X188220633Y-99199513D01*
X187845513Y-99574633D01*
X187642500Y-100064750D01*
X187642500Y-100595250D01*
X187845513Y-101085367D01*
X188220633Y-101460487D01*
X188557447Y-101600000D01*
X188220633Y-101739513D01*
X188100146Y-101860000D01*
X184288000Y-101860000D01*
X184288000Y-94545657D01*
X184307786Y-94446170D01*
X184271831Y-94265439D01*
X184229399Y-94052118D01*
X184229390Y-94052105D01*
X184229387Y-94052089D01*
X184108179Y-93870700D01*
X202243289Y-93870700D01*
X202360720Y-93988131D01*
X202741126Y-94145700D01*
X203152874Y-94145700D01*
X203533280Y-93988131D01*
X203824431Y-93696980D01*
X203982000Y-93316574D01*
X203982000Y-92904826D01*
X203824431Y-92524420D01*
X203533280Y-92233269D01*
X203152874Y-92075700D01*
X202741126Y-92075700D01*
X202360720Y-92233269D01*
X202243289Y-92350700D01*
X183750801Y-92350700D01*
X180864186Y-89464100D01*
X208283244Y-89464100D01*
X195887638Y-101860000D01*
X195887638Y-101860000D01*
G37*
X195887638Y-101860000D02*
X189851854Y-101860000D01*
X189731367Y-101739513D01*
X189394553Y-101600000D01*
X189731367Y-101460487D01*
X190106487Y-101085367D01*
X190309500Y-100595250D01*
X190309500Y-100064750D01*
X190106487Y-99574633D01*
X189731367Y-99199513D01*
X189394553Y-99060000D01*
X189731367Y-98920487D01*
X190106487Y-98545367D01*
X190309500Y-98055250D01*
X190309500Y-97524750D01*
X190106487Y-97034633D01*
X189731367Y-96659513D01*
X189241250Y-96456500D01*
X188710750Y-96456500D01*
X188220633Y-96659513D01*
X187845513Y-97034633D01*
X187642500Y-97524750D01*
X187642500Y-98055250D01*
X187845513Y-98545367D01*
X188220633Y-98920487D01*
X188557447Y-99060000D01*
X188220633Y-99199513D01*
X187845513Y-99574633D01*
X187642500Y-100064750D01*
X187642500Y-100595250D01*
X187845513Y-101085367D01*
X188220633Y-101460487D01*
X188557447Y-101600000D01*
X188220633Y-101739513D01*
X188100146Y-101860000D01*
X184288000Y-101860000D01*
X184288000Y-94545657D01*
X184307786Y-94446170D01*
X184271831Y-94265439D01*
X184229399Y-94052118D01*
X184229390Y-94052105D01*
X184229387Y-94052089D01*
X184108179Y-93870700D01*
X202243289Y-93870700D01*
X202360720Y-93988131D01*
X202741126Y-94145700D01*
X203152874Y-94145700D01*
X203533280Y-93988131D01*
X203824431Y-93696980D01*
X203982000Y-93316574D01*
X203982000Y-92904826D01*
X203824431Y-92524420D01*
X203533280Y-92233269D01*
X203152874Y-92075700D01*
X202741126Y-92075700D01*
X202360720Y-92233269D01*
X202243289Y-92350700D01*
X183750801Y-92350700D01*
X180864186Y-89464100D01*
X208283244Y-89464100D01*
X195887638Y-101860000D01*
G36*
X74505034Y-62647800D02*
X74956566Y-62647800D01*
X75011015Y-62625247D01*
X76257593Y-63871753D01*
X76313931Y-63956069D01*
X76398251Y-64012410D01*
X77912300Y-65526539D01*
X77912301Y-76276154D01*
X77787300Y-76577934D01*
X77787300Y-77029466D01*
X77903542Y-77310100D01*
X73294852Y-77310100D01*
X73220000Y-77295211D01*
X73145148Y-77310100D01*
X72220502Y-77310100D01*
X70224100Y-75313699D01*
X70224100Y-75147626D01*
X70066531Y-74767220D01*
X69775380Y-74476069D01*
X69394974Y-74318500D01*
X68983226Y-74318500D01*
X68602820Y-74476069D01*
X68311669Y-74767220D01*
X68154100Y-75147626D01*
X68154100Y-75559374D01*
X68311669Y-75939780D01*
X68602820Y-76230931D01*
X68983226Y-76388500D01*
X69149299Y-76388500D01*
X71315371Y-78554573D01*
X71357771Y-78618029D01*
X71609163Y-78786004D01*
X71830848Y-78830100D01*
X71830852Y-78830100D01*
X71905700Y-78844988D01*
X71980548Y-78830100D01*
X72460001Y-78830100D01*
X72460000Y-85228353D01*
X72445112Y-85303200D01*
X72460000Y-85378047D01*
X72460000Y-85378051D01*
X72504096Y-85599736D01*
X72592939Y-85732700D01*
X53282146Y-85732700D01*
X53207299Y-85717812D01*
X53132452Y-85732700D01*
X53132448Y-85732700D01*
X52910763Y-85776796D01*
X52659371Y-85944771D01*
X52616971Y-86008227D01*
X50084330Y-88540868D01*
X50056931Y-88474720D01*
X49765780Y-88183569D01*
X49385374Y-88026000D01*
X49219302Y-88026000D01*
X46165000Y-84971699D01*
X46165000Y-75937411D01*
X46282431Y-75819980D01*
X46440000Y-75439574D01*
X46440000Y-75027826D01*
X46282431Y-74647420D01*
X46220511Y-74585500D01*
X52370124Y-74585500D01*
X52469600Y-74605287D01*
X52471295Y-74604950D01*
X55694093Y-77827749D01*
X55819093Y-78129526D01*
X56138374Y-78448807D01*
X56255837Y-78497461D01*
X49933999Y-84819300D01*
X48993211Y-84819300D01*
X48875780Y-84701869D01*
X48495374Y-84544300D01*
X48083626Y-84544300D01*
X47703220Y-84701869D01*
X47412069Y-84993020D01*
X47254500Y-85373426D01*
X47254500Y-85785174D01*
X47412069Y-86165580D01*
X47703220Y-86456731D01*
X48083626Y-86614300D01*
X48495374Y-86614300D01*
X48875780Y-86456731D01*
X48993211Y-86339300D01*
X50173953Y-86339300D01*
X50248800Y-86354188D01*
X50323647Y-86339300D01*
X50323652Y-86339300D01*
X50545337Y-86295204D01*
X50796729Y-86127229D01*
X50839131Y-86063770D01*
X63669476Y-73233427D01*
X63732929Y-73191029D01*
X63775327Y-73127576D01*
X63775329Y-73127574D01*
X63873285Y-72980971D01*
X63900904Y-72939637D01*
X63926909Y-72808902D01*
X64062431Y-72673380D01*
X64220000Y-72292974D01*
X64220000Y-71881226D01*
X64062431Y-71500820D01*
X63771280Y-71209669D01*
X63390874Y-71052100D01*
X62979126Y-71052100D01*
X62598720Y-71209669D01*
X62307569Y-71500820D01*
X62150000Y-71881226D01*
X62150000Y-72292974D01*
X62240891Y-72512406D01*
X57792161Y-76961136D01*
X57743507Y-76843674D01*
X57424226Y-76524393D01*
X57122449Y-76399393D01*
X53654718Y-72931663D01*
X53598369Y-72847331D01*
X53479600Y-72767972D01*
X53479600Y-63315400D01*
X57462829Y-63315400D01*
X57562300Y-63335186D01*
X57661771Y-63315400D01*
X57661776Y-63315400D01*
X57956382Y-63256799D01*
X58290469Y-63033569D01*
X58346818Y-62949237D01*
X58373347Y-62922708D01*
X58559743Y-62845500D01*
X63077829Y-62845500D01*
X63177300Y-62865286D01*
X63276771Y-62845500D01*
X63276776Y-62845500D01*
X63571382Y-62786899D01*
X63867292Y-62589178D01*
X64027543Y-62522800D01*
X74203257Y-62522800D01*
X74505034Y-62647800D01*
X74505034Y-62647800D01*
G37*
X74505034Y-62647800D02*
X74956566Y-62647800D01*
X75011015Y-62625247D01*
X76257593Y-63871753D01*
X76313931Y-63956069D01*
X76398251Y-64012410D01*
X77912300Y-65526539D01*
X77912301Y-76276154D01*
X77787300Y-76577934D01*
X77787300Y-77029466D01*
X77903542Y-77310100D01*
X73294852Y-77310100D01*
X73220000Y-77295211D01*
X73145148Y-77310100D01*
X72220502Y-77310100D01*
X70224100Y-75313699D01*
X70224100Y-75147626D01*
X70066531Y-74767220D01*
X69775380Y-74476069D01*
X69394974Y-74318500D01*
X68983226Y-74318500D01*
X68602820Y-74476069D01*
X68311669Y-74767220D01*
X68154100Y-75147626D01*
X68154100Y-75559374D01*
X68311669Y-75939780D01*
X68602820Y-76230931D01*
X68983226Y-76388500D01*
X69149299Y-76388500D01*
X71315371Y-78554573D01*
X71357771Y-78618029D01*
X71609163Y-78786004D01*
X71830848Y-78830100D01*
X71830852Y-78830100D01*
X71905700Y-78844988D01*
X71980548Y-78830100D01*
X72460001Y-78830100D01*
X72460000Y-85228353D01*
X72445112Y-85303200D01*
X72460000Y-85378047D01*
X72460000Y-85378051D01*
X72504096Y-85599736D01*
X72592939Y-85732700D01*
X53282146Y-85732700D01*
X53207299Y-85717812D01*
X53132452Y-85732700D01*
X53132448Y-85732700D01*
X52910763Y-85776796D01*
X52659371Y-85944771D01*
X52616971Y-86008227D01*
X50084330Y-88540868D01*
X50056931Y-88474720D01*
X49765780Y-88183569D01*
X49385374Y-88026000D01*
X49219302Y-88026000D01*
X46165000Y-84971699D01*
X46165000Y-75937411D01*
X46282431Y-75819980D01*
X46440000Y-75439574D01*
X46440000Y-75027826D01*
X46282431Y-74647420D01*
X46220511Y-74585500D01*
X52370124Y-74585500D01*
X52469600Y-74605287D01*
X52471295Y-74604950D01*
X55694093Y-77827749D01*
X55819093Y-78129526D01*
X56138374Y-78448807D01*
X56255837Y-78497461D01*
X49933999Y-84819300D01*
X48993211Y-84819300D01*
X48875780Y-84701869D01*
X48495374Y-84544300D01*
X48083626Y-84544300D01*
X47703220Y-84701869D01*
X47412069Y-84993020D01*
X47254500Y-85373426D01*
X47254500Y-85785174D01*
X47412069Y-86165580D01*
X47703220Y-86456731D01*
X48083626Y-86614300D01*
X48495374Y-86614300D01*
X48875780Y-86456731D01*
X48993211Y-86339300D01*
X50173953Y-86339300D01*
X50248800Y-86354188D01*
X50323647Y-86339300D01*
X50323652Y-86339300D01*
X50545337Y-86295204D01*
X50796729Y-86127229D01*
X50839131Y-86063770D01*
X63669476Y-73233427D01*
X63732929Y-73191029D01*
X63775327Y-73127576D01*
X63775329Y-73127574D01*
X63873285Y-72980971D01*
X63900904Y-72939637D01*
X63926909Y-72808902D01*
X64062431Y-72673380D01*
X64220000Y-72292974D01*
X64220000Y-71881226D01*
X64062431Y-71500820D01*
X63771280Y-71209669D01*
X63390874Y-71052100D01*
X62979126Y-71052100D01*
X62598720Y-71209669D01*
X62307569Y-71500820D01*
X62150000Y-71881226D01*
X62150000Y-72292974D01*
X62240891Y-72512406D01*
X57792161Y-76961136D01*
X57743507Y-76843674D01*
X57424226Y-76524393D01*
X57122449Y-76399393D01*
X53654718Y-72931663D01*
X53598369Y-72847331D01*
X53479600Y-72767972D01*
X53479600Y-63315400D01*
X57462829Y-63315400D01*
X57562300Y-63335186D01*
X57661771Y-63315400D01*
X57661776Y-63315400D01*
X57956382Y-63256799D01*
X58290469Y-63033569D01*
X58346818Y-62949237D01*
X58373347Y-62922708D01*
X58559743Y-62845500D01*
X63077829Y-62845500D01*
X63177300Y-62865286D01*
X63276771Y-62845500D01*
X63276776Y-62845500D01*
X63571382Y-62786899D01*
X63867292Y-62589178D01*
X64027543Y-62522800D01*
X74203257Y-62522800D01*
X74505034Y-62647800D01*
G36*
X209330000Y-60985574D02*
X209487569Y-61365980D01*
X209605000Y-61483411D01*
X209605001Y-66117069D01*
X209577720Y-66128369D01*
X209286569Y-66419520D01*
X209129000Y-66799926D01*
X209129000Y-67211674D01*
X209286569Y-67592080D01*
X209577720Y-67883231D01*
X209958126Y-68040800D01*
X210369874Y-68040800D01*
X210750280Y-67883231D01*
X211041431Y-67592080D01*
X211199000Y-67211674D01*
X211199000Y-66799926D01*
X211125000Y-66621274D01*
X211125000Y-61483411D01*
X211242431Y-61365980D01*
X211400000Y-60985574D01*
X211400000Y-60598500D01*
X215292594Y-60598500D01*
X216363748Y-61669839D01*
X216488793Y-61971726D01*
X216808074Y-62291007D01*
X217109802Y-62415986D01*
X217593033Y-62899256D01*
X217302569Y-63189720D01*
X217145000Y-63570126D01*
X217145000Y-63981874D01*
X217302569Y-64362280D01*
X217420000Y-64479711D01*
X217420001Y-72941288D01*
X217287569Y-73073720D01*
X217130000Y-73454126D01*
X217130000Y-73865874D01*
X217287569Y-74246280D01*
X217578720Y-74537431D01*
X217959126Y-74695000D01*
X218370874Y-74695000D01*
X218751280Y-74537431D01*
X219042431Y-74246280D01*
X219200000Y-73865874D01*
X219200000Y-73454126D01*
X219042431Y-73073720D01*
X218940000Y-72971289D01*
X218940000Y-64479711D01*
X219056685Y-64363026D01*
X222660000Y-67966633D01*
X222660000Y-69450189D01*
X222479280Y-69269469D01*
X222098874Y-69111900D01*
X221687126Y-69111900D01*
X221306720Y-69269469D01*
X221015569Y-69560620D01*
X220858000Y-69941026D01*
X220858000Y-70352774D01*
X221015569Y-70733180D01*
X221133000Y-70850611D01*
X221133001Y-75513407D01*
X217462176Y-79184400D01*
X217296126Y-79184400D01*
X216915720Y-79341969D01*
X216624569Y-79633120D01*
X216467000Y-80013526D01*
X216467000Y-80425274D01*
X216624569Y-80805680D01*
X216915720Y-81096831D01*
X217296126Y-81254400D01*
X217707874Y-81254400D01*
X218088280Y-81096831D01*
X218379431Y-80805680D01*
X218537000Y-80425274D01*
X218537000Y-80259179D01*
X222377481Y-76418523D01*
X222440929Y-76376129D01*
X222483333Y-76312667D01*
X222483340Y-76312660D01*
X222529151Y-76244096D01*
X222608904Y-76124737D01*
X222608906Y-76124728D01*
X222608910Y-76124722D01*
X222635150Y-75992788D01*
X222653000Y-75903052D01*
X222653000Y-75903039D01*
X222660001Y-75867840D01*
X222660001Y-77743454D01*
X222535000Y-78045234D01*
X222535000Y-78496766D01*
X222707793Y-78913926D01*
X223027074Y-79233207D01*
X223444234Y-79406000D01*
X223895766Y-79406000D01*
X223945900Y-79385234D01*
X223945900Y-80060698D01*
X215709155Y-88297444D01*
X215608000Y-88196289D01*
X215608000Y-86168702D01*
X215622888Y-86093808D01*
X215594854Y-85952958D01*
X215563904Y-85797363D01*
X215563877Y-85797322D01*
X215563868Y-85797278D01*
X215478996Y-85670289D01*
X215395929Y-85545971D01*
X215332437Y-85503547D01*
X214169305Y-84340691D01*
X214126929Y-84277271D01*
X214063434Y-84234845D01*
X214063403Y-84234814D01*
X214005205Y-84195938D01*
X213875537Y-84109296D01*
X213875488Y-84109286D01*
X213875452Y-84109262D01*
X213735511Y-84081443D01*
X213653852Y-84065200D01*
X213653802Y-84065200D01*
X213578909Y-84050312D01*
X213504108Y-84065200D01*
X213446000Y-84065200D01*
X213446000Y-75931000D01*
X213460888Y-75856310D01*
X213446000Y-75781306D01*
X213446000Y-75781148D01*
X213431032Y-75705898D01*
X213402022Y-75559750D01*
X213401935Y-75559620D01*
X213401904Y-75559463D01*
X213317404Y-75432999D01*
X213276523Y-75371764D01*
X213276415Y-75371656D01*
X213233929Y-75308071D01*
X213170600Y-75265756D01*
X213099000Y-75194099D01*
X213099000Y-75027626D01*
X212941431Y-74647220D01*
X212650280Y-74356069D01*
X212269874Y-74198500D01*
X211858126Y-74198500D01*
X211477720Y-74356069D01*
X211186569Y-74647220D01*
X211029000Y-75027626D01*
X211029000Y-75439374D01*
X211186569Y-75819780D01*
X211477720Y-76110931D01*
X211858126Y-76268500D01*
X211926001Y-76268500D01*
X211926000Y-84510393D01*
X208492204Y-87944100D01*
X207203566Y-87944100D01*
X207308000Y-87691974D01*
X207308000Y-87280226D01*
X207150431Y-86899820D01*
X206859280Y-86608669D01*
X206478874Y-86451100D01*
X206067126Y-86451100D01*
X205686720Y-86608669D01*
X205610889Y-86684500D01*
X200756000Y-86684500D01*
X200756000Y-78988735D01*
X200796234Y-79005400D01*
X201247766Y-79005400D01*
X201664926Y-78832607D01*
X201984207Y-78513326D01*
X202109468Y-78210920D01*
X202174045Y-78146279D01*
X202258169Y-78090069D01*
X202314658Y-78005527D01*
X202314834Y-78005351D01*
X202369586Y-77923322D01*
X202481399Y-77755982D01*
X202481449Y-77755729D01*
X202481592Y-77755515D01*
X202520374Y-77560040D01*
X202540000Y-77461376D01*
X202540000Y-77461121D01*
X202559786Y-77361394D01*
X202540000Y-77262178D01*
X202540000Y-71901426D01*
X203866000Y-71901426D01*
X203866000Y-72313174D01*
X204023569Y-72693580D01*
X204314720Y-72984731D01*
X204695126Y-73142300D01*
X205106874Y-73142300D01*
X205487280Y-72984731D01*
X205778431Y-72693580D01*
X205936000Y-72313174D01*
X205936000Y-71901426D01*
X205778431Y-71521020D01*
X205661000Y-71403589D01*
X205661000Y-65636065D01*
X206761884Y-64535000D01*
X206927874Y-64535000D01*
X207308280Y-64377431D01*
X207599431Y-64086280D01*
X207757000Y-63705874D01*
X207757000Y-63294126D01*
X207599431Y-62913720D01*
X207308280Y-62622569D01*
X206927874Y-62465000D01*
X206516126Y-62465000D01*
X206135720Y-62622569D01*
X205844569Y-62913720D01*
X205687000Y-63294126D01*
X205687000Y-63460280D01*
X204416499Y-64730990D01*
X204353072Y-64773371D01*
X204310656Y-64836851D01*
X204310631Y-64836876D01*
X204264922Y-64905297D01*
X204185097Y-65024763D01*
X204185091Y-65024794D01*
X204185072Y-65024822D01*
X204154786Y-65177148D01*
X204141001Y-65246448D01*
X204141001Y-65246478D01*
X204126112Y-65321363D01*
X204141001Y-65396183D01*
X204141000Y-71403589D01*
X204023569Y-71521020D01*
X203866000Y-71901426D01*
X202540000Y-71901426D01*
X202540000Y-68256575D01*
X202559787Y-68157100D01*
X202540000Y-68057624D01*
X202540000Y-65623382D01*
X206145088Y-62018632D01*
X206446926Y-61893607D01*
X206766207Y-61574326D01*
X206891384Y-61272120D01*
X207564553Y-60598500D01*
X209330000Y-60598500D01*
X209330000Y-60985574D01*
X209330000Y-60985574D01*
G37*
X209330000Y-60985574D02*
X209487569Y-61365980D01*
X209605000Y-61483411D01*
X209605001Y-66117069D01*
X209577720Y-66128369D01*
X209286569Y-66419520D01*
X209129000Y-66799926D01*
X209129000Y-67211674D01*
X209286569Y-67592080D01*
X209577720Y-67883231D01*
X209958126Y-68040800D01*
X210369874Y-68040800D01*
X210750280Y-67883231D01*
X211041431Y-67592080D01*
X211199000Y-67211674D01*
X211199000Y-66799926D01*
X211125000Y-66621274D01*
X211125000Y-61483411D01*
X211242431Y-61365980D01*
X211400000Y-60985574D01*
X211400000Y-60598500D01*
X215292594Y-60598500D01*
X216363748Y-61669839D01*
X216488793Y-61971726D01*
X216808074Y-62291007D01*
X217109802Y-62415986D01*
X217593033Y-62899256D01*
X217302569Y-63189720D01*
X217145000Y-63570126D01*
X217145000Y-63981874D01*
X217302569Y-64362280D01*
X217420000Y-64479711D01*
X217420001Y-72941288D01*
X217287569Y-73073720D01*
X217130000Y-73454126D01*
X217130000Y-73865874D01*
X217287569Y-74246280D01*
X217578720Y-74537431D01*
X217959126Y-74695000D01*
X218370874Y-74695000D01*
X218751280Y-74537431D01*
X219042431Y-74246280D01*
X219200000Y-73865874D01*
X219200000Y-73454126D01*
X219042431Y-73073720D01*
X218940000Y-72971289D01*
X218940000Y-64479711D01*
X219056685Y-64363026D01*
X222660000Y-67966633D01*
X222660000Y-69450189D01*
X222479280Y-69269469D01*
X222098874Y-69111900D01*
X221687126Y-69111900D01*
X221306720Y-69269469D01*
X221015569Y-69560620D01*
X220858000Y-69941026D01*
X220858000Y-70352774D01*
X221015569Y-70733180D01*
X221133000Y-70850611D01*
X221133001Y-75513407D01*
X217462176Y-79184400D01*
X217296126Y-79184400D01*
X216915720Y-79341969D01*
X216624569Y-79633120D01*
X216467000Y-80013526D01*
X216467000Y-80425274D01*
X216624569Y-80805680D01*
X216915720Y-81096831D01*
X217296126Y-81254400D01*
X217707874Y-81254400D01*
X218088280Y-81096831D01*
X218379431Y-80805680D01*
X218537000Y-80425274D01*
X218537000Y-80259179D01*
X222377481Y-76418523D01*
X222440929Y-76376129D01*
X222483333Y-76312667D01*
X222483340Y-76312660D01*
X222529151Y-76244096D01*
X222608904Y-76124737D01*
X222608906Y-76124728D01*
X222608910Y-76124722D01*
X222635150Y-75992788D01*
X222653000Y-75903052D01*
X222653000Y-75903039D01*
X222660001Y-75867840D01*
X222660001Y-77743454D01*
X222535000Y-78045234D01*
X222535000Y-78496766D01*
X222707793Y-78913926D01*
X223027074Y-79233207D01*
X223444234Y-79406000D01*
X223895766Y-79406000D01*
X223945900Y-79385234D01*
X223945900Y-80060698D01*
X215709155Y-88297444D01*
X215608000Y-88196289D01*
X215608000Y-86168702D01*
X215622888Y-86093808D01*
X215594854Y-85952958D01*
X215563904Y-85797363D01*
X215563877Y-85797322D01*
X215563868Y-85797278D01*
X215478996Y-85670289D01*
X215395929Y-85545971D01*
X215332437Y-85503547D01*
X214169305Y-84340691D01*
X214126929Y-84277271D01*
X214063434Y-84234845D01*
X214063403Y-84234814D01*
X214005205Y-84195938D01*
X213875537Y-84109296D01*
X213875488Y-84109286D01*
X213875452Y-84109262D01*
X213735511Y-84081443D01*
X213653852Y-84065200D01*
X213653802Y-84065200D01*
X213578909Y-84050312D01*
X213504108Y-84065200D01*
X213446000Y-84065200D01*
X213446000Y-75931000D01*
X213460888Y-75856310D01*
X213446000Y-75781306D01*
X213446000Y-75781148D01*
X213431032Y-75705898D01*
X213402022Y-75559750D01*
X213401935Y-75559620D01*
X213401904Y-75559463D01*
X213317404Y-75432999D01*
X213276523Y-75371764D01*
X213276415Y-75371656D01*
X213233929Y-75308071D01*
X213170600Y-75265756D01*
X213099000Y-75194099D01*
X213099000Y-75027626D01*
X212941431Y-74647220D01*
X212650280Y-74356069D01*
X212269874Y-74198500D01*
X211858126Y-74198500D01*
X211477720Y-74356069D01*
X211186569Y-74647220D01*
X211029000Y-75027626D01*
X211029000Y-75439374D01*
X211186569Y-75819780D01*
X211477720Y-76110931D01*
X211858126Y-76268500D01*
X211926001Y-76268500D01*
X211926000Y-84510393D01*
X208492204Y-87944100D01*
X207203566Y-87944100D01*
X207308000Y-87691974D01*
X207308000Y-87280226D01*
X207150431Y-86899820D01*
X206859280Y-86608669D01*
X206478874Y-86451100D01*
X206067126Y-86451100D01*
X205686720Y-86608669D01*
X205610889Y-86684500D01*
X200756000Y-86684500D01*
X200756000Y-78988735D01*
X200796234Y-79005400D01*
X201247766Y-79005400D01*
X201664926Y-78832607D01*
X201984207Y-78513326D01*
X202109468Y-78210920D01*
X202174045Y-78146279D01*
X202258169Y-78090069D01*
X202314658Y-78005527D01*
X202314834Y-78005351D01*
X202369586Y-77923322D01*
X202481399Y-77755982D01*
X202481449Y-77755729D01*
X202481592Y-77755515D01*
X202520374Y-77560040D01*
X202540000Y-77461376D01*
X202540000Y-77461121D01*
X202559786Y-77361394D01*
X202540000Y-77262178D01*
X202540000Y-71901426D01*
X203866000Y-71901426D01*
X203866000Y-72313174D01*
X204023569Y-72693580D01*
X204314720Y-72984731D01*
X204695126Y-73142300D01*
X205106874Y-73142300D01*
X205487280Y-72984731D01*
X205778431Y-72693580D01*
X205936000Y-72313174D01*
X205936000Y-71901426D01*
X205778431Y-71521020D01*
X205661000Y-71403589D01*
X205661000Y-65636065D01*
X206761884Y-64535000D01*
X206927874Y-64535000D01*
X207308280Y-64377431D01*
X207599431Y-64086280D01*
X207757000Y-63705874D01*
X207757000Y-63294126D01*
X207599431Y-62913720D01*
X207308280Y-62622569D01*
X206927874Y-62465000D01*
X206516126Y-62465000D01*
X206135720Y-62622569D01*
X205844569Y-62913720D01*
X205687000Y-63294126D01*
X205687000Y-63460280D01*
X204416499Y-64730990D01*
X204353072Y-64773371D01*
X204310656Y-64836851D01*
X204310631Y-64836876D01*
X204264922Y-64905297D01*
X204185097Y-65024763D01*
X204185091Y-65024794D01*
X204185072Y-65024822D01*
X204154786Y-65177148D01*
X204141001Y-65246448D01*
X204141001Y-65246478D01*
X204126112Y-65321363D01*
X204141001Y-65396183D01*
X204141000Y-71403589D01*
X204023569Y-71521020D01*
X203866000Y-71901426D01*
X202540000Y-71901426D01*
X202540000Y-68256575D01*
X202559787Y-68157100D01*
X202540000Y-68057624D01*
X202540000Y-65623382D01*
X206145088Y-62018632D01*
X206446926Y-61893607D01*
X206766207Y-61574326D01*
X206891384Y-61272120D01*
X207564553Y-60598500D01*
X209330000Y-60598500D01*
X209330000Y-60985574D01*
G36*
X205462426Y-59844369D02*
X205161074Y-59969193D01*
X204841793Y-60288474D01*
X204716818Y-60590192D01*
X200886182Y-64420470D01*
X200801832Y-64476831D01*
X200695462Y-64636025D01*
X200578620Y-64810873D01*
X200578615Y-64810899D01*
X200578602Y-64810918D01*
X200540300Y-65003475D01*
X200500214Y-65204952D01*
X200520001Y-65304453D01*
X200520000Y-67147100D01*
X199743000Y-67147100D01*
X199743000Y-66754026D01*
X199585431Y-66373620D01*
X199468000Y-66256189D01*
X199468000Y-63668762D01*
X201340668Y-61796600D01*
X201506874Y-61796600D01*
X201887280Y-61639031D01*
X202178431Y-61347880D01*
X202336000Y-60967474D01*
X202336000Y-60555726D01*
X202178431Y-60175320D01*
X201887280Y-59884169D01*
X201506874Y-59726600D01*
X201095126Y-59726600D01*
X200714720Y-59884169D01*
X200423569Y-60175320D01*
X200266000Y-60555726D01*
X200266000Y-60721663D01*
X198223569Y-62763544D01*
X198160072Y-62805971D01*
X198077896Y-62928956D01*
X197992137Y-63057267D01*
X197992127Y-63057318D01*
X197992097Y-63057363D01*
X197963048Y-63203404D01*
X197933112Y-63353796D01*
X197948001Y-63428700D01*
X197948000Y-66256189D01*
X197851233Y-66352956D01*
X194238000Y-62739651D01*
X194238000Y-61413143D01*
X194363000Y-61111366D01*
X194363000Y-60659834D01*
X194190207Y-60242674D01*
X193870926Y-59923393D01*
X193453766Y-59750600D01*
X193002234Y-59750600D01*
X192700457Y-59875600D01*
X182327543Y-59875600D01*
X182025766Y-59750600D01*
X181574234Y-59750600D01*
X181157074Y-59923393D01*
X180837793Y-60242674D01*
X180806261Y-60318800D01*
X170754543Y-60318800D01*
X170452766Y-60193800D01*
X170001234Y-60193800D01*
X169699457Y-60318800D01*
X158606543Y-60318800D01*
X158304766Y-60193800D01*
X157853234Y-60193800D01*
X157551457Y-60318800D01*
X153105670Y-60318800D01*
X153006399Y-60299014D01*
X152906726Y-60318800D01*
X152906524Y-60318800D01*
X152807054Y-60338586D01*
X152612287Y-60377249D01*
X152612119Y-60377361D01*
X152611918Y-60377401D01*
X152444202Y-60489465D01*
X152362467Y-60544033D01*
X152362328Y-60544172D01*
X152313796Y-60576600D01*
X149162459Y-60576600D01*
X148980301Y-60394377D01*
X148855207Y-60092374D01*
X148535926Y-59773093D01*
X148118766Y-59600300D01*
X147667234Y-59600300D01*
X147250074Y-59773093D01*
X146930793Y-60092374D01*
X146758000Y-60509534D01*
X146758000Y-60961066D01*
X146930793Y-61378226D01*
X147250074Y-61697507D01*
X147551628Y-61822415D01*
X147959433Y-62230363D01*
X148015831Y-62314769D01*
X148182105Y-62425870D01*
X148349749Y-62537929D01*
X148349841Y-62537947D01*
X148349918Y-62537999D01*
X148550265Y-62577851D01*
X148743818Y-62616386D01*
X148843381Y-62596600D01*
X151915267Y-62596600D01*
X152105074Y-62786407D01*
X152522234Y-62959200D01*
X152973766Y-62959200D01*
X153390926Y-62786407D01*
X153710207Y-62467126D01*
X153763361Y-62338800D01*
X157551457Y-62338800D01*
X157853234Y-62463800D01*
X158304766Y-62463800D01*
X158606543Y-62338800D01*
X169699457Y-62338800D01*
X170001234Y-62463800D01*
X170452766Y-62463800D01*
X170754543Y-62338800D01*
X181257644Y-62338800D01*
X181357232Y-62358586D01*
X181549637Y-62320269D01*
X181751082Y-62280199D01*
X181751183Y-62280132D01*
X181751297Y-62280109D01*
X181916146Y-62169906D01*
X182085169Y-62056969D01*
X182141502Y-61972661D01*
X182327543Y-61895600D01*
X192218001Y-61895600D01*
X192218000Y-63058524D01*
X192198214Y-63157990D01*
X192218000Y-63257466D01*
X192218000Y-63257475D01*
X192248843Y-63412533D01*
X192276598Y-63552073D01*
X192276600Y-63552076D01*
X192276601Y-63552081D01*
X192376205Y-63701149D01*
X192443476Y-63801829D01*
X192443479Y-63801832D01*
X192499831Y-63886169D01*
X192584160Y-63942516D01*
X197442481Y-68800935D01*
X197498831Y-68885269D01*
X197636284Y-68977112D01*
X197832907Y-69108494D01*
X197832912Y-69108495D01*
X197832918Y-69108499D01*
X198100231Y-69161671D01*
X198226989Y-69186886D01*
X198326465Y-69167100D01*
X200049800Y-69167100D01*
X199758720Y-69287669D01*
X199467569Y-69578820D01*
X199310000Y-69959226D01*
X199310000Y-70125318D01*
X192482521Y-76953076D01*
X192419072Y-76995471D01*
X192376668Y-77058933D01*
X192376661Y-77058940D01*
X192344394Y-77107234D01*
X192251097Y-77246863D01*
X192251095Y-77246872D01*
X192251091Y-77246878D01*
X192221571Y-77395302D01*
X192207001Y-77468548D01*
X192207001Y-77468555D01*
X192192112Y-77543415D01*
X192207001Y-77618259D01*
X192207000Y-82173289D01*
X192118006Y-82262283D01*
X178473335Y-68617236D01*
X178430929Y-68553771D01*
X178258411Y-68438498D01*
X178179547Y-68385801D01*
X178179543Y-68385800D01*
X178179537Y-68385796D01*
X177957852Y-68341700D01*
X177883010Y-68326812D01*
X177808157Y-68341700D01*
X137850848Y-68341700D01*
X137776002Y-68326812D01*
X137701154Y-68341700D01*
X137701148Y-68341700D01*
X137479463Y-68385796D01*
X137228071Y-68553771D01*
X137185672Y-68617225D01*
X134151562Y-71651318D01*
X134096431Y-71518220D01*
X133979000Y-71400789D01*
X133979000Y-66118120D01*
X135649761Y-64447500D01*
X135815874Y-64447500D01*
X136196280Y-64289931D01*
X136487431Y-63998780D01*
X136645000Y-63618374D01*
X136645000Y-63206626D01*
X136487431Y-62826220D01*
X136196280Y-62535069D01*
X135815874Y-62377500D01*
X135404126Y-62377500D01*
X135023720Y-62535069D01*
X134732569Y-62826220D01*
X134575000Y-63206626D01*
X134575000Y-63372656D01*
X132734542Y-65212961D01*
X132671071Y-65255371D01*
X132587256Y-65380810D01*
X132503109Y-65506733D01*
X132503106Y-65506749D01*
X132503096Y-65506764D01*
X132470521Y-65670531D01*
X132444112Y-65803268D01*
X132459000Y-65878132D01*
X132459001Y-71400788D01*
X132341569Y-71518220D01*
X132184000Y-71898626D01*
X132184000Y-72310374D01*
X132341569Y-72690780D01*
X132632720Y-72981931D01*
X132765813Y-73037060D01*
X120033000Y-85769800D01*
X120033000Y-85506926D01*
X119875431Y-85126520D01*
X119584280Y-84835369D01*
X119203874Y-84677800D01*
X118792126Y-84677800D01*
X118411720Y-84835369D01*
X118294289Y-84952800D01*
X117083911Y-84952800D01*
X116712000Y-84580708D01*
X116712000Y-72792011D01*
X116800406Y-72703605D01*
X120458691Y-76361203D01*
X120501071Y-76424629D01*
X120564557Y-76467049D01*
X120564583Y-76467075D01*
X120628195Y-76509570D01*
X120752463Y-76592604D01*
X120752499Y-76592611D01*
X120752530Y-76592632D01*
X120896513Y-76621257D01*
X120974148Y-76636700D01*
X120974188Y-76636700D01*
X121049073Y-76651588D01*
X121123884Y-76636700D01*
X124977289Y-76636700D01*
X125094720Y-76754131D01*
X125475126Y-76911700D01*
X125886874Y-76911700D01*
X126267280Y-76754131D01*
X126558431Y-76462980D01*
X126716000Y-76082574D01*
X126716000Y-75670826D01*
X126558431Y-75290420D01*
X126267280Y-74999269D01*
X125886874Y-74841700D01*
X125475126Y-74841700D01*
X125094720Y-74999269D01*
X124977289Y-75116700D01*
X121363760Y-75116700D01*
X118114075Y-71867626D01*
X120319000Y-71867626D01*
X120319000Y-72279374D01*
X120476569Y-72659780D01*
X120767720Y-72950931D01*
X121148126Y-73108500D01*
X121559874Y-73108500D01*
X121940280Y-72950931D01*
X122231431Y-72659780D01*
X122389000Y-72279374D01*
X122389000Y-72113379D01*
X123131450Y-71371044D01*
X123194929Y-71328629D01*
X123275342Y-71208283D01*
X123362881Y-71077293D01*
X123362887Y-71077262D01*
X123362904Y-71077237D01*
X123394253Y-70919637D01*
X123421888Y-70780760D01*
X123407000Y-70705881D01*
X123407000Y-66789326D01*
X127016000Y-66789326D01*
X127016000Y-67201074D01*
X127173569Y-67581480D01*
X127464720Y-67872631D01*
X127845126Y-68030200D01*
X128256874Y-68030200D01*
X128637280Y-67872631D01*
X128928431Y-67581480D01*
X129086000Y-67201074D01*
X129086000Y-66789326D01*
X128928431Y-66408920D01*
X128811000Y-66291489D01*
X128811000Y-63222680D01*
X130225848Y-61807700D01*
X130391874Y-61807700D01*
X130772280Y-61650131D01*
X131063431Y-61358980D01*
X131221000Y-60978574D01*
X131221000Y-60566826D01*
X131063431Y-60186420D01*
X130772280Y-59895269D01*
X130391874Y-59737700D01*
X129980126Y-59737700D01*
X129599720Y-59895269D01*
X129308569Y-60186420D01*
X129151000Y-60566826D01*
X129151000Y-60732945D01*
X127566510Y-62317583D01*
X127503072Y-62359971D01*
X127460664Y-62423439D01*
X127460648Y-62423455D01*
X127416765Y-62489138D01*
X127335097Y-62611363D01*
X127335093Y-62611382D01*
X127335083Y-62611397D01*
X127305496Y-62760179D01*
X127291001Y-62833048D01*
X127291001Y-62833066D01*
X127276112Y-62907936D01*
X127291001Y-62982770D01*
X127291000Y-66291489D01*
X127173569Y-66408920D01*
X127016000Y-66789326D01*
X123407000Y-66789326D01*
X123407000Y-65563511D01*
X123524431Y-65446080D01*
X123682000Y-65065674D01*
X123682000Y-64653926D01*
X123524431Y-64273520D01*
X123233280Y-63982369D01*
X122852874Y-63824800D01*
X122441126Y-63824800D01*
X122060720Y-63982369D01*
X121769569Y-64273520D01*
X121612000Y-64653926D01*
X121612000Y-65065674D01*
X121769569Y-65446080D01*
X121887000Y-65563511D01*
X121887001Y-70465863D01*
X121314275Y-71038500D01*
X121148126Y-71038500D01*
X120767720Y-71196069D01*
X120476569Y-71487220D01*
X120319000Y-71867626D01*
X118114075Y-71867626D01*
X116854309Y-70608097D01*
X116811929Y-70544671D01*
X116748443Y-70502251D01*
X116748417Y-70502225D01*
X116687639Y-70461623D01*
X116560537Y-70376696D01*
X116560498Y-70376688D01*
X116560469Y-70376669D01*
X116421839Y-70349107D01*
X116338852Y-70332600D01*
X116338811Y-70332600D01*
X116263928Y-70317712D01*
X116189117Y-70332600D01*
X115024850Y-70332600D01*
X114950006Y-70317712D01*
X114875155Y-70332600D01*
X114875148Y-70332600D01*
X114745912Y-70358307D01*
X114653468Y-70376694D01*
X114653466Y-70376695D01*
X114653463Y-70376696D01*
X114576541Y-70428094D01*
X114465532Y-70502267D01*
X114465530Y-70502269D01*
X114402071Y-70544671D01*
X114359673Y-70608124D01*
X111092883Y-73874857D01*
X111125904Y-73825438D01*
X111135779Y-73775792D01*
X111170000Y-73603752D01*
X111170000Y-73603748D01*
X111184888Y-73528900D01*
X111170000Y-73454052D01*
X111170000Y-65767111D01*
X111287431Y-65649680D01*
X111445000Y-65269274D01*
X111445000Y-64857526D01*
X111287431Y-64477120D01*
X110996280Y-64185969D01*
X110615874Y-64028400D01*
X110204126Y-64028400D01*
X109823720Y-64185969D01*
X109532569Y-64477120D01*
X109375000Y-64857526D01*
X109375000Y-65269274D01*
X109532569Y-65649680D01*
X109650000Y-65767111D01*
X109650001Y-73214097D01*
X108681199Y-74182900D01*
X108515126Y-74182900D01*
X108134720Y-74340469D01*
X107843569Y-74631620D01*
X107686000Y-75012026D01*
X107686000Y-75178103D01*
X99444193Y-83420000D01*
X99278126Y-83420000D01*
X98897720Y-83577569D01*
X98606569Y-83868720D01*
X98449000Y-84249126D01*
X98449000Y-84660874D01*
X98606569Y-85041280D01*
X98897720Y-85332431D01*
X99278126Y-85490000D01*
X99477537Y-85490000D01*
X98442865Y-86524654D01*
X98180380Y-86262169D01*
X97799974Y-86104600D01*
X97633902Y-86104600D01*
X95419500Y-83890199D01*
X95419500Y-81146026D01*
X97235600Y-81146026D01*
X97235600Y-81557774D01*
X97393169Y-81938180D01*
X97684320Y-82229331D01*
X98064726Y-82386900D01*
X98476474Y-82386900D01*
X98856880Y-82229331D01*
X99148031Y-81938180D01*
X99305600Y-81557774D01*
X99305600Y-81391688D01*
X102342476Y-78354727D01*
X102405929Y-78312329D01*
X102448333Y-78248867D01*
X102448335Y-78248865D01*
X102471117Y-78214769D01*
X102573904Y-78060937D01*
X102573905Y-78060931D01*
X102573907Y-78060928D01*
X102597830Y-77940651D01*
X102618000Y-77839252D01*
X102618000Y-77839242D01*
X102632888Y-77764390D01*
X102618000Y-77689548D01*
X102618000Y-74447411D01*
X102735431Y-74329980D01*
X102893000Y-73949574D01*
X102893000Y-73537826D01*
X102735431Y-73157420D01*
X102444280Y-72866269D01*
X102063874Y-72708700D01*
X101652126Y-72708700D01*
X101271720Y-72866269D01*
X100980569Y-73157420D01*
X100823000Y-73537826D01*
X100823000Y-73949574D01*
X100980569Y-74329980D01*
X101098001Y-74447412D01*
X101098000Y-77449604D01*
X98230784Y-80316900D01*
X98064726Y-80316900D01*
X97684320Y-80474469D01*
X97393169Y-80765620D01*
X97235600Y-81146026D01*
X95419500Y-81146026D01*
X95419500Y-77180211D01*
X95536931Y-77062780D01*
X95694500Y-76682374D01*
X95694500Y-76270626D01*
X95536931Y-75890220D01*
X95245780Y-75599069D01*
X94865374Y-75441500D01*
X94453626Y-75441500D01*
X94073220Y-75599069D01*
X93782069Y-75890220D01*
X93624500Y-76270626D01*
X93624500Y-76682374D01*
X93782069Y-77062780D01*
X93899501Y-77180212D01*
X93899500Y-84130153D01*
X93884612Y-84205000D01*
X93899500Y-84279847D01*
X93899500Y-84279851D01*
X93943596Y-84501536D01*
X94111571Y-84752929D01*
X94175030Y-84795331D01*
X96559100Y-87179402D01*
X96559100Y-87345474D01*
X96596390Y-87435500D01*
X91739100Y-87435500D01*
X91739100Y-87064326D01*
X91581531Y-86683920D01*
X91290380Y-86392769D01*
X90909974Y-86235200D01*
X90743902Y-86235200D01*
X83025200Y-78516499D01*
X83025200Y-74363711D01*
X83142631Y-74246280D01*
X83300200Y-73865874D01*
X83300200Y-73454126D01*
X83142631Y-73073720D01*
X83025200Y-72956289D01*
X83025200Y-63390848D01*
X83040088Y-63316000D01*
X83025200Y-63241152D01*
X83025200Y-63241148D01*
X82981104Y-63019463D01*
X82981104Y-63019462D01*
X82855529Y-62831527D01*
X82813129Y-62768071D01*
X82749673Y-62725671D01*
X81759128Y-61735126D01*
X84365900Y-61735126D01*
X84365900Y-62146874D01*
X84523469Y-62527280D01*
X84640900Y-62644711D01*
X84640901Y-70548248D01*
X84626012Y-70623100D01*
X84684997Y-70919637D01*
X84792013Y-71079797D01*
X84852972Y-71171029D01*
X84916428Y-71213429D01*
X86252600Y-72549602D01*
X86252600Y-72715674D01*
X86410169Y-73096080D01*
X86701320Y-73387231D01*
X87081726Y-73544800D01*
X87493474Y-73544800D01*
X87873880Y-73387231D01*
X88165031Y-73096080D01*
X88322600Y-72715674D01*
X88322600Y-72303926D01*
X88165031Y-71923520D01*
X87873880Y-71632369D01*
X87493474Y-71474800D01*
X87327402Y-71474800D01*
X86160900Y-70308299D01*
X86160900Y-62644711D01*
X86278331Y-62527280D01*
X86435900Y-62146874D01*
X86435900Y-61735126D01*
X86278331Y-61354720D01*
X85987180Y-61063569D01*
X85606774Y-60906000D01*
X85195026Y-60906000D01*
X84814620Y-61063569D01*
X84523469Y-61354720D01*
X84365900Y-61735126D01*
X81759128Y-61735126D01*
X79467401Y-59443400D01*
X205863126Y-59443400D01*
X205462426Y-59844369D01*
X205462426Y-59844369D01*
G37*
X205462426Y-59844369D02*
X205161074Y-59969193D01*
X204841793Y-60288474D01*
X204716818Y-60590192D01*
X200886182Y-64420470D01*
X200801832Y-64476831D01*
X200695462Y-64636025D01*
X200578620Y-64810873D01*
X200578615Y-64810899D01*
X200578602Y-64810918D01*
X200540300Y-65003475D01*
X200500214Y-65204952D01*
X200520001Y-65304453D01*
X200520000Y-67147100D01*
X199743000Y-67147100D01*
X199743000Y-66754026D01*
X199585431Y-66373620D01*
X199468000Y-66256189D01*
X199468000Y-63668762D01*
X201340668Y-61796600D01*
X201506874Y-61796600D01*
X201887280Y-61639031D01*
X202178431Y-61347880D01*
X202336000Y-60967474D01*
X202336000Y-60555726D01*
X202178431Y-60175320D01*
X201887280Y-59884169D01*
X201506874Y-59726600D01*
X201095126Y-59726600D01*
X200714720Y-59884169D01*
X200423569Y-60175320D01*
X200266000Y-60555726D01*
X200266000Y-60721663D01*
X198223569Y-62763544D01*
X198160072Y-62805971D01*
X198077896Y-62928956D01*
X197992137Y-63057267D01*
X197992127Y-63057318D01*
X197992097Y-63057363D01*
X197963048Y-63203404D01*
X197933112Y-63353796D01*
X197948001Y-63428700D01*
X197948000Y-66256189D01*
X197851233Y-66352956D01*
X194238000Y-62739651D01*
X194238000Y-61413143D01*
X194363000Y-61111366D01*
X194363000Y-60659834D01*
X194190207Y-60242674D01*
X193870926Y-59923393D01*
X193453766Y-59750600D01*
X193002234Y-59750600D01*
X192700457Y-59875600D01*
X182327543Y-59875600D01*
X182025766Y-59750600D01*
X181574234Y-59750600D01*
X181157074Y-59923393D01*
X180837793Y-60242674D01*
X180806261Y-60318800D01*
X170754543Y-60318800D01*
X170452766Y-60193800D01*
X170001234Y-60193800D01*
X169699457Y-60318800D01*
X158606543Y-60318800D01*
X158304766Y-60193800D01*
X157853234Y-60193800D01*
X157551457Y-60318800D01*
X153105670Y-60318800D01*
X153006399Y-60299014D01*
X152906726Y-60318800D01*
X152906524Y-60318800D01*
X152807054Y-60338586D01*
X152612287Y-60377249D01*
X152612119Y-60377361D01*
X152611918Y-60377401D01*
X152444202Y-60489465D01*
X152362467Y-60544033D01*
X152362328Y-60544172D01*
X152313796Y-60576600D01*
X149162459Y-60576600D01*
X148980301Y-60394377D01*
X148855207Y-60092374D01*
X148535926Y-59773093D01*
X148118766Y-59600300D01*
X147667234Y-59600300D01*
X147250074Y-59773093D01*
X146930793Y-60092374D01*
X146758000Y-60509534D01*
X146758000Y-60961066D01*
X146930793Y-61378226D01*
X147250074Y-61697507D01*
X147551628Y-61822415D01*
X147959433Y-62230363D01*
X148015831Y-62314769D01*
X148182105Y-62425870D01*
X148349749Y-62537929D01*
X148349841Y-62537947D01*
X148349918Y-62537999D01*
X148550265Y-62577851D01*
X148743818Y-62616386D01*
X148843381Y-62596600D01*
X151915267Y-62596600D01*
X152105074Y-62786407D01*
X152522234Y-62959200D01*
X152973766Y-62959200D01*
X153390926Y-62786407D01*
X153710207Y-62467126D01*
X153763361Y-62338800D01*
X157551457Y-62338800D01*
X157853234Y-62463800D01*
X158304766Y-62463800D01*
X158606543Y-62338800D01*
X169699457Y-62338800D01*
X170001234Y-62463800D01*
X170452766Y-62463800D01*
X170754543Y-62338800D01*
X181257644Y-62338800D01*
X181357232Y-62358586D01*
X181549637Y-62320269D01*
X181751082Y-62280199D01*
X181751183Y-62280132D01*
X181751297Y-62280109D01*
X181916146Y-62169906D01*
X182085169Y-62056969D01*
X182141502Y-61972661D01*
X182327543Y-61895600D01*
X192218001Y-61895600D01*
X192218000Y-63058524D01*
X192198214Y-63157990D01*
X192218000Y-63257466D01*
X192218000Y-63257475D01*
X192248843Y-63412533D01*
X192276598Y-63552073D01*
X192276600Y-63552076D01*
X192276601Y-63552081D01*
X192376205Y-63701149D01*
X192443476Y-63801829D01*
X192443479Y-63801832D01*
X192499831Y-63886169D01*
X192584160Y-63942516D01*
X197442481Y-68800935D01*
X197498831Y-68885269D01*
X197636284Y-68977112D01*
X197832907Y-69108494D01*
X197832912Y-69108495D01*
X197832918Y-69108499D01*
X198100231Y-69161671D01*
X198226989Y-69186886D01*
X198326465Y-69167100D01*
X200049800Y-69167100D01*
X199758720Y-69287669D01*
X199467569Y-69578820D01*
X199310000Y-69959226D01*
X199310000Y-70125318D01*
X192482521Y-76953076D01*
X192419072Y-76995471D01*
X192376668Y-77058933D01*
X192376661Y-77058940D01*
X192344394Y-77107234D01*
X192251097Y-77246863D01*
X192251095Y-77246872D01*
X192251091Y-77246878D01*
X192221571Y-77395302D01*
X192207001Y-77468548D01*
X192207001Y-77468555D01*
X192192112Y-77543415D01*
X192207001Y-77618259D01*
X192207000Y-82173289D01*
X192118006Y-82262283D01*
X178473335Y-68617236D01*
X178430929Y-68553771D01*
X178258411Y-68438498D01*
X178179547Y-68385801D01*
X178179543Y-68385800D01*
X178179537Y-68385796D01*
X177957852Y-68341700D01*
X177883010Y-68326812D01*
X177808157Y-68341700D01*
X137850848Y-68341700D01*
X137776002Y-68326812D01*
X137701154Y-68341700D01*
X137701148Y-68341700D01*
X137479463Y-68385796D01*
X137228071Y-68553771D01*
X137185672Y-68617225D01*
X134151562Y-71651318D01*
X134096431Y-71518220D01*
X133979000Y-71400789D01*
X133979000Y-66118120D01*
X135649761Y-64447500D01*
X135815874Y-64447500D01*
X136196280Y-64289931D01*
X136487431Y-63998780D01*
X136645000Y-63618374D01*
X136645000Y-63206626D01*
X136487431Y-62826220D01*
X136196280Y-62535069D01*
X135815874Y-62377500D01*
X135404126Y-62377500D01*
X135023720Y-62535069D01*
X134732569Y-62826220D01*
X134575000Y-63206626D01*
X134575000Y-63372656D01*
X132734542Y-65212961D01*
X132671071Y-65255371D01*
X132587256Y-65380810D01*
X132503109Y-65506733D01*
X132503106Y-65506749D01*
X132503096Y-65506764D01*
X132470521Y-65670531D01*
X132444112Y-65803268D01*
X132459000Y-65878132D01*
X132459001Y-71400788D01*
X132341569Y-71518220D01*
X132184000Y-71898626D01*
X132184000Y-72310374D01*
X132341569Y-72690780D01*
X132632720Y-72981931D01*
X132765813Y-73037060D01*
X120033000Y-85769800D01*
X120033000Y-85506926D01*
X119875431Y-85126520D01*
X119584280Y-84835369D01*
X119203874Y-84677800D01*
X118792126Y-84677800D01*
X118411720Y-84835369D01*
X118294289Y-84952800D01*
X117083911Y-84952800D01*
X116712000Y-84580708D01*
X116712000Y-72792011D01*
X116800406Y-72703605D01*
X120458691Y-76361203D01*
X120501071Y-76424629D01*
X120564557Y-76467049D01*
X120564583Y-76467075D01*
X120628195Y-76509570D01*
X120752463Y-76592604D01*
X120752499Y-76592611D01*
X120752530Y-76592632D01*
X120896513Y-76621257D01*
X120974148Y-76636700D01*
X120974188Y-76636700D01*
X121049073Y-76651588D01*
X121123884Y-76636700D01*
X124977289Y-76636700D01*
X125094720Y-76754131D01*
X125475126Y-76911700D01*
X125886874Y-76911700D01*
X126267280Y-76754131D01*
X126558431Y-76462980D01*
X126716000Y-76082574D01*
X126716000Y-75670826D01*
X126558431Y-75290420D01*
X126267280Y-74999269D01*
X125886874Y-74841700D01*
X125475126Y-74841700D01*
X125094720Y-74999269D01*
X124977289Y-75116700D01*
X121363760Y-75116700D01*
X118114075Y-71867626D01*
X120319000Y-71867626D01*
X120319000Y-72279374D01*
X120476569Y-72659780D01*
X120767720Y-72950931D01*
X121148126Y-73108500D01*
X121559874Y-73108500D01*
X121940280Y-72950931D01*
X122231431Y-72659780D01*
X122389000Y-72279374D01*
X122389000Y-72113379D01*
X123131450Y-71371044D01*
X123194929Y-71328629D01*
X123275342Y-71208283D01*
X123362881Y-71077293D01*
X123362887Y-71077262D01*
X123362904Y-71077237D01*
X123394253Y-70919637D01*
X123421888Y-70780760D01*
X123407000Y-70705881D01*
X123407000Y-66789326D01*
X127016000Y-66789326D01*
X127016000Y-67201074D01*
X127173569Y-67581480D01*
X127464720Y-67872631D01*
X127845126Y-68030200D01*
X128256874Y-68030200D01*
X128637280Y-67872631D01*
X128928431Y-67581480D01*
X129086000Y-67201074D01*
X129086000Y-66789326D01*
X128928431Y-66408920D01*
X128811000Y-66291489D01*
X128811000Y-63222680D01*
X130225848Y-61807700D01*
X130391874Y-61807700D01*
X130772280Y-61650131D01*
X131063431Y-61358980D01*
X131221000Y-60978574D01*
X131221000Y-60566826D01*
X131063431Y-60186420D01*
X130772280Y-59895269D01*
X130391874Y-59737700D01*
X129980126Y-59737700D01*
X129599720Y-59895269D01*
X129308569Y-60186420D01*
X129151000Y-60566826D01*
X129151000Y-60732945D01*
X127566510Y-62317583D01*
X127503072Y-62359971D01*
X127460664Y-62423439D01*
X127460648Y-62423455D01*
X127416765Y-62489138D01*
X127335097Y-62611363D01*
X127335093Y-62611382D01*
X127335083Y-62611397D01*
X127305496Y-62760179D01*
X127291001Y-62833048D01*
X127291001Y-62833066D01*
X127276112Y-62907936D01*
X127291001Y-62982770D01*
X127291000Y-66291489D01*
X127173569Y-66408920D01*
X127016000Y-66789326D01*
X123407000Y-66789326D01*
X123407000Y-65563511D01*
X123524431Y-65446080D01*
X123682000Y-65065674D01*
X123682000Y-64653926D01*
X123524431Y-64273520D01*
X123233280Y-63982369D01*
X122852874Y-63824800D01*
X122441126Y-63824800D01*
X122060720Y-63982369D01*
X121769569Y-64273520D01*
X121612000Y-64653926D01*
X121612000Y-65065674D01*
X121769569Y-65446080D01*
X121887000Y-65563511D01*
X121887001Y-70465863D01*
X121314275Y-71038500D01*
X121148126Y-71038500D01*
X120767720Y-71196069D01*
X120476569Y-71487220D01*
X120319000Y-71867626D01*
X118114075Y-71867626D01*
X116854309Y-70608097D01*
X116811929Y-70544671D01*
X116748443Y-70502251D01*
X116748417Y-70502225D01*
X116687639Y-70461623D01*
X116560537Y-70376696D01*
X116560498Y-70376688D01*
X116560469Y-70376669D01*
X116421839Y-70349107D01*
X116338852Y-70332600D01*
X116338811Y-70332600D01*
X116263928Y-70317712D01*
X116189117Y-70332600D01*
X115024850Y-70332600D01*
X114950006Y-70317712D01*
X114875155Y-70332600D01*
X114875148Y-70332600D01*
X114745912Y-70358307D01*
X114653468Y-70376694D01*
X114653466Y-70376695D01*
X114653463Y-70376696D01*
X114576541Y-70428094D01*
X114465532Y-70502267D01*
X114465530Y-70502269D01*
X114402071Y-70544671D01*
X114359673Y-70608124D01*
X111092883Y-73874857D01*
X111125904Y-73825438D01*
X111135779Y-73775792D01*
X111170000Y-73603752D01*
X111170000Y-73603748D01*
X111184888Y-73528900D01*
X111170000Y-73454052D01*
X111170000Y-65767111D01*
X111287431Y-65649680D01*
X111445000Y-65269274D01*
X111445000Y-64857526D01*
X111287431Y-64477120D01*
X110996280Y-64185969D01*
X110615874Y-64028400D01*
X110204126Y-64028400D01*
X109823720Y-64185969D01*
X109532569Y-64477120D01*
X109375000Y-64857526D01*
X109375000Y-65269274D01*
X109532569Y-65649680D01*
X109650000Y-65767111D01*
X109650001Y-73214097D01*
X108681199Y-74182900D01*
X108515126Y-74182900D01*
X108134720Y-74340469D01*
X107843569Y-74631620D01*
X107686000Y-75012026D01*
X107686000Y-75178103D01*
X99444193Y-83420000D01*
X99278126Y-83420000D01*
X98897720Y-83577569D01*
X98606569Y-83868720D01*
X98449000Y-84249126D01*
X98449000Y-84660874D01*
X98606569Y-85041280D01*
X98897720Y-85332431D01*
X99278126Y-85490000D01*
X99477537Y-85490000D01*
X98442865Y-86524654D01*
X98180380Y-86262169D01*
X97799974Y-86104600D01*
X97633902Y-86104600D01*
X95419500Y-83890199D01*
X95419500Y-81146026D01*
X97235600Y-81146026D01*
X97235600Y-81557774D01*
X97393169Y-81938180D01*
X97684320Y-82229331D01*
X98064726Y-82386900D01*
X98476474Y-82386900D01*
X98856880Y-82229331D01*
X99148031Y-81938180D01*
X99305600Y-81557774D01*
X99305600Y-81391688D01*
X102342476Y-78354727D01*
X102405929Y-78312329D01*
X102448333Y-78248867D01*
X102448335Y-78248865D01*
X102471117Y-78214769D01*
X102573904Y-78060937D01*
X102573905Y-78060931D01*
X102573907Y-78060928D01*
X102597830Y-77940651D01*
X102618000Y-77839252D01*
X102618000Y-77839242D01*
X102632888Y-77764390D01*
X102618000Y-77689548D01*
X102618000Y-74447411D01*
X102735431Y-74329980D01*
X102893000Y-73949574D01*
X102893000Y-73537826D01*
X102735431Y-73157420D01*
X102444280Y-72866269D01*
X102063874Y-72708700D01*
X101652126Y-72708700D01*
X101271720Y-72866269D01*
X100980569Y-73157420D01*
X100823000Y-73537826D01*
X100823000Y-73949574D01*
X100980569Y-74329980D01*
X101098001Y-74447412D01*
X101098000Y-77449604D01*
X98230784Y-80316900D01*
X98064726Y-80316900D01*
X97684320Y-80474469D01*
X97393169Y-80765620D01*
X97235600Y-81146026D01*
X95419500Y-81146026D01*
X95419500Y-77180211D01*
X95536931Y-77062780D01*
X95694500Y-76682374D01*
X95694500Y-76270626D01*
X95536931Y-75890220D01*
X95245780Y-75599069D01*
X94865374Y-75441500D01*
X94453626Y-75441500D01*
X94073220Y-75599069D01*
X93782069Y-75890220D01*
X93624500Y-76270626D01*
X93624500Y-76682374D01*
X93782069Y-77062780D01*
X93899501Y-77180212D01*
X93899500Y-84130153D01*
X93884612Y-84205000D01*
X93899500Y-84279847D01*
X93899500Y-84279851D01*
X93943596Y-84501536D01*
X94111571Y-84752929D01*
X94175030Y-84795331D01*
X96559100Y-87179402D01*
X96559100Y-87345474D01*
X96596390Y-87435500D01*
X91739100Y-87435500D01*
X91739100Y-87064326D01*
X91581531Y-86683920D01*
X91290380Y-86392769D01*
X90909974Y-86235200D01*
X90743902Y-86235200D01*
X83025200Y-78516499D01*
X83025200Y-74363711D01*
X83142631Y-74246280D01*
X83300200Y-73865874D01*
X83300200Y-73454126D01*
X83142631Y-73073720D01*
X83025200Y-72956289D01*
X83025200Y-63390848D01*
X83040088Y-63316000D01*
X83025200Y-63241152D01*
X83025200Y-63241148D01*
X82981104Y-63019463D01*
X82981104Y-63019462D01*
X82855529Y-62831527D01*
X82813129Y-62768071D01*
X82749673Y-62725671D01*
X81759128Y-61735126D01*
X84365900Y-61735126D01*
X84365900Y-62146874D01*
X84523469Y-62527280D01*
X84640900Y-62644711D01*
X84640901Y-70548248D01*
X84626012Y-70623100D01*
X84684997Y-70919637D01*
X84792013Y-71079797D01*
X84852972Y-71171029D01*
X84916428Y-71213429D01*
X86252600Y-72549602D01*
X86252600Y-72715674D01*
X86410169Y-73096080D01*
X86701320Y-73387231D01*
X87081726Y-73544800D01*
X87493474Y-73544800D01*
X87873880Y-73387231D01*
X88165031Y-73096080D01*
X88322600Y-72715674D01*
X88322600Y-72303926D01*
X88165031Y-71923520D01*
X87873880Y-71632369D01*
X87493474Y-71474800D01*
X87327402Y-71474800D01*
X86160900Y-70308299D01*
X86160900Y-62644711D01*
X86278331Y-62527280D01*
X86435900Y-62146874D01*
X86435900Y-61735126D01*
X86278331Y-61354720D01*
X85987180Y-61063569D01*
X85606774Y-60906000D01*
X85195026Y-60906000D01*
X84814620Y-61063569D01*
X84523469Y-61354720D01*
X84365900Y-61735126D01*
X81759128Y-61735126D01*
X79467401Y-59443400D01*
X205863126Y-59443400D01*
X205462426Y-59844369D01*
G36*
X184929000Y-79515280D02*
X184929000Y-79681374D01*
X185086569Y-80061780D01*
X185204001Y-80179212D01*
X185204001Y-80471069D01*
X185189112Y-80545941D01*
X185219915Y-80700758D01*
X185248097Y-80842437D01*
X185248108Y-80842453D01*
X185248112Y-80842475D01*
X185337001Y-80975491D01*
X185416072Y-81093829D01*
X185479544Y-81136240D01*
X191510000Y-87166055D01*
X191510000Y-87293800D01*
X183378000Y-87293800D01*
X183378000Y-86922626D01*
X183220431Y-86542220D01*
X182929280Y-86251069D01*
X182548874Y-86093500D01*
X182382794Y-86093500D01*
X176975000Y-80685795D01*
X176975000Y-75915411D01*
X177092431Y-75797980D01*
X177250000Y-75417574D01*
X177250000Y-75005826D01*
X177092431Y-74625420D01*
X176801280Y-74334269D01*
X176420874Y-74176700D01*
X176009126Y-74176700D01*
X175628720Y-74334269D01*
X175511289Y-74451700D01*
X170538846Y-74451700D01*
X167275879Y-71188100D01*
X176602189Y-71188100D01*
X184929000Y-79515280D01*
X184929000Y-79515280D01*
G37*
X184929000Y-79515280D02*
X184929000Y-79681374D01*
X185086569Y-80061780D01*
X185204001Y-80179212D01*
X185204001Y-80471069D01*
X185189112Y-80545941D01*
X185219915Y-80700758D01*
X185248097Y-80842437D01*
X185248108Y-80842453D01*
X185248112Y-80842475D01*
X185337001Y-80975491D01*
X185416072Y-81093829D01*
X185479544Y-81136240D01*
X191510000Y-87166055D01*
X191510000Y-87293800D01*
X183378000Y-87293800D01*
X183378000Y-86922626D01*
X183220431Y-86542220D01*
X182929280Y-86251069D01*
X182548874Y-86093500D01*
X182382794Y-86093500D01*
X176975000Y-80685795D01*
X176975000Y-75915411D01*
X177092431Y-75797980D01*
X177250000Y-75417574D01*
X177250000Y-75005826D01*
X177092431Y-74625420D01*
X176801280Y-74334269D01*
X176420874Y-74176700D01*
X176009126Y-74176700D01*
X175628720Y-74334269D01*
X175511289Y-74451700D01*
X170538846Y-74451700D01*
X167275879Y-71188100D01*
X176602189Y-71188100D01*
X184929000Y-79515280D01*
M02*
