G04 #@! TF.GenerationSoftware,KiCad,Pcbnew,(5.0.0-rc2-dev-158-g52ab6216c)*
G04 #@! TF.CreationDate,2018-03-09T12:59:15-06:00*
G04 #@! TF.ProjectId,Hybrid_bat_measure_18CH_v0.4_Teensy3.5,4879627269645F6261745F6D65617375,rev?*
G04 #@! TF.SameCoordinates,Original*
G04 #@! TF.FileFunction,Legend,Bot*
G04 #@! TF.FilePolarity,Positive*
%FSLAX46Y46*%
G04 Gerber Fmt 4.6, Leading zero omitted, Abs format (unit mm)*
G04 Created by KiCad (PCBNEW (5.0.0-rc2-dev-158-g52ab6216c)) date 03/09/18 12:59:15*
%MOMM*%
%LPD*%
G01*
G04 APERTURE LIST*
%ADD10C,0.010000*%
G04 APERTURE END LIST*
D10*
G36*
X197709960Y-84933907D02*
X197838137Y-84901638D01*
X197953411Y-84844613D01*
X198053011Y-84765028D01*
X198134165Y-84665075D01*
X198194102Y-84546949D01*
X198229066Y-84418725D01*
X198236856Y-84289231D01*
X198217080Y-84164271D01*
X198172212Y-84047301D01*
X198104728Y-83941778D01*
X198017102Y-83851158D01*
X197911807Y-83778897D01*
X197791318Y-83728452D01*
X197723065Y-83711912D01*
X197663822Y-83701898D01*
X197618154Y-83697941D01*
X197574272Y-83700370D01*
X197520386Y-83709516D01*
X197476323Y-83718802D01*
X197351952Y-83760753D01*
X197240553Y-83828817D01*
X197144635Y-83920931D01*
X197066704Y-84035030D01*
X197048133Y-84071295D01*
X197026249Y-84119713D01*
X197012525Y-84160372D01*
X197005115Y-84203151D01*
X197002173Y-84257928D01*
X197001803Y-84319283D01*
X197007243Y-84431594D01*
X197025104Y-84523829D01*
X197058641Y-84604542D01*
X197111110Y-84682286D01*
X197162431Y-84741218D01*
X197258146Y-84828845D01*
X197358122Y-84889332D01*
X197468293Y-84925547D01*
X197571651Y-84939227D01*
X197709960Y-84933907D01*
X197709960Y-84933907D01*
G37*
X197709960Y-84933907D02*
X197838137Y-84901638D01*
X197953411Y-84844613D01*
X198053011Y-84765028D01*
X198134165Y-84665075D01*
X198194102Y-84546949D01*
X198229066Y-84418725D01*
X198236856Y-84289231D01*
X198217080Y-84164271D01*
X198172212Y-84047301D01*
X198104728Y-83941778D01*
X198017102Y-83851158D01*
X197911807Y-83778897D01*
X197791318Y-83728452D01*
X197723065Y-83711912D01*
X197663822Y-83701898D01*
X197618154Y-83697941D01*
X197574272Y-83700370D01*
X197520386Y-83709516D01*
X197476323Y-83718802D01*
X197351952Y-83760753D01*
X197240553Y-83828817D01*
X197144635Y-83920931D01*
X197066704Y-84035030D01*
X197048133Y-84071295D01*
X197026249Y-84119713D01*
X197012525Y-84160372D01*
X197005115Y-84203151D01*
X197002173Y-84257928D01*
X197001803Y-84319283D01*
X197007243Y-84431594D01*
X197025104Y-84523829D01*
X197058641Y-84604542D01*
X197111110Y-84682286D01*
X197162431Y-84741218D01*
X197258146Y-84828845D01*
X197358122Y-84889332D01*
X197468293Y-84925547D01*
X197571651Y-84939227D01*
X197709960Y-84933907D01*
G36*
X208972674Y-81677833D02*
X208972700Y-81365739D01*
X208972735Y-81082238D01*
X208972831Y-80825864D01*
X208973041Y-80595152D01*
X208973416Y-80388635D01*
X208974009Y-80204849D01*
X208974870Y-80042326D01*
X208976053Y-79899602D01*
X208977608Y-79775210D01*
X208979589Y-79667685D01*
X208982046Y-79575560D01*
X208985033Y-79497370D01*
X208988600Y-79431649D01*
X208992799Y-79376931D01*
X208997684Y-79331751D01*
X209003304Y-79294642D01*
X209009713Y-79264138D01*
X209016963Y-79238774D01*
X209025105Y-79217085D01*
X209034190Y-79197603D01*
X209044273Y-79178863D01*
X209055403Y-79159400D01*
X209062317Y-79147276D01*
X209107936Y-79066443D01*
X207965431Y-79066443D01*
X207965431Y-79194194D01*
X207964457Y-79251927D01*
X207961858Y-79296081D01*
X207958118Y-79319754D01*
X207956465Y-79321946D01*
X207941258Y-79312781D01*
X207911017Y-79289025D01*
X207880795Y-79263231D01*
X207808124Y-79208999D01*
X207715623Y-79154408D01*
X207613039Y-79104475D01*
X207510119Y-79064213D01*
X207469043Y-79051367D01*
X207377849Y-79031975D01*
X207267543Y-79018713D01*
X207148529Y-79011998D01*
X207031205Y-79012247D01*
X206925973Y-79019876D01*
X206875786Y-79027608D01*
X206691930Y-79078282D01*
X206522445Y-79155133D01*
X206368246Y-79257463D01*
X206230244Y-79384572D01*
X206109351Y-79535760D01*
X206020414Y-79683273D01*
X205947365Y-79838717D01*
X205891448Y-79997614D01*
X205851511Y-80165357D01*
X205826407Y-80347339D01*
X205814986Y-80548955D01*
X205814019Y-80652064D01*
X205816807Y-80727655D01*
X206920660Y-80727655D01*
X206920937Y-80603748D01*
X206924815Y-80487001D01*
X206932354Y-80384380D01*
X206943611Y-80302851D01*
X206947051Y-80286421D01*
X206989389Y-80143588D01*
X207044852Y-80027727D01*
X207113903Y-79938546D01*
X207197004Y-79875756D01*
X207294618Y-79839063D01*
X207407210Y-79828179D01*
X207535241Y-79842810D01*
X207619751Y-79863742D01*
X207685178Y-79887959D01*
X207757243Y-79922372D01*
X207811378Y-79953928D01*
X207905313Y-80015660D01*
X207905313Y-81546980D01*
X207815569Y-81604984D01*
X207711023Y-81659467D01*
X207598942Y-81694949D01*
X207485611Y-81710824D01*
X207377317Y-81706488D01*
X207280345Y-81681335D01*
X207237803Y-81660607D01*
X207160685Y-81603362D01*
X207095505Y-81527778D01*
X207040713Y-81431092D01*
X206994761Y-81310542D01*
X206956097Y-81163367D01*
X206954391Y-81155555D01*
X206940850Y-81072673D01*
X206930676Y-80969084D01*
X206923926Y-80851756D01*
X206920660Y-80727655D01*
X205816807Y-80727655D01*
X205824472Y-80935399D01*
X205853688Y-81196127D01*
X205901596Y-81434077D01*
X205968128Y-81649076D01*
X206053215Y-81840950D01*
X206156787Y-82009526D01*
X206278775Y-82154632D01*
X206419111Y-82276095D01*
X206479241Y-82317302D01*
X206613641Y-82392055D01*
X206751157Y-82444791D01*
X206897724Y-82476957D01*
X207059273Y-82489997D01*
X207182431Y-82488605D01*
X207355048Y-82474005D01*
X207504951Y-82444961D01*
X207636478Y-82400137D01*
X207753965Y-82338200D01*
X207819023Y-82292651D01*
X207858120Y-82263475D01*
X207886998Y-82243544D01*
X207897928Y-82237685D01*
X207900078Y-82252103D01*
X207901796Y-82292913D01*
X207903100Y-82356453D01*
X207904005Y-82439060D01*
X207904528Y-82537070D01*
X207904687Y-82646821D01*
X207904498Y-82764649D01*
X207903978Y-82886893D01*
X207903144Y-83009887D01*
X207902012Y-83129970D01*
X207900599Y-83243479D01*
X207898923Y-83346750D01*
X207897000Y-83436120D01*
X207894846Y-83507927D01*
X207892480Y-83558507D01*
X207891825Y-83567804D01*
X207881737Y-83661553D01*
X207866345Y-83734976D01*
X207842728Y-83797711D01*
X207807967Y-83859398D01*
X207799623Y-83872153D01*
X207767095Y-83920999D01*
X208972413Y-83920999D01*
X208972674Y-81677833D01*
X208972674Y-81677833D01*
G37*
X208972674Y-81677833D02*
X208972700Y-81365739D01*
X208972735Y-81082238D01*
X208972831Y-80825864D01*
X208973041Y-80595152D01*
X208973416Y-80388635D01*
X208974009Y-80204849D01*
X208974870Y-80042326D01*
X208976053Y-79899602D01*
X208977608Y-79775210D01*
X208979589Y-79667685D01*
X208982046Y-79575560D01*
X208985033Y-79497370D01*
X208988600Y-79431649D01*
X208992799Y-79376931D01*
X208997684Y-79331751D01*
X209003304Y-79294642D01*
X209009713Y-79264138D01*
X209016963Y-79238774D01*
X209025105Y-79217085D01*
X209034190Y-79197603D01*
X209044273Y-79178863D01*
X209055403Y-79159400D01*
X209062317Y-79147276D01*
X209107936Y-79066443D01*
X207965431Y-79066443D01*
X207965431Y-79194194D01*
X207964457Y-79251927D01*
X207961858Y-79296081D01*
X207958118Y-79319754D01*
X207956465Y-79321946D01*
X207941258Y-79312781D01*
X207911017Y-79289025D01*
X207880795Y-79263231D01*
X207808124Y-79208999D01*
X207715623Y-79154408D01*
X207613039Y-79104475D01*
X207510119Y-79064213D01*
X207469043Y-79051367D01*
X207377849Y-79031975D01*
X207267543Y-79018713D01*
X207148529Y-79011998D01*
X207031205Y-79012247D01*
X206925973Y-79019876D01*
X206875786Y-79027608D01*
X206691930Y-79078282D01*
X206522445Y-79155133D01*
X206368246Y-79257463D01*
X206230244Y-79384572D01*
X206109351Y-79535760D01*
X206020414Y-79683273D01*
X205947365Y-79838717D01*
X205891448Y-79997614D01*
X205851511Y-80165357D01*
X205826407Y-80347339D01*
X205814986Y-80548955D01*
X205814019Y-80652064D01*
X205816807Y-80727655D01*
X206920660Y-80727655D01*
X206920937Y-80603748D01*
X206924815Y-80487001D01*
X206932354Y-80384380D01*
X206943611Y-80302851D01*
X206947051Y-80286421D01*
X206989389Y-80143588D01*
X207044852Y-80027727D01*
X207113903Y-79938546D01*
X207197004Y-79875756D01*
X207294618Y-79839063D01*
X207407210Y-79828179D01*
X207535241Y-79842810D01*
X207619751Y-79863742D01*
X207685178Y-79887959D01*
X207757243Y-79922372D01*
X207811378Y-79953928D01*
X207905313Y-80015660D01*
X207905313Y-81546980D01*
X207815569Y-81604984D01*
X207711023Y-81659467D01*
X207598942Y-81694949D01*
X207485611Y-81710824D01*
X207377317Y-81706488D01*
X207280345Y-81681335D01*
X207237803Y-81660607D01*
X207160685Y-81603362D01*
X207095505Y-81527778D01*
X207040713Y-81431092D01*
X206994761Y-81310542D01*
X206956097Y-81163367D01*
X206954391Y-81155555D01*
X206940850Y-81072673D01*
X206930676Y-80969084D01*
X206923926Y-80851756D01*
X206920660Y-80727655D01*
X205816807Y-80727655D01*
X205824472Y-80935399D01*
X205853688Y-81196127D01*
X205901596Y-81434077D01*
X205968128Y-81649076D01*
X206053215Y-81840950D01*
X206156787Y-82009526D01*
X206278775Y-82154632D01*
X206419111Y-82276095D01*
X206479241Y-82317302D01*
X206613641Y-82392055D01*
X206751157Y-82444791D01*
X206897724Y-82476957D01*
X207059273Y-82489997D01*
X207182431Y-82488605D01*
X207355048Y-82474005D01*
X207504951Y-82444961D01*
X207636478Y-82400137D01*
X207753965Y-82338200D01*
X207819023Y-82292651D01*
X207858120Y-82263475D01*
X207886998Y-82243544D01*
X207897928Y-82237685D01*
X207900078Y-82252103D01*
X207901796Y-82292913D01*
X207903100Y-82356453D01*
X207904005Y-82439060D01*
X207904528Y-82537070D01*
X207904687Y-82646821D01*
X207904498Y-82764649D01*
X207903978Y-82886893D01*
X207903144Y-83009887D01*
X207902012Y-83129970D01*
X207900599Y-83243479D01*
X207898923Y-83346750D01*
X207897000Y-83436120D01*
X207894846Y-83507927D01*
X207892480Y-83558507D01*
X207891825Y-83567804D01*
X207881737Y-83661553D01*
X207866345Y-83734976D01*
X207842728Y-83797711D01*
X207807967Y-83859398D01*
X207799623Y-83872153D01*
X207767095Y-83920999D01*
X208972413Y-83920999D01*
X208972674Y-81677833D01*
G36*
X204295692Y-82484229D02*
X204497950Y-82457582D01*
X204678036Y-82412802D01*
X204837111Y-82349531D01*
X204976338Y-82267413D01*
X205079665Y-82182791D01*
X205171316Y-82084092D01*
X205242866Y-81977887D01*
X205299986Y-81855108D01*
X205320588Y-81797767D01*
X205337708Y-81745869D01*
X205352622Y-81697745D01*
X205365502Y-81650954D01*
X205376520Y-81603056D01*
X205385850Y-81551613D01*
X205393663Y-81494184D01*
X205400132Y-81428330D01*
X205405430Y-81351611D01*
X205409730Y-81261588D01*
X205413203Y-81155820D01*
X205416023Y-81031869D01*
X205418362Y-80887294D01*
X205420393Y-80719656D01*
X205422288Y-80526515D01*
X205423955Y-80336443D01*
X205425721Y-80128497D01*
X205427326Y-79948403D01*
X205428937Y-79793956D01*
X205430720Y-79662951D01*
X205432843Y-79553183D01*
X205435472Y-79462447D01*
X205438776Y-79388538D01*
X205442919Y-79329250D01*
X205448070Y-79282378D01*
X205454396Y-79245717D01*
X205462063Y-79217063D01*
X205471238Y-79194210D01*
X205482088Y-79174952D01*
X205494781Y-79157085D01*
X205509483Y-79138404D01*
X205515209Y-79131171D01*
X205536270Y-79100764D01*
X205545638Y-79080058D01*
X205545668Y-79079446D01*
X205531186Y-79076518D01*
X205489933Y-79073822D01*
X205425197Y-79071431D01*
X205340264Y-79069422D01*
X205238423Y-79067871D01*
X205122960Y-79066854D01*
X204997164Y-79066447D01*
X204982643Y-79066443D01*
X204419619Y-79066443D01*
X204415276Y-79194342D01*
X204410934Y-79322242D01*
X204328271Y-79254359D01*
X204198690Y-79164474D01*
X204052372Y-79091659D01*
X203937256Y-79051413D01*
X203845298Y-79031858D01*
X203734326Y-79018553D01*
X203614815Y-79011915D01*
X203497237Y-79012357D01*
X203392067Y-79020295D01*
X203343833Y-79027902D01*
X203157418Y-79078310D01*
X202989100Y-79151326D01*
X202840096Y-79245863D01*
X202711624Y-79360835D01*
X202604899Y-79495154D01*
X202521140Y-79647733D01*
X202462060Y-79815606D01*
X202445638Y-79890939D01*
X202435507Y-79973749D01*
X202430676Y-80073385D01*
X202430017Y-80118514D01*
X202430104Y-80122754D01*
X203441856Y-80122754D01*
X203454229Y-80022833D01*
X203491756Y-79937857D01*
X203556285Y-79863783D01*
X203563018Y-79857908D01*
X203627315Y-79811541D01*
X203696158Y-79781476D01*
X203777014Y-79765605D01*
X203877349Y-79761820D01*
X203901457Y-79762360D01*
X203973109Y-79765891D01*
X204026403Y-79773102D01*
X204073023Y-79786634D01*
X204124652Y-79809128D01*
X204138820Y-79816022D01*
X204219568Y-79863722D01*
X204281901Y-79920481D01*
X204298859Y-79940769D01*
X204358330Y-80016006D01*
X204358330Y-80276787D01*
X204357617Y-80381494D01*
X204355367Y-80458648D01*
X204351415Y-80510722D01*
X204345596Y-80540191D01*
X204340158Y-80548800D01*
X204318955Y-80553012D01*
X204273978Y-80556503D01*
X204211505Y-80558944D01*
X204137819Y-80560006D01*
X204125986Y-80560026D01*
X203965190Y-80553031D01*
X203828499Y-80531507D01*
X203713265Y-80494631D01*
X203616841Y-80441580D01*
X203543709Y-80379073D01*
X203484401Y-80302005D01*
X203451485Y-80218065D01*
X203441856Y-80122754D01*
X202430104Y-80122754D01*
X202432591Y-80243336D01*
X202443701Y-80348379D01*
X202465329Y-80443202D01*
X202499461Y-80537363D01*
X202531409Y-80607089D01*
X202609452Y-80733964D01*
X202713427Y-80851158D01*
X202840170Y-80956538D01*
X202986518Y-81047972D01*
X203149306Y-81123326D01*
X203325371Y-81180468D01*
X203411466Y-81200358D01*
X203592774Y-81229787D01*
X203790408Y-81249203D01*
X203992050Y-81257698D01*
X204160546Y-81255525D01*
X204376075Y-81246500D01*
X204366197Y-81325022D01*
X204340511Y-81457030D01*
X204299061Y-81564498D01*
X204240701Y-81648248D01*
X204164283Y-81709105D01*
X204068661Y-81747892D01*
X203952690Y-81765434D01*
X203815221Y-81762553D01*
X203764662Y-81757226D01*
X203576686Y-81723718D01*
X203394538Y-81669087D01*
X203268685Y-81618494D01*
X203208561Y-81592699D01*
X203157394Y-81571969D01*
X203122311Y-81559129D01*
X203112075Y-81556403D01*
X203099102Y-81568490D01*
X203076843Y-81607058D01*
X203045090Y-81672545D01*
X203003632Y-81765384D01*
X202952261Y-81886013D01*
X202943477Y-81907035D01*
X202903461Y-82003315D01*
X202867541Y-82090315D01*
X202837269Y-82164231D01*
X202814196Y-82221259D01*
X202799874Y-82257593D01*
X202795738Y-82269361D01*
X202809050Y-82275691D01*
X202844033Y-82282717D01*
X202881674Y-82287615D01*
X202921823Y-82293948D01*
X202985446Y-82306523D01*
X203066897Y-82324108D01*
X203160536Y-82345470D01*
X203260720Y-82369375D01*
X203298745Y-82378725D01*
X203438619Y-82412792D01*
X203555331Y-82439502D01*
X203654635Y-82459709D01*
X203742285Y-82474266D01*
X203824036Y-82484027D01*
X203905641Y-82489844D01*
X203992856Y-82492570D01*
X204070098Y-82493100D01*
X204295692Y-82484229D01*
X204295692Y-82484229D01*
G37*
X204295692Y-82484229D02*
X204497950Y-82457582D01*
X204678036Y-82412802D01*
X204837111Y-82349531D01*
X204976338Y-82267413D01*
X205079665Y-82182791D01*
X205171316Y-82084092D01*
X205242866Y-81977887D01*
X205299986Y-81855108D01*
X205320588Y-81797767D01*
X205337708Y-81745869D01*
X205352622Y-81697745D01*
X205365502Y-81650954D01*
X205376520Y-81603056D01*
X205385850Y-81551613D01*
X205393663Y-81494184D01*
X205400132Y-81428330D01*
X205405430Y-81351611D01*
X205409730Y-81261588D01*
X205413203Y-81155820D01*
X205416023Y-81031869D01*
X205418362Y-80887294D01*
X205420393Y-80719656D01*
X205422288Y-80526515D01*
X205423955Y-80336443D01*
X205425721Y-80128497D01*
X205427326Y-79948403D01*
X205428937Y-79793956D01*
X205430720Y-79662951D01*
X205432843Y-79553183D01*
X205435472Y-79462447D01*
X205438776Y-79388538D01*
X205442919Y-79329250D01*
X205448070Y-79282378D01*
X205454396Y-79245717D01*
X205462063Y-79217063D01*
X205471238Y-79194210D01*
X205482088Y-79174952D01*
X205494781Y-79157085D01*
X205509483Y-79138404D01*
X205515209Y-79131171D01*
X205536270Y-79100764D01*
X205545638Y-79080058D01*
X205545668Y-79079446D01*
X205531186Y-79076518D01*
X205489933Y-79073822D01*
X205425197Y-79071431D01*
X205340264Y-79069422D01*
X205238423Y-79067871D01*
X205122960Y-79066854D01*
X204997164Y-79066447D01*
X204982643Y-79066443D01*
X204419619Y-79066443D01*
X204415276Y-79194342D01*
X204410934Y-79322242D01*
X204328271Y-79254359D01*
X204198690Y-79164474D01*
X204052372Y-79091659D01*
X203937256Y-79051413D01*
X203845298Y-79031858D01*
X203734326Y-79018553D01*
X203614815Y-79011915D01*
X203497237Y-79012357D01*
X203392067Y-79020295D01*
X203343833Y-79027902D01*
X203157418Y-79078310D01*
X202989100Y-79151326D01*
X202840096Y-79245863D01*
X202711624Y-79360835D01*
X202604899Y-79495154D01*
X202521140Y-79647733D01*
X202462060Y-79815606D01*
X202445638Y-79890939D01*
X202435507Y-79973749D01*
X202430676Y-80073385D01*
X202430017Y-80118514D01*
X202430104Y-80122754D01*
X203441856Y-80122754D01*
X203454229Y-80022833D01*
X203491756Y-79937857D01*
X203556285Y-79863783D01*
X203563018Y-79857908D01*
X203627315Y-79811541D01*
X203696158Y-79781476D01*
X203777014Y-79765605D01*
X203877349Y-79761820D01*
X203901457Y-79762360D01*
X203973109Y-79765891D01*
X204026403Y-79773102D01*
X204073023Y-79786634D01*
X204124652Y-79809128D01*
X204138820Y-79816022D01*
X204219568Y-79863722D01*
X204281901Y-79920481D01*
X204298859Y-79940769D01*
X204358330Y-80016006D01*
X204358330Y-80276787D01*
X204357617Y-80381494D01*
X204355367Y-80458648D01*
X204351415Y-80510722D01*
X204345596Y-80540191D01*
X204340158Y-80548800D01*
X204318955Y-80553012D01*
X204273978Y-80556503D01*
X204211505Y-80558944D01*
X204137819Y-80560006D01*
X204125986Y-80560026D01*
X203965190Y-80553031D01*
X203828499Y-80531507D01*
X203713265Y-80494631D01*
X203616841Y-80441580D01*
X203543709Y-80379073D01*
X203484401Y-80302005D01*
X203451485Y-80218065D01*
X203441856Y-80122754D01*
X202430104Y-80122754D01*
X202432591Y-80243336D01*
X202443701Y-80348379D01*
X202465329Y-80443202D01*
X202499461Y-80537363D01*
X202531409Y-80607089D01*
X202609452Y-80733964D01*
X202713427Y-80851158D01*
X202840170Y-80956538D01*
X202986518Y-81047972D01*
X203149306Y-81123326D01*
X203325371Y-81180468D01*
X203411466Y-81200358D01*
X203592774Y-81229787D01*
X203790408Y-81249203D01*
X203992050Y-81257698D01*
X204160546Y-81255525D01*
X204376075Y-81246500D01*
X204366197Y-81325022D01*
X204340511Y-81457030D01*
X204299061Y-81564498D01*
X204240701Y-81648248D01*
X204164283Y-81709105D01*
X204068661Y-81747892D01*
X203952690Y-81765434D01*
X203815221Y-81762553D01*
X203764662Y-81757226D01*
X203576686Y-81723718D01*
X203394538Y-81669087D01*
X203268685Y-81618494D01*
X203208561Y-81592699D01*
X203157394Y-81571969D01*
X203122311Y-81559129D01*
X203112075Y-81556403D01*
X203099102Y-81568490D01*
X203076843Y-81607058D01*
X203045090Y-81672545D01*
X203003632Y-81765384D01*
X202952261Y-81886013D01*
X202943477Y-81907035D01*
X202903461Y-82003315D01*
X202867541Y-82090315D01*
X202837269Y-82164231D01*
X202814196Y-82221259D01*
X202799874Y-82257593D01*
X202795738Y-82269361D01*
X202809050Y-82275691D01*
X202844033Y-82282717D01*
X202881674Y-82287615D01*
X202921823Y-82293948D01*
X202985446Y-82306523D01*
X203066897Y-82324108D01*
X203160536Y-82345470D01*
X203260720Y-82369375D01*
X203298745Y-82378725D01*
X203438619Y-82412792D01*
X203555331Y-82439502D01*
X203654635Y-82459709D01*
X203742285Y-82474266D01*
X203824036Y-82484027D01*
X203905641Y-82489844D01*
X203992856Y-82492570D01*
X204070098Y-82493100D01*
X204295692Y-82484229D01*
G36*
X201173458Y-83705727D02*
X201386664Y-83677537D01*
X201604927Y-83624097D01*
X201830996Y-83544875D01*
X202067618Y-83439344D01*
X202082620Y-83431962D01*
X202159432Y-83394650D01*
X202228060Y-83362595D01*
X202283497Y-83338034D01*
X202320736Y-83323208D01*
X202333478Y-83319816D01*
X202359063Y-83313149D01*
X202365203Y-83307549D01*
X202358408Y-83293659D01*
X202337053Y-83258660D01*
X202303596Y-83206220D01*
X202260494Y-83140006D01*
X202210208Y-83063686D01*
X202155195Y-82980927D01*
X202097914Y-82895399D01*
X202040823Y-82810767D01*
X201986383Y-82730700D01*
X201937050Y-82658866D01*
X201895283Y-82598932D01*
X201863542Y-82554565D01*
X201844285Y-82529435D01*
X201841642Y-82526520D01*
X201828171Y-82532709D01*
X201798427Y-82555577D01*
X201757727Y-82590886D01*
X201736766Y-82610160D01*
X201608304Y-82710386D01*
X201466234Y-82784198D01*
X201312456Y-82830930D01*
X201148872Y-82849916D01*
X201056475Y-82848357D01*
X200895195Y-82825510D01*
X200749787Y-82777738D01*
X200619816Y-82704692D01*
X200504847Y-82606024D01*
X200404446Y-82481385D01*
X200318178Y-82330424D01*
X200268361Y-82215141D01*
X200209978Y-82034476D01*
X200166948Y-81838122D01*
X200139160Y-81631143D01*
X200126505Y-81418602D01*
X200128870Y-81205562D01*
X200146145Y-80997087D01*
X200178219Y-80798239D01*
X200224982Y-80614082D01*
X200286323Y-80449680D01*
X200308000Y-80404076D01*
X200398860Y-80252186D01*
X200505981Y-80123719D01*
X200627788Y-80019722D01*
X200762710Y-79941242D01*
X200909171Y-79889326D01*
X201065600Y-79865021D01*
X201120808Y-79863233D01*
X201282646Y-79877772D01*
X201442991Y-79921463D01*
X201599810Y-79993402D01*
X201751067Y-80092688D01*
X201872764Y-80196968D01*
X201934712Y-80256255D01*
X202176045Y-79860491D01*
X202236086Y-79761754D01*
X202290989Y-79670938D01*
X202338806Y-79591305D01*
X202377591Y-79526120D01*
X202405394Y-79478646D01*
X202420270Y-79452145D01*
X202422203Y-79448025D01*
X202411247Y-79435191D01*
X202377193Y-79412184D01*
X202324345Y-79381185D01*
X202257011Y-79344371D01*
X202179494Y-79303922D01*
X202096102Y-79262018D01*
X202011140Y-79220837D01*
X201928914Y-79182558D01*
X201853729Y-79149362D01*
X201789891Y-79123425D01*
X201758667Y-79112203D01*
X201580577Y-79061858D01*
X201396991Y-79028570D01*
X201200342Y-79011257D01*
X201031541Y-79008157D01*
X200941067Y-79009615D01*
X200853729Y-79012408D01*
X200777268Y-79016191D01*
X200719430Y-79020622D01*
X200700651Y-79022863D01*
X200515572Y-79061253D01*
X200327149Y-79121323D01*
X200144110Y-79199498D01*
X199975187Y-79292200D01*
X199871999Y-79362336D01*
X199702374Y-79506391D01*
X199544870Y-79674898D01*
X199402405Y-79863692D01*
X199277897Y-80068609D01*
X199174262Y-80285485D01*
X199115876Y-80441650D01*
X199048978Y-80686124D01*
X199004379Y-80945136D01*
X198982065Y-81213081D01*
X198982021Y-81484355D01*
X199004234Y-81753353D01*
X199048691Y-82014471D01*
X199115376Y-82262105D01*
X199120457Y-82277534D01*
X199204178Y-82493285D01*
X199306356Y-82690217D01*
X199430458Y-82873901D01*
X199579950Y-83049912D01*
X199638350Y-83110173D01*
X199819604Y-83275184D01*
X200005937Y-83411705D01*
X200200209Y-83521221D01*
X200405279Y-83605219D01*
X200624010Y-83665185D01*
X200751230Y-83688470D01*
X200962563Y-83709195D01*
X201173458Y-83705727D01*
X201173458Y-83705727D01*
G37*
X201173458Y-83705727D02*
X201386664Y-83677537D01*
X201604927Y-83624097D01*
X201830996Y-83544875D01*
X202067618Y-83439344D01*
X202082620Y-83431962D01*
X202159432Y-83394650D01*
X202228060Y-83362595D01*
X202283497Y-83338034D01*
X202320736Y-83323208D01*
X202333478Y-83319816D01*
X202359063Y-83313149D01*
X202365203Y-83307549D01*
X202358408Y-83293659D01*
X202337053Y-83258660D01*
X202303596Y-83206220D01*
X202260494Y-83140006D01*
X202210208Y-83063686D01*
X202155195Y-82980927D01*
X202097914Y-82895399D01*
X202040823Y-82810767D01*
X201986383Y-82730700D01*
X201937050Y-82658866D01*
X201895283Y-82598932D01*
X201863542Y-82554565D01*
X201844285Y-82529435D01*
X201841642Y-82526520D01*
X201828171Y-82532709D01*
X201798427Y-82555577D01*
X201757727Y-82590886D01*
X201736766Y-82610160D01*
X201608304Y-82710386D01*
X201466234Y-82784198D01*
X201312456Y-82830930D01*
X201148872Y-82849916D01*
X201056475Y-82848357D01*
X200895195Y-82825510D01*
X200749787Y-82777738D01*
X200619816Y-82704692D01*
X200504847Y-82606024D01*
X200404446Y-82481385D01*
X200318178Y-82330424D01*
X200268361Y-82215141D01*
X200209978Y-82034476D01*
X200166948Y-81838122D01*
X200139160Y-81631143D01*
X200126505Y-81418602D01*
X200128870Y-81205562D01*
X200146145Y-80997087D01*
X200178219Y-80798239D01*
X200224982Y-80614082D01*
X200286323Y-80449680D01*
X200308000Y-80404076D01*
X200398860Y-80252186D01*
X200505981Y-80123719D01*
X200627788Y-80019722D01*
X200762710Y-79941242D01*
X200909171Y-79889326D01*
X201065600Y-79865021D01*
X201120808Y-79863233D01*
X201282646Y-79877772D01*
X201442991Y-79921463D01*
X201599810Y-79993402D01*
X201751067Y-80092688D01*
X201872764Y-80196968D01*
X201934712Y-80256255D01*
X202176045Y-79860491D01*
X202236086Y-79761754D01*
X202290989Y-79670938D01*
X202338806Y-79591305D01*
X202377591Y-79526120D01*
X202405394Y-79478646D01*
X202420270Y-79452145D01*
X202422203Y-79448025D01*
X202411247Y-79435191D01*
X202377193Y-79412184D01*
X202324345Y-79381185D01*
X202257011Y-79344371D01*
X202179494Y-79303922D01*
X202096102Y-79262018D01*
X202011140Y-79220837D01*
X201928914Y-79182558D01*
X201853729Y-79149362D01*
X201789891Y-79123425D01*
X201758667Y-79112203D01*
X201580577Y-79061858D01*
X201396991Y-79028570D01*
X201200342Y-79011257D01*
X201031541Y-79008157D01*
X200941067Y-79009615D01*
X200853729Y-79012408D01*
X200777268Y-79016191D01*
X200719430Y-79020622D01*
X200700651Y-79022863D01*
X200515572Y-79061253D01*
X200327149Y-79121323D01*
X200144110Y-79199498D01*
X199975187Y-79292200D01*
X199871999Y-79362336D01*
X199702374Y-79506391D01*
X199544870Y-79674898D01*
X199402405Y-79863692D01*
X199277897Y-80068609D01*
X199174262Y-80285485D01*
X199115876Y-80441650D01*
X199048978Y-80686124D01*
X199004379Y-80945136D01*
X198982065Y-81213081D01*
X198982021Y-81484355D01*
X199004234Y-81753353D01*
X199048691Y-82014471D01*
X199115376Y-82262105D01*
X199120457Y-82277534D01*
X199204178Y-82493285D01*
X199306356Y-82690217D01*
X199430458Y-82873901D01*
X199579950Y-83049912D01*
X199638350Y-83110173D01*
X199819604Y-83275184D01*
X200005937Y-83411705D01*
X200200209Y-83521221D01*
X200405279Y-83605219D01*
X200624010Y-83665185D01*
X200751230Y-83688470D01*
X200962563Y-83709195D01*
X201173458Y-83705727D01*
G36*
X196813478Y-84318176D02*
X196827944Y-84166481D01*
X196870037Y-84023197D01*
X196937807Y-83891393D01*
X197029301Y-83774142D01*
X197142565Y-83674513D01*
X197271690Y-83597471D01*
X197413172Y-83544721D01*
X197555646Y-83519999D01*
X197696304Y-83521516D01*
X197832336Y-83547483D01*
X197960933Y-83596110D01*
X198079286Y-83665607D01*
X198184586Y-83754186D01*
X198274023Y-83860057D01*
X198344788Y-83981430D01*
X198394071Y-84116517D01*
X198419065Y-84263526D01*
X198421644Y-84329956D01*
X198421644Y-84447035D01*
X198490780Y-84447035D01*
X198539119Y-84443247D01*
X198574929Y-84427538D01*
X198611017Y-84395934D01*
X198662117Y-84344833D01*
X198662117Y-81427062D01*
X198662105Y-81078062D01*
X198662062Y-80757868D01*
X198661977Y-80465226D01*
X198661839Y-80198882D01*
X198661638Y-79957583D01*
X198661362Y-79740075D01*
X198661000Y-79545105D01*
X198660542Y-79371420D01*
X198659977Y-79217765D01*
X198659294Y-79082887D01*
X198658483Y-78965532D01*
X198657531Y-78864447D01*
X198656429Y-78778379D01*
X198655165Y-78706073D01*
X198653730Y-78646277D01*
X198652111Y-78597736D01*
X198650298Y-78559197D01*
X198648280Y-78529407D01*
X198646046Y-78507111D01*
X198643586Y-78491057D01*
X198640888Y-78479990D01*
X198637942Y-78472658D01*
X198636501Y-78470195D01*
X198630959Y-78460860D01*
X198626253Y-78452277D01*
X198621155Y-78444416D01*
X198614435Y-78437245D01*
X198604864Y-78430733D01*
X198591214Y-78424847D01*
X198572255Y-78419558D01*
X198546758Y-78414832D01*
X198513495Y-78410640D01*
X198471236Y-78406949D01*
X198418752Y-78403728D01*
X198354814Y-78400946D01*
X198278193Y-78398570D01*
X198187660Y-78396571D01*
X198081986Y-78394916D01*
X197959942Y-78393573D01*
X197820299Y-78392513D01*
X197661828Y-78391702D01*
X197483300Y-78391110D01*
X197283485Y-78390705D01*
X197061155Y-78390456D01*
X196815081Y-78390331D01*
X196544034Y-78390299D01*
X196246784Y-78390329D01*
X195922103Y-78390389D01*
X195568762Y-78390448D01*
X195517659Y-78390454D01*
X195162215Y-78390511D01*
X194835606Y-78390605D01*
X194536608Y-78390745D01*
X194263996Y-78390941D01*
X194016547Y-78391203D01*
X193793036Y-78391540D01*
X193592240Y-78391961D01*
X193412934Y-78392477D01*
X193253893Y-78393096D01*
X193113894Y-78393829D01*
X192991713Y-78394685D01*
X192886125Y-78395674D01*
X192795907Y-78396806D01*
X192719834Y-78398089D01*
X192656681Y-78399534D01*
X192605225Y-78401151D01*
X192564242Y-78402948D01*
X192532508Y-78404935D01*
X192508798Y-78407123D01*
X192491888Y-78409521D01*
X192480554Y-78412137D01*
X192474752Y-78414359D01*
X192463486Y-78419112D01*
X192453142Y-78422622D01*
X192443683Y-78426132D01*
X192435068Y-78430887D01*
X192427258Y-78438131D01*
X192420215Y-78449109D01*
X192413898Y-78465065D01*
X192408269Y-78487245D01*
X192403288Y-78516891D01*
X192398916Y-78555249D01*
X192395114Y-78603563D01*
X192391842Y-78663078D01*
X192389061Y-78735037D01*
X192386733Y-78820687D01*
X192384817Y-78921269D01*
X192383275Y-79038031D01*
X192382066Y-79172215D01*
X192381153Y-79325066D01*
X192380495Y-79497829D01*
X192380054Y-79691748D01*
X192379789Y-79908067D01*
X192379664Y-80148032D01*
X192379636Y-80412886D01*
X192379667Y-80703874D01*
X192379719Y-81022240D01*
X192379751Y-81369230D01*
X192379751Y-81425348D01*
X192379733Y-81775359D01*
X192379699Y-82096564D01*
X192379685Y-82390217D01*
X192379724Y-82657572D01*
X192379849Y-82899883D01*
X192380097Y-83118403D01*
X192380500Y-83314387D01*
X192381093Y-83489087D01*
X192381865Y-83635437D01*
X192785051Y-83635437D01*
X192838026Y-83558425D01*
X192852898Y-83537432D01*
X192866305Y-83518844D01*
X192878324Y-83501080D01*
X192889030Y-83482562D01*
X192898497Y-83461709D01*
X192906803Y-83436943D01*
X192914022Y-83406683D01*
X192920231Y-83369350D01*
X192925504Y-83323365D01*
X192929918Y-83267148D01*
X192933548Y-83199120D01*
X192936470Y-83117700D01*
X192938759Y-83021310D01*
X192940491Y-82908370D01*
X192941742Y-82777301D01*
X192942586Y-82626522D01*
X192943101Y-82454454D01*
X192943361Y-82259519D01*
X192943443Y-82040135D01*
X192943421Y-81794724D01*
X192943372Y-81521706D01*
X192943360Y-81358455D01*
X192943392Y-81069617D01*
X192943437Y-80809257D01*
X192943421Y-80575794D01*
X192943269Y-80367646D01*
X192942906Y-80183231D01*
X192942257Y-80020969D01*
X192941247Y-79879278D01*
X192939801Y-79756576D01*
X192937845Y-79651283D01*
X192935304Y-79561817D01*
X192932103Y-79486597D01*
X192928167Y-79424041D01*
X192923420Y-79372568D01*
X192917790Y-79330597D01*
X192911199Y-79296547D01*
X192903574Y-79268835D01*
X192894840Y-79245882D01*
X192884921Y-79226104D01*
X192873744Y-79207922D01*
X192861233Y-79189754D01*
X192847312Y-79170018D01*
X192839203Y-79158181D01*
X192787582Y-79081472D01*
X193495286Y-79081472D01*
X193659374Y-79081519D01*
X193795833Y-79081719D01*
X193907091Y-79082167D01*
X193995579Y-79082956D01*
X194063724Y-79084180D01*
X194113957Y-79085931D01*
X194148707Y-79088303D01*
X194170402Y-79091390D01*
X194181473Y-79095284D01*
X194184349Y-79100080D01*
X194181459Y-79105870D01*
X194179867Y-79107774D01*
X194146383Y-79157130D01*
X194111904Y-79227427D01*
X194080471Y-79309973D01*
X194069462Y-79345139D01*
X194063316Y-79369025D01*
X194058122Y-79397065D01*
X194053770Y-79432035D01*
X194050152Y-79476711D01*
X194047157Y-79533871D01*
X194044677Y-79606290D01*
X194042602Y-79696745D01*
X194040823Y-79808012D01*
X194039230Y-79942869D01*
X194037714Y-80104091D01*
X194037212Y-80163603D01*
X194035858Y-80330224D01*
X194034848Y-80469174D01*
X194034259Y-80582839D01*
X194034169Y-80673604D01*
X194034656Y-80743856D01*
X194035797Y-80795981D01*
X194037670Y-80832366D01*
X194040353Y-80855396D01*
X194043924Y-80867458D01*
X194048461Y-80870939D01*
X194054041Y-80868224D01*
X194059997Y-80862478D01*
X194073783Y-80845257D01*
X194103150Y-80806549D01*
X194146021Y-80749190D01*
X194200318Y-80676019D01*
X194263963Y-80589874D01*
X194334877Y-80493591D01*
X194410984Y-80390008D01*
X194490205Y-80281963D01*
X194570462Y-80172293D01*
X194649678Y-80063836D01*
X194725774Y-79959430D01*
X194796673Y-79861911D01*
X194860297Y-79774117D01*
X194914567Y-79698886D01*
X194957407Y-79639056D01*
X194986738Y-79597463D01*
X194992820Y-79588633D01*
X195023336Y-79539502D01*
X195059028Y-79475610D01*
X195092843Y-79409658D01*
X195097131Y-79400763D01*
X195125992Y-79336598D01*
X195142748Y-79286590D01*
X195150377Y-79238893D01*
X195151866Y-79182922D01*
X195151022Y-79081472D01*
X196687996Y-79081472D01*
X196566625Y-79206262D01*
X196504321Y-79272690D01*
X196437370Y-79347884D01*
X196376068Y-79420137D01*
X196348875Y-79453890D01*
X196308351Y-79506539D01*
X196255024Y-79577383D01*
X196190453Y-79664253D01*
X196116199Y-79764978D01*
X196033819Y-79877391D01*
X195944874Y-79999321D01*
X195850922Y-80128598D01*
X195753522Y-80263054D01*
X195654235Y-80400519D01*
X195554619Y-80538823D01*
X195456233Y-80675797D01*
X195360636Y-80809271D01*
X195269388Y-80937076D01*
X195184048Y-81057043D01*
X195106175Y-81167001D01*
X195037329Y-81264782D01*
X194979068Y-81348216D01*
X194932951Y-81415134D01*
X194900539Y-81463366D01*
X194883390Y-81490742D01*
X194881050Y-81496204D01*
X194891646Y-81511283D01*
X194919332Y-81547470D01*
X194962291Y-81602499D01*
X195018710Y-81674107D01*
X195086774Y-81760029D01*
X195164667Y-81858002D01*
X195250575Y-81965762D01*
X195342683Y-82081045D01*
X195439177Y-82201586D01*
X195538241Y-82325121D01*
X195617762Y-82424118D01*
X196963774Y-82424118D01*
X196971642Y-82406867D01*
X196990720Y-82377245D01*
X196992114Y-82375272D01*
X197017127Y-82335127D01*
X197043284Y-82286091D01*
X197048475Y-82275259D01*
X197053183Y-82264037D01*
X197057343Y-82250566D01*
X197060997Y-82232990D01*
X197064185Y-82209455D01*
X197066945Y-82178106D01*
X197069319Y-82137088D01*
X197071347Y-82084548D01*
X197073068Y-82018629D01*
X197074524Y-81937477D01*
X197075753Y-81839238D01*
X197076796Y-81722057D01*
X197077694Y-81584079D01*
X197078486Y-81423449D01*
X197079212Y-81238312D01*
X197079913Y-81026814D01*
X197080623Y-80788691D01*
X197081340Y-80542233D01*
X197081918Y-80323971D01*
X197082269Y-80132045D01*
X197082302Y-79964593D01*
X197081928Y-79819751D01*
X197081057Y-79695660D01*
X197079599Y-79590456D01*
X197077464Y-79502278D01*
X197074563Y-79429264D01*
X197070806Y-79369552D01*
X197066103Y-79321280D01*
X197060365Y-79282586D01*
X197053501Y-79251609D01*
X197045422Y-79226486D01*
X197036038Y-79205355D01*
X197025260Y-79186355D01*
X197012997Y-79167624D01*
X197001680Y-79151025D01*
X196978866Y-79116018D01*
X196965357Y-79092607D01*
X196963774Y-79088320D01*
X196978295Y-79086886D01*
X197019825Y-79085554D01*
X197085311Y-79084355D01*
X197171705Y-79083323D01*
X197275954Y-79082488D01*
X197395008Y-79081883D01*
X197525816Y-79081540D01*
X197617561Y-79081472D01*
X197757345Y-79081766D01*
X197886276Y-79082607D01*
X198001442Y-79083937D01*
X198099930Y-79085697D01*
X198178824Y-79087828D01*
X198235212Y-79090272D01*
X198266180Y-79092969D01*
X198271348Y-79094662D01*
X198261100Y-79114503D01*
X198250451Y-79125194D01*
X198232914Y-79147996D01*
X198209963Y-79188271D01*
X198194090Y-79220969D01*
X198158626Y-79299401D01*
X198154532Y-80866236D01*
X198150438Y-82433070D01*
X197557106Y-82433070D01*
X197426877Y-82432851D01*
X197306530Y-82432227D01*
X197199268Y-82431247D01*
X197108293Y-82429957D01*
X197036807Y-82428408D01*
X196988014Y-82426646D01*
X196965115Y-82424721D01*
X196963774Y-82424118D01*
X195617762Y-82424118D01*
X195638060Y-82449387D01*
X195736820Y-82572119D01*
X195832707Y-82691053D01*
X195923904Y-82803926D01*
X196008598Y-82908472D01*
X196084973Y-83002429D01*
X196151216Y-83083532D01*
X196205510Y-83149516D01*
X196228362Y-83177035D01*
X196343248Y-83311051D01*
X196445229Y-83421897D01*
X196536845Y-83512191D01*
X196620634Y-83584549D01*
X196633123Y-83594358D01*
X196685727Y-83635104D01*
X195932336Y-83635270D01*
X195178946Y-83635437D01*
X195185987Y-83571561D01*
X195181590Y-83495216D01*
X195152924Y-83404318D01*
X195099704Y-83298143D01*
X195039383Y-83201908D01*
X195017791Y-83171759D01*
X194980442Y-83121759D01*
X194929563Y-83054758D01*
X194867380Y-82973609D01*
X194796119Y-82881162D01*
X194718008Y-82780267D01*
X194635272Y-82673777D01*
X194550137Y-82564542D01*
X194464831Y-82455413D01*
X194381579Y-82349241D01*
X194302608Y-82248877D01*
X194230145Y-82157173D01*
X194166415Y-82076979D01*
X194113645Y-82011146D01*
X194074062Y-81962526D01*
X194049891Y-81933970D01*
X194045819Y-81929579D01*
X194042012Y-81940238D01*
X194039065Y-81980570D01*
X194036983Y-82050200D01*
X194035771Y-82148753D01*
X194035434Y-82275856D01*
X194035977Y-82431132D01*
X194037187Y-82590881D01*
X194038947Y-82766769D01*
X194040977Y-82915533D01*
X194043607Y-83040108D01*
X194047169Y-83143429D01*
X194051994Y-83228431D01*
X194058413Y-83298048D01*
X194066756Y-83355216D01*
X194077356Y-83402869D01*
X194090543Y-83443943D01*
X194106648Y-83481373D01*
X194126003Y-83518093D01*
X194145550Y-83551429D01*
X194196137Y-83635437D01*
X192785051Y-83635437D01*
X192381865Y-83635437D01*
X192381909Y-83643758D01*
X192382982Y-83779653D01*
X192384347Y-83898026D01*
X192386038Y-84000131D01*
X192388088Y-84087221D01*
X192390532Y-84160550D01*
X192393404Y-84221371D01*
X192396738Y-84270940D01*
X192400567Y-84310508D01*
X192404926Y-84341330D01*
X192409849Y-84364660D01*
X192415370Y-84381752D01*
X192421522Y-84393858D01*
X192428341Y-84402233D01*
X192435860Y-84408130D01*
X192444113Y-84412804D01*
X192453133Y-84417507D01*
X192461116Y-84422258D01*
X192468083Y-84425688D01*
X192478968Y-84428788D01*
X192495228Y-84431575D01*
X192518321Y-84434066D01*
X192549703Y-84436277D01*
X192590832Y-84438224D01*
X192643166Y-84439924D01*
X192708161Y-84441393D01*
X192787275Y-84442648D01*
X192881964Y-84443706D01*
X192993688Y-84444582D01*
X193123901Y-84445293D01*
X193274063Y-84445855D01*
X193445630Y-84446286D01*
X193640059Y-84446601D01*
X193858808Y-84446817D01*
X194103334Y-84446950D01*
X194375095Y-84447017D01*
X194656204Y-84447035D01*
X196813478Y-84447035D01*
X196813478Y-84318176D01*
X196813478Y-84318176D01*
G37*
X196813478Y-84318176D02*
X196827944Y-84166481D01*
X196870037Y-84023197D01*
X196937807Y-83891393D01*
X197029301Y-83774142D01*
X197142565Y-83674513D01*
X197271690Y-83597471D01*
X197413172Y-83544721D01*
X197555646Y-83519999D01*
X197696304Y-83521516D01*
X197832336Y-83547483D01*
X197960933Y-83596110D01*
X198079286Y-83665607D01*
X198184586Y-83754186D01*
X198274023Y-83860057D01*
X198344788Y-83981430D01*
X198394071Y-84116517D01*
X198419065Y-84263526D01*
X198421644Y-84329956D01*
X198421644Y-84447035D01*
X198490780Y-84447035D01*
X198539119Y-84443247D01*
X198574929Y-84427538D01*
X198611017Y-84395934D01*
X198662117Y-84344833D01*
X198662117Y-81427062D01*
X198662105Y-81078062D01*
X198662062Y-80757868D01*
X198661977Y-80465226D01*
X198661839Y-80198882D01*
X198661638Y-79957583D01*
X198661362Y-79740075D01*
X198661000Y-79545105D01*
X198660542Y-79371420D01*
X198659977Y-79217765D01*
X198659294Y-79082887D01*
X198658483Y-78965532D01*
X198657531Y-78864447D01*
X198656429Y-78778379D01*
X198655165Y-78706073D01*
X198653730Y-78646277D01*
X198652111Y-78597736D01*
X198650298Y-78559197D01*
X198648280Y-78529407D01*
X198646046Y-78507111D01*
X198643586Y-78491057D01*
X198640888Y-78479990D01*
X198637942Y-78472658D01*
X198636501Y-78470195D01*
X198630959Y-78460860D01*
X198626253Y-78452277D01*
X198621155Y-78444416D01*
X198614435Y-78437245D01*
X198604864Y-78430733D01*
X198591214Y-78424847D01*
X198572255Y-78419558D01*
X198546758Y-78414832D01*
X198513495Y-78410640D01*
X198471236Y-78406949D01*
X198418752Y-78403728D01*
X198354814Y-78400946D01*
X198278193Y-78398570D01*
X198187660Y-78396571D01*
X198081986Y-78394916D01*
X197959942Y-78393573D01*
X197820299Y-78392513D01*
X197661828Y-78391702D01*
X197483300Y-78391110D01*
X197283485Y-78390705D01*
X197061155Y-78390456D01*
X196815081Y-78390331D01*
X196544034Y-78390299D01*
X196246784Y-78390329D01*
X195922103Y-78390389D01*
X195568762Y-78390448D01*
X195517659Y-78390454D01*
X195162215Y-78390511D01*
X194835606Y-78390605D01*
X194536608Y-78390745D01*
X194263996Y-78390941D01*
X194016547Y-78391203D01*
X193793036Y-78391540D01*
X193592240Y-78391961D01*
X193412934Y-78392477D01*
X193253893Y-78393096D01*
X193113894Y-78393829D01*
X192991713Y-78394685D01*
X192886125Y-78395674D01*
X192795907Y-78396806D01*
X192719834Y-78398089D01*
X192656681Y-78399534D01*
X192605225Y-78401151D01*
X192564242Y-78402948D01*
X192532508Y-78404935D01*
X192508798Y-78407123D01*
X192491888Y-78409521D01*
X192480554Y-78412137D01*
X192474752Y-78414359D01*
X192463486Y-78419112D01*
X192453142Y-78422622D01*
X192443683Y-78426132D01*
X192435068Y-78430887D01*
X192427258Y-78438131D01*
X192420215Y-78449109D01*
X192413898Y-78465065D01*
X192408269Y-78487245D01*
X192403288Y-78516891D01*
X192398916Y-78555249D01*
X192395114Y-78603563D01*
X192391842Y-78663078D01*
X192389061Y-78735037D01*
X192386733Y-78820687D01*
X192384817Y-78921269D01*
X192383275Y-79038031D01*
X192382066Y-79172215D01*
X192381153Y-79325066D01*
X192380495Y-79497829D01*
X192380054Y-79691748D01*
X192379789Y-79908067D01*
X192379664Y-80148032D01*
X192379636Y-80412886D01*
X192379667Y-80703874D01*
X192379719Y-81022240D01*
X192379751Y-81369230D01*
X192379751Y-81425348D01*
X192379733Y-81775359D01*
X192379699Y-82096564D01*
X192379685Y-82390217D01*
X192379724Y-82657572D01*
X192379849Y-82899883D01*
X192380097Y-83118403D01*
X192380500Y-83314387D01*
X192381093Y-83489087D01*
X192381865Y-83635437D01*
X192785051Y-83635437D01*
X192838026Y-83558425D01*
X192852898Y-83537432D01*
X192866305Y-83518844D01*
X192878324Y-83501080D01*
X192889030Y-83482562D01*
X192898497Y-83461709D01*
X192906803Y-83436943D01*
X192914022Y-83406683D01*
X192920231Y-83369350D01*
X192925504Y-83323365D01*
X192929918Y-83267148D01*
X192933548Y-83199120D01*
X192936470Y-83117700D01*
X192938759Y-83021310D01*
X192940491Y-82908370D01*
X192941742Y-82777301D01*
X192942586Y-82626522D01*
X192943101Y-82454454D01*
X192943361Y-82259519D01*
X192943443Y-82040135D01*
X192943421Y-81794724D01*
X192943372Y-81521706D01*
X192943360Y-81358455D01*
X192943392Y-81069617D01*
X192943437Y-80809257D01*
X192943421Y-80575794D01*
X192943269Y-80367646D01*
X192942906Y-80183231D01*
X192942257Y-80020969D01*
X192941247Y-79879278D01*
X192939801Y-79756576D01*
X192937845Y-79651283D01*
X192935304Y-79561817D01*
X192932103Y-79486597D01*
X192928167Y-79424041D01*
X192923420Y-79372568D01*
X192917790Y-79330597D01*
X192911199Y-79296547D01*
X192903574Y-79268835D01*
X192894840Y-79245882D01*
X192884921Y-79226104D01*
X192873744Y-79207922D01*
X192861233Y-79189754D01*
X192847312Y-79170018D01*
X192839203Y-79158181D01*
X192787582Y-79081472D01*
X193495286Y-79081472D01*
X193659374Y-79081519D01*
X193795833Y-79081719D01*
X193907091Y-79082167D01*
X193995579Y-79082956D01*
X194063724Y-79084180D01*
X194113957Y-79085931D01*
X194148707Y-79088303D01*
X194170402Y-79091390D01*
X194181473Y-79095284D01*
X194184349Y-79100080D01*
X194181459Y-79105870D01*
X194179867Y-79107774D01*
X194146383Y-79157130D01*
X194111904Y-79227427D01*
X194080471Y-79309973D01*
X194069462Y-79345139D01*
X194063316Y-79369025D01*
X194058122Y-79397065D01*
X194053770Y-79432035D01*
X194050152Y-79476711D01*
X194047157Y-79533871D01*
X194044677Y-79606290D01*
X194042602Y-79696745D01*
X194040823Y-79808012D01*
X194039230Y-79942869D01*
X194037714Y-80104091D01*
X194037212Y-80163603D01*
X194035858Y-80330224D01*
X194034848Y-80469174D01*
X194034259Y-80582839D01*
X194034169Y-80673604D01*
X194034656Y-80743856D01*
X194035797Y-80795981D01*
X194037670Y-80832366D01*
X194040353Y-80855396D01*
X194043924Y-80867458D01*
X194048461Y-80870939D01*
X194054041Y-80868224D01*
X194059997Y-80862478D01*
X194073783Y-80845257D01*
X194103150Y-80806549D01*
X194146021Y-80749190D01*
X194200318Y-80676019D01*
X194263963Y-80589874D01*
X194334877Y-80493591D01*
X194410984Y-80390008D01*
X194490205Y-80281963D01*
X194570462Y-80172293D01*
X194649678Y-80063836D01*
X194725774Y-79959430D01*
X194796673Y-79861911D01*
X194860297Y-79774117D01*
X194914567Y-79698886D01*
X194957407Y-79639056D01*
X194986738Y-79597463D01*
X194992820Y-79588633D01*
X195023336Y-79539502D01*
X195059028Y-79475610D01*
X195092843Y-79409658D01*
X195097131Y-79400763D01*
X195125992Y-79336598D01*
X195142748Y-79286590D01*
X195150377Y-79238893D01*
X195151866Y-79182922D01*
X195151022Y-79081472D01*
X196687996Y-79081472D01*
X196566625Y-79206262D01*
X196504321Y-79272690D01*
X196437370Y-79347884D01*
X196376068Y-79420137D01*
X196348875Y-79453890D01*
X196308351Y-79506539D01*
X196255024Y-79577383D01*
X196190453Y-79664253D01*
X196116199Y-79764978D01*
X196033819Y-79877391D01*
X195944874Y-79999321D01*
X195850922Y-80128598D01*
X195753522Y-80263054D01*
X195654235Y-80400519D01*
X195554619Y-80538823D01*
X195456233Y-80675797D01*
X195360636Y-80809271D01*
X195269388Y-80937076D01*
X195184048Y-81057043D01*
X195106175Y-81167001D01*
X195037329Y-81264782D01*
X194979068Y-81348216D01*
X194932951Y-81415134D01*
X194900539Y-81463366D01*
X194883390Y-81490742D01*
X194881050Y-81496204D01*
X194891646Y-81511283D01*
X194919332Y-81547470D01*
X194962291Y-81602499D01*
X195018710Y-81674107D01*
X195086774Y-81760029D01*
X195164667Y-81858002D01*
X195250575Y-81965762D01*
X195342683Y-82081045D01*
X195439177Y-82201586D01*
X195538241Y-82325121D01*
X195617762Y-82424118D01*
X196963774Y-82424118D01*
X196971642Y-82406867D01*
X196990720Y-82377245D01*
X196992114Y-82375272D01*
X197017127Y-82335127D01*
X197043284Y-82286091D01*
X197048475Y-82275259D01*
X197053183Y-82264037D01*
X197057343Y-82250566D01*
X197060997Y-82232990D01*
X197064185Y-82209455D01*
X197066945Y-82178106D01*
X197069319Y-82137088D01*
X197071347Y-82084548D01*
X197073068Y-82018629D01*
X197074524Y-81937477D01*
X197075753Y-81839238D01*
X197076796Y-81722057D01*
X197077694Y-81584079D01*
X197078486Y-81423449D01*
X197079212Y-81238312D01*
X197079913Y-81026814D01*
X197080623Y-80788691D01*
X197081340Y-80542233D01*
X197081918Y-80323971D01*
X197082269Y-80132045D01*
X197082302Y-79964593D01*
X197081928Y-79819751D01*
X197081057Y-79695660D01*
X197079599Y-79590456D01*
X197077464Y-79502278D01*
X197074563Y-79429264D01*
X197070806Y-79369552D01*
X197066103Y-79321280D01*
X197060365Y-79282586D01*
X197053501Y-79251609D01*
X197045422Y-79226486D01*
X197036038Y-79205355D01*
X197025260Y-79186355D01*
X197012997Y-79167624D01*
X197001680Y-79151025D01*
X196978866Y-79116018D01*
X196965357Y-79092607D01*
X196963774Y-79088320D01*
X196978295Y-79086886D01*
X197019825Y-79085554D01*
X197085311Y-79084355D01*
X197171705Y-79083323D01*
X197275954Y-79082488D01*
X197395008Y-79081883D01*
X197525816Y-79081540D01*
X197617561Y-79081472D01*
X197757345Y-79081766D01*
X197886276Y-79082607D01*
X198001442Y-79083937D01*
X198099930Y-79085697D01*
X198178824Y-79087828D01*
X198235212Y-79090272D01*
X198266180Y-79092969D01*
X198271348Y-79094662D01*
X198261100Y-79114503D01*
X198250451Y-79125194D01*
X198232914Y-79147996D01*
X198209963Y-79188271D01*
X198194090Y-79220969D01*
X198158626Y-79299401D01*
X198154532Y-80866236D01*
X198150438Y-82433070D01*
X197557106Y-82433070D01*
X197426877Y-82432851D01*
X197306530Y-82432227D01*
X197199268Y-82431247D01*
X197108293Y-82429957D01*
X197036807Y-82428408D01*
X196988014Y-82426646D01*
X196965115Y-82424721D01*
X196963774Y-82424118D01*
X195617762Y-82424118D01*
X195638060Y-82449387D01*
X195736820Y-82572119D01*
X195832707Y-82691053D01*
X195923904Y-82803926D01*
X196008598Y-82908472D01*
X196084973Y-83002429D01*
X196151216Y-83083532D01*
X196205510Y-83149516D01*
X196228362Y-83177035D01*
X196343248Y-83311051D01*
X196445229Y-83421897D01*
X196536845Y-83512191D01*
X196620634Y-83584549D01*
X196633123Y-83594358D01*
X196685727Y-83635104D01*
X195932336Y-83635270D01*
X195178946Y-83635437D01*
X195185987Y-83571561D01*
X195181590Y-83495216D01*
X195152924Y-83404318D01*
X195099704Y-83298143D01*
X195039383Y-83201908D01*
X195017791Y-83171759D01*
X194980442Y-83121759D01*
X194929563Y-83054758D01*
X194867380Y-82973609D01*
X194796119Y-82881162D01*
X194718008Y-82780267D01*
X194635272Y-82673777D01*
X194550137Y-82564542D01*
X194464831Y-82455413D01*
X194381579Y-82349241D01*
X194302608Y-82248877D01*
X194230145Y-82157173D01*
X194166415Y-82076979D01*
X194113645Y-82011146D01*
X194074062Y-81962526D01*
X194049891Y-81933970D01*
X194045819Y-81929579D01*
X194042012Y-81940238D01*
X194039065Y-81980570D01*
X194036983Y-82050200D01*
X194035771Y-82148753D01*
X194035434Y-82275856D01*
X194035977Y-82431132D01*
X194037187Y-82590881D01*
X194038947Y-82766769D01*
X194040977Y-82915533D01*
X194043607Y-83040108D01*
X194047169Y-83143429D01*
X194051994Y-83228431D01*
X194058413Y-83298048D01*
X194066756Y-83355216D01*
X194077356Y-83402869D01*
X194090543Y-83443943D01*
X194106648Y-83481373D01*
X194126003Y-83518093D01*
X194145550Y-83551429D01*
X194196137Y-83635437D01*
X192785051Y-83635437D01*
X192381865Y-83635437D01*
X192381909Y-83643758D01*
X192382982Y-83779653D01*
X192384347Y-83898026D01*
X192386038Y-84000131D01*
X192388088Y-84087221D01*
X192390532Y-84160550D01*
X192393404Y-84221371D01*
X192396738Y-84270940D01*
X192400567Y-84310508D01*
X192404926Y-84341330D01*
X192409849Y-84364660D01*
X192415370Y-84381752D01*
X192421522Y-84393858D01*
X192428341Y-84402233D01*
X192435860Y-84408130D01*
X192444113Y-84412804D01*
X192453133Y-84417507D01*
X192461116Y-84422258D01*
X192468083Y-84425688D01*
X192478968Y-84428788D01*
X192495228Y-84431575D01*
X192518321Y-84434066D01*
X192549703Y-84436277D01*
X192590832Y-84438224D01*
X192643166Y-84439924D01*
X192708161Y-84441393D01*
X192787275Y-84442648D01*
X192881964Y-84443706D01*
X192993688Y-84444582D01*
X193123901Y-84445293D01*
X193274063Y-84445855D01*
X193445630Y-84446286D01*
X193640059Y-84446601D01*
X193858808Y-84446817D01*
X194103334Y-84446950D01*
X194375095Y-84447017D01*
X194656204Y-84447035D01*
X196813478Y-84447035D01*
X196813478Y-84318176D01*
G36*
X209029013Y-77946976D02*
X209070789Y-77917363D01*
X209107679Y-77880472D01*
X209107679Y-77468502D01*
X209107583Y-77346178D01*
X209107126Y-77250266D01*
X209106057Y-77177120D01*
X209104125Y-77123094D01*
X209101077Y-77084541D01*
X209096663Y-77057816D01*
X209090630Y-77039270D01*
X209082728Y-77025259D01*
X209076529Y-77016931D01*
X209035615Y-76984215D01*
X208988636Y-76980664D01*
X208945698Y-77000727D01*
X208931510Y-77012572D01*
X208922026Y-77028306D01*
X208916305Y-77053642D01*
X208913407Y-77094294D01*
X208912392Y-77155976D01*
X208912295Y-77203626D01*
X208912295Y-77383129D01*
X208250993Y-77383129D01*
X208250993Y-77219831D01*
X208250309Y-77145159D01*
X208247573Y-77093840D01*
X208241758Y-77059187D01*
X208231838Y-77034509D01*
X208219843Y-77016931D01*
X208178700Y-76984307D01*
X208132171Y-76980444D01*
X208087627Y-77003632D01*
X208075466Y-77015788D01*
X208066877Y-77031903D01*
X208061212Y-77057004D01*
X208057823Y-77096120D01*
X208056062Y-77154278D01*
X208055282Y-77236506D01*
X208055190Y-77255378D01*
X208054546Y-77410307D01*
X208054214Y-77537990D01*
X208054322Y-77641237D01*
X208054999Y-77722861D01*
X208056372Y-77785672D01*
X208058570Y-77832483D01*
X208061720Y-77866105D01*
X208065952Y-77889349D01*
X208071392Y-77905028D01*
X208078169Y-77915953D01*
X208085668Y-77924194D01*
X208128087Y-77950557D01*
X208172326Y-77946976D01*
X208214102Y-77917363D01*
X208231007Y-77898257D01*
X208241783Y-77877153D01*
X208247795Y-77847096D01*
X208250410Y-77801131D01*
X208250993Y-77732304D01*
X208250993Y-77578514D01*
X208912295Y-77578514D01*
X208912295Y-77736325D01*
X208912970Y-77809028D01*
X208915680Y-77858119D01*
X208921455Y-77890028D01*
X208931323Y-77911186D01*
X208942354Y-77924194D01*
X208984773Y-77950557D01*
X209029013Y-77946976D01*
X209029013Y-77946976D01*
G37*
X209029013Y-77946976D02*
X209070789Y-77917363D01*
X209107679Y-77880472D01*
X209107679Y-77468502D01*
X209107583Y-77346178D01*
X209107126Y-77250266D01*
X209106057Y-77177120D01*
X209104125Y-77123094D01*
X209101077Y-77084541D01*
X209096663Y-77057816D01*
X209090630Y-77039270D01*
X209082728Y-77025259D01*
X209076529Y-77016931D01*
X209035615Y-76984215D01*
X208988636Y-76980664D01*
X208945698Y-77000727D01*
X208931510Y-77012572D01*
X208922026Y-77028306D01*
X208916305Y-77053642D01*
X208913407Y-77094294D01*
X208912392Y-77155976D01*
X208912295Y-77203626D01*
X208912295Y-77383129D01*
X208250993Y-77383129D01*
X208250993Y-77219831D01*
X208250309Y-77145159D01*
X208247573Y-77093840D01*
X208241758Y-77059187D01*
X208231838Y-77034509D01*
X208219843Y-77016931D01*
X208178700Y-76984307D01*
X208132171Y-76980444D01*
X208087627Y-77003632D01*
X208075466Y-77015788D01*
X208066877Y-77031903D01*
X208061212Y-77057004D01*
X208057823Y-77096120D01*
X208056062Y-77154278D01*
X208055282Y-77236506D01*
X208055190Y-77255378D01*
X208054546Y-77410307D01*
X208054214Y-77537990D01*
X208054322Y-77641237D01*
X208054999Y-77722861D01*
X208056372Y-77785672D01*
X208058570Y-77832483D01*
X208061720Y-77866105D01*
X208065952Y-77889349D01*
X208071392Y-77905028D01*
X208078169Y-77915953D01*
X208085668Y-77924194D01*
X208128087Y-77950557D01*
X208172326Y-77946976D01*
X208214102Y-77917363D01*
X208231007Y-77898257D01*
X208241783Y-77877153D01*
X208247795Y-77847096D01*
X208250410Y-77801131D01*
X208250993Y-77732304D01*
X208250993Y-77578514D01*
X208912295Y-77578514D01*
X208912295Y-77736325D01*
X208912970Y-77809028D01*
X208915680Y-77858119D01*
X208921455Y-77890028D01*
X208931323Y-77911186D01*
X208942354Y-77924194D01*
X208984773Y-77950557D01*
X209029013Y-77946976D01*
G36*
X207343831Y-77954125D02*
X207448619Y-77953621D01*
X207529953Y-77952568D01*
X207591134Y-77950788D01*
X207635465Y-77948107D01*
X207666248Y-77944350D01*
X207686785Y-77939339D01*
X207700379Y-77932901D01*
X207706957Y-77927952D01*
X207741098Y-77884635D01*
X207745228Y-77839661D01*
X207724130Y-77798804D01*
X207710333Y-77782478D01*
X207695486Y-77771346D01*
X207673969Y-77764414D01*
X207640162Y-77760687D01*
X207588446Y-77759170D01*
X207513201Y-77758870D01*
X207498423Y-77758869D01*
X207304129Y-77758869D01*
X207304129Y-77398159D01*
X207304001Y-77284463D01*
X207303420Y-77196979D01*
X207302090Y-77131862D01*
X207299714Y-77085266D01*
X207295998Y-77053345D01*
X207290646Y-77032252D01*
X207283361Y-77018141D01*
X207274070Y-77007390D01*
X207230225Y-76980968D01*
X207184454Y-76983050D01*
X207142944Y-77013195D01*
X207139895Y-77016931D01*
X207129966Y-77031054D01*
X207122402Y-77047578D01*
X207116883Y-77070518D01*
X207113087Y-77103891D01*
X207110696Y-77151709D01*
X207109388Y-77217990D01*
X207108845Y-77306746D01*
X207108745Y-77407701D01*
X207108745Y-77758869D01*
X206923204Y-77758869D01*
X206843581Y-77759408D01*
X206788458Y-77761507D01*
X206752286Y-77765893D01*
X206729516Y-77773288D01*
X206714601Y-77784419D01*
X206712790Y-77786354D01*
X206691012Y-77830607D01*
X206692938Y-77880635D01*
X206717975Y-77924194D01*
X206727658Y-77932644D01*
X206740142Y-77939343D01*
X206758757Y-77944495D01*
X206786831Y-77948303D01*
X206827695Y-77950967D01*
X206884676Y-77952692D01*
X206961106Y-77953680D01*
X207060311Y-77954132D01*
X207185623Y-77954252D01*
X207212287Y-77954254D01*
X207343831Y-77954125D01*
X207343831Y-77954125D01*
G37*
X207343831Y-77954125D02*
X207448619Y-77953621D01*
X207529953Y-77952568D01*
X207591134Y-77950788D01*
X207635465Y-77948107D01*
X207666248Y-77944350D01*
X207686785Y-77939339D01*
X207700379Y-77932901D01*
X207706957Y-77927952D01*
X207741098Y-77884635D01*
X207745228Y-77839661D01*
X207724130Y-77798804D01*
X207710333Y-77782478D01*
X207695486Y-77771346D01*
X207673969Y-77764414D01*
X207640162Y-77760687D01*
X207588446Y-77759170D01*
X207513201Y-77758870D01*
X207498423Y-77758869D01*
X207304129Y-77758869D01*
X207304129Y-77398159D01*
X207304001Y-77284463D01*
X207303420Y-77196979D01*
X207302090Y-77131862D01*
X207299714Y-77085266D01*
X207295998Y-77053345D01*
X207290646Y-77032252D01*
X207283361Y-77018141D01*
X207274070Y-77007390D01*
X207230225Y-76980968D01*
X207184454Y-76983050D01*
X207142944Y-77013195D01*
X207139895Y-77016931D01*
X207129966Y-77031054D01*
X207122402Y-77047578D01*
X207116883Y-77070518D01*
X207113087Y-77103891D01*
X207110696Y-77151709D01*
X207109388Y-77217990D01*
X207108845Y-77306746D01*
X207108745Y-77407701D01*
X207108745Y-77758869D01*
X206923204Y-77758869D01*
X206843581Y-77759408D01*
X206788458Y-77761507D01*
X206752286Y-77765893D01*
X206729516Y-77773288D01*
X206714601Y-77784419D01*
X206712790Y-77786354D01*
X206691012Y-77830607D01*
X206692938Y-77880635D01*
X206717975Y-77924194D01*
X206727658Y-77932644D01*
X206740142Y-77939343D01*
X206758757Y-77944495D01*
X206786831Y-77948303D01*
X206827695Y-77950967D01*
X206884676Y-77952692D01*
X206961106Y-77953680D01*
X207060311Y-77954132D01*
X207185623Y-77954252D01*
X207212287Y-77954254D01*
X207343831Y-77954125D01*
G36*
X206312758Y-77945187D02*
X206344328Y-77925522D01*
X206379810Y-77896791D01*
X206379810Y-77468698D01*
X206379697Y-77343474D01*
X206379213Y-77244817D01*
X206378140Y-77169234D01*
X206376262Y-77113231D01*
X206373360Y-77073317D01*
X206369217Y-77045998D01*
X206363616Y-77027783D01*
X206356339Y-77015178D01*
X206351178Y-77008968D01*
X206309322Y-76981684D01*
X206261659Y-76982797D01*
X206219907Y-77006062D01*
X206184425Y-77034793D01*
X206184425Y-77896791D01*
X206219907Y-77925522D01*
X206254152Y-77946422D01*
X206282117Y-77954254D01*
X206312758Y-77945187D01*
X206312758Y-77945187D01*
G37*
X206312758Y-77945187D02*
X206344328Y-77925522D01*
X206379810Y-77896791D01*
X206379810Y-77468698D01*
X206379697Y-77343474D01*
X206379213Y-77244817D01*
X206378140Y-77169234D01*
X206376262Y-77113231D01*
X206373360Y-77073317D01*
X206369217Y-77045998D01*
X206363616Y-77027783D01*
X206356339Y-77015178D01*
X206351178Y-77008968D01*
X206309322Y-76981684D01*
X206261659Y-76982797D01*
X206219907Y-77006062D01*
X206184425Y-77034793D01*
X206184425Y-77896791D01*
X206219907Y-77925522D01*
X206254152Y-77946422D01*
X206282117Y-77954254D01*
X206312758Y-77945187D01*
G36*
X205721701Y-77951634D02*
X205747782Y-77942314D01*
X205748788Y-77941858D01*
X205784206Y-77914830D01*
X205803720Y-77887028D01*
X205807538Y-77873992D01*
X205807349Y-77856672D01*
X205801976Y-77831997D01*
X205790242Y-77796900D01*
X205770967Y-77748311D01*
X205742976Y-77683162D01*
X205705090Y-77598383D01*
X205656132Y-77490905D01*
X205629185Y-77432161D01*
X205580524Y-77327291D01*
X205534844Y-77230850D01*
X205493888Y-77146366D01*
X205459400Y-77077364D01*
X205433123Y-77027370D01*
X205416800Y-76999910D01*
X205413570Y-76996117D01*
X205372243Y-76979384D01*
X205325563Y-76981625D01*
X205288124Y-77001977D01*
X205286598Y-77003632D01*
X205271705Y-77026178D01*
X205246723Y-77070093D01*
X205214733Y-77129724D01*
X205178814Y-77199418D01*
X205165906Y-77225101D01*
X205068468Y-77420267D01*
X204962260Y-77208257D01*
X204924351Y-77135003D01*
X204889181Y-77071474D01*
X204859622Y-77022533D01*
X204838548Y-76993042D01*
X204831406Y-76986788D01*
X204775892Y-76978319D01*
X204730083Y-76996117D01*
X204716608Y-77015139D01*
X204693290Y-77057415D01*
X204662031Y-77118784D01*
X204624734Y-77195088D01*
X204583300Y-77282165D01*
X204539632Y-77375857D01*
X204495632Y-77472003D01*
X204453202Y-77566443D01*
X204414244Y-77655019D01*
X204380661Y-77733568D01*
X204354355Y-77797933D01*
X204337228Y-77843953D01*
X204331183Y-77867467D01*
X204331245Y-77868319D01*
X204345954Y-77897908D01*
X204375356Y-77928044D01*
X204377087Y-77929356D01*
X204413224Y-77949782D01*
X204446648Y-77949584D01*
X204459176Y-77945733D01*
X204474441Y-77937411D01*
X204490652Y-77921039D01*
X204509753Y-77893222D01*
X204533689Y-77850564D01*
X204564405Y-77789669D01*
X204603845Y-77707139D01*
X204639412Y-77630957D01*
X204680331Y-77542650D01*
X204716998Y-77463238D01*
X204747508Y-77396868D01*
X204769956Y-77347689D01*
X204782437Y-77319851D01*
X204784257Y-77315496D01*
X204792444Y-77322615D01*
X204811259Y-77352423D01*
X204838200Y-77400568D01*
X204870762Y-77462701D01*
X204883720Y-77488336D01*
X204927614Y-77574899D01*
X204961465Y-77637939D01*
X204988051Y-77681122D01*
X205010149Y-77708112D01*
X205030538Y-77722576D01*
X205051994Y-77728177D01*
X205065977Y-77728810D01*
X205090642Y-77726624D01*
X205112256Y-77717585D01*
X205133732Y-77697967D01*
X205157984Y-77664047D01*
X205187924Y-77612102D01*
X205226467Y-77538406D01*
X205247732Y-77496484D01*
X205282226Y-77429670D01*
X205312310Y-77374263D01*
X205335331Y-77334937D01*
X205348634Y-77316368D01*
X205350443Y-77315595D01*
X205359034Y-77330209D01*
X205378268Y-77368157D01*
X205406219Y-77425468D01*
X205440961Y-77498168D01*
X205480567Y-77582288D01*
X205500050Y-77624070D01*
X205550734Y-77731901D01*
X205591547Y-77814874D01*
X205624608Y-77875698D01*
X205652035Y-77917079D01*
X205675946Y-77941724D01*
X205698462Y-77952340D01*
X205721701Y-77951634D01*
X205721701Y-77951634D01*
G37*
X205721701Y-77951634D02*
X205747782Y-77942314D01*
X205748788Y-77941858D01*
X205784206Y-77914830D01*
X205803720Y-77887028D01*
X205807538Y-77873992D01*
X205807349Y-77856672D01*
X205801976Y-77831997D01*
X205790242Y-77796900D01*
X205770967Y-77748311D01*
X205742976Y-77683162D01*
X205705090Y-77598383D01*
X205656132Y-77490905D01*
X205629185Y-77432161D01*
X205580524Y-77327291D01*
X205534844Y-77230850D01*
X205493888Y-77146366D01*
X205459400Y-77077364D01*
X205433123Y-77027370D01*
X205416800Y-76999910D01*
X205413570Y-76996117D01*
X205372243Y-76979384D01*
X205325563Y-76981625D01*
X205288124Y-77001977D01*
X205286598Y-77003632D01*
X205271705Y-77026178D01*
X205246723Y-77070093D01*
X205214733Y-77129724D01*
X205178814Y-77199418D01*
X205165906Y-77225101D01*
X205068468Y-77420267D01*
X204962260Y-77208257D01*
X204924351Y-77135003D01*
X204889181Y-77071474D01*
X204859622Y-77022533D01*
X204838548Y-76993042D01*
X204831406Y-76986788D01*
X204775892Y-76978319D01*
X204730083Y-76996117D01*
X204716608Y-77015139D01*
X204693290Y-77057415D01*
X204662031Y-77118784D01*
X204624734Y-77195088D01*
X204583300Y-77282165D01*
X204539632Y-77375857D01*
X204495632Y-77472003D01*
X204453202Y-77566443D01*
X204414244Y-77655019D01*
X204380661Y-77733568D01*
X204354355Y-77797933D01*
X204337228Y-77843953D01*
X204331183Y-77867467D01*
X204331245Y-77868319D01*
X204345954Y-77897908D01*
X204375356Y-77928044D01*
X204377087Y-77929356D01*
X204413224Y-77949782D01*
X204446648Y-77949584D01*
X204459176Y-77945733D01*
X204474441Y-77937411D01*
X204490652Y-77921039D01*
X204509753Y-77893222D01*
X204533689Y-77850564D01*
X204564405Y-77789669D01*
X204603845Y-77707139D01*
X204639412Y-77630957D01*
X204680331Y-77542650D01*
X204716998Y-77463238D01*
X204747508Y-77396868D01*
X204769956Y-77347689D01*
X204782437Y-77319851D01*
X204784257Y-77315496D01*
X204792444Y-77322615D01*
X204811259Y-77352423D01*
X204838200Y-77400568D01*
X204870762Y-77462701D01*
X204883720Y-77488336D01*
X204927614Y-77574899D01*
X204961465Y-77637939D01*
X204988051Y-77681122D01*
X205010149Y-77708112D01*
X205030538Y-77722576D01*
X205051994Y-77728177D01*
X205065977Y-77728810D01*
X205090642Y-77726624D01*
X205112256Y-77717585D01*
X205133732Y-77697967D01*
X205157984Y-77664047D01*
X205187924Y-77612102D01*
X205226467Y-77538406D01*
X205247732Y-77496484D01*
X205282226Y-77429670D01*
X205312310Y-77374263D01*
X205335331Y-77334937D01*
X205348634Y-77316368D01*
X205350443Y-77315595D01*
X205359034Y-77330209D01*
X205378268Y-77368157D01*
X205406219Y-77425468D01*
X205440961Y-77498168D01*
X205480567Y-77582288D01*
X205500050Y-77624070D01*
X205550734Y-77731901D01*
X205591547Y-77814874D01*
X205624608Y-77875698D01*
X205652035Y-77917079D01*
X205675946Y-77941724D01*
X205698462Y-77952340D01*
X205721701Y-77951634D01*
G36*
X202091937Y-77953977D02*
X202263655Y-77948171D01*
X202409709Y-77930563D01*
X202532507Y-77900101D01*
X202634457Y-77855729D01*
X202717968Y-77796393D01*
X202785447Y-77721040D01*
X202839303Y-77628614D01*
X202840362Y-77626360D01*
X202872503Y-77543640D01*
X202883955Y-77470380D01*
X202874674Y-77396652D01*
X202844615Y-77312529D01*
X202838915Y-77299727D01*
X202800039Y-77224802D01*
X202756349Y-77166907D01*
X202699960Y-77117692D01*
X202622992Y-77068807D01*
X202618520Y-77066255D01*
X202551517Y-77034069D01*
X202475785Y-77010032D01*
X202386458Y-76993313D01*
X202278669Y-76983085D01*
X202147552Y-76978518D01*
X202101226Y-76978121D01*
X201880630Y-76977330D01*
X201849480Y-77016931D01*
X201840240Y-77029953D01*
X201833032Y-77045160D01*
X201827604Y-77066198D01*
X201823705Y-77096714D01*
X201821083Y-77140353D01*
X201820228Y-77172715D01*
X202028745Y-77172715D01*
X202153736Y-77172715D01*
X202226877Y-77174854D01*
X202301961Y-77180483D01*
X202363584Y-77188421D01*
X202367303Y-77189089D01*
X202476753Y-77218452D01*
X202561648Y-77262567D01*
X202624672Y-77323481D01*
X202668514Y-77403240D01*
X202676137Y-77424380D01*
X202683610Y-77457302D01*
X202680375Y-77489828D01*
X202664633Y-77533100D01*
X202655144Y-77554357D01*
X202624071Y-77610844D01*
X202586633Y-77650473D01*
X202545441Y-77678070D01*
X202462930Y-77713982D01*
X202357333Y-77739996D01*
X202234318Y-77754976D01*
X202145224Y-77758272D01*
X202028745Y-77758869D01*
X202028745Y-77172715D01*
X201820228Y-77172715D01*
X201819486Y-77200764D01*
X201818664Y-77281592D01*
X201818364Y-77386483D01*
X201818330Y-77468502D01*
X201818330Y-77880472D01*
X201855221Y-77917363D01*
X201871594Y-77932316D01*
X201889297Y-77942556D01*
X201914019Y-77948963D01*
X201951448Y-77952417D01*
X202007273Y-77953797D01*
X202087182Y-77953983D01*
X202091937Y-77953977D01*
X202091937Y-77953977D01*
G37*
X202091937Y-77953977D02*
X202263655Y-77948171D01*
X202409709Y-77930563D01*
X202532507Y-77900101D01*
X202634457Y-77855729D01*
X202717968Y-77796393D01*
X202785447Y-77721040D01*
X202839303Y-77628614D01*
X202840362Y-77626360D01*
X202872503Y-77543640D01*
X202883955Y-77470380D01*
X202874674Y-77396652D01*
X202844615Y-77312529D01*
X202838915Y-77299727D01*
X202800039Y-77224802D01*
X202756349Y-77166907D01*
X202699960Y-77117692D01*
X202622992Y-77068807D01*
X202618520Y-77066255D01*
X202551517Y-77034069D01*
X202475785Y-77010032D01*
X202386458Y-76993313D01*
X202278669Y-76983085D01*
X202147552Y-76978518D01*
X202101226Y-76978121D01*
X201880630Y-76977330D01*
X201849480Y-77016931D01*
X201840240Y-77029953D01*
X201833032Y-77045160D01*
X201827604Y-77066198D01*
X201823705Y-77096714D01*
X201821083Y-77140353D01*
X201820228Y-77172715D01*
X202028745Y-77172715D01*
X202153736Y-77172715D01*
X202226877Y-77174854D01*
X202301961Y-77180483D01*
X202363584Y-77188421D01*
X202367303Y-77189089D01*
X202476753Y-77218452D01*
X202561648Y-77262567D01*
X202624672Y-77323481D01*
X202668514Y-77403240D01*
X202676137Y-77424380D01*
X202683610Y-77457302D01*
X202680375Y-77489828D01*
X202664633Y-77533100D01*
X202655144Y-77554357D01*
X202624071Y-77610844D01*
X202586633Y-77650473D01*
X202545441Y-77678070D01*
X202462930Y-77713982D01*
X202357333Y-77739996D01*
X202234318Y-77754976D01*
X202145224Y-77758272D01*
X202028745Y-77758869D01*
X202028745Y-77172715D01*
X201820228Y-77172715D01*
X201819486Y-77200764D01*
X201818664Y-77281592D01*
X201818364Y-77386483D01*
X201818330Y-77468502D01*
X201818330Y-77880472D01*
X201855221Y-77917363D01*
X201871594Y-77932316D01*
X201889297Y-77942556D01*
X201914019Y-77948963D01*
X201951448Y-77952417D01*
X202007273Y-77953797D01*
X202087182Y-77953983D01*
X202091937Y-77953977D01*
G36*
X201042870Y-77953997D02*
X201144531Y-77952780D01*
X201222436Y-77949934D01*
X201279735Y-77944790D01*
X201319581Y-77936680D01*
X201345122Y-77924933D01*
X201359511Y-77908882D01*
X201365899Y-77887856D01*
X201367435Y-77861188D01*
X201367443Y-77858038D01*
X201366109Y-77827874D01*
X201359805Y-77804561D01*
X201345076Y-77787158D01*
X201318469Y-77774724D01*
X201276528Y-77766319D01*
X201215800Y-77760999D01*
X201132830Y-77757825D01*
X201024165Y-77755855D01*
X200990859Y-77755419D01*
X200668567Y-77751354D01*
X200664060Y-77664934D01*
X200659552Y-77578514D01*
X200883417Y-77578514D01*
X200970875Y-77578191D01*
X201033323Y-77576827D01*
X201075808Y-77573825D01*
X201103377Y-77568591D01*
X201121076Y-77560529D01*
X201133951Y-77549044D01*
X201134034Y-77548953D01*
X201157384Y-77504193D01*
X201156540Y-77455817D01*
X201132033Y-77414578D01*
X201127183Y-77410339D01*
X201109969Y-77399415D01*
X201086380Y-77391815D01*
X201051161Y-77386967D01*
X200999054Y-77384298D01*
X200924804Y-77383236D01*
X200877316Y-77383129D01*
X200661052Y-77383129D01*
X200661052Y-77172715D01*
X200989374Y-77172715D01*
X201097772Y-77172525D01*
X201180089Y-77171750D01*
X201240303Y-77170080D01*
X201282389Y-77167206D01*
X201310325Y-77162817D01*
X201328088Y-77156605D01*
X201339654Y-77148260D01*
X201342569Y-77145230D01*
X201364090Y-77103230D01*
X201365664Y-77055450D01*
X201348009Y-77014022D01*
X201334039Y-77000727D01*
X201319508Y-76993408D01*
X201296992Y-76987745D01*
X201262930Y-76983541D01*
X201213761Y-76980596D01*
X201145922Y-76978713D01*
X201055852Y-76977694D01*
X200939991Y-76977339D01*
X200913797Y-76977330D01*
X200795993Y-76977408D01*
X200704550Y-76977833D01*
X200635768Y-76978898D01*
X200585950Y-76980895D01*
X200551394Y-76984114D01*
X200528404Y-76988848D01*
X200513280Y-76995387D01*
X200502323Y-77004023D01*
X200496312Y-77010224D01*
X200487264Y-77021207D01*
X200480196Y-77034812D01*
X200474863Y-77054608D01*
X200471022Y-77084162D01*
X200468429Y-77127043D01*
X200466841Y-77186819D01*
X200466015Y-77267057D01*
X200465706Y-77371325D01*
X200465668Y-77459084D01*
X200465762Y-77582056D01*
X200466211Y-77678595D01*
X200467262Y-77752325D01*
X200469164Y-77806874D01*
X200472163Y-77845865D01*
X200476509Y-77872925D01*
X200482448Y-77891680D01*
X200490229Y-77905754D01*
X200496818Y-77914653D01*
X200527968Y-77954254D01*
X200914302Y-77954254D01*
X201042870Y-77953997D01*
X201042870Y-77953997D01*
G37*
X201042870Y-77953997D02*
X201144531Y-77952780D01*
X201222436Y-77949934D01*
X201279735Y-77944790D01*
X201319581Y-77936680D01*
X201345122Y-77924933D01*
X201359511Y-77908882D01*
X201365899Y-77887856D01*
X201367435Y-77861188D01*
X201367443Y-77858038D01*
X201366109Y-77827874D01*
X201359805Y-77804561D01*
X201345076Y-77787158D01*
X201318469Y-77774724D01*
X201276528Y-77766319D01*
X201215800Y-77760999D01*
X201132830Y-77757825D01*
X201024165Y-77755855D01*
X200990859Y-77755419D01*
X200668567Y-77751354D01*
X200664060Y-77664934D01*
X200659552Y-77578514D01*
X200883417Y-77578514D01*
X200970875Y-77578191D01*
X201033323Y-77576827D01*
X201075808Y-77573825D01*
X201103377Y-77568591D01*
X201121076Y-77560529D01*
X201133951Y-77549044D01*
X201134034Y-77548953D01*
X201157384Y-77504193D01*
X201156540Y-77455817D01*
X201132033Y-77414578D01*
X201127183Y-77410339D01*
X201109969Y-77399415D01*
X201086380Y-77391815D01*
X201051161Y-77386967D01*
X200999054Y-77384298D01*
X200924804Y-77383236D01*
X200877316Y-77383129D01*
X200661052Y-77383129D01*
X200661052Y-77172715D01*
X200989374Y-77172715D01*
X201097772Y-77172525D01*
X201180089Y-77171750D01*
X201240303Y-77170080D01*
X201282389Y-77167206D01*
X201310325Y-77162817D01*
X201328088Y-77156605D01*
X201339654Y-77148260D01*
X201342569Y-77145230D01*
X201364090Y-77103230D01*
X201365664Y-77055450D01*
X201348009Y-77014022D01*
X201334039Y-77000727D01*
X201319508Y-76993408D01*
X201296992Y-76987745D01*
X201262930Y-76983541D01*
X201213761Y-76980596D01*
X201145922Y-76978713D01*
X201055852Y-76977694D01*
X200939991Y-76977339D01*
X200913797Y-76977330D01*
X200795993Y-76977408D01*
X200704550Y-76977833D01*
X200635768Y-76978898D01*
X200585950Y-76980895D01*
X200551394Y-76984114D01*
X200528404Y-76988848D01*
X200513280Y-76995387D01*
X200502323Y-77004023D01*
X200496312Y-77010224D01*
X200487264Y-77021207D01*
X200480196Y-77034812D01*
X200474863Y-77054608D01*
X200471022Y-77084162D01*
X200468429Y-77127043D01*
X200466841Y-77186819D01*
X200466015Y-77267057D01*
X200465706Y-77371325D01*
X200465668Y-77459084D01*
X200465762Y-77582056D01*
X200466211Y-77678595D01*
X200467262Y-77752325D01*
X200469164Y-77806874D01*
X200472163Y-77845865D01*
X200476509Y-77872925D01*
X200482448Y-77891680D01*
X200490229Y-77905754D01*
X200496818Y-77914653D01*
X200527968Y-77954254D01*
X200914302Y-77954254D01*
X201042870Y-77953997D01*
G36*
X199005280Y-77948420D02*
X199036655Y-77930015D01*
X199077678Y-77899915D01*
X199130476Y-77856704D01*
X199197175Y-77798962D01*
X199279901Y-77725272D01*
X199380780Y-77634216D01*
X199496259Y-77529526D01*
X199736733Y-77311457D01*
X199744248Y-77604156D01*
X199746961Y-77704910D01*
X199749578Y-77779942D01*
X199752680Y-77833580D01*
X199756844Y-77870154D01*
X199762649Y-77893993D01*
X199770676Y-77909426D01*
X199781503Y-77920782D01*
X199787244Y-77925554D01*
X199833217Y-77950787D01*
X199876963Y-77947098D01*
X199911665Y-77925541D01*
X199947147Y-77896829D01*
X199951560Y-77477514D01*
X199952781Y-77354193D01*
X199953403Y-77257316D01*
X199953210Y-77183270D01*
X199951986Y-77128443D01*
X199949516Y-77089221D01*
X199945586Y-77061991D01*
X199939980Y-77043141D01*
X199932482Y-77029059D01*
X199924167Y-77017765D01*
X199906178Y-76996818D01*
X199888279Y-76982933D01*
X199867988Y-76977604D01*
X199842822Y-76982324D01*
X199810300Y-76998587D01*
X199767937Y-77027887D01*
X199713252Y-77071718D01*
X199643763Y-77131573D01*
X199556985Y-77208946D01*
X199458685Y-77297850D01*
X199105490Y-77618229D01*
X199097975Y-77326487D01*
X199095257Y-77225917D01*
X199092633Y-77151060D01*
X199089521Y-77097580D01*
X199085338Y-77061138D01*
X199079503Y-77037396D01*
X199071434Y-77022018D01*
X199060549Y-77010664D01*
X199054979Y-77006038D01*
X199005744Y-76980622D01*
X198959223Y-76984455D01*
X198918711Y-77016931D01*
X198909444Y-77029997D01*
X198902221Y-77045255D01*
X198896788Y-77066368D01*
X198892892Y-77096995D01*
X198890279Y-77140798D01*
X198888693Y-77201437D01*
X198887882Y-77282573D01*
X198887592Y-77387867D01*
X198887561Y-77465792D01*
X198887659Y-77587676D01*
X198888121Y-77683161D01*
X198889203Y-77755909D01*
X198891157Y-77809581D01*
X198894238Y-77847837D01*
X198898700Y-77874337D01*
X198904797Y-77892744D01*
X198912783Y-77906716D01*
X198918711Y-77914653D01*
X198933738Y-77933452D01*
X198947782Y-77947647D01*
X198962970Y-77955818D01*
X198981427Y-77956548D01*
X199005280Y-77948420D01*
X199005280Y-77948420D01*
G37*
X199005280Y-77948420D02*
X199036655Y-77930015D01*
X199077678Y-77899915D01*
X199130476Y-77856704D01*
X199197175Y-77798962D01*
X199279901Y-77725272D01*
X199380780Y-77634216D01*
X199496259Y-77529526D01*
X199736733Y-77311457D01*
X199744248Y-77604156D01*
X199746961Y-77704910D01*
X199749578Y-77779942D01*
X199752680Y-77833580D01*
X199756844Y-77870154D01*
X199762649Y-77893993D01*
X199770676Y-77909426D01*
X199781503Y-77920782D01*
X199787244Y-77925554D01*
X199833217Y-77950787D01*
X199876963Y-77947098D01*
X199911665Y-77925541D01*
X199947147Y-77896829D01*
X199951560Y-77477514D01*
X199952781Y-77354193D01*
X199953403Y-77257316D01*
X199953210Y-77183270D01*
X199951986Y-77128443D01*
X199949516Y-77089221D01*
X199945586Y-77061991D01*
X199939980Y-77043141D01*
X199932482Y-77029059D01*
X199924167Y-77017765D01*
X199906178Y-76996818D01*
X199888279Y-76982933D01*
X199867988Y-76977604D01*
X199842822Y-76982324D01*
X199810300Y-76998587D01*
X199767937Y-77027887D01*
X199713252Y-77071718D01*
X199643763Y-77131573D01*
X199556985Y-77208946D01*
X199458685Y-77297850D01*
X199105490Y-77618229D01*
X199097975Y-77326487D01*
X199095257Y-77225917D01*
X199092633Y-77151060D01*
X199089521Y-77097580D01*
X199085338Y-77061138D01*
X199079503Y-77037396D01*
X199071434Y-77022018D01*
X199060549Y-77010664D01*
X199054979Y-77006038D01*
X199005744Y-76980622D01*
X198959223Y-76984455D01*
X198918711Y-77016931D01*
X198909444Y-77029997D01*
X198902221Y-77045255D01*
X198896788Y-77066368D01*
X198892892Y-77096995D01*
X198890279Y-77140798D01*
X198888693Y-77201437D01*
X198887882Y-77282573D01*
X198887592Y-77387867D01*
X198887561Y-77465792D01*
X198887659Y-77587676D01*
X198888121Y-77683161D01*
X198889203Y-77755909D01*
X198891157Y-77809581D01*
X198894238Y-77847837D01*
X198898700Y-77874337D01*
X198904797Y-77892744D01*
X198912783Y-77906716D01*
X198918711Y-77914653D01*
X198933738Y-77933452D01*
X198947782Y-77947647D01*
X198962970Y-77955818D01*
X198981427Y-77956548D01*
X199005280Y-77948420D01*
G36*
X198139938Y-77946888D02*
X198231159Y-77931582D01*
X198301218Y-77907789D01*
X198346796Y-77876460D01*
X198359216Y-77858586D01*
X198371846Y-77817015D01*
X198363347Y-77779408D01*
X198336515Y-77743745D01*
X198294824Y-77727061D01*
X198234330Y-77728416D01*
X198187541Y-77737455D01*
X198083572Y-77754677D01*
X197977320Y-77756313D01*
X197858391Y-77742335D01*
X197825540Y-77736412D01*
X197714955Y-77705233D01*
X197628441Y-77658854D01*
X197566947Y-77598065D01*
X197531422Y-77523656D01*
X197524075Y-77485186D01*
X197528884Y-77407137D01*
X197559934Y-77338083D01*
X197614394Y-77279371D01*
X197689436Y-77232347D01*
X197782230Y-77198357D01*
X197889948Y-77178746D01*
X198009759Y-77174859D01*
X198138835Y-77188044D01*
X198146123Y-77189288D01*
X198197462Y-77198850D01*
X198225928Y-77208086D01*
X198238266Y-77221791D01*
X198241222Y-77244758D01*
X198241289Y-77256921D01*
X198241289Y-77307981D01*
X198150123Y-77307981D01*
X198069618Y-77313496D01*
X198014679Y-77331070D01*
X197982714Y-77362247D01*
X197971128Y-77408570D01*
X197970987Y-77414616D01*
X197977765Y-77454211D01*
X198001009Y-77482483D01*
X198044270Y-77501193D01*
X198111099Y-77512100D01*
X198175830Y-77516110D01*
X198269913Y-77518411D01*
X198338156Y-77514900D01*
X198384699Y-77501945D01*
X198413682Y-77475914D01*
X198429245Y-77433173D01*
X198435529Y-77370090D01*
X198436674Y-77287236D01*
X198434798Y-77194754D01*
X198429154Y-77131846D01*
X198419718Y-77098261D01*
X198417887Y-77095631D01*
X198366075Y-77053666D01*
X198290110Y-77020432D01*
X198194808Y-76996641D01*
X198084984Y-76983001D01*
X197965454Y-76980222D01*
X197841034Y-76989015D01*
X197767857Y-76999815D01*
X197653080Y-77032302D01*
X197546404Y-77085414D01*
X197457089Y-77154345D01*
X197443514Y-77168122D01*
X197399408Y-77226042D01*
X197359611Y-77297824D01*
X197328773Y-77373081D01*
X197311543Y-77441423D01*
X197309466Y-77467671D01*
X197318307Y-77522423D01*
X197341805Y-77590545D01*
X197375451Y-77662250D01*
X197414736Y-77727751D01*
X197449445Y-77771502D01*
X197530597Y-77836581D01*
X197635502Y-77888379D01*
X197760400Y-77925726D01*
X197901533Y-77947447D01*
X198030875Y-77952755D01*
X198139938Y-77946888D01*
X198139938Y-77946888D01*
G37*
X198139938Y-77946888D02*
X198231159Y-77931582D01*
X198301218Y-77907789D01*
X198346796Y-77876460D01*
X198359216Y-77858586D01*
X198371846Y-77817015D01*
X198363347Y-77779408D01*
X198336515Y-77743745D01*
X198294824Y-77727061D01*
X198234330Y-77728416D01*
X198187541Y-77737455D01*
X198083572Y-77754677D01*
X197977320Y-77756313D01*
X197858391Y-77742335D01*
X197825540Y-77736412D01*
X197714955Y-77705233D01*
X197628441Y-77658854D01*
X197566947Y-77598065D01*
X197531422Y-77523656D01*
X197524075Y-77485186D01*
X197528884Y-77407137D01*
X197559934Y-77338083D01*
X197614394Y-77279371D01*
X197689436Y-77232347D01*
X197782230Y-77198357D01*
X197889948Y-77178746D01*
X198009759Y-77174859D01*
X198138835Y-77188044D01*
X198146123Y-77189288D01*
X198197462Y-77198850D01*
X198225928Y-77208086D01*
X198238266Y-77221791D01*
X198241222Y-77244758D01*
X198241289Y-77256921D01*
X198241289Y-77307981D01*
X198150123Y-77307981D01*
X198069618Y-77313496D01*
X198014679Y-77331070D01*
X197982714Y-77362247D01*
X197971128Y-77408570D01*
X197970987Y-77414616D01*
X197977765Y-77454211D01*
X198001009Y-77482483D01*
X198044270Y-77501193D01*
X198111099Y-77512100D01*
X198175830Y-77516110D01*
X198269913Y-77518411D01*
X198338156Y-77514900D01*
X198384699Y-77501945D01*
X198413682Y-77475914D01*
X198429245Y-77433173D01*
X198435529Y-77370090D01*
X198436674Y-77287236D01*
X198434798Y-77194754D01*
X198429154Y-77131846D01*
X198419718Y-77098261D01*
X198417887Y-77095631D01*
X198366075Y-77053666D01*
X198290110Y-77020432D01*
X198194808Y-76996641D01*
X198084984Y-76983001D01*
X197965454Y-76980222D01*
X197841034Y-76989015D01*
X197767857Y-76999815D01*
X197653080Y-77032302D01*
X197546404Y-77085414D01*
X197457089Y-77154345D01*
X197443514Y-77168122D01*
X197399408Y-77226042D01*
X197359611Y-77297824D01*
X197328773Y-77373081D01*
X197311543Y-77441423D01*
X197309466Y-77467671D01*
X197318307Y-77522423D01*
X197341805Y-77590545D01*
X197375451Y-77662250D01*
X197414736Y-77727751D01*
X197449445Y-77771502D01*
X197530597Y-77836581D01*
X197635502Y-77888379D01*
X197760400Y-77925726D01*
X197901533Y-77947447D01*
X198030875Y-77952755D01*
X198139938Y-77946888D01*
G36*
X196843537Y-77924194D02*
X196852299Y-77914112D01*
X196859172Y-77901105D01*
X196864385Y-77881689D01*
X196868166Y-77852380D01*
X196870744Y-77809693D01*
X196872347Y-77750145D01*
X196873205Y-77670250D01*
X196873544Y-77566524D01*
X196873597Y-77465792D01*
X196873504Y-77340848D01*
X196873073Y-77242479D01*
X196872077Y-77167199D01*
X196870285Y-77111526D01*
X196867471Y-77071974D01*
X196863404Y-77045059D01*
X196857858Y-77027297D01*
X196850603Y-77015203D01*
X196843537Y-77007390D01*
X196799598Y-76981188D01*
X196752780Y-76983539D01*
X196710891Y-77012116D01*
X196701266Y-77023273D01*
X196693745Y-77036217D01*
X196688066Y-77054528D01*
X196683973Y-77081782D01*
X196681205Y-77121560D01*
X196679504Y-77177438D01*
X196678611Y-77252996D01*
X196678267Y-77351812D01*
X196678212Y-77463686D01*
X196678212Y-77880472D01*
X196715103Y-77917363D01*
X196760575Y-77948400D01*
X196804684Y-77949519D01*
X196843537Y-77924194D01*
X196843537Y-77924194D01*
G37*
X196843537Y-77924194D02*
X196852299Y-77914112D01*
X196859172Y-77901105D01*
X196864385Y-77881689D01*
X196868166Y-77852380D01*
X196870744Y-77809693D01*
X196872347Y-77750145D01*
X196873205Y-77670250D01*
X196873544Y-77566524D01*
X196873597Y-77465792D01*
X196873504Y-77340848D01*
X196873073Y-77242479D01*
X196872077Y-77167199D01*
X196870285Y-77111526D01*
X196867471Y-77071974D01*
X196863404Y-77045059D01*
X196857858Y-77027297D01*
X196850603Y-77015203D01*
X196843537Y-77007390D01*
X196799598Y-76981188D01*
X196752780Y-76983539D01*
X196710891Y-77012116D01*
X196701266Y-77023273D01*
X196693745Y-77036217D01*
X196688066Y-77054528D01*
X196683973Y-77081782D01*
X196681205Y-77121560D01*
X196679504Y-77177438D01*
X196678611Y-77252996D01*
X196678267Y-77351812D01*
X196678212Y-77463686D01*
X196678212Y-77880472D01*
X196715103Y-77917363D01*
X196760575Y-77948400D01*
X196804684Y-77949519D01*
X196843537Y-77924194D01*
G36*
X195821212Y-77952543D02*
X195920817Y-77945580D01*
X196013456Y-77934705D01*
X196093742Y-77920326D01*
X196156292Y-77902854D01*
X196195719Y-77882698D01*
X196201771Y-77876765D01*
X196222816Y-77830725D01*
X196216434Y-77783460D01*
X196183793Y-77743022D01*
X196182236Y-77741863D01*
X196163037Y-77729403D01*
X196142995Y-77722851D01*
X196115040Y-77722056D01*
X196072101Y-77726864D01*
X196007109Y-77737125D01*
X196001881Y-77737989D01*
X195905039Y-77749886D01*
X195800556Y-77755755D01*
X195695765Y-77755812D01*
X195597998Y-77750273D01*
X195514588Y-77739355D01*
X195452867Y-77723275D01*
X195448812Y-77721659D01*
X195404036Y-77696571D01*
X195388304Y-77671182D01*
X195400620Y-77646213D01*
X195439985Y-77622384D01*
X195505402Y-77600418D01*
X195595874Y-77581034D01*
X195656200Y-77571702D01*
X195781600Y-77553751D01*
X195881335Y-77537341D01*
X195959654Y-77521052D01*
X196020807Y-77503462D01*
X196069041Y-77483151D01*
X196108605Y-77458697D01*
X196143748Y-77428680D01*
X196171989Y-77399204D01*
X196205492Y-77358133D01*
X196221981Y-77322818D01*
X196227137Y-77279307D01*
X196227324Y-77263372D01*
X196223452Y-77210495D01*
X196207973Y-77171157D01*
X196181185Y-77136240D01*
X196126741Y-77082866D01*
X196066030Y-77042162D01*
X195994542Y-77012800D01*
X195907764Y-76993453D01*
X195801186Y-76982794D01*
X195670297Y-76979495D01*
X195648685Y-76979551D01*
X195561402Y-76981360D01*
X195474841Y-76985471D01*
X195398438Y-76991294D01*
X195341630Y-76998239D01*
X195337036Y-76999036D01*
X195280555Y-77012416D01*
X195232648Y-77029318D01*
X195205527Y-77044769D01*
X195180289Y-77085534D01*
X195178531Y-77133002D01*
X195200288Y-77175305D01*
X195205156Y-77180088D01*
X195225278Y-77194301D01*
X195250442Y-77200424D01*
X195289387Y-77199382D01*
X195336665Y-77193966D01*
X195389495Y-77189127D01*
X195463552Y-77185045D01*
X195550009Y-77182082D01*
X195640037Y-77180603D01*
X195663715Y-77180506D01*
X195754078Y-77180870D01*
X195820211Y-77182624D01*
X195867933Y-77186377D01*
X195903062Y-77192737D01*
X195931418Y-77202313D01*
X195948459Y-77210289D01*
X195985904Y-77232435D01*
X196009779Y-77252492D01*
X196013268Y-77258177D01*
X196005907Y-77281655D01*
X195970913Y-77304383D01*
X195910712Y-77325330D01*
X195827729Y-77343464D01*
X195803280Y-77347503D01*
X195675578Y-77367561D01*
X195573660Y-77384326D01*
X195493594Y-77399017D01*
X195431446Y-77412852D01*
X195383282Y-77427049D01*
X195345168Y-77442827D01*
X195313170Y-77461404D01*
X195283356Y-77483998D01*
X195251790Y-77511827D01*
X195241168Y-77521584D01*
X195203927Y-77557998D01*
X195184213Y-77586848D01*
X195176501Y-77619862D01*
X195175253Y-77661465D01*
X195188985Y-77743049D01*
X195230022Y-77812366D01*
X195298130Y-77869192D01*
X195393073Y-77913303D01*
X195460816Y-77933088D01*
X195534441Y-77945867D01*
X195622639Y-77953096D01*
X195720024Y-77955185D01*
X195821212Y-77952543D01*
X195821212Y-77952543D01*
G37*
X195821212Y-77952543D02*
X195920817Y-77945580D01*
X196013456Y-77934705D01*
X196093742Y-77920326D01*
X196156292Y-77902854D01*
X196195719Y-77882698D01*
X196201771Y-77876765D01*
X196222816Y-77830725D01*
X196216434Y-77783460D01*
X196183793Y-77743022D01*
X196182236Y-77741863D01*
X196163037Y-77729403D01*
X196142995Y-77722851D01*
X196115040Y-77722056D01*
X196072101Y-77726864D01*
X196007109Y-77737125D01*
X196001881Y-77737989D01*
X195905039Y-77749886D01*
X195800556Y-77755755D01*
X195695765Y-77755812D01*
X195597998Y-77750273D01*
X195514588Y-77739355D01*
X195452867Y-77723275D01*
X195448812Y-77721659D01*
X195404036Y-77696571D01*
X195388304Y-77671182D01*
X195400620Y-77646213D01*
X195439985Y-77622384D01*
X195505402Y-77600418D01*
X195595874Y-77581034D01*
X195656200Y-77571702D01*
X195781600Y-77553751D01*
X195881335Y-77537341D01*
X195959654Y-77521052D01*
X196020807Y-77503462D01*
X196069041Y-77483151D01*
X196108605Y-77458697D01*
X196143748Y-77428680D01*
X196171989Y-77399204D01*
X196205492Y-77358133D01*
X196221981Y-77322818D01*
X196227137Y-77279307D01*
X196227324Y-77263372D01*
X196223452Y-77210495D01*
X196207973Y-77171157D01*
X196181185Y-77136240D01*
X196126741Y-77082866D01*
X196066030Y-77042162D01*
X195994542Y-77012800D01*
X195907764Y-76993453D01*
X195801186Y-76982794D01*
X195670297Y-76979495D01*
X195648685Y-76979551D01*
X195561402Y-76981360D01*
X195474841Y-76985471D01*
X195398438Y-76991294D01*
X195341630Y-76998239D01*
X195337036Y-76999036D01*
X195280555Y-77012416D01*
X195232648Y-77029318D01*
X195205527Y-77044769D01*
X195180289Y-77085534D01*
X195178531Y-77133002D01*
X195200288Y-77175305D01*
X195205156Y-77180088D01*
X195225278Y-77194301D01*
X195250442Y-77200424D01*
X195289387Y-77199382D01*
X195336665Y-77193966D01*
X195389495Y-77189127D01*
X195463552Y-77185045D01*
X195550009Y-77182082D01*
X195640037Y-77180603D01*
X195663715Y-77180506D01*
X195754078Y-77180870D01*
X195820211Y-77182624D01*
X195867933Y-77186377D01*
X195903062Y-77192737D01*
X195931418Y-77202313D01*
X195948459Y-77210289D01*
X195985904Y-77232435D01*
X196009779Y-77252492D01*
X196013268Y-77258177D01*
X196005907Y-77281655D01*
X195970913Y-77304383D01*
X195910712Y-77325330D01*
X195827729Y-77343464D01*
X195803280Y-77347503D01*
X195675578Y-77367561D01*
X195573660Y-77384326D01*
X195493594Y-77399017D01*
X195431446Y-77412852D01*
X195383282Y-77427049D01*
X195345168Y-77442827D01*
X195313170Y-77461404D01*
X195283356Y-77483998D01*
X195251790Y-77511827D01*
X195241168Y-77521584D01*
X195203927Y-77557998D01*
X195184213Y-77586848D01*
X195176501Y-77619862D01*
X195175253Y-77661465D01*
X195188985Y-77743049D01*
X195230022Y-77812366D01*
X195298130Y-77869192D01*
X195393073Y-77913303D01*
X195460816Y-77933088D01*
X195534441Y-77945867D01*
X195622639Y-77953096D01*
X195720024Y-77955185D01*
X195821212Y-77952543D01*
G36*
X194461770Y-77954148D02*
X194554178Y-77953652D01*
X194623927Y-77952499D01*
X194674717Y-77950420D01*
X194710249Y-77947149D01*
X194734222Y-77942417D01*
X194750336Y-77935957D01*
X194762291Y-77927501D01*
X194766621Y-77923609D01*
X194792949Y-77882260D01*
X194797689Y-77834748D01*
X194780370Y-77792569D01*
X194772361Y-77784044D01*
X194759408Y-77775779D01*
X194738552Y-77769403D01*
X194705924Y-77764605D01*
X194657658Y-77761076D01*
X194589886Y-77758506D01*
X194498740Y-77756583D01*
X194415409Y-77755413D01*
X194085608Y-77751354D01*
X194076594Y-77578514D01*
X194300458Y-77578514D01*
X194397646Y-77577675D01*
X194468797Y-77574168D01*
X194517909Y-77566505D01*
X194548983Y-77553197D01*
X194566016Y-77532759D01*
X194573008Y-77503701D01*
X194574070Y-77476733D01*
X194570770Y-77443643D01*
X194558317Y-77419260D01*
X194532880Y-77402311D01*
X194490629Y-77391521D01*
X194427734Y-77385616D01*
X194340365Y-77383323D01*
X194292679Y-77383129D01*
X194078094Y-77383129D01*
X194078094Y-77172715D01*
X194408745Y-77172715D01*
X194517130Y-77172564D01*
X194599503Y-77171886D01*
X194659911Y-77170344D01*
X194702401Y-77167601D01*
X194731019Y-77163319D01*
X194749812Y-77157161D01*
X194762826Y-77148791D01*
X194769455Y-77142656D01*
X194792193Y-77106851D01*
X194799514Y-77075023D01*
X194789061Y-77036146D01*
X194769455Y-77007390D01*
X194758995Y-76998337D01*
X194745492Y-76991307D01*
X194725314Y-76986046D01*
X194694829Y-76982299D01*
X194650405Y-76979810D01*
X194588409Y-76978325D01*
X194505209Y-76977589D01*
X194397173Y-76977346D01*
X194341111Y-76977330D01*
X194221056Y-76977437D01*
X194127426Y-76977925D01*
X194056591Y-76979051D01*
X194004919Y-76981069D01*
X193968777Y-76984234D01*
X193944532Y-76988801D01*
X193928553Y-76995024D01*
X193917207Y-77003160D01*
X193912768Y-77007390D01*
X193903983Y-77017504D01*
X193897096Y-77030552D01*
X193891879Y-77050030D01*
X193888101Y-77079436D01*
X193885530Y-77122266D01*
X193883936Y-77182016D01*
X193883089Y-77262183D01*
X193882758Y-77366263D01*
X193882709Y-77463172D01*
X193882754Y-77587277D01*
X193883066Y-77684834D01*
X193883912Y-77759354D01*
X193885558Y-77814349D01*
X193888271Y-77853330D01*
X193892317Y-77879807D01*
X193897963Y-77897294D01*
X193905474Y-77909300D01*
X193915118Y-77919337D01*
X193917494Y-77921574D01*
X193929025Y-77931481D01*
X193942422Y-77939152D01*
X193961404Y-77944874D01*
X193989685Y-77948932D01*
X194030982Y-77951612D01*
X194089012Y-77953198D01*
X194167491Y-77953976D01*
X194270134Y-77954232D01*
X194343004Y-77954254D01*
X194461770Y-77954148D01*
X194461770Y-77954148D01*
G37*
X194461770Y-77954148D02*
X194554178Y-77953652D01*
X194623927Y-77952499D01*
X194674717Y-77950420D01*
X194710249Y-77947149D01*
X194734222Y-77942417D01*
X194750336Y-77935957D01*
X194762291Y-77927501D01*
X194766621Y-77923609D01*
X194792949Y-77882260D01*
X194797689Y-77834748D01*
X194780370Y-77792569D01*
X194772361Y-77784044D01*
X194759408Y-77775779D01*
X194738552Y-77769403D01*
X194705924Y-77764605D01*
X194657658Y-77761076D01*
X194589886Y-77758506D01*
X194498740Y-77756583D01*
X194415409Y-77755413D01*
X194085608Y-77751354D01*
X194076594Y-77578514D01*
X194300458Y-77578514D01*
X194397646Y-77577675D01*
X194468797Y-77574168D01*
X194517909Y-77566505D01*
X194548983Y-77553197D01*
X194566016Y-77532759D01*
X194573008Y-77503701D01*
X194574070Y-77476733D01*
X194570770Y-77443643D01*
X194558317Y-77419260D01*
X194532880Y-77402311D01*
X194490629Y-77391521D01*
X194427734Y-77385616D01*
X194340365Y-77383323D01*
X194292679Y-77383129D01*
X194078094Y-77383129D01*
X194078094Y-77172715D01*
X194408745Y-77172715D01*
X194517130Y-77172564D01*
X194599503Y-77171886D01*
X194659911Y-77170344D01*
X194702401Y-77167601D01*
X194731019Y-77163319D01*
X194749812Y-77157161D01*
X194762826Y-77148791D01*
X194769455Y-77142656D01*
X194792193Y-77106851D01*
X194799514Y-77075023D01*
X194789061Y-77036146D01*
X194769455Y-77007390D01*
X194758995Y-76998337D01*
X194745492Y-76991307D01*
X194725314Y-76986046D01*
X194694829Y-76982299D01*
X194650405Y-76979810D01*
X194588409Y-76978325D01*
X194505209Y-76977589D01*
X194397173Y-76977346D01*
X194341111Y-76977330D01*
X194221056Y-76977437D01*
X194127426Y-76977925D01*
X194056591Y-76979051D01*
X194004919Y-76981069D01*
X193968777Y-76984234D01*
X193944532Y-76988801D01*
X193928553Y-76995024D01*
X193917207Y-77003160D01*
X193912768Y-77007390D01*
X193903983Y-77017504D01*
X193897096Y-77030552D01*
X193891879Y-77050030D01*
X193888101Y-77079436D01*
X193885530Y-77122266D01*
X193883936Y-77182016D01*
X193883089Y-77262183D01*
X193882758Y-77366263D01*
X193882709Y-77463172D01*
X193882754Y-77587277D01*
X193883066Y-77684834D01*
X193883912Y-77759354D01*
X193885558Y-77814349D01*
X193888271Y-77853330D01*
X193892317Y-77879807D01*
X193897963Y-77897294D01*
X193905474Y-77909300D01*
X193915118Y-77919337D01*
X193917494Y-77921574D01*
X193929025Y-77931481D01*
X193942422Y-77939152D01*
X193961404Y-77944874D01*
X193989685Y-77948932D01*
X194030982Y-77951612D01*
X194089012Y-77953198D01*
X194167491Y-77953976D01*
X194270134Y-77954232D01*
X194343004Y-77954254D01*
X194461770Y-77954148D01*
G36*
X192586446Y-77954255D02*
X192639011Y-77953720D01*
X192793035Y-77950004D01*
X192922029Y-77938965D01*
X193030391Y-77919418D01*
X193122516Y-77890181D01*
X193202801Y-77850067D01*
X193275642Y-77797895D01*
X193301659Y-77775231D01*
X193344817Y-77722202D01*
X193383733Y-77650243D01*
X193413727Y-77570480D01*
X193430119Y-77494039D01*
X193431822Y-77465792D01*
X193421149Y-77387490D01*
X193392547Y-77301959D01*
X193351143Y-77221001D01*
X193302059Y-77156418D01*
X193294087Y-77148626D01*
X193226554Y-77093856D01*
X193152602Y-77051101D01*
X193067966Y-77019241D01*
X192968383Y-76997156D01*
X192849588Y-76983726D01*
X192707320Y-76977830D01*
X192642154Y-76977330D01*
X192559299Y-76977729D01*
X192501031Y-76979398D01*
X192461884Y-76983042D01*
X192436391Y-76989371D01*
X192419086Y-76999090D01*
X192409810Y-77007390D01*
X192401048Y-77017472D01*
X192394175Y-77030479D01*
X192388962Y-77049895D01*
X192385181Y-77079204D01*
X192382603Y-77121891D01*
X192381000Y-77181439D01*
X192380143Y-77261334D01*
X192379803Y-77365059D01*
X192379751Y-77465792D01*
X192379420Y-77600145D01*
X192379492Y-77707472D01*
X192380770Y-77758869D01*
X192575135Y-77758869D01*
X192575135Y-77172715D01*
X192699129Y-77172829D01*
X192773739Y-77174968D01*
X192851882Y-77180481D01*
X192917080Y-77188192D01*
X192919064Y-77188509D01*
X193024437Y-77213986D01*
X193106168Y-77253664D01*
X193168338Y-77310126D01*
X193207840Y-77371258D01*
X193232180Y-77439071D01*
X193230293Y-77502745D01*
X193202045Y-77570999D01*
X193146792Y-77641608D01*
X193070227Y-77693929D01*
X192970705Y-77728901D01*
X192904193Y-77741278D01*
X192828693Y-77749970D01*
X192748675Y-77756260D01*
X192680616Y-77758876D01*
X192676585Y-77758888D01*
X192575135Y-77758869D01*
X192380770Y-77758869D01*
X192381564Y-77790783D01*
X192387239Y-77853085D01*
X192398113Y-77897389D01*
X192415786Y-77926704D01*
X192441857Y-77944039D01*
X192477925Y-77952403D01*
X192525588Y-77954805D01*
X192586446Y-77954255D01*
X192586446Y-77954255D01*
G37*
X192586446Y-77954255D02*
X192639011Y-77953720D01*
X192793035Y-77950004D01*
X192922029Y-77938965D01*
X193030391Y-77919418D01*
X193122516Y-77890181D01*
X193202801Y-77850067D01*
X193275642Y-77797895D01*
X193301659Y-77775231D01*
X193344817Y-77722202D01*
X193383733Y-77650243D01*
X193413727Y-77570480D01*
X193430119Y-77494039D01*
X193431822Y-77465792D01*
X193421149Y-77387490D01*
X193392547Y-77301959D01*
X193351143Y-77221001D01*
X193302059Y-77156418D01*
X193294087Y-77148626D01*
X193226554Y-77093856D01*
X193152602Y-77051101D01*
X193067966Y-77019241D01*
X192968383Y-76997156D01*
X192849588Y-76983726D01*
X192707320Y-76977830D01*
X192642154Y-76977330D01*
X192559299Y-76977729D01*
X192501031Y-76979398D01*
X192461884Y-76983042D01*
X192436391Y-76989371D01*
X192419086Y-76999090D01*
X192409810Y-77007390D01*
X192401048Y-77017472D01*
X192394175Y-77030479D01*
X192388962Y-77049895D01*
X192385181Y-77079204D01*
X192382603Y-77121891D01*
X192381000Y-77181439D01*
X192380143Y-77261334D01*
X192379803Y-77365059D01*
X192379751Y-77465792D01*
X192379420Y-77600145D01*
X192379492Y-77707472D01*
X192380770Y-77758869D01*
X192575135Y-77758869D01*
X192575135Y-77172715D01*
X192699129Y-77172829D01*
X192773739Y-77174968D01*
X192851882Y-77180481D01*
X192917080Y-77188192D01*
X192919064Y-77188509D01*
X193024437Y-77213986D01*
X193106168Y-77253664D01*
X193168338Y-77310126D01*
X193207840Y-77371258D01*
X193232180Y-77439071D01*
X193230293Y-77502745D01*
X193202045Y-77570999D01*
X193146792Y-77641608D01*
X193070227Y-77693929D01*
X192970705Y-77728901D01*
X192904193Y-77741278D01*
X192828693Y-77749970D01*
X192748675Y-77756260D01*
X192680616Y-77758876D01*
X192676585Y-77758888D01*
X192575135Y-77758869D01*
X192380770Y-77758869D01*
X192381564Y-77790783D01*
X192387239Y-77853085D01*
X192398113Y-77897389D01*
X192415786Y-77926704D01*
X192441857Y-77944039D01*
X192477925Y-77952403D01*
X192525588Y-77954805D01*
X192586446Y-77954255D01*
M02*
