G04 #@! TF.GenerationSoftware,KiCad,Pcbnew,(5.0.0-rc2-dev-158-g52ab6216c)*
G04 #@! TF.CreationDate,2018-03-09T12:59:15-06:00*
G04 #@! TF.ProjectId,Hybrid_bat_measure_18CH_v0.4_Teensy3.5,4879627269645F6261745F6D65617375,rev?*
G04 #@! TF.SameCoordinates,Original*
G04 #@! TF.FileFunction,Soldermask,Bot*
G04 #@! TF.FilePolarity,Negative*
%FSLAX46Y46*%
G04 Gerber Fmt 4.6, Leading zero omitted, Abs format (unit mm)*
G04 Created by KiCad (PCBNEW (5.0.0-rc2-dev-158-g52ab6216c)) date 03/09/18 12:59:15*
%MOMM*%
%LPD*%
G01*
G04 APERTURE LIST*
%ADD10C,2.000000*%
%ADD11R,2.000000X2.000000*%
%ADD12O,2.100000X2.100000*%
%ADD13R,2.100000X2.100000*%
%ADD14R,1.700000X1.700000*%
%ADD15C,1.700000*%
%ADD16C,1.797000*%
%ADD17O,3.900000X3.900000*%
%ADD18R,2.200000X2.200000*%
%ADD19O,2.200000X2.200000*%
%ADD20C,4.400000*%
G04 APERTURE END LIST*
D10*
X54610000Y-106220000D03*
X52070000Y-106220000D03*
X49530000Y-106220000D03*
X46990000Y-106220000D03*
X44450000Y-106220000D03*
X53340000Y-99060000D03*
X55880000Y-99060000D03*
X58420000Y-99060000D03*
X60960000Y-99060000D03*
X76200000Y-99060000D03*
X78740000Y-99060000D03*
X81280000Y-99060000D03*
X86360000Y-99060000D03*
X88900000Y-99060000D03*
X91440000Y-99060000D03*
X93980000Y-99060000D03*
X96520000Y-99060000D03*
X96520000Y-101600000D03*
X93980000Y-101600000D03*
X91440000Y-101600000D03*
X88900000Y-101600000D03*
X86360000Y-101600000D03*
X81280000Y-101600000D03*
X78740000Y-101600000D03*
X76200000Y-101600000D03*
X60960000Y-101600000D03*
X58420000Y-101600000D03*
X55880000Y-101600000D03*
X53340000Y-101600000D03*
X50800000Y-96520000D03*
X48260000Y-96520000D03*
X45720000Y-96520000D03*
X40640000Y-96520000D03*
X38100000Y-93980000D03*
X40640000Y-93980000D03*
X43180000Y-93980000D03*
X45720000Y-93980000D03*
X48260000Y-93980000D03*
X50800000Y-93980000D03*
X53340000Y-93980000D03*
X55880000Y-93980000D03*
X58420000Y-93980000D03*
X60960000Y-93980000D03*
X63500000Y-93980000D03*
X66040000Y-93980000D03*
X68580000Y-93980000D03*
X71120000Y-93980000D03*
X73660000Y-93980000D03*
X76200000Y-93980000D03*
D11*
X38100000Y-109220000D03*
D10*
X40640000Y-109220000D03*
X43180000Y-109220000D03*
X45720000Y-109220000D03*
X48260000Y-109220000D03*
X50800000Y-109220000D03*
X53340000Y-109220000D03*
X55880000Y-109220000D03*
X58420000Y-109220000D03*
X60960000Y-109220000D03*
X63500000Y-109220000D03*
X66040000Y-109220000D03*
X68580000Y-109220000D03*
X78740000Y-93980000D03*
X81280000Y-93980000D03*
X83820000Y-93980000D03*
X86360000Y-93980000D03*
X88900000Y-93980000D03*
X91440000Y-93980000D03*
X93980000Y-93980000D03*
X96520000Y-93980000D03*
X83820000Y-96520000D03*
X83820000Y-99060000D03*
X83820000Y-101600000D03*
X83820000Y-104140000D03*
X83820000Y-106680000D03*
X96520000Y-109220000D03*
X93980000Y-109220000D03*
X91440000Y-109220000D03*
X88900000Y-109220000D03*
X71120000Y-109220000D03*
X73660000Y-109220000D03*
X76200000Y-109220000D03*
X86360000Y-109220000D03*
X83820000Y-109220000D03*
X81280000Y-109220000D03*
X78740000Y-109220000D03*
D12*
X81280000Y-22860000D03*
X78740000Y-22860000D03*
X76200000Y-22860000D03*
X73660000Y-22860000D03*
X71120000Y-22860000D03*
X68580000Y-22860000D03*
X66040000Y-22860000D03*
X63500000Y-22860000D03*
X60960000Y-22860000D03*
X58420000Y-22860000D03*
X55880000Y-22860000D03*
X53340000Y-22860000D03*
X50800000Y-22860000D03*
X48260000Y-22860000D03*
X45720000Y-22860000D03*
X43180000Y-22860000D03*
X40640000Y-22860000D03*
D13*
X38100000Y-22860000D03*
D12*
X170180000Y-22860000D03*
X167640000Y-22860000D03*
X165100000Y-22860000D03*
X162560000Y-22860000D03*
X160020000Y-22860000D03*
X157480000Y-22860000D03*
X154940000Y-22860000D03*
X152400000Y-22860000D03*
X149860000Y-22860000D03*
X147320000Y-22860000D03*
X144780000Y-22860000D03*
X142240000Y-22860000D03*
X139700000Y-22860000D03*
X137160000Y-22860000D03*
X134620000Y-22860000D03*
X132080000Y-22860000D03*
X129540000Y-22860000D03*
D13*
X127000000Y-22860000D03*
D14*
X226060000Y-40640000D03*
D15*
X228600000Y-40640000D03*
X227330000Y-39370000D03*
D14*
X25400000Y-40640000D03*
D15*
X27940000Y-40640000D03*
X26670000Y-39370000D03*
D14*
X36830000Y-40640000D03*
D15*
X39370000Y-40640000D03*
X38100000Y-39370000D03*
D14*
X48260000Y-40640000D03*
D15*
X50800000Y-40640000D03*
X49530000Y-39370000D03*
D14*
X60960000Y-40640000D03*
D15*
X63500000Y-40640000D03*
X62230000Y-39370000D03*
D14*
X72390000Y-40640000D03*
D15*
X74930000Y-40640000D03*
X73660000Y-39370000D03*
D14*
X83820000Y-40640000D03*
D15*
X86360000Y-40640000D03*
X85090000Y-39370000D03*
D14*
X96520000Y-40640000D03*
D15*
X99060000Y-40640000D03*
X97790000Y-39370000D03*
D14*
X107950000Y-40640000D03*
D15*
X110490000Y-40640000D03*
X109220000Y-39370000D03*
D14*
X119380000Y-40640000D03*
D15*
X121920000Y-40640000D03*
X120650000Y-39370000D03*
D14*
X132080000Y-40640000D03*
D15*
X134620000Y-40640000D03*
X133350000Y-39370000D03*
D14*
X143510000Y-40640000D03*
D15*
X146050000Y-40640000D03*
X144780000Y-39370000D03*
D14*
X154940000Y-40640000D03*
D15*
X157480000Y-40640000D03*
X156210000Y-39370000D03*
D14*
X167640000Y-40640000D03*
D15*
X170180000Y-40640000D03*
X168910000Y-39370000D03*
D14*
X179070000Y-40640000D03*
D15*
X181610000Y-40640000D03*
X180340000Y-39370000D03*
D14*
X190500000Y-40640000D03*
D15*
X193040000Y-40640000D03*
X191770000Y-39370000D03*
D14*
X203200000Y-40640000D03*
D15*
X205740000Y-40640000D03*
X204470000Y-39370000D03*
D14*
X214630000Y-40640000D03*
D15*
X217170000Y-40640000D03*
X215900000Y-39370000D03*
D12*
X151130000Y-111760000D03*
X148590000Y-111760000D03*
X146050000Y-111760000D03*
D13*
X143510000Y-111760000D03*
D16*
X188976000Y-97790000D03*
X188976000Y-100330000D03*
X188976000Y-102870000D03*
X188976000Y-105410000D03*
D17*
X155090000Y-97790000D03*
D18*
X138430000Y-95250000D03*
D19*
X138430000Y-97790000D03*
X138430000Y-100330000D03*
D13*
X166370000Y-111760000D03*
D12*
X168910000Y-111760000D03*
X171450000Y-111760000D03*
X173990000Y-111760000D03*
X176530000Y-111760000D03*
X179070000Y-111760000D03*
D20*
X22860000Y-24130000D03*
X226060000Y-24130000D03*
X22860000Y-109220000D03*
X226060000Y-109220000D03*
D13*
X102870000Y-111760000D03*
D12*
X105410000Y-111760000D03*
X107950000Y-111760000D03*
X110490000Y-111760000D03*
X113030000Y-111760000D03*
X115570000Y-111760000D03*
X118110000Y-111760000D03*
X120650000Y-111760000D03*
X123190000Y-111760000D03*
X125730000Y-111760000D03*
M02*
